<svg id="Layer_1" data-name="Layer 1" xmlns="http://www.w3.org/2000/svg" viewBox="0 0 769.29 714.36"><defs><style>.cls-1{fill:#00b9b1;}.cls-2{fill:#b4e2ef;}</style></defs><path class="cls-1" d="M385.88,476.14H607.2A162.09,162.09,0,0,0,607.89,152C573.38,63.05,487,0,385.88,0,278.05,0,187,71.7,157.69,170c-1.52,0-3.05-.07-4.59-.07a153.1,153.1,0,1,0,0,306.19Z"/><path class="cls-2" d="M255.2,506.33a65.79,65.79,0,1,1-131.58,0c0-36.33,65.79-142.24,65.79-142.24S255.2,470,255.2,506.33Z"/><path class="cls-2" d="M645.66,506.33a65.79,65.79,0,1,1-131.57,0c0-36.33,65.78-142.24,65.78-142.24S645.66,470,645.66,506.33Z"/><path class="cls-2" d="M450.43,648.57a65.79,65.79,0,1,1-131.57,0c0-36.33,65.78-142.24,65.78-142.24S450.43,612.24,450.43,648.57Z"/><ellipse class="cls-2" cx="260.99" cy="238.23" rx="29.58" ry="28.26"/><ellipse class="cls-2" cx="508.3" cy="238.23" rx="29.58" ry="28.26"/><path class="cls-2" d="M384.26,298.35c27.35,0,51,10.81,66.36,22.13a9.09,9.09,0,0,1,1.05,14l-.13.13a10.18,10.18,0,0,1-13,.88c-16.12-11.55-59.22-35-108.1.2a10.07,10.07,0,0,1-13.21-1.33l0,0a9.13,9.13,0,0,1,1.51-13.65C341.4,304.36,363.87,298.35,384.26,298.35Z"/></svg>