<svg id="Layer_1" data-name="Layer 1" xmlns="http://www.w3.org/2000/svg" viewBox="0 0 109.07 58.61"><defs><style>.cls-1{fill:#7fcfd2;}.cls-2{fill:#b9e1d7;}.cls-3{fill:#96d7dd;}</style></defs><path class="cls-1" d="M99.14,33.5c-8.38,12-22.8,25.11-45.95,25.11-19.73,0-32.94-11.06-41.26-22.27" transform="translate(0 0)"/><path class="cls-2" d="M11.93,36.34A81.69,81.69,0,0,1,0,13.21S40.41,0,54.71,0c16.51,0,54.36,13.61,54.36,13.61A75.29,75.29,0,0,1,99.14,33.5" transform="translate(0 0)"/><path class="cls-3" d="M54.53,49.44c-14.6.17-29.45-1.13-35.24-4.73,0,0-9.94-8.9-14.62-20.2A157.35,157.35,0,0,1,53.8,14" transform="translate(0 0)"/><path class="cls-3" d="M53.8,14c16.28-.7,34.4,1.53,50.72,10.48,0,0-8.77,15.19-15.15,20.2-3.32,2.62-18.94,4.55-34.84,4.73" transform="translate(0 0)"/></svg>