<svg id="Layer_1" data-name="Layer 1" xmlns="http://www.w3.org/2000/svg" viewBox="0 0 624.27 249.55"><defs><style>.cls-1{fill:#006838;}.cls-2{fill:#efea51;}</style></defs><path class="cls-1" d="M149.86,6.67A118.11,118.11,0,1,0,268,124.78,118.11,118.11,0,0,0,149.86,6.67Zm0,213a94.92,94.92,0,1,1,94.92-94.91A94.91,94.91,0,0,1,149.86,219.69Z"/><path class="cls-1" d="M477.56,6.67A118.11,118.11,0,1,0,595.67,124.78,118.11,118.11,0,0,0,477.56,6.67Zm0,213a94.92,94.92,0,1,1,94.92-94.91A94.91,94.91,0,0,1,477.56,219.69Z"/><path class="cls-1" d="M373.16,82.1s-60.23-27.79-112.77,0c-28.43,16.23,11.54,27.79,11.54,27.79s58.94-17.87,84.57,0S373.16,82.1,373.16,82.1Z"/><path class="cls-1" d="M0,114v34.56s25.34,3.06,39,16.92,1.56-85.46,1.56-85.46S29.77,120.16,0,114Z"/><path class="cls-1" d="M624.27,112.05v34.56s-25.5,3-39.21,16.91-1.57-85.46-1.57-85.46S594.31,118.18,624.27,112.05Z"/><path class="cls-2" d="M537.88,77a18,18,0,0,0,13.9-8.49c5.87-9.56,11.13-26.84-11.13-43.67C507.47-.22,461.46-3.35,431.26,16.1s-40,42.55-21.47,71.73c21.5,33.88,75.16,17.91,101.26,31.73,27.64,14.63,30.5,58.33,13,80.4-15.18,19.13-65.1,27-99.4,2.35-11.5-8.12-21.84-19.31-30-10.32-15.83,17.43,24.81,56,90.21,52.38,77.63-4.25,76.75-69.62,76.36-92.8.08-18.14-6.66-52.48-69.62-60.16-53.12-6.48-78.33-12.7-69.72-35,3.56-9.23,11.29-16.29,20.52-19.87,29.43-11.42,60.73-5.78,81.72,10,6.61,4.95,11.46,10.88,9.19,18.82C530.26,76,532.74,77.44,537.88,77Z"/><path class="cls-2" d="M445.72,7.57V240.84c0,10.08,15.67,10.1,15.67,0V7.57c0-10.08-15.67-10.1-15.67,0Z"/><path class="cls-2" d="M493.29,8.72V242c0,10.09,15.67,10.1,15.67,0V8.72c0-10.09-15.67-10.11-15.67,0Z"/><path class="cls-2" d="M207.56,77a18,18,0,0,0,13.9-8.49c5.87-9.56,11.13-26.84-11.13-43.67C177.15-.22,131.14-3.35,100.94,16.1S61,58.65,79.47,87.83c21.5,33.88,75.16,17.91,101.26,31.73,27.64,14.63,30.5,58.33,13,80.4-15.18,19.13-65,25-98.18,1.5-11.27-8-21.3-16-26.19-10.11-15.43,18.52,23,55.11,88.37,51.53,77.62-4.25,73.56-68.13,73.17-91.31.08-18.14-6.66-52.48-69.62-60.16-53.12-6.48-78.33-12.7-69.72-35,3.56-9.23,14.61-15,23.84-18.57,29.43-11.41,59.56-9.72,80.55,6a19.92,19.92,0,0,1,7,21.47C199.94,76,202.42,77.44,207.56,77Z"/><path class="cls-2" d="M115.4,7.57V240.84c0,10.08,15.67,10.1,15.67,0V7.57c0-10.08-15.67-10.1-15.67,0Z"/><path class="cls-2" d="M163,8.72V242c0,10.09,15.67,10.1,15.67,0V8.72c0-10.09-15.67-10.11-15.67,0Z"/></svg>