<svg id="Layer_1" data-name="Layer 1" xmlns="http://www.w3.org/2000/svg" viewBox="0 0 184.67 130.23"><defs><style>.cls-1{fill:#fced00;}.cls-2{fill:#ffd800;}.cls-3{fill:#00bbc2;}</style></defs><g id="LGREFS"><path class="cls-1" d="M168.28,51.71a1.31,1.31,0,0,1,.12.27c1,2.55,2,5.07,2.87,7.66a82.56,82.56,0,0,1,3.82,35.74c-.14,1.31-.28,2.61-.52,3.9-.18.91.12,1.1,1,1.08,2.67,0,5.33,0,8,0,.84,0,1.14.23,1.11,1.11-.07,2.33,0,4.67-.07,7a3.46,3.46,0,0,0-1.93-.24H.08c0-2.34,0-4.67-.06-7,0-.73.3-.88,1-.87,2.7,0,5.41,0,8.12,0,.85,0,1.15-.16,1-1.08a81,81,0,0,1-.4-23.52A81.86,81.86,0,0,1,20.15,44.67a83.53,83.53,0,0,1,17-20.75,6.41,6.41,0,0,1,.58-.45c.5,1.66.9,3.35,1.55,5a38.66,38.66,0,0,1,1.34,3.88C42,37.24,43.79,42.09,45.24,47c1.29,4.42,2.83,8.77,4.27,13.14s2.9,8.77,4.34,13.16c.86,2.64,1.7,5.28,2.56,7.92s1.77,5.43,2.66,8.14a70.37,70.37,0,0,1,2.21,7c.74,3.56,1.08,4,4.67,3.94h.13c1.06.15,1.29-.45,1.11-1.55a46.54,46.54,0,0,1-.43-6.36c-.07-3.31-.39-6.61-.48-9.91Q66.05,73.72,65.5,65c-.19-3.1-.23-6.2-.44-9.29-.36-5.42-.53-10.85-.78-16.28-.07-1.55-.09-3.1-.19-4.65-.36-5.63-.55-11.26-.79-16.9-.1-2.24-.09-4.5-.3-6.73a5.31,5.31,0,0,0-.47-2.6c.41-.35.28-.83.26-1.27-.07-1.84-.14-3.68-.26-5.52-.05-.77.16-1,1-1.09,15.63-.7,31.27-.79,46.92-.4,3.64.1,7.28.28,10.92.42a1.16,1.16,0,0,1,.81.21,71,71,0,0,0-.24,7.58c-.13,1.75-.24,3.51-.37,5.25-.15,2.21,0,4.43-.24,6.62-.53,5.16-.52,10.35-.88,15.53-.25,3.74-.32,7.5-.49,11.26-.23,5.39-.49,10.77-.81,16.15-.18,3.14-.32,6.29-.42,9.42-.19,6.3-.66,12.57-.78,18.87,0,1.15-.25,2.27-.27,3.42a21.55,21.55,0,0,1-.18,3.67c-.1.53-.46,1.37.49,1.66,1.43.41,4.08,0,4.31-.7q.87-2.52,1.7-5.06c.81-2.48,1.59-5,2.4-7.43,1.28-3.92,2.58-7.82,3.84-11.74,1.14-3.49,2.21-7,3.36-10.49,1.71-5.2,3.41-10.39,5-15.62,1.31-4.18,2.72-8.33,4.06-12.5,1.41-4.43,3-8.8,4.29-13.27a80.19,80.19,0,0,1,16.14,18.84c1.63,2.59,3.06,5.29,4.44,8Z" transform="translate(0)"/><path class="cls-2" d="M.08,108.2H182.66a3.46,3.46,0,0,1,1.93.24c0,1.27,0,2.55.07,3.81.07.91-.3,1.27-1.12,1.57a275.75,275.75,0,0,1-27.41,8.5A261.84,261.84,0,0,1,126,128.06a260.46,260.46,0,0,1-42.43,2A261.09,261.09,0,0,1,5.64,115.42L.2,113.49A25.3,25.3,0,0,1,.08,108.2Z" transform="translate(0)"/><path class="cls-2" d="M147,23.48c-1.29,4.47-2.88,8.84-4.29,13.27-1.32,4.11-2.71,8.19-4,12.31-1.57,5-3.17,10-4.84,15-1.25,3.75-2.4,7.54-3.62,11.3-1.26,3.92-2.56,7.82-3.84,11.74-.81,2.47-1.59,5-2.4,7.43q-.82,2.53-1.7,5.06c-.23.68-2.88,1.11-4.31.7-.95-.29-.59-1.13-.49-1.66a21.55,21.55,0,0,0,.18-3.67c0-1.15.25-2.27.27-3.42.12-6.3.59-12.57.78-18.87.1-3.13.24-6.28.42-9.42.32-5.38.58-10.76.81-16.15.17-3.76.24-7.52.49-11.26.36-5.18.35-10.37.88-15.53.23-2.19.09-4.41.24-6.62.13-1.74.24-3.5.37-5.25,2.12.6,4,1.72,6.09,2.46A87.11,87.11,0,0,1,144.5,21.3,14.3,14.3,0,0,1,147,23.48Z" transform="translate(0)"/><path class="cls-2" d="M62.53,8.51a5.31,5.31,0,0,1,.47,2.6c.21,2.23.2,4.49.3,6.73.24,5.64.43,11.27.79,16.9.1,1.55.12,3.1.19,4.65.25,5.43.42,10.86.78,16.28.21,3.1.25,6.2.44,9.3.38,6,.6,12.08.8,18.12.11,3.22.42,6.44.47,9.67,0,2.11.29,4.23.47,6.34.07.88-.22,1.34-1.16,1.21H66c-3.59,0-3.93-.38-4.67-3.94a70.37,70.37,0,0,0-2.21-7c-.89-2.71-1.78-5.43-2.66-8.14s-1.7-5.28-2.56-7.92q-2.16-6.59-4.34-13.16c-1.44-4.37-3-8.72-4.27-13.14C44.25,43.65,43.1,40.31,42,37c-1-3-1.88-6.08-3-9.06-.54-1.45-.91-2.95-1.35-4.43a60.5,60.5,0,0,1,8.63-6.66A74.06,74.06,0,0,1,62.53,8.51Z" transform="translate(0)"/><path class="cls-3" d="M167.88,50.85" transform="translate(0)"/></g></svg>