<svg id="Layer_1" data-name="Layer 1" xmlns="http://www.w3.org/2000/svg" xmlns:xlink="http://www.w3.org/1999/xlink" viewBox="0 0 133.82 95.48"><defs><style>.cls-1{fill:none;}.cls-2{clip-path:url(#clip-path);}.cls-3{clip-path:url(#clip-path-3);}.cls-4{fill:#00b9b2;}.cls-5{opacity:0.38;}.cls-6{clip-path:url(#clip-path-4);}.cls-7{clip-path:url(#clip-path-5);}.cls-8{clip-path:url(#clip-path-6);}.cls-9{clip-path:url(#clip-path-7);}</style><clipPath id="clip-path" transform="translate(0 0)"><rect class="cls-1" width="133.82" height="95.48"/></clipPath><clipPath id="clip-path-3" transform="translate(0 0)"><rect class="cls-1" width="133.82" height="95.47"/></clipPath><clipPath id="clip-path-4" transform="translate(0 0)"><rect class="cls-1" x="10.31" y="45.51" width="46.05" height="45.98"/></clipPath><clipPath id="clip-path-5" transform="translate(0 0)"><rect class="cls-1" x="10.31" y="45.51" width="46.05" height="45.98"/></clipPath><clipPath id="clip-path-6" transform="translate(0 0)"><rect class="cls-1" x="75.64" y="45.51" width="46.03" height="45.98"/></clipPath><clipPath id="clip-path-7" transform="translate(0 0)"><rect class="cls-1" x="75.64" y="45.51" width="46.03" height="45.98"/></clipPath></defs><g id="Cannabis_-_H" data-name="Cannabis - H"><g class="cls-2"><g class="cls-2"><g class="cls-3"><path class="cls-4" d="M131.49,71.73c-2.51-.33-4.06,1.14-5.29,2.92a55.21,55.21,0,0,0-3.41,5.81c-4.19,8.07-10.7,13.2-19.67,14.61-10.91,1.71-19.77-2.11-26.4-11A36.06,36.06,0,0,1,70.79,71a15.93,15.93,0,0,0-1-2.85A3.84,3.84,0,0,0,66,65.94a3.72,3.72,0,0,0-3.73,2.21,33.94,33.94,0,0,0-1.55,4.59,32.53,32.53,0,0,1-8.66,15.12,25.61,25.61,0,0,1-21.22,7.47c-9.83-1-17-6.1-21.59-14.8a60.25,60.25,0,0,0-3.66-6.14c-1.17-1.68-2.71-3-5.09-2.64C.36,69.93.33,68.17.06,66.44a2.74,2.74,0,0,1,1.57-3.16c3.19-2,5.49-5,7.84-7.83s4.74-5.93,7.82-8.23c11.18-8.4,27.55-6.59,36.39,4.07.94,1.14,1.68,2.44,2.58,3.62.78,1,1.63,2,2.5,3a3.59,3.59,0,0,0,2.62,1.24c3.11,0,6.22.08,9.32-.05a3.86,3.86,0,0,0,2.38-1.11,37.09,37.09,0,0,0,3.66-4.54A25.12,25.12,0,0,1,92.91,42.58c10.55-2.14,19.42,1,26.5,9.13,2,2.27,3.86,4.66,5.83,6.95a25.22,25.22,0,0,0,6.35,5.47.85.85,0,0,1,.42.59c-.15,2.32-.33,4.64-.52,7M56.36,68.47a23,23,0,1,0-23,23,23.06,23.06,0,0,0,23-23m19.28-.06a23,23,0,1,0,23.48-22.9,23.07,23.07,0,0,0-23.48,22.9" transform="translate(0 0)"/><g class="cls-5"><g class="cls-6"><g class="cls-7"><path class="cls-4" d="M56.36,68.47A23,23,0,1,1,33.25,45.52,23.08,23.08,0,0,1,56.36,68.47" transform="translate(0 0)"/></g></g></g><g class="cls-5"><g class="cls-8"><g class="cls-9"><path class="cls-4" d="M75.64,68.41A23,23,0,1,1,98.54,91.5a23,23,0,0,1-22.9-23.09" transform="translate(0 0)"/></g></g></g><path class="cls-4" d="M76.39,63a29.5,29.5,0,0,1,14.88-6.38A41.34,41.34,0,0,1,67.4,43.05a44.54,44.54,0,0,1,18.28,3.12c-8-9.49-11.86-20.2-13.14-32.33,9.38,6.1,16.69,13.63,21.75,23.38a59.6,59.6,0,0,1,.4-18.9A67.85,67.85,0,0,1,100.75,0c5.66,12,8.19,24.23,6.42,37.27,5-9.8,12.35-17.33,21.76-23.44-1.33,12.1-5.21,22.79-12.82,32,2.9-.71,5.76-1.58,8.69-2.08a65.84,65.84,0,0,1,9-.73A37.21,37.21,0,0,1,123.2,51.9a40.44,40.44,0,0,1-12.85,4.54A77.52,77.52,0,0,1,118,58.79a79.62,79.62,0,0,1,7.27,3.94c-5.56,1.45-14.07,1.41-22.65-4.26.37,3,.71,5.87,1.06,8.74.16,1.29.41,2.58.49,3.88a2.06,2.06,0,0,1-2.2,2.42c-4.28.3-4.84-.25-4.36-4.38.41-3.5.84-7,1.3-10.81A28.8,28.8,0,0,1,76.39,63" transform="translate(0 0)"/><path class="cls-4" d="M9.12,63A29.5,29.5,0,0,1,24,56.59,41.34,41.34,0,0,1,.13,43.05a44.54,44.54,0,0,1,18.28,3.12C10.46,36.68,6.55,26,5.27,13.84,14.65,19.94,22,27.47,27,37.22a59.6,59.6,0,0,1,.4-18.9A67.51,67.51,0,0,1,33.48,0c5.66,12,8.19,24.23,6.42,37.27,5-9.8,12.35-17.33,21.75-23.44-1.31,12.1-5.2,22.79-12.81,32,2.9-.71,5.76-1.58,8.69-2.08a65.84,65.84,0,0,1,9-.73A37.21,37.21,0,0,1,55.93,51.9a40.44,40.44,0,0,1-12.85,4.54,77.52,77.52,0,0,1,7.63,2.35A79.62,79.62,0,0,1,58,62.73c-5.56,1.45-14.07,1.41-22.65-4.26.37,3,.71,5.87,1.06,8.74.16,1.29.41,2.58.48,3.88a2.05,2.05,0,0,1-2.19,2.42c-4.28.3-4.83-.25-4.36-4.38.41-3.5.84-7,1.3-10.81A28.8,28.8,0,0,1,9.12,63" transform="translate(0 0)"/></g></g></g></g></svg>