<svg id="Layer_1" data-name="Layer 1" xmlns="http://www.w3.org/2000/svg" viewBox="0 0 634.07 377.23"><defs><style>.cls-1{fill:#00b9b1;}.cls-2{fill:#eee;}.cls-3{fill:#fff;}</style></defs><path class="cls-1" d="M633.84,62.39c-13.7-47.89-89.64-34-127.88-33.1-34.43,3.56-69.09,7.25-103.08,13C382.05,45.68,361.75,51.31,341,55c-6,2.7-12.4,3.9-18.77,5.26-6.95,4.37-14.47-2.29-21.41-3.89C223.07,31,144.11,0,61.24,0,47.42.48,34,2.86,21.12,8.12,7.74,14.6,1.3,25.67,0,40.12-.12,65,20.66,75.89,41.43,82.2c39.19,9,79.84,7.75,119.79,6.2,37.36-.69,74.87-3.27,111.75-9,35.62-3.25,30-16.09,25.74,20.19-.36,2.93-1.59,4-4.76,4a293.54,293.54,0,0,0-92.66,12.71C115.39,145.05,41.85,210.4,19,300.05c-1.07,8.07-12.8,65.63,2,57a123.49,123.49,0,0,1,20-14.53C55.27,333.36,70.83,326.1,86.53,320l.12-.34C142,297.81,202.07,294.41,261,295.55c97.27,1.38,194.81,23.94,280.21,71.3,7,1.93,30.53,19.74,28.13,3.8-.19-23.53.51-47.21-4.34-70.35-18.3-103-102.33-175.16-204-190.33-10-1.64-20.07-2.93-30.12-3.92-4.15-.79-.76-4-1.55-5.94l1.95-19.81c-.7-3.64.32-5.11,4.3-4C388.35,90.86,642.88,162.52,633.84,62.39ZM302.55,124.13c-41.17,39-50,100.2-48.28,154.36.17,2.81-.82,3.36-3.33,3.33-59.33,1.31-119.54,10.26-175.16,31.5-3.32,1.31-4.64,1.55-3.71-3,1.28-6.31,1.54-12.83,2.24-19.25A171.87,171.87,0,0,1,91.76,235.9c39.6-81.37,128.68-130.8,218.73-119.09C308.17,120.25,305.06,121.89,302.55,124.13ZM558.9,359.65C542.83,351.77,527,344.28,510.76,337c-2.67-1.2-3.56-2.56-3.38-5.57,3.76-64.1-14.7-129.82-57.16-178.27C512.26,177.52,564,275.68,558.9,359.65Z" transform="translate(0 0)"/><path class="cls-2" d="M558.9,359.65c-6.1-3-12-5.88-17.93-8.68-10-4.73-20.08-9.48-30.21-14-2.67-1.2-3.56-2.56-3.38-5.57,2.34-38.84-3.8-76.49-17.35-112.82a195.12,195.12,0,0,0-36.81-61.11c-1.12-1.27-2.91-2.22-3-4.34C512.26,177.52,564,275.68,558.9,359.65Z" transform="translate(0 0)"/><path class="cls-3" d="M305.07,116.29c-9.33-.16-18.65-.38-28-.37a190.69,190.69,0,0,0-92.56,23.82C143.75,162.1,113,194.55,91.76,235.9a171.87,171.87,0,0,0-17.45,55.15c-.7,6.42-1,12.94-2.24,19.25-.93,4.57.39,4.33,3.71,3a381.84,381.84,0,0,1,69.52-19.95q32.23-6.08,64.87-9.47a347.17,347.17,0,0,1,40.77-2.08c2.51,0,3.5-.52,3.34-3.33-.37-6.46-.33-12.94-.45-19.41-1.69,0-3.38,0-5.07,0,1.69,0,3.38,0,5.07,0,.65-23.17,3.65-46,10.23-68.26,7.47-25.35,18.36-48.66,38.49-66.69,2.51-2.24,5.62-3.88,7.94-7.32C308.31,116.59,306.69,116.32,305.07,116.29Z" transform="translate(0 0)"/></svg>