<svg id="Layer_1" data-name="Layer 1" xmlns="http://www.w3.org/2000/svg" viewBox="0 0 239.33 90.56"><defs><style>.cls-1{fill:#006838;}.cls-2{fill:none;}.cls-3{fill:#43acd0;}.cls-4{fill:#6dc17c;}.cls-5{fill:#6385b8;}.cls-6{fill:#59b171;}.cls-7{fill:#67c187;}</style></defs><path class="cls-1" d="M57.45,0a45.28,45.28,0,1,0,45.28,45.28A45.27,45.27,0,0,0,57.45,0Zm0,81.67A36.39,36.39,0,1,1,93.84,45.28,36.4,36.4,0,0,1,57.45,81.67Z"/><path class="cls-1" d="M183.09,0a45.28,45.28,0,1,0,45.27,45.28A45.28,45.28,0,0,0,183.09,0Zm0,81.67a36.39,36.39,0,1,1,36.38-36.39A36.39,36.39,0,0,1,183.09,81.67Z"/><path class="cls-1" d="M143.06,28.92s-23.09-10.66-43.23,0c-10.9,6.22,4.42,10.65,4.42,10.65s22.6-6.85,32.42,0S143.06,28.92,143.06,28.92Z"/><path class="cls-1" d="M0,41.16V54.41s9.72,1.17,14.94,6.48.6-32.76.6-32.76S11.41,43.51,0,41.16Z"/><path class="cls-1" d="M239.33,40.4V53.65s-9.78,1.17-15,6.48-.6-32.76-.6-32.76S227.84,42.75,239.33,40.4Z"/><path class="cls-2" d="M202.77,19.87a2.91,2.91,0,0,1-1.72-1.19,3,3,0,0,0,1.72,1.2c.66-.16,1.36-.23,1.65-.87C204.13,19.65,203.43,19.72,202.77,19.87Z"/><path class="cls-2" d="M209.6,56.76c-.22.22-.46.42-.67.65.21-.23.45-.43.67-.65l.28-.75Z"/><path class="cls-2" d="M199.9,16.34a1.56,1.56,0,0,0,.1.57A1.56,1.56,0,0,1,199.9,16.34Z"/><path class="cls-2" d="M157.26,68.64l.18.78L163.68,72l-6.24-2.55Z"/><path class="cls-2" d="M147.78,24.79h0a17.64,17.64,0,0,1,.89,1.86A17.64,17.64,0,0,0,147.78,24.79Z"/><path class="cls-3" d="M178.5,8.2c-1.92-.5-3.59.08-5.3.69-.45.16-.93.55-.83,1.09s.76.45,1.22.51c1.36.2,2.41-.59,3.56-1.09,2.51-1.09,3.44-.45,3.4,2.29a2.66,2.66,0,0,0,0,.63c.69,3.64-.52,4.82-4.32,4.23a4.44,4.44,0,0,0-1.87-.11c-2.92.9-5.84,1.84-8.71,2.88a3.45,3.45,0,0,0-2.4,3.38c0,1.09-.33,2.26-1.57,2.41-1.46.18-1.47-1.12-1.74-2.14a2.61,2.61,0,0,0-3.42-2,6.52,6.52,0,0,0-4,3.16c-.54.84-.45,1.67,1,1.91,2.16.35,2.28.76,1.28,2.7-.09.18-.31.48-.26.53,1.4,1.51.44,3.5,1,5.14.66,1.83,1.81,2.13,3.11.81a2.52,2.52,0,0,1,3.42-.47c2.22,1.4,4.93,2.16,6.41,4.6.37.62,1.09.6,1.65.82,2.52,1,4.91,2.06,5.48,5.19.2,1.12,1.35,1.54,2.29,2C183,50,183.11,50.24,180.15,55a66.89,66.89,0,0,1-4.76,6.38c-1.15,1.41-2.39,2.76-4.49,2.76a2.19,2.19,0,0,0-1.48.71l-1.37,1.75c-1.36,1.76-2.69,3.55-4,5.32a16.8,16.8,0,0,0,7.56,2.34l1.81.17a37.53,37.53,0,0,0,27.23-8.1,43.41,43.41,0,0,0,8.13-8.67l.19-.23c.21-.23.45-.43.67-.65l.28-.75c.23-.59.45-1.18.67-1.77,0-.28,0-.56-.07-.84-.26-3.28-1-3.88-4.22-3.23A13.08,13.08,0,0,1,200,50a4.86,4.86,0,0,1-3.74-6.09,30.84,30.84,0,0,0,1.07-8.7,3.33,3.33,0,0,1,1.14-2.61C202.16,29,206.36,28,211.2,29.8c1.56.59,3.16,1.08,4.74,1.61V28.58a3,3,0,0,1-.07-.32c-1.14-.52-2.23-1.2-3.58-1-1.1.18-1.34-.75-1.83-1.41-1.28-1.75-2.16-1.67-3,.28-.58,1.32-1.48,2.06-3,1.66a3.56,3.56,0,0,1-2.78-3.33c-.1-1.53.92-2.39,2.42-2.69,1-.2,2.15,0,2.85-1a3.13,3.13,0,0,0-.76-4.3c-.78-.59-1.68-1-2.5-1.55-2.29-1.5-2.23-2.75.16-4.19a5.72,5.72,0,0,0,.48-.32,40.48,40.48,0,0,0-11.59-4.82c-.25.38-.49.77-.71,1.17-.55,1-2.49,2.45.71,2.55.57,0,.91.9.7,1.56a2.8,2.8,0,0,1-2.17,1.77,2.46,2.46,0,0,1-2.56-.41c-1-1.2.33-2,.9-3-1.38-.16-2,.66-2.7,1.58s-1,2.18-2.29,1.73S183,10.78,183,9.47c0-1.51.79-2.81,1.18-4.22.07-.26.16-.52.24-.78l-1.32,0h-.23c-.06.27-.12.55-.17.82C182.26,7.86,181,8.85,178.5,8.2ZM162,29a3.5,3.5,0,0,1-1.15-.1c-.77-.45-2.36-.36-2-1.59.35-1.4,1.46-.2,2.24-.1l.82.09c.77.06,1.79,0,1.73,1S162.42,28.71,162,29Zm2.79,2.5c-.62-.25-1.55-.18-1.48-1.29,0-.35.39-.84.58-.59.58.81,2,.16,2.19,1.13C166.18,31.33,165.36,31.45,164.75,31.49Zm35.18-15.36a1.49,1.49,0,0,1,1.46-1c1.46-.12,3.27,1.85,3.15,3.33a1.66,1.66,0,0,1-.12.55c-.29.64-1,.71-1.65.87a3,3,0,0,1-1.72-1.2A5.61,5.61,0,0,1,200,16.91a1.56,1.56,0,0,1-.1-.57A.76.76,0,0,1,199.93,16.13Z"/><path class="cls-4" d="M149.26,28.42a2.83,2.83,0,0,0,.82,1.43,11,11,0,0,1,3,12.8,10.58,10.58,0,0,0,1.33,9.42A14.52,14.52,0,0,1,157,61.33c-.2,2.43.63,4.86.25,7.31l.18.78L163.68,72l.33-.07c1.35-1.77,2.68-3.56,4-5.32l1.37-1.75a2.19,2.19,0,0,1,1.48-.71c2.1,0,3.34-1.35,4.49-2.76A66.89,66.89,0,0,0,180.15,55c3-4.74,2.84-4.94-2.28-7.56-.94-.48-2.09-.9-2.29-2-.57-3.13-3-4.18-5.48-5.19-.56-.22-1.28-.2-1.65-.82-1.48-2.44-4.19-3.2-6.41-4.6a2.52,2.52,0,0,0-3.42.47c-1.3,1.32-2.45,1-3.11-.81-.6-1.64.36-3.63-1-5.14-.05,0,.17-.35.26-.53,1-1.94.88-2.35-1.28-2.7-1.41-.24-1.5-1.07-1-1.91a6.52,6.52,0,0,1,4-3.16,2.61,2.61,0,0,1,3.42,2c.27,1,.28,2.32,1.74,2.14,1.24-.15,1.54-1.32,1.57-2.41a3.45,3.45,0,0,1,2.4-3.38c2.87-1,5.79-2,8.71-2.88a4.44,4.44,0,0,1,1.87.11c3.8.59,5-.59,4.32-4.23a2.66,2.66,0,0,1,0-.63c0-2.74-.89-3.38-3.4-2.29-1.15.5-2.2,1.29-3.56,1.09-.46-.06-1.11.14-1.22-.51s.38-.93.83-1.09c1.71-.61,3.38-1.19,5.3-.69,2.5.65,3.76-.34,4.19-2.93.05-.27.11-.55.17-.82a40.83,40.83,0,0,0-35.08,20.34,17.64,17.64,0,0,1,.89,1.86A14.69,14.69,0,0,1,149.26,28.42Z"/><path class="cls-5" d="M183.09,86.11a40.55,40.55,0,0,0,22.21-6.59,3.57,3.57,0,0,1,.27-2.76c1.46-4.36,2.94-8.71,4.36-13.09a5.42,5.42,0,0,0-.14-4.65,5.72,5.72,0,0,1-.19-2.26c-.22.22-.46.42-.67.65l-.19.23a43.41,43.41,0,0,1-8.13,8.67,37.53,37.53,0,0,1-27.23,8.1l-1.81-.17A16.8,16.8,0,0,1,164,71.9l-.33.07a10.26,10.26,0,0,0-.43,3.93A2,2,0,0,1,162,78.11c-1.05.36-1.44-.56-1.94-1.22-1.67-2.21-3.05-4.52-2.65-7.47l-.18-.78c-4.42-2.29-7.77-5.78-10.81-9.63a51.31,51.31,0,0,1-3.35-5.42A40.91,40.91,0,0,0,183.09,86.11Z"/><path class="cls-6" d="M216.39,31.68c-.24,6.86-1.3,13.53-4.18,19.78-.19.42-.39.84-.6,1.25s-.45,1.19-1.06,1.53c-.22.59-.44,1.18-.67,1.77l-.28.75a5.72,5.72,0,0,0,.19,2.26,5.42,5.42,0,0,1,.14,4.65c-1.42,4.38-2.9,8.73-4.36,13.09a3.57,3.57,0,0,0-.27,2.76,40.81,40.81,0,0,0,16.29-47.84A13.58,13.58,0,0,1,216.39,31.68Z"/><path class="cls-3" d="M157.26,68.64c.38-2.45-.45-4.88-.25-7.31a14.52,14.52,0,0,0-2.55-9.26,10.58,10.58,0,0,1-1.33-9.42,11,11,0,0,0-3-12.8,2.83,2.83,0,0,1-.82-1.43,14.69,14.69,0,0,0-.59-1.77,17.64,17.64,0,0,0-.89-1.86,40.56,40.56,0,0,0-5.53,20.49,41.46,41.46,0,0,0,.85,8.31A51.31,51.31,0,0,0,146.45,59C149.49,62.86,152.84,66.35,157.26,68.64Z"/><path class="cls-4" d="M203.71,14.94c.82.54,1.72,1,2.5,1.55a3.13,3.13,0,0,1,.76,4.3c-.7,1-1.85.81-2.85,1-1.5.3-2.52,1.16-2.42,2.69a3.56,3.56,0,0,0,2.78,3.33c1.47.4,2.37-.34,3-1.66.87-1.95,1.75-2,3-.28.49.66.73,1.59,1.83,1.41,1.35-.23,2.44.45,3.58,1-.26-3.58-1.59-6.9-2.48-10.33a41.26,41.26,0,0,0-9-7.5,5.72,5.72,0,0,1-.48.32C201.48,12.19,201.42,13.44,203.71,14.94Z"/><path class="cls-4" d="M183,9.47c0,1.31.36,2.67,1.65,3.13s1.72-.91,2.29-1.73,1.32-1.74,2.7-1.58c-.57,1-1.95,1.76-.9,3a2.46,2.46,0,0,0,2.56.41,2.8,2.8,0,0,0,2.17-1.77c.21-.66-.13-1.54-.7-1.56-3.2-.1-1.26-1.52-.71-2.55.22-.4.46-.79.71-1.17a40.29,40.29,0,0,0-8.35-1.14c-.08.26-.17.52-.24.78C183.78,6.66,183,8,183,9.47Z"/><path class="cls-6" d="M215.94,28.58c1.51.4,2.35,1.93,3.92,2.27a9.64,9.64,0,0,0,1.5.2,41.1,41.1,0,0,0-8-13.12c.89,3.43,2.22,6.75,2.48,10.33A3,3,0,0,0,215.94,28.58Z"/><path class="cls-5" d="M215.94,28.58v2.83l.45.27a13.58,13.58,0,0,0,5.2,0l-.23-.63a9.64,9.64,0,0,1-1.5-.2C218.29,30.51,217.45,29,215.94,28.58Z"/><path class="cls-4" d="M211.61,52.71c.21-.41.41-.83.6-1.25,2.88-6.25,3.94-12.92,4.18-19.78l-.45-.27c-1.58-.53-3.18-1-4.74-1.61-4.84-1.82-9-.79-12.69,2.79a3.33,3.33,0,0,0-1.14,2.61,30.84,30.84,0,0,1-1.07,8.7A4.86,4.86,0,0,0,200,50a13.08,13.08,0,0,0,6.22.18c3.24-.65,4-.05,4.22,3.23,0,.28.05.56.07.84C211.16,53.9,211.33,53.27,211.61,52.71Z"/><path class="cls-4" d="M201.05,18.68a2.91,2.91,0,0,0,1.72,1.19c.66-.15,1.36-.22,1.65-.86a1.66,1.66,0,0,0,.12-.55c.12-1.48-1.69-3.45-3.15-3.33a1.49,1.49,0,0,0-1.46,1,.76.76,0,0,0,0,.21,1.56,1.56,0,0,0,.1.57A5.61,5.61,0,0,0,201.05,18.68Z"/><path class="cls-7" d="M163.56,28.33c.06-1-1-1-1.73-1L161,27.2c-.78-.1-1.89-1.3-2.24.1-.32,1.23,1.27,1.14,2,1.59A3.5,3.5,0,0,0,162,29C162.42,28.71,163.51,29.35,163.56,28.33Z"/><path class="cls-7" d="M163.85,29.61c-.19-.25-.56.24-.58.59-.07,1.11.86,1,1.48,1.29.61,0,1.43-.16,1.29-.75C165.8,29.77,164.43,30.42,163.85,29.61Z"/><path class="cls-6" d="M160.09,76.89c.5.66.89,1.58,1.94,1.22a2,2,0,0,0,1.22-2.21,10.26,10.26,0,0,1,.43-3.93l-6.24-2.55C157,72.37,158.42,74.68,160.09,76.89Z"/><path class="cls-2" d="M77.13,19.87a2.92,2.92,0,0,1-1.71-1.19,3,3,0,0,0,1.72,1.2c.66-.16,1.36-.23,1.64-.87C78.5,19.65,77.8,19.72,77.13,19.87Z"/><path class="cls-2" d="M84,56.76c-.22.22-.46.42-.67.65.21-.23.45-.43.67-.65l.28-.75Z"/><path class="cls-2" d="M74.27,16.34a1.77,1.77,0,0,0,.09.57A1.77,1.77,0,0,1,74.27,16.34Z"/><path class="cls-2" d="M31.63,68.64c.06.26.12.52.17.78L38.05,72,31.8,69.42Z"/><path class="cls-2" d="M22.15,24.79h0A17.64,17.64,0,0,1,23,26.65,17.64,17.64,0,0,0,22.15,24.79Z"/><path class="cls-3" d="M52.87,8.2c-1.92-.5-3.59.08-5.3.69-.45.16-.93.55-.83,1.09s.76.45,1.22.51c1.36.2,2.41-.59,3.55-1.09C54,8.31,55,9,54.92,11.69a2.66,2.66,0,0,0,0,.63c.69,3.64-.52,4.82-4.32,4.23a4.44,4.44,0,0,0-1.87-.11c-2.92.9-5.84,1.84-8.72,2.88a3.44,3.44,0,0,0-2.39,3.38c0,1.09-.33,2.26-1.58,2.41-1.45.18-1.47-1.12-1.73-2.14a2.61,2.61,0,0,0-3.42-2,6.57,6.57,0,0,0-4,3.16c-.53.84-.45,1.67,1,1.91,2.15.35,2.28.76,1.28,2.7-.09.18-.31.48-.27.53,1.41,1.51.45,3.5,1.05,5.14.66,1.83,1.81,2.13,3.11.81a2.52,2.52,0,0,1,3.42-.47c2.22,1.4,4.93,2.16,6.41,4.6.37.62,1.08.6,1.65.82,2.52,1,4.91,2.06,5.48,5.19.2,1.12,1.35,1.54,2.29,2C57.36,50,57.48,50.24,54.51,55a63.67,63.67,0,0,1-4.76,6.38c-1.14,1.41-2.39,2.76-4.48,2.76a2.19,2.19,0,0,0-1.48.71l-1.37,1.75c-1.37,1.76-2.69,3.55-4,5.32a16.8,16.8,0,0,0,7.56,2.34l1.81.17A37.53,37.53,0,0,0,75,66.31a43.7,43.7,0,0,0,8.13-8.67,2.11,2.11,0,0,1,.19-.23c.21-.23.45-.43.67-.65l.28-.75.67-1.77c0-.28,0-.56-.07-.84-.26-3.28-1-3.88-4.22-3.23A13.07,13.07,0,0,1,74.41,50a4.86,4.86,0,0,1-3.74-6.09,31.2,31.2,0,0,0,1.07-8.7,3.33,3.33,0,0,1,1.14-2.61C76.53,29,80.73,28,85.57,29.8c1.56.59,3.16,1.08,4.74,1.61V28.58c0-.1,0-.21-.08-.32-1.14-.52-2.22-1.2-3.57-1-1.1.18-1.34-.75-1.83-1.41-1.28-1.75-2.16-1.67-3,.28-.59,1.32-1.48,2.06-3,1.66a3.56,3.56,0,0,1-2.78-3.33C76,23,77,22.1,78.49,21.8c1-.2,2.15,0,2.85-1a3.14,3.14,0,0,0-.76-4.3c-.78-.59-1.68-1-2.5-1.55-2.29-1.5-2.23-2.75.16-4.19.17-.1.32-.21.48-.32A40.48,40.48,0,0,0,67.13,5.61c-.25.38-.49.77-.71,1.17-.55,1-2.49,2.45.7,2.55.58,0,.92.9.71,1.56a2.8,2.8,0,0,1-2.17,1.77,2.46,2.46,0,0,1-2.56-.41c-1.05-1.2.33-2,.89-3-1.37-.16-2,.66-2.69,1.58s-1,2.18-2.29,1.73-1.64-1.82-1.65-3.13c0-1.51.79-2.81,1.18-4.22.07-.26.16-.52.24-.78-.44,0-.88,0-1.33,0h-.22a8,8,0,0,0-.17.82C56.63,7.86,55.37,8.85,52.87,8.2ZM36.33,29a3.47,3.47,0,0,1-1.15-.1c-.77-.45-2.36-.36-2-1.59.36-1.4,1.46-.2,2.25-.1l.82.09c.77.06,1.78,0,1.73,1S36.79,28.71,36.33,29Zm2.79,2.5c-.62-.25-1.55-.18-1.48-1.29,0-.35.39-.84.57-.59.59.81,2,.16,2.19,1.13C40.55,31.33,39.73,31.45,39.12,31.49ZM74.3,16.13a1.49,1.49,0,0,1,1.46-1C77.22,15,79,17,78.91,18.46a1.44,1.44,0,0,1-.13.55c-.28.64-1,.71-1.64.87a3,3,0,0,1-1.72-1.2,5.65,5.65,0,0,1-1.06-1.77,1.77,1.77,0,0,1-.09-.57A.76.76,0,0,1,74.3,16.13Z"/><path class="cls-4" d="M23.63,28.42a2.83,2.83,0,0,0,.82,1.43,11,11,0,0,1,3.05,12.8,10.55,10.55,0,0,0,1.33,9.42,14.52,14.52,0,0,1,2.55,9.26c-.2,2.43.63,4.86.25,7.31l.17.78L38.05,72l.33-.07c1.35-1.77,2.67-3.56,4-5.32l1.37-1.75a2.19,2.19,0,0,1,1.48-.71c2.09,0,3.34-1.35,4.48-2.76A63.67,63.67,0,0,0,54.51,55c3-4.74,2.85-4.94-2.27-7.56-.94-.48-2.09-.9-2.29-2-.57-3.13-3-4.18-5.48-5.19-.57-.22-1.28-.2-1.65-.82-1.48-2.44-4.19-3.2-6.41-4.6a2.52,2.52,0,0,0-3.42.47c-1.3,1.32-2.45,1-3.11-.81-.6-1.64.36-3.63-1.05-5.14,0,0,.18-.35.27-.53,1-1.94.87-2.35-1.28-2.7-1.42-.24-1.5-1.07-1-1.91a6.57,6.57,0,0,1,4-3.16,2.61,2.61,0,0,1,3.42,2c.26,1,.28,2.32,1.73,2.14,1.25-.15,1.55-1.32,1.58-2.41A3.44,3.44,0,0,1,40,19.32c2.88-1,5.8-2,8.72-2.88a4.44,4.44,0,0,1,1.87.11c3.8.59,5-.59,4.32-4.23a2.66,2.66,0,0,1,0-.63C55,9,54,8.31,51.51,9.4c-1.14.5-2.19,1.29-3.55,1.09-.46-.06-1.11.14-1.22-.51s.38-.93.83-1.09c1.71-.61,3.38-1.19,5.3-.69,2.5.65,3.76-.34,4.19-2.93a8,8,0,0,1,.17-.82A40.83,40.83,0,0,0,22.15,24.79,17.64,17.64,0,0,1,23,26.65,14.69,14.69,0,0,1,23.63,28.42Z"/><path class="cls-5" d="M57.45,86.11a40.56,40.56,0,0,0,22.22-6.59,3.57,3.57,0,0,1,.27-2.76c1.46-4.36,2.94-8.71,4.35-13.09A5.39,5.39,0,0,0,84.16,59,5.72,5.72,0,0,1,84,56.76c-.22.22-.46.42-.67.65a2.11,2.11,0,0,0-.19.23A43.7,43.7,0,0,1,75,66.31a37.53,37.53,0,0,1-27.23,8.1l-1.81-.17a16.8,16.8,0,0,1-7.56-2.34l-.33.07a10.26,10.26,0,0,0-.43,3.93,2,2,0,0,1-1.22,2.21c-1,.36-1.44-.56-1.94-1.22-1.67-2.21-3.05-4.52-2.66-7.47-.05-.26-.11-.52-.17-.78-4.42-2.29-7.77-5.78-10.82-9.63a51.22,51.22,0,0,1-3.34-5.42A40.91,40.91,0,0,0,57.45,86.11Z"/><path class="cls-6" d="M90.76,31.68c-.24,6.86-1.3,13.53-4.18,19.78L86,52.71c-.29.56-.45,1.19-1.06,1.53L84.25,56l-.28.75A5.72,5.72,0,0,0,84.16,59a5.39,5.39,0,0,1,.13,4.65c-1.41,4.38-2.89,8.73-4.35,13.09a3.57,3.57,0,0,0-.27,2.76A40.81,40.81,0,0,0,96,31.68,13.58,13.58,0,0,1,90.76,31.68Z"/><path class="cls-3" d="M31.63,68.64c.38-2.45-.45-4.88-.25-7.31a14.52,14.52,0,0,0-2.55-9.26,10.55,10.55,0,0,1-1.33-9.42,11,11,0,0,0-3.05-12.8,2.83,2.83,0,0,1-.82-1.43A14.69,14.69,0,0,0,23,26.65a17.64,17.64,0,0,0-.89-1.86,40.81,40.81,0,0,0-4.68,28.8A51.22,51.22,0,0,0,20.81,59C23.86,62.86,27.21,66.35,31.63,68.64Z"/><path class="cls-4" d="M78.08,14.94c.82.54,1.72,1,2.5,1.55a3.14,3.14,0,0,1,.76,4.3c-.7,1-1.86.81-2.85,1C77,22.1,76,23,76.07,24.49a3.56,3.56,0,0,0,2.78,3.33c1.47.4,2.36-.34,3-1.66.87-1.95,1.75-2,3-.28.49.66.73,1.59,1.83,1.41,1.35-.23,2.43.45,3.57,1-.25-3.58-1.58-6.9-2.48-10.33a41.21,41.21,0,0,0-9-7.5c-.16.11-.31.22-.48.32C75.85,12.19,75.79,13.44,78.08,14.94Z"/><path class="cls-4" d="M57.36,9.47c0,1.31.36,2.67,1.65,3.13s1.71-.91,2.29-1.73S62.62,9.13,64,9.29c-.56,1-1.94,1.76-.89,3a2.46,2.46,0,0,0,2.56.41,2.8,2.8,0,0,0,2.17-1.77c.21-.66-.13-1.54-.71-1.56-3.19-.1-1.25-1.52-.7-2.55.22-.4.46-.79.71-1.17a40.29,40.29,0,0,0-8.35-1.14c-.08.26-.17.52-.24.78C58.15,6.66,57.34,8,57.36,9.47Z"/><path class="cls-6" d="M90.31,28.58c1.51.4,2.35,1.93,3.92,2.27a9.64,9.64,0,0,0,1.5.2,41,41,0,0,0-8-13.12c.9,3.43,2.23,6.75,2.48,10.33C90.26,28.37,90.28,28.48,90.31,28.58Z"/><path class="cls-5" d="M90.31,28.58v2.83l.45.27a13.58,13.58,0,0,0,5.2,0l-.23-.63a9.64,9.64,0,0,1-1.5-.2C92.66,30.51,91.82,29,90.31,28.58Z"/><path class="cls-4" d="M86,52.71l.6-1.25c2.88-6.25,3.94-12.92,4.18-19.78l-.45-.27c-1.58-.53-3.18-1-4.74-1.61-4.84-1.82-9-.79-12.69,2.79a3.33,3.33,0,0,0-1.14,2.61,31.2,31.2,0,0,1-1.07,8.7A4.86,4.86,0,0,0,74.41,50a13.07,13.07,0,0,0,6.22.18c3.23-.65,4-.05,4.22,3.23,0,.28.05.56.07.84C85.53,53.9,85.69,53.27,86,52.71Z"/><path class="cls-4" d="M75.42,18.68a2.92,2.92,0,0,0,1.71,1.19c.67-.15,1.37-.22,1.65-.86a1.44,1.44,0,0,0,.13-.55C79,17,77.22,15,75.76,15.13a1.49,1.49,0,0,0-1.46,1,.76.76,0,0,0,0,.21,1.77,1.77,0,0,0,.09.57A5.65,5.65,0,0,0,75.42,18.68Z"/><path class="cls-7" d="M37.93,28.33c0-1-1-1-1.73-1l-.82-.09c-.79-.1-1.89-1.3-2.25.1-.31,1.23,1.28,1.14,2,1.59a3.47,3.47,0,0,0,1.15.1C36.79,28.71,37.88,29.35,37.93,28.33Z"/><path class="cls-7" d="M38.21,29.61c-.18-.25-.55.24-.57.59-.07,1.11.86,1,1.48,1.29.61,0,1.43-.16,1.28-.75C40.17,29.77,38.8,30.42,38.21,29.61Z"/><path class="cls-6" d="M34.46,76.89c.5.66.89,1.58,1.94,1.22a2,2,0,0,0,1.22-2.21A10.26,10.26,0,0,1,38.05,72L31.8,69.42C31.41,72.37,32.79,74.68,34.46,76.89Z"/></svg>