<svg id="Layer_1" data-name="Layer 1" xmlns="http://www.w3.org/2000/svg" viewBox="0 0 96.54 19.91"><defs><style>.cls-1{fill:#ed1c24;}.cls-2{fill:#f15a29;}.cls-3{fill:#f9ed32;}.cls-4{fill:#27aae1;}.cls-5{fill:#662d91;}.cls-6{fill:#ee2a7b;}</style></defs><path class="cls-1" d="M4.47,2.54A61.64,61.64,0,0,0,.34,9.25a2.49,2.49,0,0,0,.89,3.42,2.54,2.54,0,0,0,3.42-.9L5,11.14a2.54,2.54,0,0,0-.9-3.42,2.55,2.55,0,0,0-3.42.9l-.36.63,4.31,2.52A63.32,63.32,0,0,1,8.79,5.06,2.54,2.54,0,0,0,9,3.13,2.56,2.56,0,0,0,7.89,1.64,2.5,2.5,0,0,0,6,1.39,2.83,2.83,0,0,0,4.47,2.54Z" transform="translate(0 0)"/><path class="cls-2" d="M8.36,3.8A38,38,0,0,1,5.23,8.6l.39-.5a36,36,0,0,1-2.35,2.73,2.55,2.55,0,0,0,0,3.54,2.55,2.55,0,0,0,3.54,0,39.36,39.36,0,0,0,5.87-8A2.5,2.5,0,1,0,8.36,3.8Z" transform="translate(0 0)"/><path class="cls-3" d="M12.45,4.79A42.62,42.62,0,0,0,6.58,15.26a2.44,2.44,0,0,0,.25,1.92,2.52,2.52,0,0,0,1.49,1.15,2.58,2.58,0,0,0,3.08-1.74,4.64,4.64,0,0,1,.26-.65c-.34.62,0-.07.09-.21.19-.43.39-.85.59-1.27.41-.85.84-1.67,1.31-2.49a41.5,41.5,0,0,1,3.11-4.66A2.44,2.44,0,0,0,17,5.39a2.53,2.53,0,0,0-1.14-1.5,2.55,2.55,0,0,0-1.93-.25,2.92,2.92,0,0,0-1.49,1.15Z" transform="translate(0 0)"/><path class="cls-4" d="M95.83,10C95.22,9.3,94.62,8.6,94,7.88a4.26,4.26,0,0,1-.46-.59c.06.12.28.37.08.11l-.2-.26c-.29-.38-.56-.76-.84-1.15a51.52,51.52,0,0,1-3-4.75,2.53,2.53,0,0,0-3.42-.9,2.56,2.56,0,0,0-.89,3.42,50.63,50.63,0,0,0,6.94,9.75,2.5,2.5,0,0,0,3.53,0,2.54,2.54,0,0,0,0-3.53Z" transform="translate(0 0)"/><path class="cls-5" d="M92.33,12.91a69.78,69.78,0,0,0-6.94-8.86,2.53,2.53,0,0,0-3.54,0,2.56,2.56,0,0,0,0,3.54q1.79,1.92,3.41,4c.06.08.12.17.19.25-.07-.09-.31-.41-.11-.14s.25.32.37.49l.78,1.05c.52.73,1,1.47,1.52,2.22a2.5,2.5,0,0,0,4.32-2.53Z" transform="translate(0 0)"/><path class="cls-6" d="M78.27,9.06q3.24,4.77,6.38,9.61A2.5,2.5,0,0,0,89,16.14q-3.14-4.85-6.39-9.61a2.5,2.5,0,1,0-4.31,2.53Z" transform="translate(0 0)"/></svg>