<svg id="Layer_1" data-name="Layer 1" xmlns="http://www.w3.org/2000/svg" viewBox="0 0 182.69 96.14"><defs><style>.cls-1{fill:#652e8f;}.cls-2{fill:#432466;}.cls-3{fill:#00b9b1;}</style></defs><path class="cls-1" d="M0,38.17,91.13,0l91,24.34L142.07,40.75l2.29,30.5s-11.6,10-49.32,11.93-50.2-6.36-50.2-6.36L40.57,48.9Z"/><path class="cls-2" d="M142.09,40.72l-49.41,19L95,83.18s34.51-1.27,49.32-11.93Z"/><polygon class="cls-3" points="135.19 95.93 132.36 47.02 94.91 30.85 95.63 29.2 134.09 45.81 137.33 95.84 135.19 95.93"/><ellipse class="cls-2" cx="91.37" cy="29.2" rx="7.02" ry="2.85"/><path class="cls-3" d="M135.13,78"/><polygon class="cls-3" points="135.17 78.57 132.34 83.75 130.27 96.14 142.13 95.64 138.63 83.63 135.17 78.57"/><path class="cls-1" d="M.57,38.17,91.7,0l91,24.34L142.63,40.75l2.3,30.5s-11.6,10-49.32,11.93-50.2-6.36-50.2-6.36L41.13,48.9Z"/><path class="cls-2" d="M142.65,40.72l-49.4,19,2.36,23.43s34.51-1.27,49.32-11.93Z"/><polygon class="cls-3" points="135.75 95.93 132.93 47.02 95.48 30.85 96.19 29.2 134.66 45.81 137.89 95.84 135.75 95.93"/><ellipse class="cls-2" cx="91.94" cy="29.2" rx="7.02" ry="2.85"/><path class="cls-3" d="M135.7,78"/><polygon class="cls-3" points="135.73 78.57 132.91 83.75 130.84 96.14 142.7 95.64 139.19 83.63 135.73 78.57"/></svg>