<svg id="Layer_1" data-name="Layer 1" xmlns="http://www.w3.org/2000/svg" xmlns:xlink="http://www.w3.org/1999/xlink" viewBox="0 0 90.81 10.96"><defs><style>.cls-1{fill:none;}.cls-2{clip-path:url(#clip-path);}.cls-3{fill:#fff;}.cls-4{clip-path:url(#clip-path-3);}</style><clipPath id="clip-path" transform="translate(0 0)"><rect class="cls-1" x="62.28" width="28.52" height="10.96"/></clipPath><clipPath id="clip-path-3" transform="translate(0 0)"><rect class="cls-1" width="28.52" height="10.96"/></clipPath></defs><g id="BLM_-_s" data-name="BLM - s"><g class="cls-2"><g class="cls-2"><path class="cls-3" d="M68.69,5.72l-.6-.53A.9.9,0,0,1,68,4l.12-.16A3,3,0,0,0,68.86,2,1.43,1.43,0,0,0,68.35.88a5.31,5.31,0,0,0-3.21-.7,6.57,6.57,0,0,0-1.4.14h-.06A1.63,1.63,0,0,0,62.4,1.87l-.1,3.39c0,.47,0,1.08,0,1.87,0,.61,0,1.11,0,1.49a3.68,3.68,0,0,0,.22,1.05,2.15,2.15,0,0,0,.38.7,1.63,1.63,0,0,0,.72.41,3.78,3.78,0,0,0,.93.16c.29,0,.7,0,1.27,0a5,5,0,0,0,2.74-.63A3.37,3.37,0,0,0,69.89,8.2a2,2,0,0,0,.1-.64,1.45,1.45,0,0,0-.31-.87,7,7,0,0,0-1-1M66.8,2.28c0,.15-.12.54-.94,1.42s-1.2,1-1.36,1-.32-.07-.32-1.38c0-1,.11-1.22.13-1.24h0s.15-.15,1-.15a4,4,0,0,1,1,.12c.4.11.47.2.48.22h0m-2,4.22a2.18,2.18,0,0,1,.64-.07,5,5,0,0,1,1.3.18,2.69,2.69,0,0,1,1,.46.94.94,0,0,1,.43.76,1.3,1.3,0,0,1-.7,1,3,3,0,0,1-1.7.5,3.12,3.12,0,0,1-1-.18c-.35-.14-.54-.58-.54-1.32a2.32,2.32,0,0,1,.18-.94.65.65,0,0,1,.44-.43" transform="translate(0 0)"/><path class="cls-3" d="M75.94,9.09,74.61,9a1,1,0,0,1-1-1l-.09-3.26C73.42.31,73.06.16,72.87.08a.41.41,0,0,0-.21,0,.8.8,0,0,0-.76.54,13,13,0,0,0-.14,3.1c0,.95,0,1.7,0,2.23l.09,3.86a1,1,0,0,0,1,1h2.33a17.36,17.36,0,0,0,2.57-.12c.51-.09.77-.31.77-.63,0-.55-.8-.83-2.61-.91" transform="translate(0 0)"/><path class="cls-3" d="M89.3,5.59h0C88.53,3.48,88,2,87.62,1.3S86.88.06,86.49,0a.82.82,0,0,0-.75.38,9.44,9.44,0,0,0-.61.9c-.39.66-.59.74-.59.74s-.18-.1-.41-.72-.6-1-1.06-1-.85.37-1,1.13c0,.2-.32,1.19-1.4,4.73a21.48,21.48,0,0,0-1,4.1.47.47,0,0,0,.11.33.65.65,0,0,0,.46.21c.46,0,1-.34,2.36-4.37l.89-2.87.33.42c.47.55.8.79,1.1.79a.87.87,0,0,0,.58-.25,2.54,2.54,0,0,0,.85-1.44.46.46,0,0,1,0-.09,22.43,22.43,0,0,1,1.1,2.73c1.59,4.62,2.21,5,2.67,5h.14l.07,0,.06,0a.64.64,0,0,0,.46-.59A29.61,29.61,0,0,0,89.3,5.59" transform="translate(0 0)"/></g></g></g><g id="BLM_-_s-2" data-name="BLM - s"><g class="cls-4"><g class="cls-4"><path class="cls-3" d="M6.41,5.72l-.6-.53A.9.9,0,0,1,5.7,4l.12-.16A3,3,0,0,0,6.58,2,1.43,1.43,0,0,0,6.07.88,5.31,5.31,0,0,0,2.86.18a6.57,6.57,0,0,0-1.4.14H1.4A1.63,1.63,0,0,0,.12,1.87L0,5.26c0,.47,0,1.08,0,1.87,0,.61,0,1.11,0,1.49A4.07,4.07,0,0,0,.25,9.67a2.35,2.35,0,0,0,.39.7,1.63,1.63,0,0,0,.72.41,3.78,3.78,0,0,0,.93.16c.29,0,.7,0,1.27,0a5,5,0,0,0,2.74-.63A3.37,3.37,0,0,0,7.61,8.2a2.25,2.25,0,0,0,.1-.64,1.45,1.45,0,0,0-.31-.87,7,7,0,0,0-1-1M4.52,2.28c0,.15-.12.54-.94,1.42s-1.2,1-1.36,1-.33-.07-.33-1.38c0-1,.12-1.22.14-1.24H2s.15-.15,1-.15a4,4,0,0,1,1,.12c.4.11.47.2.48.22h0m-2,4.22a2.13,2.13,0,0,1,.64-.07,5,5,0,0,1,1.3.18,2.69,2.69,0,0,1,1,.46.94.94,0,0,1,.43.76,1.3,1.3,0,0,1-.7,1,3,3,0,0,1-1.7.5,3.12,3.12,0,0,1-1-.18Q1.85,9,1.85,7.87A2.32,2.32,0,0,1,2,6.93a.65.65,0,0,1,.44-.43" transform="translate(0 0)"/><path class="cls-3" d="M13.66,9.09,12.33,9a1,1,0,0,1-1-1l-.09-3.26C11.14.31,10.78.16,10.59.08a.41.41,0,0,0-.21,0,.8.8,0,0,0-.76.54,13,13,0,0,0-.14,3.1c0,.95,0,1.7,0,2.23l.09,3.86a1,1,0,0,0,1,1h2.33a17.36,17.36,0,0,0,2.57-.12c.51-.09.77-.31.77-.63,0-.55-.8-.83-2.61-.91" transform="translate(0 0)"/><path class="cls-3" d="M27,5.59h0C26.25,3.48,25.68,2,25.34,1.3S24.6.06,24.21,0a.82.82,0,0,0-.75.38,9.44,9.44,0,0,0-.61.9c-.39.66-.59.74-.59.74s-.18-.1-.41-.72-.6-1-1.06-1-.85.37-1,1.13c0,.2-.32,1.19-1.41,4.73a22.37,22.37,0,0,0-1,4.1.44.44,0,0,0,.12.33.65.65,0,0,0,.46.21c.45,0,1.05-.34,2.36-4.37l.89-2.87.33.42c.47.55.79.79,1.1.79a.87.87,0,0,0,.58-.25A2.6,2.6,0,0,0,24,3.13.46.46,0,0,1,24,3a21.44,21.44,0,0,1,1.09,2.73c1.6,4.62,2.22,5,2.68,5h.14l.07,0,.06,0a.62.62,0,0,0,.45-.59c0-.18-.11-.69-1.5-4.54" transform="translate(0 0)"/></g></g></g></svg>