<svg id="Layer_1" data-name="Layer 1" xmlns="http://www.w3.org/2000/svg" viewBox="0 0 457.91 290.28"><defs><style>.cls-1{fill:#074971;}.cls-2{fill:#f9c214;}</style></defs><g id="ysjJjK"><path class="cls-1" d="M53.11,173.29c-7.35-9.87-18-14.93-28.73-20-4.79-2.29-9.57-4.6-14.28-7C2.81,142.43-.23,136.16,0,128.16.6,108.86,7.84,92,19.16,76.69A95.54,95.54,0,0,1,44,53c7.28-4.73,15.12-6.39,23.67-6.24,11.13.21,22.19,2.36,33.39.68a59.72,59.72,0,0,0,19.7-6.61c16.82-9,32.88-19.54,50.27-27.53C213.37-6.13,255.11-4,296,17.88c13.33,7.14,26.49,14.6,39.57,22.18,11.12,6.44,23.1,8.95,35.79,9.14,9,.13,18-.93,26.9.83a20.18,20.18,0,0,1,6.09,2c21,11.77,37.59,27.86,47.91,49.89,3.73,7.94,5,16.47,5.59,25.14.57,9.09-3.11,15.81-11.3,19.88-7,3.47-14,6.82-21.07,10.2-8,3.87-15.21,8.87-20.65,16.08-4.57-2-9.07-4.15-13.7-6-40.06-15.81-82.06-22.15-124.7-24.78-42.88-2.65-85.64-1.37-128.11,5.68C108.89,153.08,80.07,160,53.11,173.29ZM186.91,34.44c1,.86,1.63,1.53,2.36,2.15,7.4,6.38,9.86,15.85,2.55,23.56a25.35,25.35,0,0,0-3.06,4.53c-10.38,17.25-6.19,34.51,11,45a74.92,74.92,0,0,0,22.1,8.86c2.73.64,5.43,2.09,8.26,1.46,11.08-2.45,21.87-5.78,31.24-12.46,12-8.51,15.89-20.67,11.44-34.68-1.68-5.3-4.6-9.89-7.9-14.31-4.48-6-4.45-11.86,0-17.84,1.67-2.23,3.75-4.14,5.83-6.4-6-4.13-12.5-7.41-18.86-10.95-2.21-1.23-3.75-1.12-5.82.36-4.73,3.39-9.82,3.8-14.89.62-1.41-.88-2.58-1.16-4.09-.15-5.59,3.71-11,2.78-16.17-1-1.14-.83-2.13-1.34-3.6-.54C200.5,26.42,193.53,29.89,186.91,34.44Z" transform="translate(0)"/><path class="cls-1" d="M399.92,201.56c7.94,13.55,6.22,26.42-3.16,38.44-10.68,13.68-25.49,21.58-41.06,28.16-24.8,10.48-50.87,15.91-77.49,19.14a406.44,406.44,0,0,1-80.2,1.79c-36.27-2.79-71.78-9.08-104.9-25-12.2-5.88-23.6-13.07-32-24C51.8,227.93,50,215.11,58,201.56c37.48-15,76.62-23.16,116.63-27.05a542.49,542.49,0,0,1,113.66.44C326.58,179.27,364.07,186.91,399.92,201.56Z" transform="translate(0)"/><path class="cls-2" d="M399.92,201.56c-35.85-14.65-73.34-22.29-111.68-26.61a542.49,542.49,0,0,0-113.66-.44c-40,3.89-79.15,12-116.63,27.05q-2.43-14.15-4.84-28.27c27-13.27,55.78-20.21,85.21-25.1,42.47-7.05,85.23-8.33,128.11-5.68,42.64,2.63,84.64,9,124.7,24.78,4.63,1.83,9.13,4,13.7,6Q402.37,187.41,399.92,201.56Z" transform="translate(0)"/><path class="cls-2" d="M186.91,34.44c6.62-4.55,13.59-8,20.43-11.73,1.47-.8,2.46-.29,3.6.54,5.18,3.74,10.58,4.67,16.17,1,1.51-1,2.68-.73,4.09.15,5.07,3.18,10.16,2.77,14.89-.62,2.07-1.48,3.61-1.59,5.82-.36,6.36,3.54,12.86,6.82,18.86,11-2.08,2.26-4.16,4.17-5.83,6.4-4.47,6-4.5,11.84,0,17.84,3.3,4.42,6.22,9,7.9,14.31,4.45,14,.52,26.17-11.44,34.68-9.37,6.68-20.16,10-31.24,12.46-2.83.63-5.53-.82-8.26-1.46a74.92,74.92,0,0,1-22.1-8.86c-17.21-10.51-21.4-27.77-11-45a25.35,25.35,0,0,1,3.06-4.53c7.31-7.71,4.85-17.18-2.55-23.56C188.54,36,187.86,35.3,186.91,34.44Z" transform="translate(0)"/></g></svg>