<?xml version="1.0" encoding="utf-8"?>
<!-- Generator: Adobe Illustrator 24.2.3, SVG Export Plug-In . SVG Version: 6.00 Build 0)  -->
<svg version="1.1" id="Layer_1" xmlns="http://www.w3.org/2000/svg" xmlns:xlink="http://www.w3.org/1999/xlink" x="0px" y="0px"
	 viewBox="0 0 74.9 18.5" style="enable-background:new 0 0 74.9 18.5;" xml:space="preserve">
<style type="text/css">
	.st0{fill:#EB94B3;}
</style>
<g>
	<path class="st0" d="M1.1,4.8c0.2-0.2,0.3-0.4,0.4-0.4c0.4,0,0.7,0.9,0.8,2.7l0.1,2.4l1.2-0.2c0.2-0.1,0.5-0.1,0.7-0.1
		c0.5,0,0.8,0.2,1.1,0.5c0.4,0.4,0.6,1,0.6,1.9c0,0.7-0.1,1.2-0.4,1.4c-0.6,0.5-1.4,0.7-2.3,0.7c-0.4,0-0.7-0.1-1-0.2
		c-0.2-0.1-0.4-0.2-0.5-0.3S1.6,13,1.5,12.7c-0.1-0.3-0.2-0.7-0.2-1.2c0-0.5-0.1-1.2-0.1-2.3C1.1,7.9,1,6.8,1,5.9
		C1,5.2,1.1,4.9,1.1,4.8z M4.8,11c-0.1-0.2-0.4-0.4-0.8-0.4c-0.5,0-0.9,0.2-1.2,0.5c-0.2,0.2-0.2,0.4-0.2,0.6s0.1,0.4,0.2,0.5
		c0.2,0.1,0.4,0.2,0.7,0.2c0.3,0,0.7-0.1,1-0.4c0.3-0.3,0.4-0.5,0.4-0.8C4.9,11.1,4.8,11.1,4.8,11z"/>
	<path class="st0" d="M9.5,7.9C10.2,7.3,10.9,7,11.6,7c0.7,0,1.4,0.4,2,1.1s0.9,1.4,0.9,2c0,0.5-0.2,1.2-0.7,1.9
		c-0.6,1-1.4,1.5-2.4,1.5c-0.4,0-0.8-0.1-1.3-0.3C9.5,12.9,9,12.5,8.6,12c-0.4-0.5-0.5-1-0.5-1.6C8.1,9.5,8.6,8.6,9.5,7.9z
		 M12.9,9.2c-0.3-0.5-0.8-0.7-1.5-0.7c-0.6,0-1,0.2-1.3,0.6c-0.4,0.4-0.6,0.9-0.6,1.4c0,0.4,0.2,0.8,0.5,1.1
		c0.3,0.3,0.8,0.5,1.3,0.5c0.1,0,0.2,0,0.4,0c0.4-0.1,0.7-0.3,0.9-0.7s0.4-0.8,0.4-1.3C13.1,9.7,13,9.4,12.9,9.2z"/>
	<path class="st0" d="M19.8,4.3C19.9,4.1,20.1,4,20.3,4c0.2,0,0.4,0.6,0.5,1.9c0.1,1.3,0.2,2.8,0.2,4.5v3l-1.7,0H19
		c-1,0-1.6-0.1-1.9-0.4c-0.3-0.3-0.5-0.7-0.5-1.2c0-0.6,0.2-1.3,0.7-1.9c0.4-0.6,1-0.9,1.5-0.9c0.3,0,0.5-0.1,0.6-0.4
		c0.1-0.3,0.1-0.9,0.1-1.9C19.5,5.3,19.6,4.4,19.8,4.3z M19.9,11.1c0-0.1-0.1-0.3-0.3-0.4s-0.4-0.1-0.6-0.1c-0.4,0-0.7,0.1-0.9,0.2
		s-0.3,0.3-0.3,0.5c0,0.2,0.1,0.3,0.2,0.5c0.1,0.1,0.3,0.2,0.6,0.2c0.3,0,0.6-0.1,0.9-0.3C19.8,11.5,19.9,11.4,19.9,11.1z"/>
	<path class="st0" d="M23.3,9.7c0,0,0.1-0.1,0.2-0.1c0.2,0,0.4,0.2,0.7,0.6c0.2,0.4,0.4,0.8,0.4,1.1c0,0.3,0.1,0.5,0.3,0.5
		c0.2,0,0.4-0.1,0.6-0.4c0.2-0.2,0.4-0.6,0.5-1c0.2-0.7,0.5-1,0.8-1c0.2,0,0.3,0.1,0.4,0.4c0.1,0.3,0.2,1.3,0.3,3c0,0.3,0,0.6,0,1
		c0,0.7,0,1.2-0.1,1.5c-0.1,0.3-0.3,0.6-0.5,0.8c-0.4,0.3-0.8,0.5-1.4,0.5c-0.4,0-0.8-0.1-1.2-0.3c-0.4-0.2-0.6-0.4-0.8-0.8
		c-0.1-0.2-0.2-0.5-0.2-0.7c0-0.2,0-0.4,0.1-0.5c0.1-0.1,0.2-0.2,0.4-0.2c0.2,0,0.4,0.1,0.6,0.4c0.3,0.4,0.7,0.7,1,0.7
		c0.2,0,0.4-0.1,0.5-0.3s0.2-0.5,0.2-0.8c0-0.4,0-0.6-0.1-0.8c0-0.1-0.1-0.2-0.3-0.2c-0.1,0-0.3,0-0.5,0.1c-0.1,0-0.2,0-0.4,0
		c-0.4,0-0.8-0.2-1.1-0.7c-0.4-0.5-0.6-1.2-0.6-2C23,10.2,23.1,9.9,23.3,9.7z"/>
	<path class="st0" d="M36.2,6.6c0.5-0.2,0.9-0.3,1.4-0.3c0.4,0,0.7,0.1,1,0.2C38.9,6.7,39,6.9,39,7.2c0,0.3-0.4,0.5-1.3,0.5
		c-0.8,0-1.4,0.2-1.7,0.7c-0.2,0.5-0.4,1-0.4,1.7c0,0.7,0.1,1.2,0.4,1.7c0.2,0.4,0.5,0.6,1,0.6c0.2,0,0.5,0,0.8-0.1
		c0.3,0,0.6-0.1,0.8-0.1c0.6,0,0.9,0.1,0.9,0.4c0,0.2-0.2,0.5-0.7,0.7c-0.4,0.2-0.9,0.4-1.4,0.4c-1,0-1.8-0.3-2.3-0.9
		c-0.5-0.6-0.8-1.4-0.8-2.5c0-0.8,0.2-1.6,0.5-2.3C35.2,7.3,35.6,6.8,36.2,6.6z"/>
	<path class="st0" d="M43.1,7.9C43.8,7.3,44.5,7,45.1,7c0.7,0,1.4,0.4,2,1.1s0.9,1.4,0.9,2c0,0.5-0.2,1.2-0.7,1.9
		c-0.6,1-1.4,1.5-2.4,1.5c-0.4,0-0.8-0.1-1.3-0.3c-0.6-0.3-1.1-0.7-1.5-1.1c-0.4-0.5-0.5-1-0.5-1.6C41.7,9.5,42.1,8.6,43.1,7.9z
		 M46.4,9.2c-0.3-0.5-0.8-0.7-1.5-0.7c-0.6,0-1,0.2-1.3,0.6C43.2,9.5,43,9.9,43,10.4c0,0.4,0.2,0.8,0.5,1.1c0.3,0.3,0.8,0.5,1.3,0.5
		c0.1,0,0.2,0,0.4,0c0.4-0.1,0.7-0.3,0.9-0.7s0.4-0.8,0.4-1.3C46.6,9.7,46.6,9.4,46.4,9.2z"/>
	<path class="st0" d="M50.4,6.5c0.1-0.2,0.4-0.3,0.7-0.3c0.2,0,0.3,0.2,0.4,0.6C51.5,7.2,51.6,8,51.6,9c0,1.2-0.1,2.2-0.3,2.9
		S50.9,13,50.6,13c-0.1,0-0.1,0-0.2-0.1c-0.2-0.1-0.3-1.4-0.3-3.7C50.1,7.6,50.2,6.6,50.4,6.5z"/>
	<path class="st0" d="M55,7.9C55.7,7.3,56.4,7,57.1,7c0.7,0,1.4,0.4,2,1.1s0.9,1.4,0.9,2c0,0.5-0.2,1.2-0.7,1.9
		c-0.6,1-1.4,1.5-2.4,1.5c-0.4,0-0.8-0.1-1.3-0.3c-0.6-0.3-1.1-0.7-1.5-1.1c-0.4-0.5-0.5-1-0.5-1.6C53.6,9.5,54.1,8.6,55,7.9z
		 M58.4,9.2c-0.3-0.5-0.8-0.7-1.5-0.7c-0.6,0-1,0.2-1.3,0.6C55.2,9.5,55,9.9,55,10.4c0,0.4,0.2,0.8,0.5,1.1c0.3,0.3,0.8,0.5,1.3,0.5
		c0.1,0,0.2,0,0.4,0c0.4-0.1,0.7-0.3,0.9-0.7s0.4-0.8,0.4-1.3C58.6,9.7,58.5,9.4,58.4,9.2z"/>
	<path class="st0" d="M66.4,6.5c0.1-0.1,0.2-0.2,0.3-0.2c0.2,0,0.4,0.2,0.5,0.6s0.2,0.9,0.2,1.5c0,1.4-0.2,2.5-0.7,3.2
		c-0.2,0.3-0.4,0.5-0.6,0.6s-0.4,0.2-0.7,0.2c-0.1,0-0.4,0-0.8-0.1c-1.1-0.1-1.8-0.4-2.1-0.8c-0.3-0.4-0.4-1.3-0.4-2.6
		c0-0.9,0-1.5,0.1-1.8c0.1-0.3,0.2-0.4,0.4-0.4c0.1,0,0.1,0,0.2,0c0.2,0,0.3,0.1,0.4,0.3c0.1,0.2,0.1,0.4,0.1,0.8c0,0.1,0,0.4,0,0.9
		c0,0.2,0,0.4,0,0.7c0,0.5,0.1,0.8,0.2,1c0.1,0.2,0.4,0.4,0.8,0.6c0.4,0.2,0.6,0.3,0.8,0.3c0.2,0,0.4-0.2,0.7-0.5
		c0.1-0.2,0.2-0.5,0.3-1c0.1-0.5,0.1-0.9,0.1-1.4C66.1,7.3,66.2,6.6,66.4,6.5z"/>
	<path class="st0" d="M70.9,7.3c0.5-0.1,0.9-0.1,1.2-0.1s0.5,0,0.6,0.1c0.7,0.3,1.1,0.7,1.1,1.1c0,0.1,0,0.2,0,0.3
		C73.7,8.9,73.6,9,73.4,9s-0.3-0.1-0.5-0.2c-0.3-0.2-0.6-0.3-0.9-0.3c-1.1,0-1.6,1.2-1.6,3.6c0,0.7-0.2,1.1-0.6,1.1
		c-0.2,0-0.3-0.1-0.4-0.3c-0.1-0.2-0.1-0.6-0.1-1.3c0-0.5,0-0.9,0-1.3l0.1-2.8L70.9,7.3z"/>
</g>
<g>
</g>
<g>
</g>
<g>
</g>
<g>
</g>
<g>
</g>
<g>
</g>
<g>
</g>
<g>
</g>
<g>
</g>
<g>
</g>
<g>
</g>
<g>
</g>
<g>
</g>
<g>
</g>
<g>
</g>
</svg>
