<?xml version="1.0" encoding="utf-8"?>
<!-- Generator: Adobe Illustrator 24.2.3, SVG Export Plug-In . SVG Version: 6.00 Build 0)  -->
<svg version="1.1" id="Layer_1" xmlns="http://www.w3.org/2000/svg" xmlns:xlink="http://www.w3.org/1999/xlink" x="0px" y="0px"
	 viewBox="0 0 74.9 18.5" style="enable-background:new 0 0 74.9 18.5;" xml:space="preserve">
<style type="text/css">
	.st0{fill:#EB94B3;}
</style>
<g>
	<path class="st0" d="M26,8c0.3-0.2,0.6-0.4,0.9-0.5c0.3-0.1,0.6-0.2,0.8-0.2c0.5,0,1,0.2,1.4,0.6c0.4,0.4,0.7,0.9,0.7,1.4
		c0,0.4-0.1,0.6-0.3,0.7c-0.2,0.1-0.7,0.2-1.4,0.2c-1.1,0.1-1.7,0.3-1.8,0.5l0,0v0c0,0.2,0.1,0.3,0.4,0.4c0.3,0.1,0.6,0.2,1,0.2
		c0.4,0,0.8-0.1,1.1-0.2c0.2-0.1,0.4-0.2,0.6-0.2c0.2,0,0.4,0,0.5,0.1c0.1,0.1,0.2,0.2,0.2,0.4c0,0.2-0.1,0.5-0.4,0.7
		c-0.5,0.3-1.1,0.5-2,0.5c-1,0-1.7-0.2-2.3-0.7c-0.5-0.4-0.7-0.8-0.7-1.2c0-0.2,0-0.4,0.1-0.8C25,9.3,25.4,8.6,26,8z M28.2,8.8
		c-0.1-0.2-0.2-0.3-0.3-0.3s-0.3,0.1-0.6,0.3C27.1,8.9,27,9,27,9c0,0.1,0.2,0.1,0.6,0.1C28,9.2,28.2,9.1,28.2,8.8
		C28.2,8.8,28.2,8.8,28.2,8.8z"/>
	<path class="st0" d="M32.4,9.7c0,0,0.1-0.1,0.2-0.1c0.2,0,0.4,0.2,0.7,0.6c0.2,0.4,0.4,0.8,0.4,1.1c0,0.3,0.1,0.5,0.3,0.5
		c0.2,0,0.4-0.1,0.6-0.4c0.2-0.2,0.4-0.6,0.5-1c0.2-0.7,0.5-1,0.8-1c0.2,0,0.3,0.1,0.4,0.4c0.1,0.3,0.2,1.3,0.3,3c0,0.3,0,0.6,0,1
		c0,0.7,0,1.2-0.1,1.5c-0.1,0.3-0.3,0.6-0.5,0.8c-0.4,0.3-0.8,0.5-1.4,0.5c-0.4,0-0.8-0.1-1.2-0.3c-0.4-0.2-0.6-0.4-0.8-0.8
		c-0.1-0.2-0.2-0.5-0.2-0.7c0-0.2,0-0.4,0.1-0.5c0.1-0.1,0.2-0.2,0.4-0.2c0.2,0,0.4,0.1,0.6,0.4c0.3,0.4,0.7,0.7,1,0.7
		c0.2,0,0.4-0.1,0.5-0.3s0.2-0.5,0.2-0.8c0-0.4,0-0.6-0.1-0.8c0-0.1-0.1-0.2-0.3-0.2c-0.1,0-0.3,0-0.5,0.1c-0.1,0-0.2,0-0.4,0
		c-0.4,0-0.8-0.2-1.1-0.7c-0.4-0.5-0.6-1.2-0.6-2C32.1,10.2,32.2,9.9,32.4,9.7z"/>
	<path class="st0" d="M39.9,8c0.3-0.2,0.6-0.4,0.9-0.5c0.3-0.1,0.6-0.2,0.8-0.2c0.5,0,1,0.2,1.4,0.6c0.4,0.4,0.7,0.9,0.7,1.4
		c0,0.4-0.1,0.6-0.3,0.7c-0.2,0.1-0.7,0.2-1.4,0.2c-1.1,0.1-1.7,0.3-1.8,0.5l0,0v0c0,0.2,0.1,0.3,0.4,0.4c0.3,0.1,0.6,0.2,1,0.2
		c0.4,0,0.8-0.1,1.1-0.2c0.2-0.1,0.4-0.2,0.6-0.2c0.2,0,0.4,0,0.5,0.1c0.1,0.1,0.2,0.2,0.2,0.4c0,0.2-0.1,0.5-0.4,0.7
		c-0.5,0.3-1.1,0.5-2,0.5c-1,0-1.7-0.2-2.3-0.7c-0.5-0.4-0.7-0.8-0.7-1.2c0-0.2,0-0.4,0.1-0.8C38.8,9.3,39.2,8.6,39.9,8z M42,8.8
		c-0.1-0.2-0.2-0.3-0.3-0.3s-0.3,0.1-0.6,0.3C40.9,8.9,40.8,9,40.8,9c0,0.1,0.2,0.1,0.6,0.1C41.8,9.2,42,9.1,42,8.8
		C42,8.8,42,8.8,42,8.8z"/>
	<path class="st0" d="M46.2,6.6c0.2-0.4,0.6-0.7,1.2-0.7c0.2,0,0.3,0,0.4,0c0.4,0,0.6,0.1,0.9,0.3S49,6.6,49,6.7
		c0,0.3-0.2,0.4-0.7,0.4c-0.5,0-0.8,0.1-0.8,0.4c0,0.4,0.4,0.8,1.3,1.4c0.6,0.4,0.9,0.7,1.1,1c0.2,0.3,0.3,0.6,0.3,1
		c0,0.7-0.2,1.1-0.5,1.4c-0.3,0.3-0.8,0.5-1.5,0.5c-0.6,0-1.1-0.1-1.5-0.4c-0.3-0.3-0.5-0.6-0.5-1.1c0-0.2,0.1-0.4,0.2-0.5
		c0.1-0.1,0.2-0.2,0.4-0.2c0.3,0,0.6,0.2,0.7,0.6c0.1,0.2,0.2,0.3,0.3,0.4c0.1,0.1,0.3,0.2,0.5,0.2c0.4,0,0.5-0.1,0.5-0.4
		c0-0.4-0.4-1-1.3-1.6c-1-0.8-1.5-1.5-1.5-2.2C46,7.2,46,6.9,46.2,6.6z"/>
</g>
<g>
</g>
<g>
</g>
<g>
</g>
<g>
</g>
<g>
</g>
<g>
</g>
<g>
</g>
<g>
</g>
<g>
</g>
<g>
</g>
<g>
</g>
<g>
</g>
<g>
</g>
<g>
</g>
<g>
</g>
</svg>
