<?xml version="1.0" encoding="utf-8"?>
<!-- Generator: Adobe Illustrator 24.2.3, SVG Export Plug-In . SVG Version: 6.00 Build 0)  -->
<svg version="1.1" id="Layer_1" xmlns="http://www.w3.org/2000/svg" xmlns:xlink="http://www.w3.org/1999/xlink" x="0px" y="0px"
	 viewBox="0 0 74.9 18.5" style="enable-background:new 0 0 74.9 18.5;" xml:space="preserve">
<style type="text/css">
	.st0{fill:#EB94B3;}
</style>
<g>
	<path class="st0" d="M7.6,5c0.2-0.4,0.5-0.6,1.1-0.6c0.3,0,0.6,0.1,0.9,0.2c0.3,0.2,0.5,0.4,0.6,0.7c0.1,0.3,0.2,0.7,0.2,1
		c0,0.2,0,0.4-0.1,0.5c-0.1,0.3-0.2,0.4-0.3,0.4c-0.1,0-0.3-0.2-0.7-0.7L8.7,5.8v1.5c0,0.7,0,1.1,0.1,1.2c0.1,0.2,0.4,0.3,0.8,0.4
		c0.6,0.1,0.9,0.2,0.9,0.5c0,0.2-0.3,0.4-0.9,0.5C9.2,9.9,9,10,8.9,10.2c-0.1,0.2-0.2,0.6-0.3,1.3c-0.1,1-0.3,1.5-0.7,1.5
		c-0.2,0-0.4-0.2-0.4-0.7c-0.1-0.5-0.1-1.5-0.1-2.9C7.4,6.9,7.5,5.5,7.6,5z"/>
	<path class="st0" d="M13.9,6.5c0.2-0.2,0.4-0.3,0.8-0.3c0.7,0,1.3,0.3,1.8,0.8c0.2,0.3,0.4,0.8,0.6,1.5c0.1,0.7,0.2,1.5,0.2,2.4
		c0,0.8-0.1,1.5-0.2,2c-0.1,0.6-0.3,0.9-0.5,0.9c-0.1,0-0.1,0-0.2,0c-0.3,0-0.5-0.2-0.5-0.6c0-0.4-0.1-0.6-0.3-0.6
		c-0.1,0-0.4,0.1-0.8,0.2c-0.5,0.1-0.8,0.2-1.1,0.2c-0.7,0-1.1-0.5-1.1-1.4c0-0.6,0.2-1.1,0.7-1.6c0.5-0.4,1.1-0.7,1.8-0.7
		c0.3,0,0.5,0,0.6-0.1s0.2-0.2,0.2-0.4c0-0.1,0-0.2,0-0.3c-0.1-0.5-0.4-0.8-1.1-0.9c-0.3,0-0.6-0.1-0.7-0.3
		c-0.2-0.1-0.3-0.3-0.3-0.5C13.7,6.8,13.7,6.7,13.9,6.5z M14.9,11.3c0.1-0.1,0-0.2,0-0.3C14.9,11,14.8,11,14.6,11
		c-0.4,0-0.6,0.1-0.8,0.4c0,0.1,0,0.1,0,0.1c0,0.2,0.1,0.2,0.4,0.2C14.5,11.7,14.8,11.6,14.9,11.3z"/>
	<path class="st0" d="M21.1,6.6c0.5-0.2,0.9-0.3,1.4-0.3c0.4,0,0.7,0.1,1,0.2s0.4,0.4,0.4,0.7c0,0.3-0.4,0.5-1.3,0.5
		c-0.8,0-1.4,0.2-1.7,0.7c-0.2,0.5-0.4,1-0.4,1.7c0,0.7,0.1,1.2,0.4,1.7c0.2,0.4,0.5,0.6,1,0.6c0.2,0,0.5,0,0.8-0.1
		c0.3,0,0.6-0.1,0.8-0.1c0.6,0,0.9,0.1,0.9,0.4c0,0.2-0.2,0.5-0.7,0.7c-0.4,0.2-0.9,0.4-1.4,0.4c-1,0-1.8-0.3-2.3-0.9
		c-0.5-0.6-0.8-1.4-0.8-2.5c0-0.8,0.2-1.6,0.5-2.3C20.1,7.3,20.5,6.8,21.1,6.6z"/>
	<path class="st0" d="M26.6,6.1c0-0.1,0-0.1,0-0.2c0-0.3,0.3-0.4,0.8-0.4c0.4,0,0.6,0.1,0.8,0.2c0.1,0.1,0.2,0.3,0.2,0.6
		c0,0.4-0.2,0.7-0.5,0.7c-0.1,0-0.2,0-0.3,0c-0.2,0-0.4-0.1-0.6-0.3C26.7,6.5,26.6,6.3,26.6,6.1z M27,8.2c0.1-0.3,0.3-0.4,0.5-0.4
		c0,0,0.1,0,0.2,0c0.3,0.1,0.4,1,0.4,2.7c0,1,0,1.7-0.1,2S27.8,13,27.6,13c-0.2,0-0.3-0.2-0.4-0.5c-0.1-0.3-0.2-0.9-0.2-1.7
		c0-0.6,0-1,0-1.2C26.9,8.9,27,8.4,27,8.2z"/>
	<path class="st0" d="M31.8,6.5c0.2-0.2,0.4-0.3,0.8-0.3c0.7,0,1.3,0.3,1.8,0.8c0.2,0.3,0.4,0.8,0.6,1.5C35,9.3,35,10.1,35,10.9
		c0,0.8-0.1,1.5-0.2,2c-0.1,0.6-0.3,0.9-0.5,0.9c-0.1,0-0.1,0-0.2,0c-0.3,0-0.5-0.2-0.5-0.6c0-0.4-0.1-0.6-0.3-0.6
		c-0.1,0-0.4,0.1-0.8,0.2c-0.5,0.1-0.8,0.2-1.1,0.2c-0.7,0-1.1-0.5-1.1-1.4c0-0.6,0.2-1.1,0.7-1.6c0.5-0.4,1.1-0.7,1.8-0.7
		c0.3,0,0.5,0,0.6-0.1s0.2-0.2,0.2-0.4c0-0.1,0-0.2,0-0.3c-0.1-0.5-0.4-0.8-1.1-0.9c-0.3,0-0.6-0.1-0.7-0.3
		c-0.2-0.1-0.3-0.3-0.3-0.5C31.5,6.8,31.6,6.7,31.8,6.5z M32.8,11.3c0.1-0.1,0-0.2,0-0.3C32.7,11,32.6,11,32.4,11
		c-0.4,0-0.6,0.1-0.8,0.4c0,0.1,0,0.1,0,0.1c0,0.2,0.1,0.2,0.4,0.2C32.3,11.7,32.6,11.6,32.8,11.3z"/>
	<path class="st0" d="M37.3,6.5c0.1-0.2,0.4-0.3,0.7-0.3c0.2,0,0.3,0.2,0.4,0.6C38.5,7.2,38.5,8,38.5,9c0,1.2-0.1,2.2-0.3,2.9
		S37.8,13,37.6,13c-0.1,0-0.1,0-0.2-0.1c-0.2-0.1-0.3-1.4-0.3-3.7C37,7.6,37.1,6.6,37.3,6.5z"/>
	<path class="st0" d="M45.5,3.8c0.1-0.2,0.3-0.4,0.5-0.4c0,0,0.1,0,0.2,0c0.2,0.1,0.4,0.5,0.4,1.3c0,0.4,0,0.9-0.1,1.6l-0.2,2.7
		l1.3-0.2c0.3,0,0.5-0.1,0.7-0.1c0.3,0,0.5,0,0.6,0.1s0.3,0.3,0.5,0.6c0.2,0.4,0.4,0.9,0.6,1.7s0.3,1.3,0.3,1.8
		c0,0.4-0.1,0.6-0.2,0.6c-0.1,0.1-0.2,0.1-0.3,0.1c-0.5,0-0.8-0.7-1.1-2c-0.2-1.2-0.4-1.7-0.7-1.7c-0.2,0-0.4,0.2-0.8,0.5
		c-0.3,0.3-0.5,0.8-0.5,1.3c0,0.2,0,0.4,0.1,0.7c0,0.2,0,0.4,0,0.5c0,0.3-0.1,0.6-0.2,0.8c-0.1,0.2-0.3,0.3-0.4,0.3
		c-0.2,0-0.4-0.1-0.5-0.4c-0.1-0.2-0.2-1.2-0.3-2.9c-0.1-1.8-0.1-3.4-0.1-4.9C45.4,4.8,45.4,4.1,45.5,3.8z"/>
	<path class="st0" d="M53.8,6.5c0.2-0.2,0.4-0.3,0.8-0.3c0.7,0,1.3,0.3,1.8,0.8c0.2,0.3,0.4,0.8,0.6,1.5c0.1,0.7,0.2,1.5,0.2,2.4
		c0,0.8-0.1,1.5-0.2,2c-0.1,0.6-0.3,0.9-0.5,0.9c-0.1,0-0.1,0-0.2,0c-0.3,0-0.5-0.2-0.5-0.6c0-0.4-0.1-0.6-0.3-0.6
		c-0.1,0-0.4,0.1-0.8,0.2c-0.5,0.1-0.8,0.2-1.1,0.2c-0.7,0-1.1-0.5-1.1-1.4c0-0.6,0.2-1.1,0.7-1.6c0.5-0.4,1.1-0.7,1.8-0.7
		c0.3,0,0.5,0,0.6-0.1c0.1-0.1,0.2-0.2,0.2-0.4c0-0.1,0-0.2,0-0.3c-0.1-0.5-0.4-0.8-1.1-0.9c-0.3,0-0.6-0.1-0.7-0.3S53.6,7.2,53.6,7
		C53.6,6.8,53.7,6.7,53.8,6.5z M54.8,11.3c0.1-0.1,0-0.2,0-0.3C54.8,11,54.7,11,54.5,11c-0.4,0-0.6,0.1-0.8,0.4c0,0.1,0,0.1,0,0.1
		c0,0.2,0.1,0.2,0.4,0.2C54.4,11.7,54.7,11.6,54.8,11.3z"/>
	<path class="st0" d="M59.2,6.1c0-0.1,0-0.1,0-0.2c0-0.3,0.3-0.4,0.8-0.4c0.4,0,0.6,0.1,0.8,0.2C60.9,5.8,61,6,61,6.3
		c0,0.4-0.2,0.7-0.5,0.7c-0.1,0-0.2,0-0.3,0c-0.2,0-0.4-0.1-0.6-0.3C59.3,6.5,59.2,6.3,59.2,6.1z M59.6,8.2c0.1-0.3,0.3-0.4,0.5-0.4
		c0,0,0.1,0,0.2,0c0.3,0.1,0.4,1,0.4,2.7c0,1,0,1.7-0.1,2S60.4,13,60.2,13c-0.2,0-0.3-0.2-0.4-0.5c-0.1-0.3-0.2-0.9-0.2-1.7
		c0-0.6,0-1,0-1.2C59.5,8.9,59.6,8.4,59.6,8.2z"/>
	<path class="st0" d="M64.6,7.3c0.5-0.1,0.9-0.1,1.2-0.1c0.3,0,0.5,0,0.6,0.1c0.7,0.3,1.1,0.7,1.1,1.1c0,0.1,0,0.2,0,0.3
		C67.3,8.9,67.2,9,67.1,9c-0.1,0-0.3-0.1-0.5-0.2c-0.3-0.2-0.6-0.3-0.9-0.3c-1.1,0-1.6,1.2-1.6,3.6c0,0.7-0.2,1.1-0.6,1.1
		c-0.2,0-0.3-0.1-0.4-0.3C63,12.7,63,12.2,63,11.6c0-0.5,0-0.9,0-1.3l0.1-2.8L64.6,7.3z"/>
</g>
<g>
</g>
<g>
</g>
<g>
</g>
<g>
</g>
<g>
</g>
<g>
</g>
<g>
</g>
<g>
</g>
<g>
</g>
<g>
</g>
<g>
</g>
<g>
</g>
<g>
</g>
<g>
</g>
<g>
</g>
</svg>
