<?xml version="1.0" encoding="utf-8"?>
<!-- Generator: Adobe Illustrator 24.2.3, SVG Export Plug-In . SVG Version: 6.00 Build 0)  -->
<svg version="1.1" id="Layer_1" xmlns="http://www.w3.org/2000/svg" xmlns:xlink="http://www.w3.org/1999/xlink" x="0px" y="0px"
	 viewBox="0 0 74.9 18.5" style="enable-background:new 0 0 74.9 18.5;" xml:space="preserve">
<style type="text/css">
	.st0{fill:#EB94B3;}
</style>
<g>
	<path class="st0" d="M36.2,6.6c0.5-0.2,0.9-0.3,1.4-0.3c0.4,0,0.7,0.1,1,0.2C38.9,6.7,39,6.9,39,7.2c0,0.3-0.4,0.5-1.3,0.5
		c-0.8,0-1.4,0.2-1.7,0.7c-0.2,0.5-0.4,1-0.4,1.7s0.1,1.2,0.4,1.7c0.2,0.4,0.5,0.6,1,0.6c0.2,0,0.5,0,0.8-0.1c0.3,0,0.6-0.1,0.8-0.1
		c0.6,0,0.9,0.1,0.9,0.4c0,0.2-0.2,0.5-0.7,0.7c-0.4,0.2-0.9,0.4-1.4,0.4c-1,0-1.8-0.3-2.3-0.9c-0.5-0.6-0.8-1.4-0.8-2.5
		c0-0.8,0.2-1.6,0.5-2.3C35.2,7.3,35.6,6.8,36.2,6.6z"/>
	<path class="st0" d="M43.1,7.9c0.7-0.6,1.4-0.9,2-0.9c0.7,0,1.4,0.4,2,1.1s0.9,1.4,0.9,2c0,0.5-0.2,1.2-0.7,1.9
		c-0.6,1-1.4,1.5-2.4,1.5c-0.4,0-0.8-0.1-1.3-0.3c-0.6-0.3-1.1-0.7-1.5-1.1c-0.4-0.5-0.5-1-0.5-1.6C41.7,9.5,42.1,8.6,43.1,7.9z
		 M46.4,9.2c-0.3-0.5-0.8-0.7-1.5-0.7c-0.6,0-1,0.2-1.3,0.6C43.2,9.5,43,9.9,43,10.4c0,0.4,0.2,0.8,0.5,1.1s0.8,0.5,1.3,0.5
		c0.1,0,0.2,0,0.4,0c0.4-0.1,0.7-0.3,0.9-0.7s0.4-0.8,0.4-1.3C46.6,9.7,46.6,9.4,46.4,9.2z"/>
	<path class="st0" d="M50.4,6.5c0.1-0.2,0.4-0.3,0.7-0.3c0.2,0,0.3,0.2,0.4,0.6c0,0.4,0.1,1.2,0.1,2.2c0,1.2-0.1,2.2-0.3,2.9
		S50.9,13,50.6,13c-0.1,0-0.1,0-0.2-0.1c-0.2-0.1-0.3-1.4-0.3-3.7C50.1,7.6,50.2,6.6,50.4,6.5z"/>
	<path class="st0" d="M55,7.9C55.7,7.3,56.4,7,57.1,7c0.7,0,1.4,0.4,2,1.1s0.9,1.4,0.9,2c0,0.5-0.2,1.2-0.7,1.9
		c-0.6,1-1.4,1.5-2.4,1.5c-0.4,0-0.8-0.1-1.3-0.3c-0.6-0.3-1.1-0.7-1.5-1.1c-0.4-0.5-0.5-1-0.5-1.6C53.6,9.5,54.1,8.6,55,7.9z
		 M58.4,9.2c-0.3-0.5-0.8-0.7-1.5-0.7c-0.6,0-1,0.2-1.3,0.6C55.2,9.5,55,9.9,55,10.4c0,0.4,0.2,0.8,0.5,1.1s0.8,0.5,1.3,0.5
		c0.1,0,0.2,0,0.4,0c0.4-0.1,0.7-0.3,0.9-0.7s0.4-0.8,0.4-1.3C58.6,9.7,58.5,9.4,58.4,9.2z"/>
	<path class="st0" d="M66.4,6.5c0.1-0.1,0.2-0.2,0.3-0.2c0.2,0,0.4,0.2,0.5,0.6s0.2,0.9,0.2,1.5c0,1.4-0.2,2.5-0.7,3.2
		c-0.2,0.3-0.4,0.5-0.6,0.6s-0.4,0.2-0.7,0.2c-0.1,0-0.4,0-0.8-0.1c-1.1-0.1-1.8-0.4-2.1-0.8c-0.3-0.4-0.4-1.3-0.4-2.6
		c0-0.9,0-1.5,0.1-1.8s0.2-0.4,0.4-0.4c0.1,0,0.1,0,0.2,0c0.2,0,0.3,0.1,0.4,0.3c0.1,0.2,0.1,0.4,0.1,0.8c0,0.1,0,0.4,0,0.9
		c0,0.2,0,0.4,0,0.7c0,0.5,0.1,0.8,0.2,1c0.1,0.2,0.4,0.4,0.8,0.6c0.4,0.2,0.6,0.3,0.8,0.3c0.2,0,0.4-0.2,0.7-0.5
		c0.1-0.2,0.2-0.5,0.3-1c0.1-0.5,0.1-0.9,0.1-1.4C66.1,7.3,66.2,6.6,66.4,6.5z"/>
	<path class="st0" d="M70.9,7.3c0.5-0.1,0.9-0.1,1.2-0.1s0.5,0,0.6,0.1c0.7,0.3,1.1,0.7,1.1,1.1c0,0.1,0,0.2,0,0.3
		C73.7,8.9,73.6,9,73.4,9s-0.3-0.1-0.5-0.2c-0.3-0.2-0.6-0.3-0.9-0.3c-1.1,0-1.6,1.2-1.6,3.6c0,0.7-0.2,1.1-0.6,1.1
		c-0.2,0-0.3-0.1-0.4-0.3s-0.1-0.6-0.1-1.3c0-0.5,0-0.9,0-1.3l0.1-2.8L70.9,7.3z"/>
	<g>
		<path class="st0" d="M5.6,4.3c0.1-0.2,0.3-0.4,0.5-0.4c0,0,0.1,0,0.2,0C6.5,4,6.7,4.4,6.7,5.2c0,0.4,0,0.9-0.1,1.6L6.4,9.5
			l1.3-0.2c0.3,0,0.5-0.1,0.7-0.1c0.3,0,0.5,0,0.6,0.1s0.3,0.3,0.5,0.6c0.2,0.4,0.4,0.9,0.6,1.7s0.3,1.3,0.3,1.8
			c0,0.4-0.1,0.6-0.2,0.6c-0.1,0.1-0.2,0.1-0.3,0.1c-0.5,0-0.8-0.7-1.1-2c-0.2-1.2-0.4-1.7-0.7-1.7c-0.2,0-0.4,0.2-0.8,0.5
			c-0.3,0.3-0.5,0.8-0.5,1.3c0,0.2,0,0.4,0.1,0.7c0,0.2,0,0.4,0,0.5c0,0.3-0.1,0.6-0.2,0.8s-0.3,0.3-0.4,0.3c-0.2,0-0.4-0.1-0.5-0.4
			c-0.1-0.2-0.2-1.2-0.3-2.9C5.4,9.4,5.4,7.8,5.4,6.3C5.5,5.3,5.5,4.6,5.6,4.3z"/>
		<path class="st0" d="M13.9,7c0.2-0.2,0.4-0.3,0.8-0.3c0.7,0,1.3,0.3,1.8,0.8c0.2,0.3,0.4,0.8,0.6,1.5c0.1,0.7,0.2,1.5,0.2,2.4
			c0,0.8-0.1,1.5-0.2,2c-0.1,0.6-0.3,0.9-0.5,0.9c-0.1,0-0.1,0-0.2,0c-0.3,0-0.5-0.2-0.5-0.6c0-0.4-0.1-0.6-0.3-0.6
			c-0.1,0-0.4,0.1-0.8,0.2c-0.5,0.1-0.8,0.2-1.1,0.2c-0.7,0-1.1-0.5-1.1-1.4c0-0.6,0.2-1.1,0.7-1.6c0.5-0.4,1.1-0.7,1.8-0.7
			c0.3,0,0.5,0,0.6-0.1s0.2-0.2,0.2-0.4c0-0.1,0-0.2,0-0.3c-0.1-0.5-0.4-0.8-1.1-0.9c-0.3,0-0.6-0.1-0.7-0.3
			c-0.2-0.1-0.3-0.3-0.3-0.5C13.7,7.3,13.7,7.2,13.9,7z M14.9,11.8c0.1-0.1,0-0.2,0-0.3c-0.1,0-0.2,0-0.3,0c-0.4,0-0.6,0.1-0.8,0.4
			c0,0.1,0,0.1,0,0.1c0,0.2,0.1,0.2,0.4,0.2C14.5,12.2,14.7,12.1,14.9,11.8z"/>
		<path class="st0" d="M19.3,6.6c0-0.1,0-0.1,0-0.2c0-0.3,0.3-0.4,0.8-0.4c0.4,0,0.6,0.1,0.7,0.2C20.9,6.3,21,6.5,21,6.8
			c0,0.4-0.2,0.7-0.5,0.7c-0.1,0-0.2,0-0.3,0c-0.2,0-0.4-0.1-0.6-0.3C19.4,7,19.3,6.8,19.3,6.6z M19.7,8.7c0.1-0.3,0.3-0.4,0.5-0.4
			c0,0,0.1,0,0.2,0c0.3,0.1,0.4,1,0.4,2.7c0,1,0,1.7-0.1,2s-0.2,0.5-0.4,0.5S20,13.3,19.9,13c-0.1-0.3-0.2-0.9-0.2-1.7
			c0-0.6,0-1,0-1.2C19.6,9.4,19.7,8.9,19.7,8.7z"/>
		<path class="st0" d="M24.6,7.8c0.5-0.1,0.9-0.1,1.2-0.1s0.5,0,0.6,0.1c0.7,0.3,1.1,0.7,1.1,1.1c0,0.1,0,0.2,0,0.3
			c-0.1,0.2-0.2,0.3-0.4,0.3c-0.1,0-0.3-0.1-0.5-0.2C26.3,9.1,26,9,25.7,9c-1.1,0-1.6,1.2-1.6,3.6c0,0.7-0.2,1.1-0.6,1.1
			c-0.2,0-0.3-0.1-0.4-0.3C23,13.2,23,12.8,23,12.1c0-0.5,0-0.9,0-1.3L23.1,8L24.6,7.8z"/>
	</g>
</g>
</svg>
