<?xml version="1.0" encoding="utf-8"?>
<!-- Generator: Adobe Illustrator 24.2.3, SVG Export Plug-In . SVG Version: 6.00 Build 0)  -->
<svg version="1.1" id="Layer_1" xmlns="http://www.w3.org/2000/svg" xmlns:xlink="http://www.w3.org/1999/xlink" x="0px" y="0px"
	 viewBox="0 0 74.9 18.5" style="enable-background:new 0 0 74.9 18.5;" xml:space="preserve">
<style type="text/css">
	.st0{fill:#EB94B3;}
</style>
<g>
	<path class="st0" d="M26.5,3.8c0.1-0.2,0.3-0.4,0.5-0.4c0,0,0.1,0,0.2,0c0.2,0.1,0.4,0.5,0.4,1.3c0,0.4,0,0.9-0.1,1.6l-0.2,2.7
		l1.3-0.2c0.3,0,0.5-0.1,0.7-0.1c0.3,0,0.5,0,0.6,0.1s0.3,0.3,0.5,0.6c0.2,0.4,0.4,0.9,0.6,1.7s0.3,1.3,0.3,1.8
		c0,0.4-0.1,0.6-0.2,0.6c-0.1,0.1-0.2,0.1-0.3,0.1c-0.5,0-0.8-0.7-1.1-2c-0.2-1.2-0.4-1.7-0.7-1.7c-0.2,0-0.4,0.2-0.8,0.5
		c-0.3,0.3-0.5,0.8-0.5,1.3c0,0.2,0,0.4,0.1,0.7c0,0.2,0,0.4,0,0.5c0,0.3-0.1,0.6-0.2,0.8c-0.1,0.2-0.3,0.3-0.4,0.3
		c-0.2,0-0.4-0.1-0.5-0.4c-0.1-0.2-0.2-1.2-0.3-2.9c-0.1-1.8-0.1-3.4-0.1-4.9C26.4,4.8,26.4,4.1,26.5,3.8z"/>
	<path class="st0" d="M34.8,6.5c0.2-0.2,0.4-0.3,0.8-0.3c0.7,0,1.3,0.3,1.8,0.8c0.2,0.3,0.4,0.8,0.6,1.5c0.1,0.7,0.2,1.5,0.2,2.4
		c0,0.8-0.1,1.5-0.2,2c-0.1,0.6-0.3,0.9-0.5,0.9c-0.1,0-0.1,0-0.2,0c-0.3,0-0.5-0.2-0.5-0.6c0-0.4-0.1-0.6-0.3-0.6
		c-0.1,0-0.4,0.1-0.8,0.2c-0.5,0.1-0.8,0.2-1.1,0.2c-0.7,0-1.1-0.5-1.1-1.4c0-0.6,0.2-1.1,0.7-1.6c0.5-0.4,1.1-0.7,1.8-0.7
		c0.3,0,0.5,0,0.6-0.1s0.2-0.2,0.2-0.4c0-0.1,0-0.2,0-0.3c-0.1-0.5-0.4-0.8-1.1-0.9c-0.3,0-0.6-0.1-0.7-0.3
		c-0.2-0.1-0.3-0.3-0.3-0.5C34.6,6.8,34.6,6.7,34.8,6.5z M35.8,11.3c0.1-0.1,0-0.2,0-0.3C35.7,11,35.6,11,35.5,11
		c-0.4,0-0.6,0.1-0.8,0.4c0,0.1,0,0.1,0,0.1c0,0.2,0.1,0.2,0.4,0.2C35.4,11.7,35.6,11.6,35.8,11.3z"/>
	<path class="st0" d="M40.2,6.1c0-0.1,0-0.1,0-0.2c0-0.3,0.3-0.4,0.8-0.4c0.4,0,0.6,0.1,0.7,0.2c0.1,0.1,0.2,0.3,0.2,0.6
		c0,0.4-0.2,0.7-0.5,0.7c-0.1,0-0.2,0-0.3,0c-0.2,0-0.4-0.1-0.6-0.3C40.3,6.5,40.2,6.3,40.2,6.1z M40.6,8.2c0.1-0.3,0.3-0.4,0.5-0.4
		c0,0,0.1,0,0.2,0c0.3,0.1,0.4,1,0.4,2.7c0,1,0,1.7-0.1,2S41.4,13,41.2,13c-0.2,0-0.3-0.2-0.4-0.5c-0.1-0.3-0.2-0.9-0.2-1.7
		c0-0.6,0-1,0-1.2C40.5,8.9,40.6,8.4,40.6,8.2z"/>
	<path class="st0" d="M45.5,7.3c0.5-0.1,0.9-0.1,1.2-0.1c0.3,0,0.5,0,0.6,0.1c0.7,0.3,1.1,0.7,1.1,1.1c0,0.1,0,0.2,0,0.3
		C48.3,8.9,48.2,9,48,9c-0.1,0-0.3-0.1-0.5-0.2c-0.3-0.2-0.6-0.3-0.9-0.3c-1.1,0-1.6,1.2-1.6,3.6c0,0.7-0.2,1.1-0.6,1.1
		c-0.2,0-0.3-0.1-0.4-0.3c-0.1-0.2-0.1-0.6-0.1-1.3c0-0.5,0-0.9,0-1.3l0.1-2.8L45.5,7.3z"/>
</g>
<g>
</g>
<g>
</g>
<g>
</g>
<g>
</g>
<g>
</g>
<g>
</g>
<g>
</g>
<g>
</g>
<g>
</g>
<g>
</g>
<g>
</g>
<g>
</g>
<g>
</g>
<g>
</g>
<g>
</g>
</svg>
