<?xml version="1.0" encoding="utf-8"?>
<!-- Generator: Adobe Illustrator 24.2.3, SVG Export Plug-In . SVG Version: 6.00 Build 0)  -->
<svg version="1.1" id="Layer_1" xmlns="http://www.w3.org/2000/svg" xmlns:xlink="http://www.w3.org/1999/xlink" x="0px" y="0px"
	 viewBox="0 0 74.9 18.5" style="enable-background:new 0 0 74.9 18.5;" xml:space="preserve">
<style type="text/css">
	.st0{fill:#EB94B3;}
</style>
<g>
	<path class="st0" d="M23,7.5C23.3,7.2,23.7,7,24,7c0.5,0,0.9,0.3,1.2,1c0.3,0.7,0.6,1.6,0.6,2.7c0,0.4,0,0.7,0,0.8
		c0,0.8-0.1,1.3-0.3,1.3c-0.3,0-0.6-0.7-0.9-2.1c-0.3-1.3-0.5-2-0.6-2.1c0,0,0,0,0,0c-0.1,0-0.4,0.4-0.6,1.3c-0.3,0.9-0.6,1.4-1,1.4
		c-0.3,0-0.6-0.3-0.8-1c-0.1-0.3-0.1-0.4-0.2-0.4c-0.1,0-0.1,0.4-0.1,1.2c0,0.7-0.1,1.1-0.1,1.3c-0.1,0.2-0.2,0.3-0.3,0.3
		c-0.1,0-0.1,0-0.2,0c-0.3-0.1-0.5-0.3-0.6-0.6s-0.2-1-0.2-2c0-0.2,0-0.4,0-0.7c0-1.4,0.3-2.2,0.9-2.2c0.3,0,0.6,0.1,1,0.4
		c0.3,0.2,0.5,0.3,0.6,0.3C22.5,7.9,22.7,7.8,23,7.5z"/>
	<path class="st0" d="M29.4,7.9C30.1,7.3,30.8,7,31.5,7c0.7,0,1.4,0.4,2,1.1s0.9,1.4,0.9,2c0,0.5-0.2,1.2-0.7,1.9
		c-0.6,1-1.4,1.5-2.4,1.5c-0.4,0-0.8-0.1-1.3-0.3c-0.6-0.3-1.1-0.7-1.5-1.1c-0.4-0.5-0.5-1-0.5-1.6C28,9.5,28.5,8.6,29.4,7.9z
		 M32.8,9.2c-0.3-0.5-0.8-0.7-1.5-0.7c-0.6,0-1,0.2-1.3,0.6c-0.4,0.4-0.6,0.9-0.6,1.4c0,0.4,0.2,0.8,0.5,1.1
		c0.3,0.3,0.8,0.5,1.3,0.5c0.1,0,0.2,0,0.4,0c0.4-0.1,0.7-0.3,0.9-0.7S33,10.5,33,10C33,9.7,32.9,9.4,32.8,9.2z"/>
	<path class="st0" d="M40.8,6.5c0.1-0.1,0.2-0.2,0.3-0.2c0.2,0,0.4,0.2,0.5,0.6s0.2,0.9,0.2,1.5c0,1.4-0.2,2.5-0.7,3.2
		c-0.2,0.3-0.4,0.5-0.6,0.6s-0.4,0.2-0.7,0.2c-0.1,0-0.4,0-0.8-0.1c-1.1-0.1-1.8-0.4-2.1-0.8c-0.3-0.4-0.4-1.3-0.4-2.6
		c0-0.9,0-1.5,0.1-1.8c0.1-0.3,0.2-0.4,0.4-0.4c0.1,0,0.1,0,0.2,0c0.2,0,0.3,0.1,0.4,0.3c0.1,0.2,0.1,0.4,0.1,0.8c0,0.1,0,0.4,0,0.9
		c0,0.2,0,0.4,0,0.7c0,0.5,0.1,0.8,0.2,1c0.1,0.2,0.4,0.4,0.8,0.6c0.4,0.2,0.6,0.3,0.8,0.3c0.2,0,0.4-0.2,0.7-0.5
		c0.1-0.2,0.2-0.5,0.3-1c0.1-0.5,0.1-0.9,0.1-1.4C40.5,7.3,40.6,6.6,40.8,6.5z"/>
	<path class="st0" d="M45.5,6.9c0-0.4,0.1-0.7,0.2-0.8c0.1-0.2,0.3-0.2,0.6-0.2s0.5,0.1,0.6,0.2c0.1,0.2,0.2,0.4,0.2,0.8
		c0,0.7,0.2,1.1,0.6,1.3C47.8,8.4,48,8.6,48,9c0,0.4-0.2,0.5-0.5,0.5c-0.4,0-0.6,0.5-0.7,1.5c0,0.5-0.1,0.9-0.2,1.2
		c-0.1,0.3-0.3,0.4-0.4,0.4s-0.3-0.1-0.4-0.4s-0.2-0.7-0.2-1.2c0-0.6-0.1-1-0.2-1.3c-0.1-0.2-0.3-0.4-0.7-0.5l-0.8-0.3l0.8-0.6
		C45.2,8.1,45.5,7.6,45.5,6.9z"/>
	<path class="st0" d="M50.2,3.8c0.1-0.2,0.3-0.4,0.5-0.4c0,0,0.1,0,0.2,0c0.2,0.1,0.4,0.5,0.4,1.3c0,0.4,0,0.9-0.1,1.6l-0.2,2.7
		l1.3-0.2c0.3,0,0.5-0.1,0.7-0.1c0.3,0,0.5,0,0.6,0.1s0.3,0.3,0.5,0.6c0.2,0.4,0.4,0.9,0.6,1.7s0.3,1.3,0.3,1.8
		c0,0.4-0.1,0.6-0.2,0.6c-0.1,0.1-0.2,0.1-0.3,0.1c-0.5,0-0.8-0.7-1.1-2c-0.2-1.2-0.4-1.7-0.7-1.7c-0.2,0-0.4,0.2-0.8,0.5
		c-0.3,0.3-0.5,0.8-0.5,1.3c0,0.2,0,0.4,0.1,0.7c0,0.2,0,0.4,0,0.5c0,0.3-0.1,0.6-0.2,0.8c-0.1,0.2-0.3,0.3-0.4,0.3
		c-0.2,0-0.4-0.1-0.5-0.4c-0.1-0.2-0.2-1.2-0.3-2.9c-0.1-1.8-0.1-3.4-0.1-4.9C50.1,4.8,50.1,4.1,50.2,3.8z"/>
</g>
<g>
</g>
<g>
</g>
<g>
</g>
<g>
</g>
<g>
</g>
<g>
</g>
<g>
</g>
<g>
</g>
<g>
</g>
<g>
</g>
<g>
</g>
<g>
</g>
<g>
</g>
<g>
</g>
<g>
</g>
</svg>
