<?xml version="1.0" encoding="utf-8"?>
<!-- Generator: Adobe Illustrator 24.2.3, SVG Export Plug-In . SVG Version: 6.00 Build 0)  -->
<svg version="1.1" id="Layer_1" xmlns="http://www.w3.org/2000/svg" xmlns:xlink="http://www.w3.org/1999/xlink" x="0px" y="0px"
	 viewBox="0 0 74.9 18.5" style="enable-background:new 0 0 74.9 18.5;" xml:space="preserve">
<style type="text/css">
	.st0{fill:#EB94B3;}
</style>
<g>
	<path class="st0" d="M25.8,7.5C26.5,7.2,27,7.1,27.2,7h0c0,0,0,0,0.1,0c0.2,0,0.6,0.2,1,0.6C28.7,8,29,8.3,29.2,8.7
		c0.5,1,0.8,2.1,0.8,3.2c0,0.7-0.1,1.1-0.4,1.1c-0.1,0-0.3-0.1-0.4-0.3c-0.2-0.3-0.5-1-0.8-2.1c-0.3-1.3-0.6-2-1-2
		c-0.2,0-0.5,0.3-0.7,0.8c-0.3,0.6-0.4,1.3-0.5,2.3c0,0.9-0.2,1.4-0.6,1.4S25,12.8,25,12.1c0-0.7-0.1-1.6-0.2-2.6
		c-0.1-0.5-0.1-0.8-0.1-1c0-0.3,0.1-0.5,0.2-0.6C25.1,7.8,25.3,7.6,25.8,7.5z"/>
	<path class="st0" d="M33.4,7.9C34.1,7.3,34.8,7,35.5,7c0.7,0,1.4,0.4,2,1.1s0.9,1.4,0.9,2c0,0.5-0.2,1.2-0.7,1.9
		c-0.6,1-1.4,1.5-2.4,1.5c-0.4,0-0.8-0.1-1.3-0.3c-0.6-0.3-1.1-0.7-1.5-1.1c-0.4-0.5-0.5-1-0.5-1.6C32,9.5,32.5,8.6,33.4,7.9z
		 M36.8,9.2c-0.3-0.5-0.8-0.7-1.5-0.7c-0.6,0-1,0.2-1.3,0.6c-0.4,0.4-0.6,0.9-0.6,1.4c0,0.4,0.2,0.8,0.5,1.1
		c0.3,0.3,0.8,0.5,1.3,0.5c0.1,0,0.2,0,0.4,0c0.4-0.1,0.7-0.3,0.9-0.7S37,10.5,37,10C37,9.7,36.9,9.4,36.8,9.2z"/>
	<path class="st0" d="M40.7,6.6c0.2-0.4,0.6-0.7,1.2-0.7c0.2,0,0.3,0,0.4,0c0.4,0,0.6,0.1,0.9,0.3s0.3,0.3,0.3,0.5
		c0,0.3-0.2,0.4-0.7,0.4c-0.5,0-0.8,0.1-0.8,0.4c0,0.4,0.4,0.8,1.3,1.4c0.6,0.4,0.9,0.7,1.1,1c0.2,0.3,0.3,0.6,0.3,1
		c0,0.7-0.2,1.1-0.5,1.4c-0.3,0.3-0.8,0.5-1.5,0.5c-0.6,0-1.1-0.1-1.5-0.4c-0.3-0.3-0.5-0.6-0.5-1.1c0-0.2,0.1-0.4,0.2-0.5
		c0.1-0.1,0.2-0.2,0.4-0.2c0.3,0,0.6,0.2,0.7,0.6c0.1,0.2,0.2,0.3,0.3,0.4c0.1,0.1,0.3,0.2,0.5,0.2c0.4,0,0.5-0.1,0.5-0.4
		c0-0.4-0.4-1-1.3-1.6c-1-0.8-1.5-1.5-1.5-2.2C40.5,7.2,40.6,6.9,40.7,6.6z"/>
	<path class="st0" d="M48.1,8c0.3-0.2,0.6-0.4,0.9-0.5c0.3-0.1,0.6-0.2,0.8-0.2c0.5,0,1,0.2,1.4,0.6c0.4,0.4,0.7,0.9,0.7,1.4
		c0,0.4-0.1,0.6-0.3,0.7c-0.2,0.1-0.7,0.2-1.4,0.2c-1.1,0.1-1.7,0.3-1.8,0.5l0,0v0c0,0.2,0.1,0.3,0.4,0.4c0.3,0.1,0.6,0.2,1,0.2
		c0.4,0,0.8-0.1,1.1-0.2c0.2-0.1,0.4-0.2,0.6-0.2c0.2,0,0.4,0,0.5,0.1c0.1,0.1,0.2,0.2,0.2,0.4c0,0.2-0.1,0.5-0.4,0.7
		c-0.5,0.3-1.1,0.5-2,0.5c-1,0-1.7-0.2-2.3-0.7c-0.5-0.4-0.7-0.8-0.7-1.2c0-0.2,0-0.4,0.1-0.8C47.1,9.3,47.5,8.6,48.1,8z M50.2,8.8
		c-0.1-0.2-0.2-0.3-0.3-0.3s-0.3,0.1-0.6,0.3C49.1,8.9,49,9,49,9c0,0.1,0.2,0.1,0.6,0.1C50,9.2,50.3,9.1,50.2,8.8
		C50.3,8.8,50.3,8.8,50.2,8.8z"/>
</g>
<g>
</g>
<g>
</g>
<g>
</g>
<g>
</g>
<g>
</g>
<g>
</g>
<g>
</g>
<g>
</g>
<g>
</g>
<g>
</g>
<g>
</g>
<g>
</g>
<g>
</g>
<g>
</g>
<g>
</g>
</svg>
