<?xml version="1.0" encoding="utf-8"?>
<!-- Generator: Adobe Illustrator 24.2.3, SVG Export Plug-In . SVG Version: 6.00 Build 0)  -->
<svg version="1.1" id="Layer_1" xmlns="http://www.w3.org/2000/svg" xmlns:xlink="http://www.w3.org/1999/xlink" x="0px" y="0px"
	 viewBox="0 0 451.5 374" style="enable-background:new 0 0 451.5 374;" xml:space="preserve">
<style type="text/css">
	.st0{fill:#EB94B3;}
	.st1{enable-background:new    ;}
	.st2{fill:#FFFFFF;}
</style>
<g id="Group_222" transform="translate(-9.771 -0.017)">
	
		<image style="overflow:visible;opacity:0.49;enable-background:new    ;" width="397" height="310" xlink:href="1A0154EF975F0C29.png"  transform="matrix(1 0 0 1 36.771 27.017)">
	</image>
	<g>
		<g>
			<g transform="matrix(1, 0, 0, 1, 9.77, 0.02)">
				
					<ellipse id="Ellipse_62-2_12_" transform="matrix(0.1219 -0.9925 0.9925 0.1219 20.4408 381.2602)" class="st0" cx="225.7" cy="179.1" rx="136" ry="180.5"/>
			</g>
		</g>
	</g>
</g>
<g class="st1">
	<path class="st2" d="M153.1,143.2c6.3-3.9,13.1-5.7,20.5-5.4c2.3,0.1,4,0.2,5.1,0.3c9.9,0.9,14.7,2.8,14.6,5.8
		c-0.1,2.6-2.4,3.8-6.9,3.6l-2.1-0.1c-0.9-0.1-2.1-0.2-3.7-0.3c-10.2-0.4-18.9,2.5-26.3,8.7c-7.3,6.1-11.1,13.5-11.4,22.1
		c-0.2,4.3,0.8,8.6,2.8,13c2.5,4.7,4.7,7.7,6.6,8.9c2.1,1.6,6.2,2.5,12.3,2.7c4.8,0.2,8.7-0.2,11.5-1.2c3.2-1.1,4.8-2.4,4.8-4
		c0.1-2-1.8-3.1-5.5-3.3c-3.5-0.1-6.5-1.7-9-4.8c-1-1.2-1.5-2.4-1.5-3.4c0.1-2.5,3.5-3.6,10.1-3.4c3,0.1,5.4,0.3,7.1,0.6
		c4.5,0.7,7.3,1.7,8.4,2.9c1.1,1.2,1.7,4.5,2,9.9c0.1,3,0.1,5.2,0.1,6.5c-0.3,8.4-1.7,12.5-4.3,12.4c-0.6,0-1.4-0.5-2.2-1.4
		c-1-1.1-2.7-1.7-4.9-1.8c-1.8-0.1-4.9,0.4-9.2,1.3c-3.6,0.8-7,1.2-10.2,1.1c-8.7-0.3-15.6-3.8-20.7-10.4
		c-5.1-6.6-7.4-15.4-7.1-26.4c0.3-8.2,1.9-14.8,4.8-20C141.8,152.1,146.5,147.4,153.1,143.2z"/>
	<path class="st2" d="M225.2,141.4c4.7-3.5,9.6-5.1,14.5-5c7.4,0.3,13.7,4.2,18.8,11.8c5.2,7.6,7.5,17,7.1,28.3
		c-0.7,20.3-7.4,32.8-20.2,37.5c-6.6,2.6-11.7,3.8-15.1,3.7c-4.4-0.2-8.7-2.7-12.8-7.5c-2.7-3-4.5-6.3-5.5-10
		c-1-3.7-1.6-9.2-1.8-16.7c-0.1-3.9-0.1-6.7,0-8.4c0.3-8.3,1.6-15.1,3.9-20.4C216.6,149.3,220.3,144.9,225.2,141.4z M250.1,153.7
		c-3.1-3.8-6.7-5.7-10.8-5.9c-5-0.2-9.4,2.3-13,7.4c-3.7,5-5.8,13.7-6.2,25.9c-0.4,10.1,0.8,16.7,3.3,19.9c2.5,3.1,5.9,4.7,10.3,4.9
		c4.8,0.2,9.3-1.3,13.5-4.5c2.7-2.1,4.4-4.3,5.4-6.7c0.9-2.4,1.5-6.5,1.7-12.2l0.2-4.7C254.7,165.5,253.2,157.4,250.1,153.7z"/>
	<path class="st2" d="M282.2,211.3c1.4-2.7,3.8-4.1,7.2-3.9c3.4,0.1,6.3,1.6,8.6,4.3c1.3,1.8,2,3.7,1.9,5.7c-0.1,2.3-1,4.1-2.7,5.6
		c-1.7,1.5-4,2.2-6.8,2.1c-2.8-0.1-5-1.1-6.7-2.9c-1.7-1.8-2.5-4-2.4-6.6C281.3,213.9,281.7,212.4,282.2,211.3z M288.7,165.1
		c0.1-9.2,0.2-15,0.3-17.4c0.4-11.7,1.5-17.5,3.4-17.5l0.5,0c1.5,0.6,2.4,3.5,2.8,8.7c0.4,5.2,0.4,14.2-0.1,26.8
		c-0.8,23.4-2.3,35.1-4.3,35C289.4,200.7,288.5,188.8,288.7,165.1z"/>
</g>
</svg>
