<?xml version="1.0" encoding="utf-8"?>
<!-- Generator: Adobe Illustrator 24.2.3, SVG Export Plug-In . SVG Version: 6.00 Build 0)  -->
<svg version="1.1" id="Layer_1" xmlns="http://www.w3.org/2000/svg" xmlns:xlink="http://www.w3.org/1999/xlink" x="0px" y="0px"
	 viewBox="0 0 318.3 534.7" style="enable-background:new 0 0 318.3 534.7;" xml:space="preserve">
<style type="text/css">
	.st0{fill:#DB5C30;}
	.st1{fill:#F68351;}
	.st2{fill:#3B1A0E;}
	.st3{fill:#D8271A;}
	.st4{fill:#95331C;}
	.st5{fill:#1E3C2C;}
	.st6{fill:#482080;}
	.st7{fill:#ACE1FA;}
	.st8{fill:#E50019;}
	.st9{fill:#E82727;}
	.st10{fill:#FFEE00;}
	.st11{fill:#39A95E;}
	.st12{fill:#0063B0;}
	.st13{fill:#FFFFFF;}
	.st14{fill:#BB5E2F;}
	.st15{fill:#8B461F;}
	.st16{fill:#0FA198;}
	.st17{fill:#6EC1B2;}
	.st18{fill:#10ADA3;}
	.st19{fill:none;stroke:#FFFFFF;stroke-width:2;stroke-miterlimit:10;}
</style>
<g transform="translate(-294.99 -691.912)">
	<g id="Artwork_13-2" transform="translate(-79.844 -227.544)">
		<path id="Path_403" class="st0" d="M474.8,1124.2h10.6c1.3-0.2,2.2-1.5,2-2.8c-0.2-1-1-1.8-2-2h-10.6c-1.3-0.2-2.6,0.7-2.8,2
			c-0.2,1.3,0.7,2.6,2,2.8C474.2,1124.3,474.5,1124.3,474.8,1124.2"/>
		<path id="Path_404" class="st1" d="M480.2,1039.7c35.3,0,64,28.6,64,64s-28.6,64-64,64s-64-28.6-64-64l0,0
			C416.2,1068.4,444.9,1039.7,480.2,1039.7"/>
		<path id="Path_405" class="st2" d="M448,1096.6c4,0,7.2,3.2,7.2,7.2s-3.2,7.2-7.2,7.2s-7.2-3.2-7.2-7.2S444,1096.6,448,1096.6
			L448,1096.6"/>
		<path id="Path_406" class="st2" d="M508.4,1096.6c4,0,7.2,3.2,7.2,7.2s-3.2,7.2-7.2,7.2c-4,0-7.2-3.2-7.2-7.2
			S504.4,1096.6,508.4,1096.6L508.4,1096.6"/>
		<path id="Path_407" class="st3" d="M457.2,1091.7c-0.9,0.8-2.3,0.8-3.2-0.1c-1.5-1.5-3.5-2.4-5.7-2.5c-2.4,0.2-4.7,1.2-6.5,2.8
			c-0.9,0.9-2.4,0.9-3.4,0c-0.9-0.9-0.9-2.4,0-3.4l0,0l0.3-0.3c2.6-2.3,6-3.7,9.5-3.8c4.1,0,6.3,1.3,9.1,3.8c1,0.9,1,2.4,0.1,3.3
			c0,0,0,0-0.1,0.1L457.2,1091.7L457.2,1091.7z"/>
		<path id="Path_408" class="st3" d="M517.6,1091.7c-0.9,0.8-2.3,0.8-3.2-0.1c-1.5-1.5-3.5-2.4-5.7-2.5c-2.4,0.2-4.7,1.1-6.5,2.7
			c-0.9,0.9-2.4,0.9-3.4,0c-0.9-0.9-0.9-2.4,0-3.4l0,0l0.3-0.3c2.6-2.3,6-3.7,9.5-3.8c4.1,0,6.3,1.3,9.1,3.8c1,0.9,1,2.4,0.1,3.3
			c0,0,0,0-0.1,0.1L517.6,1091.7L517.6,1091.7z"/>
		<path id="Path_409" class="st4" d="M479.9,1147.2c-5.9-0.1-11.6-2.1-16.2-5.7c-1-0.8-1.2-2.3-0.5-3.3l0,0l0.2-0.2l0,0
			c0.9-0.9,2.2-0.9,3.2-0.2c3.9,3,14.5,8.9,26.4-0.1c1-0.8,2.4-0.6,3.2,0.4l0,0c0.9,1,0.8,2.5-0.2,3.4h-0.1
			C491.3,1145.1,485.7,1147.1,479.9,1147.2"/>
		<path id="Path_410" class="st0" d="M476.9,1115.2c0.6-0.9,1.8-1.2,2.7-0.7c0.3,0.2,0.5,0.4,0.7,0.7l1.4,2.4l1.4,2.4
			c0.5,1,0.2,2.2-0.8,2.7c-0.3,0.2-0.6,0.2-0.9,0.2h-5.6c-1.1,0-2-0.9-1.9-2c0-0.3,0.1-0.6,0.2-0.9l1.4-2.4L476.9,1115.2z"/>
		<path id="Path_411" class="st2" d="M443.3,1099.9c0,0-6.6,2.2-9.8-2.8c0,0,2.7,7.3,6.6,8.4S443.3,1099.9,443.3,1099.9"/>
		<path id="Path_412" class="st2" d="M512.7,1099.9c0,0,8.2,2.2,12-2.8c0,0-3.3,7.3-8.1,8.4S512.7,1099.9,512.7,1099.9"/>
		<path id="Path_413" class="st1" d="M480.3,1039.7c35.3,0,64,28.7,64,64c0,35.3-28.7,64-64,64s-64-28.7-64-64
			C416.3,1068.4,444.9,1039.8,480.3,1039.7"/>
		<path id="Path_414" class="st2" d="M448.1,1096.6c4,0,7.2,3.2,7.2,7.2s-3.2,7.2-7.2,7.2s-7.2-3.2-7.2-7.2
			S444.1,1096.6,448.1,1096.6L448.1,1096.6"/>
		<path id="Path_415" class="st2" d="M508.5,1096.6c4,0,7.2,3.2,7.2,7.2s-3.2,7.2-7.2,7.2c-4,0-7.2-3.2-7.2-7.2
			S504.5,1096.6,508.5,1096.6L508.5,1096.6"/>
		<path id="Path_416" class="st3" d="M457.3,1091.7c-0.9,0.8-2.3,0.8-3.2-0.1c-1.5-1.5-3.5-2.4-5.7-2.5c-2.4,0.2-4.7,1.1-6.5,2.7
			c-0.9,0.9-2.4,0.9-3.4,0c-0.9-0.9-0.9-2.4,0-3.4l0,0l0.3-0.3c2.6-2.4,6-3.7,9.5-3.8c4.1,0,6.3,1.3,9.1,3.8c1,0.9,1,2.4,0.1,3.3
			c0,0,0,0-0.1,0.1L457.3,1091.7L457.3,1091.7z"/>
		<path id="Path_417" class="st3" d="M517.7,1091.7c-0.9,0.8-2.3,0.8-3.2-0.1c-1.5-1.5-3.5-2.4-5.7-2.5c-2.4,0.2-4.7,1.1-6.5,2.7
			c-0.9,0.9-2.4,0.9-3.4,0c-0.9-0.9-0.9-2.4,0-3.4l0,0l0.3-0.3c2.6-2.4,6-3.7,9.5-3.8c4.1,0,6.3,1.3,9.1,3.8c1,0.9,1,2.4,0.1,3.3
			c0,0,0,0-0.1,0.1L517.7,1091.7L517.7,1091.7z"/>
		<path id="Path_418" class="st0" d="M474.6,1123.8h10.6c1.3,0.2,2.6-0.7,2.8-2c0.2-1.3-0.7-2.6-2-2.8c-0.3,0-0.6,0-0.8,0h-10.6
			c-1.3,0.2-2.2,1.5-2,2.8C472.8,1122.8,473.6,1123.6,474.6,1123.8"/>
		<path id="Path_419" class="st4" d="M480,1147.2c-5.9-0.1-11.6-2.1-16.2-5.7c-1-0.8-1.2-2.3-0.5-3.3l0,0l0.2-0.2l0,0
			c0.9-0.9,2.2-0.9,3.2-0.2c3.9,3,14.5,8.9,26.4-0.1c1-0.8,2.4-0.6,3.2,0.4l0,0c0.9,1,0.8,2.5-0.2,3.4h-0.2
			C491.4,1145.1,485.8,1147.1,480,1147.2"/>
		<path id="Path_420" class="st1" d="M465.9,1158.8v22.5h25.6v-26L465.9,1158.8z"/>
		<path id="Path_421" class="st1" d="M462.1,1174.8c-2.9,0-5.8,0.4-8.6,1.2c-7.6,2.3-16.3,7.2-19.6,17.7
			c-6.5,20.1-32.1,72.7-36.6,107.6c-4.5,34.9-4.9,44.4,15,43.7c9.9-0.4,8.7-60.7,22.9-77.9c0,0-1.9,55.8,4.9,153.6
			c0.4,6.5-3.2,15.4-9.8,22.8c-11.9,13.3,20.9,16,36,4.7c11.7-8.7-3.1-121.9,10.4-123.5c12.9,1.6-1.2,114.8,9.9,123.5
			c14.3,11.3,45.4,8.6,34.1-4.7c-6.3-7.4-9.8-16.3-9.3-22.8c6.6-97.7,4.7-153.6,4.7-153.6c13.4,17.1,12.3,77.6,21.7,77.9
			c18.9,0.7,18.4-9.4,14.2-43.7c-4.2-34.3-28.5-87.4-34.6-107.5c-1.9-6.3-6.1-11.6-11.9-14.8c-4.3-2.4-9.2-3.7-14.2-3.8
			L462.1,1174.8z"/>
		<path id="Path_422" class="st1" d="M480.2,1039.7c35.3,0,64,28.6,64,64s-28.6,64-64,64s-64-28.6-64-64l0,0
			C416.2,1068.4,444.9,1039.7,480.2,1039.7"/>
		<path id="Path_423" class="st2" d="M450.1,1096.6c4,0,7.2,3.2,7.2,7.2s-3.2,7.2-7.2,7.2s-7.2-3.2-7.2-7.2
			S446.1,1096.6,450.1,1096.6L450.1,1096.6"/>
		<path id="Path_424" class="st2" d="M510.5,1096.6c4,0,7.2,3.2,7.2,7.2s-3.2,7.2-7.2,7.2c-4,0-7.2-3.2-7.2-7.2
			S506.5,1096.6,510.5,1096.6L510.5,1096.6"/>
		<path id="Path_425" class="st5" d="M459.4,1091.7c-0.9,0.8-2.3,0.8-3.2-0.1c-1.5-1.5-3.5-2.4-5.7-2.5c-2.4,0.2-4.7,1.1-6.5,2.7
			c-0.9,0.9-2.4,0.9-3.4,0c-0.9-0.9-0.9-2.4,0-3.4l0,0l0.3-0.3c2.6-2.4,6-3.7,9.5-3.8c4.1,0,6.3,1.3,9.1,3.8c1,0.9,1,2.4,0.1,3.3
			c0,0,0,0-0.1,0.1L459.4,1091.7L459.4,1091.7z"/>
		<path id="Path_426" class="st5" d="M519.8,1091.7c-0.9,0.8-2.3,0.8-3.2-0.1c-1.5-1.5-3.5-2.4-5.7-2.5c-2.4,0.2-4.7,1.1-6.5,2.7
			c-0.9,0.9-2.4,0.9-3.4,0c-0.9-0.9-0.9-2.4,0-3.4l0,0l0.3-0.3c2.6-2.3,6-3.7,9.5-3.8c4.1,0,6.3,1.3,9.1,3.8c1,0.9,1,2.4,0.1,3.3
			c0,0,0,0-0.1,0.1L519.8,1091.7L519.8,1091.7z"/>
		<path id="Path_427" class="st0" d="M478.5,1115.2c0.6-0.9,1.8-1.2,2.7-0.7c0.3,0.2,0.5,0.4,0.7,0.7l1.4,2.4l1.4,2.4
			c0.5,1,0.2,2.2-0.8,2.7c-0.3,0.2-0.6,0.2-0.9,0.2h-5.6c-1.1,0-2-0.9-1.9-2c0-0.3,0.1-0.6,0.2-0.9l1.4-2.4L478.5,1115.2z"/>
		<path id="Path_428" class="st4" d="M480.3,1146.2c-5.9-0.1-11.6-2.1-16.2-5.7c-1-0.8-1.2-2.3-0.5-3.3l0,0l0.2-0.2l0,0
			c0.9-0.9,2.2-0.9,3.2-0.2c3.9,3,14.5,8.9,26.4-0.1c1-0.8,2.4-0.6,3.2,0.4l0,0c0.9,1,0.8,2.5-0.2,3.4h-0.1
			C491.8,1144,486.2,1146,480.3,1146.2"/>
		<path id="Path_429" class="st2" d="M450.3,1096.6c4,0,7.2,3.2,7.2,7.2s-3.2,7.2-7.2,7.2s-7.2-3.2-7.2-7.2
			S446.3,1096.6,450.3,1096.6L450.3,1096.6"/>
		<path id="Path_430" class="st2" d="M510.8,1096.6c4,0,7.2,3.2,7.2,7.2s-3.2,7.2-7.2,7.2s-7.2-3.2-7.2-7.2
			S506.8,1096.6,510.8,1096.6L510.8,1096.6"/>
		<path id="Path_431" class="st6" d="M461.2,1174.7c0,0-0.7,24.7,15.1,25.7s15.5-25.4,15.5-25.4s7.5-1.7,18.2,6.4
			c16.6,12.6,40,64.9,40,64.9l-28.4,33.7l-4.1-7.8c0,0,0.2,11.5,4.1,37.4l-91.1,0.8c0,0,1.9-20.5,3.2-38.3l-5.5,10.5l-28.2-36.3
			C400,1246.3,422.6,1170.8,461.2,1174.7"/>
		<path id="Path_432" class="st5" d="M538.2,1037.6h4.2c0,0-9.5-26.4-39.7-26.4c0,0-1-2.4,6.2-1.9c0,0-6.9-4.6-10.3-2.5
			c0,0,0.3-4.8,2.4-6.5c-4.4,1-14.7,3.5-16.8,8.4c0,0-7.2-6.6-10.1,0.4c0,0-14.1-10.2-31.3-0.2c0,0,5.2-0.2,6.1,1.7
			c0,0-31.7,13.7-32.1,34.6c0,0-23,29-0.9,66.9c1-29.1,9.6-64.8,36.3-74.5c31.5-12.4,67.8,5.2,83.5,37.2c5.8,10.6,7.3,23.3,8.1,36.2
			c4.2-6.4,12.6-22.1,6.4-37.7c0,0,1.5-2.2,3.5,1.8S554.3,1047.6,538.2,1037.6"/>
		<path id="Path_433" class="st5" d="M452.1,1037.7c-26.7,9.6-35.2,45.3-36.2,74.4l2.3,3.7c0,0,7.2-10.4,6.6-23.6c0,0,3,3.3,2.4,10
			c0,0,15.3-9.2,22-22.9c0,0-1.2,12.9-7.8,18.1c0,0,13.9,1.5,20.8-8.1c0,0,2.2,6.3-2.4,9.4c0,0,17.3-6.6,16.9-28.8
			c0,0,8.7,23.3,3.2,30.7s9-10.3,10.6-19.5c1.6-9.2,0.3,14.6-4.5,19.5c-4.8,4.9,18.4-9.3,25.5-25.6c0,0,1.8,12.2-4.5,18.8
			c0,0,13.4-5.1,13.4-16.5c0,0-0.2,14.3,5.2,19.1c0,0,1.3-9.5,3.9-8.7c0,0,9.8,17.5,12,26.4c0,0,0.9-1.1,2.2-3
			c-0.8-12.9-2.4-25.6-8.1-36.2C519.9,1042.8,483.6,1025.3,452.1,1037.7"/>
		<path id="Path_434" class="st7" d="M446.8,1431.4c8.1,0.4,16.2,0.4,24.4,0.4c0.3-36.3-3.7-89.4,5.5-90.6c8.8,1.1,5,54.1,5.2,90.4
			h29.9c3.7-57.3,4.5-99.6,4.6-124H435c0.1,24.3,0.9,66.4,4.8,123.3L446.8,1431.4"/>
	</g>
	<g id="Group_31" transform="translate(-28.29 -16.841)">
		<path id="Path_700" class="st8" d="M418.2,1016.7h-14.9c-0.4,2.4-2.5,4.2-4.9,4.2H398v25l0,0c2.5,0.1,4.6,2,4.8,4.4h15.1
			c0.8-1.3,1.3-2.9,1.3-4.4l0.4-24.4C419.7,1019.8,419.2,1018.1,418.2,1016.7"/>
		<path id="Path_701" class="st9" d="M426.2,1019.9c0-1.1-0.2-2.2-0.6-3.2h-20.8c-0.4,1-0.6,2.1-0.6,3.2c-0.1,8.4,0.3,16.7,1.2,25
			c0.2,2,1,3.9,2.3,5.4h17.6c1.5-1.4,2.2-3.4,2.1-5.5C426.5,1036.6,426.1,1028.2,426.2,1019.9"/>
		<path id="Path_702" class="st10" d="M433,1019.4c0-0.9-0.1-1.8-0.3-2.7h-21.2c-0.3,0.9-0.5,1.8-0.5,2.7c-0.4,10.4,0,20.7,1.3,31
			h22C433.1,1040.1,432.7,1029.7,433,1019.4"/>
		<path id="Path_703" class="st11" d="M439.7,1019.4c0-0.9-0.1-1.8-0.4-2.7H418c-0.3,0.9-0.4,1.8-0.4,2.7
			c-0.1,9.6,0.3,19.2,1.1,28.8c0.1,0.8,0.2,1.5,0.5,2.2h21.4c0.1-0.7,0.1-1.5,0.1-2.2C439.9,1038.5,439.5,1029,439.7,1019.4"/>
		<path id="Path_704" class="st6" d="M432.3,1048.6c0,0.6,0.2,1.2,0.4,1.7h10.2c0.3-0.5,0.4-1.1,0.4-1.7c0-8.3-0.3-16.6-0.7-24.9
			c-0.3-2.8-2.7-4.8-5.5-4.7c-3,0.1-5.6,2-5.5,4.7C432,1032,432.4,1040.4,432.3,1048.6"/>
		<path id="Path_705" class="st12" d="M428.6,1050.4h10c0.4-0.6,0.5-1.3,0.4-2c-0.8-8.1-1-16.3-0.7-24.5c0.1-2.5-2.6-4.8-5.5-4.7
			s-5.4,2.1-5.5,4.7c-0.3,8.2-0.1,16.4,0.7,24.5C428,1049.1,428.2,1049.8,428.6,1050.4"/>
		<path id="Path_706" class="st13" d="M395.3,1025.7v15.7c0,5,4.1,9,9,9h38.5c5,0,9-4,9-9v-15.7c0-5-4-9-9-9l0,0h-38.5
			C399.3,1016.7,395.3,1020.7,395.3,1025.7 M442.2,1044c-10.1,1.7-23,3-31.2,0.6c-8.2-2.4-5.8-13.8-6-19.7l0,0c0-0.6,0.6-1,1.4-1.1
			c11.7-0.2,23.5,0,35.2,0.6c0.7,0.1,1.3,0.4,1.3,1c0.2,7,0.3,10.6,0.5,17.6C443.3,1043.5,442.8,1043.9,442.2,1044"/>
	</g>
	<g id="Group_34" transform="translate(-26.121 -22.8)">
		<path id="Path_724" class="st14" d="M334.9,1152.5l-11-24c0.7,0.8,1.8,1.1,2.9,0.9c0.6-0.2,1.3-0.4,1.9-0.8l5.2-2.5
			c2.6-1.1,5.1-2.3,7.6-3.5l6.4-3l1.5-0.7l4-1.8l1.2-0.6l2.6-1.2l1.6-0.8c0.9-0.6,2-0.9,3.2-0.8c1.1,0.5,2.1,1.4,2.5,2.7
			c0.8,1.8,1.6,3.5,2.5,5.3l-5.2,2.5c-0.5,0.2-1,0.6-1.3,1c-1.4,1.7-1.5,4-0.4,5.8c1.3,1.9,3.9,2.6,6,1.6l4.9-2.2l2,4.6
			c-0.1,0.1-0.2,0.2-0.2,0.3c-0.1,1.8-1.2,2.7-2.7,3.4l-29.9,13.7c-1.7,0.8-3.3,1.3-5,0.1H334.9"/>
		<path id="Path_725" class="st15" d="M373,1134.9c0.8,1.7,0.1,3.7-1.6,4.6c-0.1,0-0.2,0.1-0.3,0.1l-11.3,5.2l-19.5,9
			c-1.9,0.9-3.5,0.9-5-0.6l-0.4-0.7h0.3c1.7,1.2,3.3,0.7,5-0.1l29.9-13.8c1.5-0.7,2.6-1.6,2.7-3.4
			C372.8,1135.1,372.9,1134.9,373,1134.9"/>
		<path id="Path_726" class="st15" d="M323.3,1127.1c-0.1-2.2,1.2-3.5,3.2-4.3c3-1.3,6-2.7,8.9-4l-0.5,0.8l-6.3,9
			c-0.6,0.3-1.2,0.6-1.9,0.8c-1,0.2-2.1-0.1-2.9-0.9L323.3,1127.1"/>
		<path id="Path_727" class="st16" d="M343.2,1112.4l-0.9-0.4l-8.2-2.8c-1.9-0.6-2.2-0.5-2.9,1.4l-0.5,1c-0.8,2-0.8,2-2.9,1.8
			l-4.3-0.1c-1.8-0.2-2.2,0.1-2.3,1.8v0.5c-0.2,1.9,4.1,10.6,4.8,13.9c0.4,0,0.7,0,1.1-0.1l0.4-0.1l0.4-0.2
			c-0.1-1.4-2.8-9.7-2.8-10.6c0.3-2.7,0.4-2.7,3.1-2.3c0.4,0.1,0.7,0.1,0.6,0.5c-0.2,0.4-0.2,0.7-0.7,0.7h-0.4
			c-0.9-0.2-1.2,0.3-1.3,1.1c-0.1,0.8,2.2,7.6,2.6,9.7l1.4-0.7c1.1-0.5,2.2-0.9,3.2-1.4c0.1-3.9-1.1-11.4-0.3-13.5
			c0.1-0.4,0.4-0.6,0.8-0.6h0.1l4.4,1.6c0.3,0.1,0.6,0.4,0.5,0.7s-0.4,0.6-0.7,0.5c-0.1,0-0.1,0-0.2-0.1l-1.9-0.6
			c-2-0.6-2-0.6-2.7,1.2s0.7,6.6,1.2,9.8l0.1-0.1c0.5-0.4,1.2-0.6,1.8-0.6c0.6-2.5,1-5.7,2.5-6c0.1-0.4,0.3-0.7,0.6-1
			c2.2-2.3,5.1-2.5,7.9-0.5l5.8-1L343.2,1112.4"/>
		<path id="Path_728" class="st17" d="M333.7,1126l1.3-0.7c-0.5-3.3-1.6-8.7-1.2-9.8c0.4-1.1,0.7-1.9,2.7-1.2l1.8,0.5
			c0.4,0.1,0.8,0.1,0.9-0.4c0.1-0.3,0-0.7-0.3-0.9h-0.1l-4.4-1.5c-0.4-0.1-0.8,0-0.9,0.4v0.1C332.6,1114.7,333.7,1122.1,333.7,1126"
			/>
		<path id="Path_729" class="st17" d="M347.9,1117.1c-2.7-2-5.6-1.8-7.9,0.5c-0.3,0.3-0.5,0.6-0.6,1
			C342.2,1118.2,345,1117.7,347.9,1117.1"/>
		<path id="Path_730" class="st17" d="M327.7,1129l0.6-0.3l0.8-0.4c-0.5-2.1-2.8-9.1-2.7-9.8c0.1-0.7,0.4-1.3,1.3-1.1h0.4
			c0.5,0,0.6-0.4,0.6-0.7c0-0.3-0.2-0.5-0.6-0.5c-2.7-0.5-2.8-0.4-3,2.3C325,1119.3,327.6,1127.7,327.7,1129"/>
		<path id="Path_731" class="st18" d="M328.6,1128.6l6.3-9l0.5-0.8l4.9-7c1.1-1.6,1.5-1.7,3.1-0.6l0.9,0.6c1.8,1.3,1.8,1.3,3.3,0
			l2.2-1.8c1.3-1.1,1.8-1.1,2.9,0.2l0.3,0.4l4,4.9l-2.6,1.2l-1.8-2.1c-1.6-2.1-1.8-2.1-3.7-0.2c-0.2,0.2-0.5,0.5-0.2,0.8
			c0.3,0.3,0.5,0.5,0.9,0.2l0.3-0.2c0.6-0.7,1.1-0.5,1.6,0.2l1.6,2l-4,1.8c-2.1-1.7-4.3-3.2-6.5-4.7c-0.3-0.3-0.7-0.2-1,0
			c0,0,0,0.1-0.1,0.1l-2.6,3.8c-0.2,0.3-0.2,0.7,0.1,0.9l0,0c0.4,0.3,0.7,0.1,0.9-0.2l1.1-1.5c1.5-1.9,1.5-1.9,3.1-0.8
			c1.3,0.8,2.6,1.8,3.7,2.8l-6.4,3c-0.3-0.3-0.7-0.4-1.1-0.5c-3.1-0.6-5.5,0.8-6.5,4L328.6,1128.6"/>
		<path id="Path_732" class="st15" d="M357,1115.4l-4-4.9l2.9-1.3c1.7-0.8,3.7-0.1,4.5,1.5l0,0c0.5,1,0.9,2.1,1.4,3
			c-1.2-0.3-2.2,0.4-3.2,0.8L357,1115.4"/>
		<path id="Path_733" class="st17" d="M347.8,1119.7c-1.2-1-2.4-2-3.7-2.8c-1.2-0.9-1.6-1.1-2.8,0.5l-1.1,1.5
			c-0.2,0.3-0.6,0.4-0.9,0.3l0,0c-0.3-0.2-0.4-0.6-0.2-0.9l0,0l2.6-3.7c0.2-0.3,0.6-0.4,1-0.2c0,0,0.1,0,0.1,0.1
			c2.2,1.5,4.4,3,6.5,4.7L347.8,1119.7"/>
		<path id="Path_734" class="st17" d="M333.8,1126.1c1.1-3.2,3.4-4.6,6.5-4c0.4,0.1,0.8,0.2,1.1,0.5
			C338.9,1123.9,336.4,1125.1,333.8,1126.1"/>
		<path id="Path_735" class="st17" d="M353.2,1117.2l-1.6-1.9c-0.5-0.6-1-0.9-1.6-0.2l-0.3,0.2c-0.4,0.3-0.6,0.1-0.9-0.2
			c-0.3-0.3-0.1-0.5,0.2-0.8c1.9-1.9,2-1.9,3.7,0.2l1.8,2.1L353.2,1117.2"/>
		<path id="Path_736" class="st15" d="M368.6,1121.8c-0.5-0.1-1-0.5-1.5-0.2l-5.2,2.5c-0.5,0.2-1,0.6-1.3,1c-1.4,1.7-1.5,4-0.4,5.8
			c1.3,1.9,3.9,2.6,6,1.6l4.9-2.2c0.5-0.3,0.8-0.9,0.8-1.5L368.6,1121.8"/>
	</g>
	<g id="Group_33" transform="translate(-77.034 -61.299)">
		<path id="Path_719" class="st7" d="M527.2,827.4c10,0.1,19.1-5.9,23-15.1c4-9.2,2-20-4.9-27.2c-6.9-7.2-17.5-9.6-26.9-6
			c-7.8-7.4-19.2-9.6-29.2-5.6c-9.1-18.2-31.2-25.5-49.4-16.4c-8,4-14.2,10.8-17.5,19c-14.1,1.2-24.7,13.5-23.6,27.6
			c1,13.1,11.7,23.3,24.8,23.7"/>
		<path id="Path_720" class="st7" d="M424.9,864.1c0.3,2.8-1,5.5-3.4,6.9c-2.4,1.5-5.3,1.5-7.7,0c-2.4-1.5-3.7-4.2-3.4-6.9
			c0-4.1,7.3-16.2,7.3-16.2S424.9,860,424.9,864.1"/>
		<path id="Path_721" class="st7" d="M535.2,850.2c0.3,2.8-1,5.5-3.4,6.9c-2.4,1.5-5.3,1.5-7.7,0s-3.7-4.2-3.4-6.9
			c0-4.1,7.3-16.2,7.3-16.2S535.3,846.2,535.2,850.2"/>
		<path id="Path_722" class="st7" d="M490.6,870.8c0,2.8-2.2,5-5,5c-2.8,0-5-2.2-5-5c0-2.8,5-11.2,5-11.2S490.6,868,490.6,870.8"/>
		<path id="Path_723" class="st7" d="M459.2,853c0,2.8-2.2,5-5,5c-2.8,0-5-2.2-5-5s5-11.2,5-11.2S459.2,850.2,459.2,853"/>
	</g>
</g>
<line class="st19" x1="137" y1="250" x2="305" y2="250"/>
</svg>
