<?xml version="1.0" encoding="utf-8"?>
<!-- Generator: Adobe Illustrator 24.2.3, SVG Export Plug-In . SVG Version: 6.00 Build 0)  -->
<svg version="1.1" id="Layer_1" xmlns="http://www.w3.org/2000/svg" xmlns:xlink="http://www.w3.org/1999/xlink" x="0px" y="0px"
	 viewBox="0 0 318.3 534.7" style="enable-background:new 0 0 318.3 534.7;" xml:space="preserve">
<style type="text/css">
	.st0{fill:#662D91;}
	.st1{fill:#00B9B2;}
	.st2{fill:#FFFFFF;}
	.st3{fill:#E27442;}
	.st4{fill:#F79866;}
	.st5{fill:#4C2511;}
	.st6{fill:#E14026;}
	.st7{fill:#A74727;}
	.st8{fill:#DD5D92;}
	.st9{fill:#0CADA3;}
	.st10{fill:#232322;}
	.st11{fill:#333231;}
	.st12{fill:#F2AF20;}
	.st13{fill:none;stroke:#FFFFFF;stroke-width:2;stroke-miterlimit:10;}
</style>
<g>
	<path class="st0" d="M165,412.4L165,412.4c3.2,1.4,7-0.2,8.5-3.5l36.1-86.6c1.4-3.2-0.2-7-3.5-8.5l0,0c-3.2-1.4-7,0.2-8.5,3.5
		l-36.1,86.6C160.2,407.2,161.8,411,165,412.4z"/>
	<path class="st1" d="M250.4,345.5l-97.9-40.8c-4.5-1.9-6.7-7.1-4.8-11.6l24.2-58c1.9-4.5,7.1-6.7,11.6-4.8l97.9,40.8
		c4.5,1.9,6.7,7.1,4.8,11.6l-24.2,58C260.1,345.3,255,347.4,250.4,345.5z"/>
	<g>
		<path class="st2" d="M208.6,263.7c0.6,0.3,1.3,0.4,1.9,0.4c0.6,0,1.3-0.2,1.9-0.4c1.2-0.5,2-1.1,2.3-1.9c0.3-0.6,0.3-1.4,0-2.3
			c-0.2-0.7-0.6-1.6-1.4-2.8c-0.4-0.6-0.6-1.1-0.6-1.4c0.6,0.2,1.1,0.4,1.4,0.4c0.6,0,1.3-0.3,1.4-0.8c0.2-0.4,0.3-1.1-0.3-1.9
			c-0.4-0.5-0.8-0.7-1.4-1c-1.1-0.5-2.1-0.5-3.1-0.2c-0.9,0.4-1.4,0.9-1.7,1.4c-0.5,1.1,0,2.7,1.4,5.2c0.9,1.4,0.7,1.9,0.8,1.9
			c0,0-0.2,0.2-0.8,0.2c-0.4,0-0.6,0-0.6-0.1c-0.2-0.1-0.2-0.2-0.2-0.2c-0.1-0.2-0.1-0.3,0-0.5c0.4-1.4-0.5-1.9-0.7-2
			c-0.3-0.2-0.8-0.2-1.4,0.2c-0.4,0.2-0.6,0.5-0.8,0.9c-0.1,0.2-0.2,0.3-0.2,0.5c-0.4,0.9-0.3,1.7,0.2,2.5
			C207.1,262.7,207.7,263.3,208.6,263.7z"/>
		<path class="st2" d="M221.4,258.5l1,0.5l-0.6,1.9c-0.7,2.3-1.3,3.7-1.6,4.4c-0.3,0.7-0.5,1.3-0.5,1.7c-0.1,0.6,0.3,1.3,0.9,1.5
			c0.2,0.1,0.4,0.2,0.5,0.2c0.4,0,0.7-0.2,1.1-0.5c0.2-0.2,0.5-0.6,0.7-1.3c0.2-0.5,0.6-1.6,1.2-3.2l1.3-3.5l1.2,0.5
			c1,0.4,1.5,0.5,2,0.5c1,0.1,1.4-0.5,1.6-0.7l0.2-0.3c0.2-0.5,0.3-1.3-1.1-2c-0.5-0.3-1.8-0.9-3.8-1.7c-2-0.8-3.2-1.4-3.9-1.4
			c-1.4-0.5-2,0.2-2.2,0.6c-0.1,0.1-0.1,0.2-0.1,0.3l0,0c-0.2,0.6,0,1.2,0.5,1.7C220.1,257.7,220.5,258.1,221.4,258.5z"/>
		<path class="st2" d="M229.5,266.9c-0.4,1-0.5,1.8-0.6,2.3c-0.1,0.6,0,1.4,0.3,1.9c0.4,1.1,1,1.8,1.8,2.1l0,0
			c0.5,0.2,1.3,0.3,2.3,0.3c0.1,0,0.1,0,0.2,0c2.3,0,4-1.4,5.1-4.3c0.6-1.5,0.8-3.1,0.5-4.4c-0.4-1.4-1.1-2.5-2.3-3
			c-0.8-0.4-1.7-0.4-2.7-0.1c-1,0.2-1.8,0.7-2.3,1.4c-0.6,0.6-1.2,1.4-1.6,2.6C229.7,266,229.7,266.4,229.5,266.9z M234.2,270
			c-0.1,0.2-0.3,0.2-0.5,0.3c-0.5,0.2-0.8,0.2-1.2,0c-0.4-0.2-0.5-0.3-0.5-0.5c0,0-0.2-0.5,0.5-1.9c0.6-1.6,1.3-2.3,1.6-2.4
			c0.6-0.4,0.9-0.3,1.1-0.2c0.2,0.1,0.4,0.2,0.5,0.6c0,0.1,0.2,0.6-0.5,2.4l-0.2,0.6C234.6,269.6,234.3,269.9,234.2,270z"/>
		<path class="st2" d="M238.8,276.7c0.2,0.1,0.4,0.1,0.5,0.1c0.5,0,0.9-0.2,1.4-0.7c0.2-0.2,0.5-0.6,1.1-2.2
			c0.5-1.1,0.6-1.5,0.8-1.7c0.1,0,0.2,0,0.3,0c1,0.2,1.8,0.1,2.5-0.3l0,0c0.7-0.3,1.4-0.9,1.9-1.7c0.2-0.4,0.5-0.6,0.5-0.9
			c0.2-0.5,0.3-1.3-0.2-2.3c-0.5-0.8-1.1-1.4-2.1-1.9c-0.6-0.3-1.4-0.4-2-0.3c-0.6,0.1-1.3,0.5-1.8,1.4c-0.4,0.6-1,1.9-1.9,4.1
			c-0.9,2.1-1.4,3.4-1.5,4.1C237.9,275.9,238.4,276.5,238.8,276.7z M244.3,268.6c0,0.1-0.2,0.2-0.4,0.3h-0.1c0-0.1,0-0.1,0.1-0.2
			c0.1-0.2,0.1-0.2,0.2-0.3C244.3,268.5,244.3,268.5,244.3,268.6C244.3,268.6,244.3,268.6,244.3,268.6z"/>
		<path class="st2" d="M183.7,280.5L183.7,280.5c0.5,0.2,1.1,0.3,1.8,0.3c0.4,0,0.7,0,1.2-0.1c1.1-0.2,2.3-0.4,2.6-1.3
			c0.5-1.2-0.1-1.9-0.6-2.2c-0.5-0.2-1.1-0.2-1.8,0c-0.7,0.2-1.4,0.1-1.9-0.2c-0.3-0.2-0.5-0.2-0.5-0.2l0,0c0,0-0.1-0.2-0.1-0.9
			c0-0.5,0.1-1.1,0.3-1.5c0.4-1,0.9-1.5,1.6-1.9c0.2-0.1,0.6-0.2,1.5,0.2l0.4,0.2c0.6,0.3,1,0.5,1.1,0.5c1.6,0.6,2.3,0,2.3-0.5
			c0.2-0.3,0.2-0.6,0.1-1.1c-0.1-0.5-0.5-1-1.1-1.4c-0.5-0.4-1.1-0.6-1.6-0.9c-1.1-0.5-1.9-0.6-2.7-0.5c-1,0.2-1.9,0.6-2.9,1.4
			c-0.9,0.8-1.4,1.8-2,2.9c-0.5,1.1-0.6,2.1-0.5,3.2C181,278.5,182,279.7,183.7,280.5z"/>
		<path class="st2" d="M189.6,283.2l3.8,1.5c1.6,0.6,2.3,0.8,2.5,0.9c0.2,0.1,0.4,0.1,0.5,0.1c0.9,0,1.3-0.6,1.4-0.8
			c0.6-1.4-1.4-2.3-2.4-2.9l-1.4-0.6l1.3-3.2c1.6-4.2,1.5-4.9,1.1-5.4c-0.2-0.2-0.3-0.2-0.5-0.3c-0.6-0.2-1.3-0.2-1.8,0.4
			c-0.2,0.2-0.4,0.4-1.4,3.1c-0.4,0.9-0.6,1.5-0.8,2.1L189.6,283.2z"/>
		<path class="st2" d="M200.5,287.1c0.2,0.1,0.3,0.1,0.5,0.1c0.4,0,0.9-0.2,1.4-1c0.3-0.5,0.7-1.4,1.4-2.7c0.2-0.5,0.5-1.1,0.9-2
			c0.5-1.1,0.7-1.8,0.8-2.2c0.2-0.5,0.2-0.9,0.2-1.4c-0.1-0.8-0.6-1.2-0.9-1.3c-0.2-0.1-0.6-0.2-1,0c-0.5,0.2-0.8,0.2-2.7,4.8
			c-0.7,1.7-1.2,2.9-1.4,3.5C199.5,286.4,200.1,286.9,200.5,287.1z"/>
		<path class="st2" d="M214.1,280.3c-0.1,0.1-0.1,0.1-0.2,0.1c0,0,0,0,0-0.1c0-1.4-0.6-1.9-1.1-2.1c-0.5-0.2-1.4-0.3-2.3,1
			c-0.1,0.2-0.6,0.8-3.5,4.4c-2.3,2.9-2.9,3.7-3.1,4.1c-0.2,0.4-0.1,0.7,0,0.9c0.2,0.5,0.5,0.6,0.7,0.7c1,0.4,2-0.1,5.2-3.8l1.5-1.9
			c0.2,0.6,0.5,1.1,1.1,1.3c0.4,0.2,0.7,0.2,1.1,0c0.3-0.1,0.6-0.2,0.9-0.5c0,0.5,0,1.1-0.1,2c-0.4,5.6,0.1,6.8,1.1,7.2l0.3,0.1l0,0
			l0.2,0.1l0.2-0.1c0.5-0.1,0.9-0.4,1.1-0.8c0.1-0.2,0.2-0.5,0.5-5.8c0.2-2.7,0.2-4.4,0.2-5.4c-0.1-1.1-0.2-2.1-1.1-2.4l0,0
			c-0.3-0.2-0.7-0.2-1.4,0.2C215,279.7,214.6,279.9,214.1,280.3z"/>
		<path class="st2" d="M219.6,296c1.1,0.5,1.8-0.8,2.3-1.5l0.4-0.6l1.2,0.5c0.4,0.2,0.6,0.2,0.9,0.3v0.1c-0.2,0.6-0.4,1.2-0.3,1.9
			c0.1,0.8,0.5,1.4,1,1.5c0.2,0.1,0.3,0.1,0.5,0.1c0.4,0,0.7-0.2,1.1-0.5c0.2-0.2,0.3-0.5,0.5-0.8c0.5-1.1,0.9-2.6,1.3-4.8
			c0.6-3.2,0.5-3.9,0.4-4.3c-0.2-0.4-0.4-0.7-0.7-1.1c-0.4-0.4-0.7-0.6-1.1-0.8c-0.7-0.3-1.4-0.3-1.9-0.1c-0.3,0.2-0.8,0.5-2,1.4
			c-0.7,0.6-1.4,1.4-1.8,2.1c-0.5,0.6-0.9,1.4-1.4,2.6c-0.2,0.6-0.5,1.1-0.6,1.5c-0.2,0.5-0.2,0.9-0.2,1.2
			C218.7,295.4,219.3,295.8,219.6,296z M224.2,290.4c0.4-0.5,0.8-1,1.1-1.2h0.1c0,0.2-0.2,0.6-0.3,1.4l-0.2,0.5l-1-0.5L224.2,290.4z
			"/>
		<path class="st2" d="M243.2,293.2l0.2-0.3c0.2-0.5,0.3-1.3-1.1-2c-0.5-0.3-1.8-0.9-3.8-1.7c-2-0.8-3.2-1.4-3.9-1.4
			c-1.4-0.5-2,0.2-2.2,0.6c0,0.1-0.1,0.2-0.1,0.2l0,0c-0.2,0.6,0.1,1.2,0.5,1.7c0.3,0.3,0.8,0.6,1.6,1l1,0.5l-0.6,1.9
			c-0.7,2.3-1.3,3.7-1.6,4.4c-0.3,0.7-0.5,1.3-0.5,1.7c-0.1,0.6,0.3,1.3,0.9,1.5c0.2,0.1,0.4,0.2,0.5,0.2c0.4,0,0.7-0.2,1.1-0.5
			c0.2-0.2,0.5-0.6,0.7-1.3c0.2-0.5,0.6-1.6,1.2-3.2l1.3-3.5l1.2,0.5c1,0.4,1.5,0.5,2,0.5C242.5,294.1,243,293.5,243.2,293.2z"/>
		<path class="st2" d="M253.2,297c-0.2-0.3-0.6-0.5-1.1-0.7c-1-0.4-2.2-0.6-3.4-0.5c-2.9,0.1-5,1.5-6.1,4.3
			c-0.5,1.1-0.6,1.7-0.6,2.3c0,0.6,0.2,1.2,0.6,2.1c0.4,0.7,0.7,1.4,1.2,1.7c0.5,0.4,1.1,0.7,1.9,1.1c1.2,0.5,2.3,0.7,3.2,0.9
			c0.2,0,0.3,0,0.5,0c1.1,0,1.8-0.4,2.1-1.1c0.3-0.7,0-1.5-0.8-1.9c-0.2-0.1-0.5-0.2-1.4-0.4c-0.7-0.2-1.4-0.4-2.1-0.6
			c-0.8-0.4-1.4-0.7-1.7-1.1c-0.2-0.2-0.2-0.3-0.2-0.5c0.3,0.1,0.7,0.3,1.6,0.6c1.4,0.6,1.9,0.7,2.3,0.8c1,0.2,1.4-0.3,1.7-0.7
			c0.1-0.2,0.1-0.3,0.2-0.5c0.1-0.6-0.2-1.3-0.6-1.6c-0.2-0.2-0.6-0.5-1.9-1.1c-0.4-0.2-0.6-0.4-0.9-0.5c0.2-0.1,0.4-0.1,0.6-0.2
			c0.8-0.2,1.5-0.1,2.3,0.2c1.5,0.5,2.6,0.2,3.2-0.6l0.2-0.2C253.6,298,253.5,297.5,253.2,297z"/>
		<path class="st2" d="M182.2,298.5c0.2-0.1,0.6-0.2,1.5,0.2l0.4,0.2c0.6,0.3,1,0.5,1.1,0.5c1.6,0.6,2.3,0,2.3-0.5
			c0.2-0.3,0.2-0.6,0.1-1.1c-0.1-0.5-0.5-1-1.1-1.4l0,0c-0.5-0.4-1.1-0.6-1.6-0.9c-1.1-0.5-1.9-0.6-2.7-0.5c-1,0.2-1.9,0.6-2.9,1.4
			c-0.9,0.8-1.4,1.8-2,2.9c-0.5,1.1-0.6,2.1-0.5,3.1c0.2,1.8,1.1,3.2,2.7,3.9c0.5,0.2,1.1,0.3,1.8,0.3c0.4,0,0.7,0,1.2-0.1
			c1.1-0.2,2.3-0.4,2.6-1.3c0.5-1.2-0.1-1.9-0.6-2.2c-0.5-0.2-1.1-0.2-1.8,0c-0.7,0.2-1.4,0.1-1.9-0.2c-0.4-0.2-0.5-0.2-0.5-0.2
			c0-0.1-0.1-0.2-0.1-0.9c0-0.5,0.1-1.1,0.3-1.5C181,299.3,181.6,298.7,182.2,298.5z"/>
		<path class="st2" d="M197.2,304c0.6-1.4,0.6-1.9,0.6-2.3c0-0.6-0.4-1.3-1.1-1.5l0,0c-0.7-0.3-1.4-0.2-1.9,0.5
			c-0.2,0.2-0.5,0.6-1.1,2.2l-0.6,1.4l-1.8-0.7l0.5-1.4c0.3-0.8,0.5-1.5,0.5-2.3c0.1-1-0.2-1.6-0.8-1.9c-0.4-0.2-1.1-0.2-1.6,0.5
			c-0.2,0.2-0.5,0.6-1.4,3c-0.4,0.9-0.6,1.4-0.8,2c-1,2.6-1.2,3.3-1.3,3.7c-0.3,1.3,0.3,1.9,0.6,2c0.1,0.1,0.2,0.2,0.4,0.2
			c0.5,0.2,1.2,0.2,1.6-0.5c0.2-0.2,0.4-0.5,0.7-1.5l0.4-0.9l1.8,0.7l-0.3,0.9c-0.2,0.7-1,2.7,0.5,3.2c0.2,0.1,0.3,0.1,0.5,0.1
			c0.5,0,1.1-0.3,1.5-1.2c0.4-0.6,1-1.8,1.9-3.8C196.8,305.1,197.1,304.2,197.2,304z"/>
		<path class="st2" d="M205.7,305.5c-0.2-0.4-0.4-0.7-0.7-1.1l0,0c-0.4-0.4-0.7-0.6-1.1-0.8c-0.7-0.3-1.4-0.3-1.9-0.1
			c-0.3,0.2-0.8,0.4-2,1.4c-0.7,0.6-1.4,1.4-1.8,2.1c-0.5,0.6-0.9,1.4-1.4,2.6c-0.2,0.6-0.5,1.1-0.6,1.5c-0.2,0.5-0.2,0.9-0.2,1.2
			c-0.1,1,0.5,1.3,0.6,1.4c1.1,0.5,1.8-0.8,2.3-1.5l0.4-0.6l1.2,0.5c0.4,0.2,0.6,0.2,0.9,0.3v0.1c-0.2,0.6-0.4,1.2-0.3,1.9
			c0.1,0.8,0.5,1.4,1,1.5c0.2,0.1,0.3,0.1,0.5,0.1c0.4,0,0.7-0.2,1.1-0.5c0.2-0.2,0.3-0.5,0.5-0.8c0.5-1.1,0.9-2.6,1.3-4.8
			C205.9,306.6,205.9,306,205.7,305.5z M201.3,308.2c0.4-0.5,0.8-1,1.1-1.2h0.1c0,0.2-0.2,0.6-0.3,1.4l-0.2,0.5l-1-0.5L201.3,308.2z
			"/>
		<path class="st2" d="M216.1,307.9c-0.2-0.1-1.1-0.4-1.9,0.8c-0.3,0.5-0.6,1.2-1.1,2.4l-0.1,0.2c-0.2-0.6-0.2-1.3-0.4-2.1
			c-0.5-2.6-0.9-3.2-1.4-3.4c-0.8-0.3-1.4,0.2-2.2,1.4c-0.4,0.7-1,2-1.7,3.9c-0.9,2.2-1.4,3.5-1.6,4.2c-0.5,1.5,0.2,2.1,0.6,2.3
			c0.3,0.2,1.2,0.3,1.9-0.9c0.3-0.5,0.7-1.4,1.4-2.9l0.4-0.9c0.2,0.9,0.3,1.9,0.4,3.2c0.1,1.1,0.2,1.8,0.2,2.3
			c0.1,0.4,0.2,1.2,0.9,1.4c0.2,0.1,0.3,0.1,0.5,0.1c1,0,1.6-1.4,2.4-3.3c0.2-0.4,0.5-1.3,1.1-2.5c0.7-1.9,1.2-3.2,1.4-3.9
			C217.1,308.9,216.9,308.1,216.1,307.9z"/>
		<path class="st2" d="M221.4,315.5c1-0.4,1.9-0.3,2.9,0.2c0.2,0.1,0.2,0.1,0.3,0.2l0.4,0.2c0.5,0.2,0.8,0.2,1.2,0.2
			c0.5-0.1,1-0.4,1.1-0.9c0.6-1.4-1.3-2.3-2-2.7c-0.2-0.1-0.4-0.2-0.6-0.3c-1.1-0.5-2.3-0.6-3.3-0.4c-1.2,0.2-2.1,0.6-2.8,1.3
			s-1.4,1.4-1.8,2.6c-0.6,1.5-0.7,3-0.4,4.2c0.4,1.4,1.3,2.3,2.6,2.8c0.5,0.2,1,0.3,1.5,0.4c0.6,0.1,0.9,0.2,1,0.2
			c0.2,0.4,0.4,0.6,0.6,0.6c0.2,0.1,0.4,0.1,0.5,0.1c1.1,0,1.6-1.4,1.9-2c0.1-0.2,0.2-0.5,0.3-0.9c0.3-1,0.4-1.4,0.2-2
			c-0.2-0.5-0.6-0.8-1.4-1.3c-0.2-0.2-0.5-0.3-1-0.5c-1.8-0.7-2.4-0.2-2.7,0.5c-0.2,0.4-0.2,0.7,0,1.2c0,0.1,0,0.1,0.1,0.2
			c-0.4-0.2-0.5-0.3-0.5-0.4c0,0-0.2-0.2-0.2-0.9c0-0.5,0-0.9,0.2-1.3C219.7,316.3,220.5,315.8,221.4,315.5z"/>
		<path class="st2" d="M236.5,317.2c-1-0.4-2.1-0.6-3.4-0.5c-2.9,0.1-5,1.5-6.1,4.3c-0.5,1.1-0.6,1.7-0.6,2.3c0,0.6,0.2,1.2,0.6,2.1
			c0.4,0.7,0.7,1.4,1.2,1.7c0.5,0.4,1.1,0.7,1.9,1.1c1.2,0.5,2.3,0.7,3.2,0.9c0.2,0,0.3,0,0.5,0c1.1,0,1.8-0.4,2.1-1.1
			c0.2-0.4,0.2-0.8,0-1.1c-0.1-0.2-0.3-0.5-0.8-0.7c-0.2-0.1-0.5-0.2-1.4-0.4c-0.7-0.2-1.4-0.4-2.1-0.6c-0.8-0.4-1.4-0.7-1.7-1.1
			c-0.2-0.2-0.2-0.3-0.2-0.5c0.3,0.1,0.7,0.3,1.6,0.6c1.4,0.6,1.9,0.7,2.3,0.8c1,0.2,1.4-0.3,1.7-0.7c0.1-0.2,0.1-0.3,0.2-0.5
			c0.1-0.6-0.2-1.3-0.6-1.6c-0.2-0.2-0.6-0.5-1.9-1.1c-0.4-0.2-0.6-0.4-0.9-0.5c0.2-0.1,0.4-0.1,0.6-0.2c0.8-0.2,1.5-0.1,2.3,0.2
			c0.6,0.2,2.3,0.6,3.2-0.6l0.2-0.2C238,319.1,238.3,318,236.5,317.2z"/>
	</g>
</g>
<g id="Group_39" transform="translate(-664.139 -52.171)">
	<path id="Path_62" class="st3" d="M767,218.5h11.8c1.5,0,2.6-1.2,2.6-2.6c0-1.4-1.2-2.6-2.6-2.6H767c-1.5,0-2.6,1.2-2.6,2.6
		S765.5,218.5,767,218.5L767,218.5z"/>
</g>
<g id="Group_61" transform="translate(-878.757 -60.012)">
	
		<ellipse id="Ellipse_43" transform="matrix(0.7071 -0.7071 0.7071 0.7071 114.9875 761.6894)" class="st4" cx="976.9" cy="242" rx="64.2" ry="64.2"/>
	<circle id="Ellipse_44" class="st5" cx="944.6" cy="242.2" r="7.3"/>
	<circle id="Ellipse_45" class="st5" cx="1005.2" cy="242.2" r="7.3"/>
	<g id="Group_58">
		<path id="Path_82" class="st6" d="M953.9,230c-1,0.8-2.3,0.7-3.2-0.1c-1.5-1.5-3.5-2.4-5.7-2.5c-2.7,0-5.1,1.5-6.5,2.7
			c-0.9,0.7-2.2,0.7-3.1-0.1l0,0c-1.1-0.9-1.1-2.3-0.3-3.4c0.1-0.1,0.2-0.2,0.3-0.3c2.1-1.7,5.4-3.9,9.6-3.9c3.2,0,6.3,1.4,9.1,3.9
			c1,0.9,1,2.4,0.1,3.4C954,229.9,953.9,230,953.9,230L953.9,230z"/>
	</g>
	<g id="Group_59">
		<path id="Path_83" class="st6" d="M1014.4,230c-1,0.8-2.3,0.7-3.2-0.1c-1.5-1.5-3.5-2.4-5.7-2.5c-2.7,0-5.1,1.5-6.5,2.7
			c-0.9,0.7-2.2,0.7-3.1-0.1l0,0c-1.1-0.9-1.1-2.3-0.3-3.4c0.1-0.1,0.2-0.2,0.3-0.3c2.1-1.7,5.4-3.9,9.6-3.9c3.2,0,6.3,1.4,9.1,3.9
			c1,0.9,1,2.4,0.1,3.4C1014.6,229.9,1014.5,230,1014.4,230L1014.4,230z"/>
	</g>
	<g id="Group_60">
		<path id="Path_84" class="st7" d="M976.7,285.7c-5.9-0.1-11.6-2.1-16.3-5.7c-1.1-0.8-1.3-2.3-0.5-3.3c0.1-0.1,0.2-0.2,0.2-0.2l0,0
			c0.8-0.9,2.3-1,3.2-0.2c4,3,14.5,8.9,26.5-0.1c1.1-0.7,2.4-0.6,3.2,0.4l0,0c0.9,1.1,0.7,2.5-0.2,3.4c-0.1,0-0.1,0.1-0.2,0.1
			C987.1,284.2,981.6,285.7,976.7,285.7z"/>
	</g>
	<path id="Path_85" class="st3" d="M973.5,253.6c0.5-1,1.8-1.3,2.7-0.7c0.3,0.2,0.5,0.5,0.7,0.7l1.4,2.4l1.4,2.4
		c0.5,1,0.2,2.2-0.7,2.7c-0.3,0.2-0.6,0.3-1,0.3h-5.6c-1.1,0-2-0.9-2-2c0-0.4,0.1-0.6,0.3-1l1.4-2.4L973.5,253.6z"/>
	<path id="Path_86" class="st5" d="M939.9,238.3c0,0-6.7,2.3-9.8-2.8c0,0,2.7,7.3,6.7,8.5C940.6,245.1,939.9,238.3,939.9,238.3z"/>
	<path id="Path_87" class="st5" d="M1009.5,238.3c0,0,8.2,2.3,12.1-2.8c0,0-3.3,7.3-8.1,8.5C1008.6,245.1,1009.5,238.3,1009.5,238.3
		z"/>
</g>
<g id="Group_130" transform="translate(-598.715 -57.399)">
	<path id="Path_180" class="st8" d="M774.8,283.4c8.6-57.2-13.5-140.6-76.3-125.6v-0.2c-0.6,0.2-1.4,0.2-2,0.4
		c-0.6-0.2-1.4-0.2-2-0.4v0.2c-62.7-14.9-84.8,68.4-76.3,125.6c2.1,13.6,9.4,25.6,19.4,35.1c3.2,3,1.9,6-10,11.2
		c0,0,17.8,9.6,33-10.7c0,0,10.5,4.1,3.6,8.3c0,0,5,4.6,11.4-2.9c0,0,2.3,9.1,7.8,10.7c0,0,2.5-1.4,13-8.5c10.5,6.9,13,8.5,13,8.5
		c5.5-1.6,7.8-10.7,7.8-10.7c6.5,7.5,11.4,2.9,11.4,2.9c-6.8-4.1,3.7-8.3,3.7-8.3c15.1,20.3,33,10.7,33,10.7
		c-11.9-5.2-13.2-8.2-10-11.2C765.4,309.1,772.7,297.1,774.8,283.4z"/>
</g>
<g id="Group_16" transform="translate(-664.297 -52.85)">
	<circle id="Ellipse_11" class="st4" cx="762.6" cy="234.9" r="64.2"/>
	<circle id="Ellipse_12" class="st5" cx="730.3" cy="235" r="7.3"/>
	<circle id="Ellipse_13" class="st5" cx="790.8" cy="235" r="7.3"/>
	<g id="Group_12">
		<path id="Path_26" class="st6" d="M739.5,222.9c-1,0.8-2.3,0.7-3.2-0.1c-1.5-1.5-3.5-2.4-5.7-2.5c-2.7,0-5.1,1.5-6.5,2.7
			c-0.9,0.7-2.2,0.7-3.1-0.1l0,0c-1.1-0.9-1.1-2.3-0.3-3.4c0.1-0.1,0.2-0.2,0.3-0.3c2-1.7,5.4-3.9,9.6-3.9c3.2,0,6.3,1.4,9.1,3.9
			c1,0.9,1,2.4,0.1,3.4C739.6,222.8,739.6,222.8,739.5,222.9L739.5,222.9z"/>
	</g>
	<g id="Group_13">
		<path id="Path_27" class="st6" d="M800.1,222.9c-1,0.8-2.3,0.7-3.2-0.1c-1.5-1.5-3.5-2.4-5.7-2.5c-2.7,0-5.1,1.5-6.5,2.7
			c-0.9,0.7-2.2,0.7-3.1-0.1l0,0c-1.1-0.9-1.1-2.3-0.3-3.4c0.1-0.1,0.2-0.2,0.3-0.3c2-1.7,5.4-3.9,9.6-3.9c3.2,0,6.3,1.4,9.1,3.9
			c1,0.9,1,2.4,0.1,3.4C800.2,222.8,800.2,222.8,800.1,222.9L800.1,222.9z"/>
	</g>
	<g id="Group_14">
		<path id="Path_28" class="st3" d="M756.9,255.1h10.6c1.4,0,2.3-1.1,2.3-2.3c0-1.3-1.1-2.3-2.3-2.3h-10.6c-1.4,0-2.3,1.1-2.3,2.3
			C754.5,253.9,755.6,255.1,756.9,255.1L756.9,255.1z"/>
	</g>
	<g id="Group_15">
		<path id="Path_29" class="st7" d="M762.4,278.5c-5.9-0.1-11.6-2.1-16.3-5.7c-1.1-0.8-1.3-2.3-0.5-3.3c0.1-0.1,0.2-0.2,0.2-0.2l0,0
			c0.8-0.9,2.3-1,3.2-0.2c4,3,14.5,8.9,26.5-0.1c1.1-0.7,2.4-0.6,3.2,0.4l0,0c0.9,1.1,0.7,2.5-0.2,3.4c-0.1,0-0.1,0.1-0.2,0.1
			C772.7,277,767.3,278.5,762.4,278.5z"/>
	</g>
	<path id="Path_30" class="st4" d="M748.1,290.2v22.4h25.7v-26L748.1,290.2z"/>
	<path id="Path_31" class="st4" d="M744.2,306.3c-2.9-0.1-5.9,0.4-8.6,1.2c-7.7,2.3-16.4,7.2-19.7,17.7
		c-6.4,20.2-32.1,72.9-36.6,107.9c-4.4,34.4-5,44.5,15.1,43.9c9.9-0.4,8.7-60.9,23-78.1c0,0-1.9,56.1,5,154.1
		c0.5,6.5-3.2,15.5-9.8,22.9c-11.9,13.3,21,16,36.1,4.8c11.7-8.7-3.2-122.2,10.5-123.9c12.9,1.6-1.2,115.2,9.9,123.9
		c14.3,11.4,45.6,8.6,34.3-4.8c-6.3-7.4-9.8-16.5-9.4-22.9c6.6-98.1,4.8-154.1,4.8-154.1c13.5,17.2,12.3,77.8,21.8,78.1
		c18.9,0.6,18.5-9.4,14.2-43.9c-4.3-35-28.6-87.7-34.7-107.9c-1.9-6.3-6.1-11.6-11.9-14.8c-4.4-2.4-9.3-3.8-14.2-3.8L744.2,306.3z"
		/>
</g>
<path id="Path_208" class="st8" d="M49.4,372.3h85.2c0,0,6.4,58.5,22.7,80.8H33.3C33.3,453.1,46.5,433.9,49.4,372.3z"/>
<g id="Group_81" transform="translate(433.333 -477.8)">
	<circle id="Ellipse_68" class="st4" cx="-335.2" cy="659.8" r="64.2"/>
	<circle id="Ellipse_69" class="st5" cx="-365.3" cy="660" r="7.3"/>
	
		<ellipse id="Ellipse_70" transform="matrix(0.1602 -0.9871 0.9871 0.1602 -907.3315 253.544)" class="st5" cx="-304.7" cy="660" rx="7.3" ry="7.3"/>
	<g id="Group_78">
		<path id="Path_112" class="st8" d="M-356.1,647.8c-1,0.8-2.3,0.7-3.2-0.1c-1.5-1.5-3.5-2.4-5.7-2.5c-2.7,0-5.1,1.5-6.5,2.7
			c-0.9,0.7-2.2,0.7-3.1-0.1l0,0c-1.1-0.9-1.1-2.3-0.3-3.4c0.1-0.1,0.2-0.2,0.3-0.3c2-1.7,5.4-3.9,9.6-3.9c3.2,0,6.3,1.4,9.1,3.9
			c1,0.9,1,2.4,0.1,3.4C-355.9,647.7-356,647.8-356.1,647.8L-356.1,647.8z"/>
	</g>
	<g id="Group_79">
		<path id="Path_113" class="st8" d="M-295.4,647.8c-1,0.8-2.3,0.7-3.2-0.1c-1.5-1.5-3.5-2.4-5.7-2.5c-2.7,0-5.1,1.5-6.5,2.7
			c-0.9,0.7-2.2,0.7-3.1-0.1l0,0c-1.1-0.9-1.1-2.3-0.3-3.4c0.1-0.1,0.2-0.2,0.3-0.3c2.1-1.7,5.4-3.9,9.6-3.9c3.2,0,6.3,1.4,9.1,3.9
			c1,0.9,1,2.4,0.1,3.4C-295.3,647.7-295.3,647.8-295.4,647.8L-295.4,647.8z"/>
	</g>
	<path id="Path_114" class="st3" d="M-336.9,671.3c0.5-1,1.8-1.3,2.7-0.7c0.3,0.2,0.5,0.5,0.7,0.7l1.4,2.4l1.4,2.4
		c0.5,1,0.2,2.2-0.7,2.7c-0.3,0.2-0.6,0.3-1,0.3h-5.6c-1.1,0-2-0.9-2-2c0-0.4,0.1-0.6,0.3-1l1.4-2.4L-336.9,671.3z"/>
	<circle id="Ellipse_71" class="st6" cx="-338.6" cy="695.6" r="4.8"/>
	<circle id="Ellipse_72" class="st6" cx="-331" cy="695.6" r="4.8"/>
	<ellipse id="Ellipse_73" class="st6" cx="-334.7" cy="701.7" rx="8.6" ry="6.2"/>
	<g id="Group_80">
		<path id="Path_115" class="st7" d="M-335.1,702.5c-5.9-0.1-11.6-2.1-16.3-5.7c-1.1-0.8-1.3-2.3-0.5-3.3c0.1-0.1,0.2-0.2,0.2-0.2
			l0,0c0.8-0.9,2.3-1,3.2-0.2c4,3,14.5,8.9,26.5-0.1c1.1-0.7,2.4-0.6,3.2,0.4l0,0c0.9,1.1,0.7,2.5-0.2,3.4c-0.1,0-0.1,0.1-0.2,0.1
			C-324.5,700.9-330,702.5-335.1,702.5z"/>
	</g>
	<circle id="Ellipse_74" class="st5" cx="-365.1" cy="660" r="7.3"/>
	
		<ellipse id="Ellipse_75" transform="matrix(0.1602 -0.9871 0.9871 0.1602 -907.1913 253.7917)" class="st5" cx="-304.4" cy="660" rx="7.3" ry="7.3"/>
	<path id="Path_116" class="st5" d="M-369.8,656.1c0,0-6.7,2.3-9.8-2.8c0,0,2.7,7.3,6.7,8.5C-369,663-369.8,656.1-369.8,656.1z"/>
	<path id="Path_117" class="st5" d="M-300.2,656.1c0,0,8.2,2.3,12.1-2.8c0,0-3.3,7.3-8.1,8.5C-301,663-300.2,656.1-300.2,656.1z"/>
</g>
<path id="Path_181" class="st8" d="M162.8,160.8c-1.7,0.2-0.2-1.2-1.9-1c0.5-1-2.7-0.5-3.1-1.4c-5.6-13.1-9.6-30.8-24.4-36.1
	c-9.8-4.9-9.4-15.6-25.1-14.2C88.9,95,22.3,139.3,43.2,146.4c-2.2,2.9-4.7,5.4-7.5,7.7c0-29.7,33-56.1,61.5-51.9
	c10.6,6.5,26.6,4.5,33.9,16c1.1,1.9,4,0.2,2.9-1.7c-5.1-8.7-15.7-10.7-24.7-13.2c-18.6-10.5-39.3-2.5-55.3,9.4
	c-13.4,10.2-22.4,26.9-21.5,44.1c-1.9,1.4,1.4,11.1,3.2,9.9c15.2-3.5,17.1-23.6,32.3-25.7c0,0-4.3,6.3-6.6,7.5
	c12.4,1.5,22.5-8.8,28.9-18.2c9.6,13.6,28.5,16.8,42.8,23.5c-2.2-2.7-6-8.2-5.8-12.6c8.8,8,13.1,23.5,24.7,26.6
	c15.2,4,6.9,0.6,10.9-3.6C164.9,164.1,164.9,160.8,162.8,160.8z"/>
<g id="Group_154" transform="translate(-372.581 -339.009)">
	<path id="Path_203" class="st9" d="M451.7,592.2c0,0-0.7,24.8,15.2,25.8c16,1.1,15.6-25.5,15.6-25.5s7.6-1.7,18.2,6.4
		c16.7,12.6,40.1,65.2,40.1,65.2l-28.5,33.8l-4.2-7.8c0,0,0.2,11.5,4.1,37.6l-91.5,0.7c0,0,1.9-20.6,3.2-38.4l-5.5,10.5l-28.4-36.4
		C390.3,664.1,413.1,588.4,451.7,592.2z"/>
</g>
<g>
	<path class="st2" d="M78.9,310.6l-1.2-1.1c-0.7-0.6-0.8-1.7-0.2-2.4l0.2-0.3c1.1-1.4,1.5-2.5,1.5-3.6c0-0.9-0.4-1.6-1.1-2.3
		c-1.2-1-3.3-1.4-6.5-1.4c-1.1,0-2,0.1-2.8,0.3h-0.2c-1.4,0.3-2.5,1.6-2.6,3.2l-0.2,6.9c0,1-0.1,2.2-0.1,3.8c0,1.3,0,2.3,0.1,3
		c0.1,0.8,0.2,1.4,0.5,2.1c0.2,0.6,0.5,1.1,0.7,1.4c0.3,0.4,0.8,0.6,1.4,0.8s1.3,0.3,1.9,0.4c0.6,0,1.4,0.1,2.5,0.1
		c2.3,0,4.2-0.5,5.5-1.3c1.3-0.9,2.2-2.3,2.7-4.3c0.2-0.4,0.2-0.8,0.2-1.4c0-0.6-0.2-1.2-0.6-1.7C80.6,312.2,79.9,311.5,78.9,310.6z
		 M75.1,303.8c0,0.3-0.2,1.1-1.9,2.9c-1.6,1.8-2.4,2-2.7,2c-0.1,0-0.6-0.2-0.6-2.8c0-2.1,0.2-2.4,0.3-2.5l0,0c0,0,0.3-0.3,2.1-0.3
		c0.6,0,1.4,0.1,2,0.2C74.9,303.5,75.1,303.7,75.1,303.8L75.1,303.8C75.1,303.7,75.1,303.7,75.1,303.8z M70.9,312.3
		c0.3-0.1,0.7-0.2,1.3-0.2c0.8,0,1.7,0.2,2.6,0.4c0.9,0.2,1.5,0.5,2,0.9c0.6,0.5,0.9,1,0.9,1.5c0,0.7-0.5,1.4-1.4,2.1
		c-1,0.6-2.2,1.1-3.4,1.1c-0.6,0-1.4-0.2-2.1-0.4c-0.7-0.3-1.1-1.2-1.1-2.7c0-0.7,0.2-1.4,0.4-1.9C70.3,312.6,70.6,312.4,70.9,312.3
		z"/>
	<path class="st2" d="M93.5,317.5l-2.7-0.2c-1.1-0.1-1.9-0.9-1.9-2l-0.2-6.5c-0.3-9-1-9.4-1.4-9.5c-0.1-0.1-0.2-0.1-0.5-0.1
		c-0.5,0-1.1,0.2-1.5,1.1c-0.2,0.3-0.3,1.4-0.3,6.2c0,1.9,0,3.4,0.1,4.5l0.2,7.8c0,1.1,1,2,2,2H92c2.6,0,4.3-0.1,5.2-0.2
		c1.1-0.2,1.5-0.6,1.5-1.3C98.7,318.2,97.2,317.7,93.5,317.5z"/>
	<path class="st2" d="M120.3,310.5L120.3,310.5c-1.5-4.2-2.7-7.1-3.4-8.7c-0.7-1.7-1.4-2.5-2.3-2.6c-0.5-0.1-1.1,0.2-1.4,0.7
		c-0.3,0.4-0.7,1-1.3,1.8c-0.8,1.4-1.2,1.4-1.2,1.4s-0.4-0.2-0.8-1.4c-0.5-1.3-1.2-1.9-2.2-1.9c-1.1,0-1.7,0.7-2.1,2.3
		c-0.1,0.5-0.6,2.3-2.8,9.5c-1.4,4.7-2.1,7.3-2.1,8.2c0,0.1,0,0.5,0.2,0.6c0.3,0.3,0.6,0.5,0.9,0.5c0.9,0,2.1-0.6,4.8-8.8l1.8-5.8
		l0.6,0.8c1,1.1,1.6,1.6,2.3,1.6c0.5,0,0.8-0.2,1.2-0.5c0.7-0.5,1.4-1.5,1.7-2.9c0-0.1,0-0.2,0.1-0.2c0.4,0.6,1.1,2.2,2.3,5.5
		c3.2,9.4,4.4,10.1,5.4,10.1h0.3l0.2-0.1c0.1,0,0.1,0,0.2-0.1c0.8-0.3,0.9-1,0.9-1.2C123.4,319.2,123.1,318.1,120.3,310.5z"/>
</g>
<g>
	<path class="st10" d="M8.6,84.1c-0.5,0.7-1.3,0.7-2,0.8c-1.7,0.8-3.5,1.6-5.2,2.4c-2.1,1-1.9,2.2,0,3.2c1.4,0.7,3,1.2,4.4,1.8
		c7.1,1.7,14.2,3.3,21.3,5c3.9,0.5,7.7,1.3,11.4,2.5c0.5,0.1,1,0.1,1.4,0.2c0.3,0.1,0.5,0.2,0.8,0.3c0.5,0.1,0.9,0.2,1.3,0.2
		c1.2,1.4,0.6,3,0.7,4.5c0.2,2.3,0.4,4.7,0.6,7c0.2,1.5,0.3,3.2,0.4,4.8c0.1,1,0.2,1.9,0.2,2.8c0.2,1.3,0.5,2.5,0.5,3.7
		c-0.2,4.2,1.4,7.3,5.2,9c2.7,0.7,5.5,1.5,8.3,2.3c9.7,2,19.6,1.5,29.5,1.8c3.2-0.3,6.5-0.6,9.6-1c-0.5-5.4-0.6-10.9-1.4-16.2
		c-0.5-3.5,0.8-5.2,3.8-6c6.7-2.1,12.9-5.2,19.5-7.6c5-1.8,9.6-4.3,14.9-5.1c0.6-2.3-0.7-3.1-2.5-3.8c-9.7-4.4-19.5-8.9-29.1-13.4
		c-1.2-0.6-3.1-0.5-3.3-2.4c-0.3-0.1-0.6-0.3-0.9-0.2c-2.4,1.4-5.9,1.1-7.6-0.9c-1.4-1.8-1.1-4.5,0.8-5.1c3.8-1.3,7.6,0.6,8.9,4.6
		c11.7,5.3,23.3,10.6,35.1,16c1.4,0.6,1.7,1.7,2,3c2.7-1,5.3-1.9,8-2.8c0-1,0.1-1.9,0.1-2.8c-0.2-0.5,0-0.6,0.5-0.5
		c1.1-0.4,2.3-0.8,3.3-1.2c3-1.7,6.2-2.8,9.5-4c0.5-0.2,0.9-0.3,1.4-0.4c0.3-0.5,0.7-0.7,1.4-0.6c6.5-2.6,13-5.2,19.5-7.8
		c2-1.2,5.6-1.6,5.2-4.1c-0.2-1.8-3.9-1.4-6-2c-6.8-1.6-13.5-3.2-20.3-4.7c-6.6-1.4-13.2-2.9-19.8-4.4c-13.4-3.1-26.9-5.8-40.3-9.3
		c-6.4-1.4-12.5-0.7-18.6,1.7c-3.5,1.6-7,3.2-10.8,4.3c-2.1,1.2-4.2,2.2-6.6,2.7c-6.5,2.9-13,5.6-19.6,7.8
		c-6.3,3.1-12.9,5.6-19.5,7.8l0,0c-0.2,0.1-0.4,0.2-0.6,0.3C18.7,80.3,13.8,82.4,8.6,84.1z"/>
	<path class="st11" d="M106.7,134.7c9.6-1.7,19.4-3.2,28.7-6.4c0.1-0.2,0.2-0.2,0.4-0.2c0-9.4-1.2-18.6-2.1-27.8
		c-5.2,0.8-9.9,3.3-14.9,5.1c-6.5,2.3-12.8,5.6-19.5,7.6c-3,0.9-4.3,2.6-3.8,6c0.8,5.3,1,10.8,1.4,16.2
		C100.1,135.2,103.5,134.9,106.7,134.7z"/>
	<path class="st12" d="M133.7,100.3c0.9,9.3,2.1,18.5,2.1,27.8c0.4,1.4,1.1,2.7-0.5,3.7c-1.2,0.8-1,2.1-0.8,3.2
		c0.9,5.9,0.1,11.7,0.5,17.6c0.2,0.3,0.2,0.6,0.4,0.9c3.1-0.2,6-0.5,9-0.7c0.2-0.3,0.3-0.6,0.5-0.9c-0.9-5.9-2.6-11.7-2.7-17.7
		c0-1.1,0-2.2-1.3-3c-2.1-1.4-2.1-3.2-0.5-5.1c-1.4,0-1.4-1.1-1.4-1.9c-0.6-8.7-1.4-17.4-2-26c-0.3-1.3-0.6-2.3-2-3
		c-11.7-5.2-23.4-10.6-35.1-16c-0.4,0.6-0.5,1.4-1.4,1.6c0.3,1.9,2.1,1.9,3.3,2.4c9.6,4.5,19.4,8.9,29,13.4
		C132.9,97.3,134.3,98.1,133.7,100.3z"/>
	<path class="st11" d="M137.1,97.9c0.6,8.7,1.4,17.4,2,26c0.1,0.9,0.1,1.9,1.4,1.9c7.2-2.8,6.9-8.7,6.1-14.8
		c-0.5-5.3-1.1-10.6-1.5-16C142.4,96,139.7,97,137.1,97.9z"/>
	<path class="st11" d="M98.7,80.6c0.8-0.2,1-1,1.4-1.6c-1.4-4-5.2-5.9-8.9-4.6c-1.9,0.6-2.3,3.4-0.8,5.1c1.7,2,5.1,2.3,7.6,0.9
		C98.1,80.4,98.4,80.6,98.7,80.6z"/>
</g>
<line class="st13" x1="192.8" y1="7.1" x2="314.8" y2="122.6"/>
</svg>
