<?xml version="1.0" encoding="utf-8"?>
<!-- Generator: Adobe Illustrator 24.3.0, SVG Export Plug-In . SVG Version: 6.00 Build 0)  -->
<svg version="1.1" id="Layer_1" xmlns="http://www.w3.org/2000/svg" xmlns:xlink="http://www.w3.org/1999/xlink" x="0px" y="0px"
	 viewBox="0 0 133.1 176.9" style="enable-background:new 0 0 133.1 176.9;" xml:space="preserve">
<style type="text/css">
	.st0{fill:#244C3A;}
	.st1{fill:#FFFFFF;}
</style>
<g>
	<path class="st0" d="M56.7,164.7c0.4,0.5,0.6,0.8,0.6,0.8S57.1,165.3,56.7,164.7z"/>
	<path class="st0" d="M7.2,120c0.5,8.4,10.6,26,8.3,21.8c-2.3-4.3,3.7-15.3,3.7-7.2c0,8.1,19.3,18.7,19.3,18.7s-6.4-6.8,0-6
		c5.6,0.7,15.7,14,18.2,17.4c-1.5-2.2-5-7.7,0.6-6c6.9,2.1,11.5,22.1,11.5,17.4c0-4.7,4.6-14,4.6-10.6s4.1,8.1,4.1,3
		c0-5.1,7.4-18.7,7.4-14.9s3.2,5.1,3.2,5.1c0-6.8,18.9-24.2,21.2-23c2.3,1.3,0,7.2,0,7.2c8.7-1.3,7.4-19.6,8.7-17
		c1.4,2.6,11.5,6.4,8.7,4.7c-2.8-1.7,0-11.5,0-11.5c6.4-7.4,6.6-29.9,6-44.1c0.1-3.2-0.1-7.1-0.7-11.7c0,0.1,0,0.3,0,0.5
		c0-0.5-0.1-0.8-0.1-0.8s-0.5,3.3-1.6,8.4c-1,2.2-2.5,4.8-4.8,7.7c-6.5,8.1-5.8,15.3-9.8,15.3c-4,0-6-2-6-2s0,3,0.8,5
		c-2.7-1.3-7.1-3-9.2-3c-3.5,0,5.3,4.1,1.5,4.7c-3.7,0.6-16.1-1.6-18.5-5.1c-2-2.9,0.1,3.5,2.6,5.7c-3.2-0.8-9.4-2.5-13.6-6.7
		c0,0-0.1,3.1,0.3,5.3c-1.6-1.7-4.2-4-5.1-5.5c0,0-12.6,8.8-15.4,7.5c0,0,1.3-6.1,6.2-6.7c0,0-11.2,0.8-13.4,4.9
		c0,0,0.9-2.9,4.2-4.9s-9.7,4.5-16.3,4.5c0,0-0.4-2.4,2.9-3.5c3.3-1-10.6,0.5-13.4,4.3c0,0,0.9-4.1,4-5.8c-1,0.6-6.6,3.2-10-2.1
		c-3.8-5.9-4.5-4.9-9-19c0,0,0,0,0-0.1c-0.9-2.8-2-5.8-3.4-8.9C-2.7,98,6.8,111.6,7.2,120z"/>
	<path class="st0" d="M27.4,93.2c0.1-0.1,0.2-0.1,0.2-0.1C27.5,93.1,27.4,93.1,27.4,93.2z"/>
	<path class="st0" d="M132.1,63.1c0,0.1,0,0.2,0,0.3C132.1,63.2,132.1,63.1,132.1,63.1z"/>
</g>
<g>
	<ellipse class="st1" cx="66.7" cy="97.7" rx="55.6" ry="53.1"/>
</g>
<path class="st0" d="M118.5,33.5h3.7c0,0-8.6-23.6-35.6-23.6c0,0-0.9-2.1,5.6-1.7c0,0-6.2-4.1-9.3-2.2c0,0,0.2-4.3,2.1-5.8
	c-4,0.9-13.2,3.1-15.1,7.5c0,0-6.4-6-9.1,0.4c0,0-12.6-9.2-28.1-0.2c0,0,4.6-0.2,5.5,1.5c0,0-28.5,12.3-28.8,31
	c0,0-20.7,26-0.8,60.1c0.9-26.1,8.7-58.2,32.5-66.8c28.2-11.1,60.9,4.6,75,33.4c5.1,9.5,6.5,20.9,7.3,32.5
	c3.8-5.8,6.5-17.8,8.4-24.2c0,0-1.3-11.6,0.6-7.9S132.9,42.5,118.5,33.5z"/>
<path class="st0" d="M41.2,33.5C17.3,42.2,9.6,74.2,8.6,100.3c0.6,1.1,1.3,2.2,2.1,3.3c0,0,6.4-9.4,5.9-21.1c0,0,2.7,3,2.1,9
	c0,0,13.7-8.2,19.7-20.6c0,0-1.1,11.6-6.9,16.3c0,0,12.5,1.3,18.7-7.3c0,0,2,5.6-2.1,8.4c0,0,15.5-5.9,15.1-25.9
	c0,0,7.8,21,2.9,27.5c-4.9,6.6,8.1-9.3,9.6-17.5c1.4-8.2,0.3,13.1-4.1,17.5c-4.3,4.4,16.5-8.4,22.9-23c0,0,1.6,10.9-4.1,16.9
	c0,0,12-4.5,12-14.9c0,0-0.2,12.8,4.7,17.1c0,0,1.2-8.5,3.5-7.8c0,0,8.8,15.7,10.8,23.8c0,0,0.8-1,2-2.8c-0.7-11.6-2.1-23-7.3-32.5
	C102,38.2,69.4,22.4,41.2,33.5z"/>
<path class="st1" d="M54.1,150v7.8l-3.3,0c-2.5,0-5.1,0.3-7.6,1c-6.7,2-14.4,6.3-17.3,15.6c-0.2,0.8-0.5,1.6-0.9,2.5h75.4
	c-0.3-0.9-0.6-1.7-0.8-2.5c-1.9-6.4-6-10.4-10.5-13c-3.9-2.2-8.2-3.3-12.5-3.3v-7.5c26.4-4.7,46.5-27.7,46.5-55.5
	c0-31.1-25.2-56.3-56.3-56.3S10.5,64,10.5,95.1C10.5,121.9,29.1,144.2,54.1,150z"/>
</svg>
