<?xml version="1.0" encoding="utf-8"?>
<!-- Generator: Adobe Illustrator 24.3.0, SVG Export Plug-In . SVG Version: 6.00 Build 0)  -->
<svg version="1.1" id="Layer_1" xmlns="http://www.w3.org/2000/svg" xmlns:xlink="http://www.w3.org/1999/xlink" x="0px" y="0px"
	 viewBox="0 0 191 208.1" style="enable-background:new 0 0 191 208.1;" xml:space="preserve">
<style type="text/css">
	.st0{fill:#244C3A;}
	.st1{fill:#F9AB7A;}
	.st2{fill:#5F3112;}
	.st3{fill:#B55D38;}
	.st4{fill:#E88A56;}
	.st5{fill:#FFFFFF;}
</style>
<path class="st0" d="M93.2,1.9c0,0-44-12.8-58.4,31.4S21.9,62.2,22.3,85c-3.6,15.3-8.9,10.5-14.5,20.8s5.2,17.4,5.2,17.4
	s-30.3,18.4,1.6,34c11.3,6.8-27.5,10.2,0.4,26.5c0,0-6.5-13.6,5.7-14.3c0,0-3.2,17,21.4,23.1c6.9,2,2,9.2-6.9,11.2
	c0,0,15.7,7.8,29.1-8.8c0,0,9.3,3.4,3.2,6.8c0,0,4.4,3.7,10.1-2.4c0,0,2,7.5,6.9,8.8c0,0,2.4-1.4,12.9-7.8c0,0,4.4,7.5,8.5,7.8
	c0,0-2-11.6,5.2-11.2c0,0,5.2,1.4,4.4,7.5c0,0,3.2-8.8,7.7-8.8c4.4,0,0.8,11.2,19.8,10.2c0,0-11.7-16.3,5.2-19.1
	c0,0,3.4,6.3-2.8,8.2c0,0,8.5-1,16.6-6.5c0,0,5.2,10.9,15.7,9.2c0,0-11.3-10.5,3.2-19.4c14.5-8.8,10.5-18,5.2-25.2
	c-5.2-7.1-8.9-16-3.2-20.8c5.7-4.8,12.1-11.9-3.6-23.5S168.4,70,162.8,57.4C157.1,44.8,141.4-10.8,93.2,1.9z"/>
<g>
	<circle class="st1" cx="95.5" cy="73.2" r="46.5"/>
	<circle class="st2" cx="72.1" cy="73.3" r="5.3"/>
	<circle class="st2" cx="116" cy="73.3" r="5.3"/>
	<g>
		<path class="st0" d="M78.8,64.5c-0.7,0.6-1.7,0.5-2.3-0.1c-1.3-1.2-2.7-1.8-4.2-1.8c-1.9,0-3.7,1.1-4.7,2c-0.6,0.5-1.6,0.5-2.2,0
			l0,0c-0.8-0.7-0.8-2,0-2.7c1.5-1.2,3.9-2.8,6.9-2.8c2.4,0,4.6,0.9,6.6,2.8C79.6,62.6,79.6,63.9,78.8,64.5L78.8,64.5z"/>
	</g>
	<g>
		<path class="st0" d="M122.7,64.5c-0.7,0.6-1.7,0.5-2.3-0.1c-1.3-1.2-2.7-1.8-4.2-1.8c-1.9,0-3.7,1.1-4.7,2c-0.6,0.5-1.6,0.5-2.2,0
			l0,0c-0.8-0.7-0.8-2,0-2.7c1.5-1.2,3.9-2.8,6.9-2.8c2.4,0,4.6,0.9,6.6,2.8C123.5,62.6,123.5,63.9,122.7,64.5L122.7,64.5z"/>
	</g>
	<g>
		<path class="st3" d="M95.3,104.9c-4.9,0-9-2-11.8-4.1c-0.8-0.6-0.9-1.8-0.2-2.6l0,0c0.6-0.6,1.6-0.7,2.3-0.2
			c2.9,2.1,10.5,6.5,19.2,0c0.7-0.5,1.8-0.4,2.3,0.2l0,0c0.7,0.8,0.5,1.9-0.3,2.5C102.9,103.7,98.9,104.9,95.3,104.9z"/>
	</g>
	<path class="st4" d="M93.1,81.5c0.5-0.9,1.9-0.9,2.5,0l1,1.8l1,1.8c0.5,0.9-0.1,2.1-1.2,2.1h-2h-2c-1.1,0-1.8-1.2-1.2-2.1l1-1.8
		L93.1,81.5z"/>
</g>
<path class="st0" d="M148.3,66.7c-1.4,0.2-0.1-1-1.5-0.8c0.4-0.8-2.1-0.4-2.4-1.2c-4.4-10.5-7.7-24.7-19.6-28.9
	c-7.9-3.9-7.5-12.5-20.1-11.3c-15.6-10.5-69,25-52.3,30.7c-1.8,2.3-3.7,4.4-6,6.2c0-23.9,26.5-44.9,49.4-41.7
	c8.5,5.2,21.3,3.6,27.2,12.8c0.9,1.5,3.2,0.1,2.3-1.4c-4.1-7-12.6-8.6-19.8-10.6c-14.8-8.5-31.5-2-44.4,7.5
	c-10.8,8.2-18,21.6-17.3,35.4c-1.5,1.2,1,8.9,2.6,8c12.2-2.8,13.7-19,25.9-20.6c0,0-3.4,5.1-5.3,6c10,1.3,18.1-7.1,23.2-14.7
	c7.7,10.9,22.8,13.4,34.3,18.9c-1.7-2.2-4.9-6.6-4.6-10.1c7.1,6.5,10.5,18.9,19.8,21.3c12.2,3.2,5.5,0.6,8.7-2.9
	C150,69.4,150,66.7,148.3,66.7z M110.1,52.3C110.1,52.4,110.1,52.4,110.1,52.3C110.1,52.4,110,52.3,110.1,52.3
	C110,52.3,110,52.3,110.1,52.3z M119.8,56.4c0,0,0.1,0.1,0.1,0.1C119.8,56.5,119.8,56.4,119.8,56.4z"/>
<path class="st5" d="M85.2,118.7v6.5l-2.8,0c-2.1,0-4.2,0.2-6.3,0.9c-5.5,1.7-11.9,5.2-14.3,12.9c-4.1,13-19.2,44.5-24.9,69.2h19.6
	c1.5-6.6,3.5-12.3,6.3-15.7c0,0-0.2,5.4-0.2,15.7h59.4c0-10.3-0.2-15.7-0.2-15.7c2.7,3.4,4.5,9.2,6,15.7h18.6
	c-5.4-24.7-19.7-56.3-23.6-69.2c-1.6-5.3-5-8.6-8.7-10.8c-3.2-1.9-6.8-2.7-10.3-2.7v-6.2c21.9-3.9,38.5-22.9,38.5-45.9
	c0-25.8-20.9-46.6-46.6-46.6c-25.8,0-46.6,20.9-46.6,46.6C49.1,95.4,64.5,113.9,85.2,118.7z"/>
</svg>
