<?xml version="1.0" encoding="utf-8"?>
<!-- Generator: Adobe Illustrator 24.2.3, SVG Export Plug-In . SVG Version: 6.00 Build 0)  -->
<svg version="1.1" id="Layer_1" xmlns="http://www.w3.org/2000/svg" xmlns:xlink="http://www.w3.org/1999/xlink" x="0px" y="0px"
	 viewBox="0 0 127 145.4" style="enable-background:new 0 0 127 145.4;" xml:space="preserve">
<style type="text/css">
	.st0{fill:#244C3A;}
</style>
<path class="st0" d="M122.5,58.8c0,0,2.5-1,3.8,1.4c0,0-1-24.1-13.7-29.3c0,0,1-9.3-5.7-16.6c0,0,0.5,6.6-1.2,8.7
	c0,0-3.6-15.2-12.3-16.9c5.8,13.6-9.6-5.3-22.2-5.3c0,0,3.8,2.4,4.6,6.2c0,0-3.3-5.7-12.5-7c0,0,0.8,1.8,0.9,5.9
	c0,0-0.3-6.7-12.3-5.8c9.2,10.7,2.3-0.5-10,2.7c8.8,4.1-2.2,0.6-9.7,6.5c6.6,2.5-5.9-0.2-11.9,12.2c0,0,0.7-1.1,2.4,0.8
	c0,0-11.2,1.7-16.6,20.6c7.5-4.8-8.8,13.8-5.6,33.7c0,0,1.2-5,1.9-5.7c0.6-0.6-5.7,10.4,7.5,31c0.1,0.4,0.3,0.7,0.4,1.1
	c0.8-7.5-0.5-18.2,1.5-27.4c1.4-4.1,3.3-7.9,5.6-11.4c5.3-5.5,14.6-8.5,31-6.1c36.9,5.4,51.2-2.9,58.5-0.1c2.1,2.4,4,4.9,5.6,7.6
	c2.1,6.3,3.8,17.1,6.9,35.2c0.1-0.3,0.1-0.6,0.2-0.8C122.9,97,132.7,83,122.5,58.8z"/>
</svg>
