<?xml version="1.0" encoding="utf-8"?>
<!-- Generator: Adobe Illustrator 24.2.3, SVG Export Plug-In . SVG Version: 6.00 Build 0)  -->
<svg version="1.1" id="Layer_1" xmlns="http://www.w3.org/2000/svg" xmlns:xlink="http://www.w3.org/1999/xlink" x="0px" y="0px"
	 viewBox="0 0 121 170.5" style="enable-background:new 0 0 121 170.5;" xml:space="preserve">
<style type="text/css">
	.st0{fill:#244C3A;}
</style>
<path class="st0" d="M119.6,109.9c2.1-15.3,1.3-30.6,0.9-45.9c-1-35.2-20.4-65.6-61.7-63.9C29.6,1.3,9.2,17,3.1,45.7
	c-3.9,18.5-3.4,37.1-2.2,55.7c0.9,14.7,2.8,29.5,13.4,41.2c1.7,1.9,1.5,3.8,0.2,5.7c-4.3,6.3-4.9,13.1-2.5,20.3
	c2.5-1.9,5.1-3.9,7.8-5.7c2.2-1.5,4.4-2,7.1-0.5c20.3,11.2,41.2,9.9,61.6,1.3c7.1-2.9,12.1-4.2,17.7,1.4c0.8,0.8,2.1,1,3.1,1.5
	c3.2-5.7,1.7-11.1-1.3-16.3c-1.5-2.5-3.4-4.9-0.6-8C115.6,133.1,118,121.6,119.6,109.9z M99,125.1c-17.4,17-42.9,23.3-65,9.7
	c-14-8.6-22.1-21.8-23.6-38.2C9.6,87.8,8.5,78.7,11.5,70c1.1-16.6,9.1-29,23.6-36.6c31.3-16.4,67.4,0.3,75.3,34.4
	c0.2,1.2,0.7,2.5,0.7,3.7c0,0.9-0.3,1.9-1.2,2.7c3.8,10.8,0.4,21-2.5,31.2C105.5,112.3,104.6,119.6,99,125.1z"/>
</svg>
