<?xml version="1.0" encoding="utf-8"?>
<!-- Generator: Adobe Illustrator 24.3.0, SVG Export Plug-In . SVG Version: 6.00 Build 0)  -->
<svg version="1.1" id="Layer_1" xmlns="http://www.w3.org/2000/svg" xmlns:xlink="http://www.w3.org/1999/xlink" x="0px" y="0px"
	 viewBox="0 0 142.6 137.1" style="enable-background:new 0 0 142.6 137.1;" xml:space="preserve">
<style type="text/css">
	.st0{fill:#244C3A;}
	.st1{fill:#FFFFFF;}
</style>
<path class="st0" d="M58.5,107.9l36.3-3.9c0,0,0.7,21.3,9.1,23s11.9-3.8,11.9-3.8c11,1.1,14.1-7.8,14.1-7.8l-0.2,4.9
	c6.6-2.9,9.6-15,9.6-15c9.3-23.4,0.5-79.6-41.5-101.2C75-7.6,51.8,9.2,51.8,9.2s-40.4-1.9-51,60.7c0,0-5.2,41.5,10.3,47.3
	c0,0-2.6-3.1-2.1-4.5c0.5-1.3,3.7,8.7,21.1,10.7S58.5,107.9,58.5,107.9z"/>
<g>
	<ellipse class="st1" cx="71.3" cy="84" rx="55.6" ry="53.1"/>
</g>
<path class="st0" d="M15.5,89.5c0,0,7.6-19,9.3-29c1.7-10,14-18,22.1-17c8.1,1,36.1-12.5,53.5,2s28.3,44.6,13.4,74.5
	c16.7-11.8,25.6-50.5,25.6-50.5l-26.2-47H44.6l-22.1,18l-15.1,33L15.5,89.5z"/>
</svg>
