<?xml version="1.0" encoding="utf-8"?>
<!-- Generator: Adobe Illustrator 24.3.0, SVG Export Plug-In . SVG Version: 6.00 Build 0)  -->
<svg version="1.1" id="Layer_1" xmlns="http://www.w3.org/2000/svg" xmlns:xlink="http://www.w3.org/1999/xlink" x="0px" y="0px"
	 viewBox="0 0 146.2 275.2" style="enable-background:new 0 0 146.2 275.2;" xml:space="preserve">
<style type="text/css">
	.st0{fill:#244C3A;}
	.st1{fill:#FFFFFF;}
</style>
<path class="st0" d="M141,70.7c8.6-19.7-11.1-53.8-18.2-55.3c-5-7.6-15.3-9-15.3-9c-8.7-11-32.9-6.2-35,2.1C69,2.5,47.6-1.3,39.1,9
	c-7.6,2.9-23.1,5.9-26.5,27.4c0,0-7,1.8-7,13c0,0-5.4,12.6,0,23.8c0,0-8.3,9.4-4.6,18c0,0,0,11.2,5.4,17.1c-1.2,4.2,1,15.8,8.3,21.6
	c0,0-1.2,12.6,3.3,13c0,0-3.3,12.1,3.7,13.5c0,0-6.6,12.1,1.2,14.4c0,0-5,8.5,0,10.8c0,0-5.8,9.9,1.2,15.3c0,0-5,12.6,0.8,14.4
	c0,0-4.1,8.1,0.4,9.4c0,0-2.1,9.4,0.8,10.8c1.6,8.4-3.6,38,9.5,43.6c-5.3-10.7,4.9-19.3,0-31.9c2.7-1.7,6.3-8.8,2.9-15.8
	c0,0,3.1-7.8,0.6-10.3c0,0,4.3-9.2,0.9-13.5c0,0,4.9-7.5-0.3-12.3c0,0,3.8-6.8-0.8-11.2c0,0,7.5-11.3,1.1-23.3
	c-6.4-12,0.9-23.6,0.9-23.6l-6.5-59.6c8-6.7,25.4-16.9,35.6-19.1c5.6,2.2,32.6,7,36.1,12.5c10.2,2.8-1.3,57.1-0.8,63.6
	c0,0,7.4,11.7,0.9,23.6c-6.4,12,1.1,23.3,1.1,23.3c-4.6,4.3-0.8,11.2-0.8,11.2c-5.2,4.8-0.3,12.3-0.3,12.3
	c-3.4,4.3,0.9,13.5,0.9,13.5c-2.5,2.5,0.6,10.3,0.6,10.3c-2.9,4-0.5,9-0.5,9c6.6,13.4-2,14.5,3.4,23c4.2,2.7,0,15.7,0,15.7
	c13.1-6,7.9-34.6,9.5-43.6c2.9-1.3,0.8-10.8,0.8-10.8c4.6-1.3,0.4-9.4,0.4-9.4c5.8-1.8,0.8-14.4,0.8-14.4c7-5.4,1.2-15.3,1.2-15.3
	c5-2.2,0-10.8,0-10.8c7.9-2.2,1.2-14.4,1.2-14.4c7-1.3,3.7-13.5,3.7-13.5c4.6-0.4,3.3-13,3.3-13c4.6-2.2,5-8.1,5-8.1
	c5.4-3.6,3.3-13.5,3.3-13.5C149.4,93.2,146.8,75.6,141,70.7z M109.8,69.6c1.1,0.7,2.7,1.7,2,3.3C111.8,72.9,109.8,69.6,109.8,69.6z"
	/>
<g>
	<ellipse class="st1" cx="73.3" cy="88.8" rx="55.6" ry="53.1"/>
	<ellipse class="st1" cx="45.2" cy="88.9" rx="6.3" ry="6"/>
	<ellipse class="st1" cx="97.8" cy="88.9" rx="6.3" ry="6"/>
	<g>
		<path class="st1" d="M53.3,78.9c-0.8,0.7-2,0.6-2.8-0.1c-1.6-1.4-3.3-2.1-5-2.1c-2.3,0-4.4,1.3-5.6,2.3c-0.8,0.6-1.9,0.6-2.7,0
			l0,0c-1-0.8-1-2.3,0-3c1.8-1.4,4.7-3.2,8.3-3.2c2.8,0,5.5,1.1,7.9,3.2C54.3,76.7,54.2,78.1,53.3,78.9L53.3,78.9z"/>
	</g>
	<g>
		<path class="st1" d="M105.8,78.9c-0.8,0.7-2,0.6-2.8-0.1c-1.6-1.4-3.3-2.1-5-2.1c-2.3,0-4.4,1.3-5.6,2.3c-0.8,0.6-1.9,0.6-2.7,0
			l0,0c-1-0.8-1-2.3,0-3c1.8-1.4,4.7-3.2,8.3-3.2c2.8,0,5.5,1.1,7.9,3.2C106.8,76.7,106.7,78.1,105.8,78.9L105.8,78.9z"/>
	</g>
	<g>
		<path class="st1" d="M73,124.9c-5.8,0-10.8-2.3-14.1-4.7c-1-0.7-1.1-2.1-0.2-3l0,0c0.7-0.7,1.9-0.8,2.8-0.2c3.4,2.5,12.6,7.4,23,0
			c0.9-0.6,2.1-0.5,2.8,0.3l0,0c0.8,0.9,0.6,2.2-0.3,2.9C82.1,123.7,77.3,124.9,73,124.9z"/>
	</g>
	<path class="st1" d="M70.4,98.3c0.7-1.1,2.3-1.1,2.9,0l1.2,2l1.2,2c0.7,1.1-0.2,2.4-1.5,2.4h-2.4h-2.4c-1.3,0-2.1-1.4-1.5-2.4
		l1.2-2L70.4,98.3z"/>
</g>
<g>
	<circle class="st1" cx="73.7" cy="87.1" r="56.4"/>
	<circle class="st1" cx="45.3" cy="87.2" r="6.4"/>
	<circle class="st1" cx="98.5" cy="87.2" r="6.4"/>
	<g>
		<path class="st1" d="M53.4,76.5c-0.8,0.7-2,0.6-2.8-0.1c-1.6-1.5-3.3-2.2-5-2.2c-2.4,0-4.5,1.4-5.7,2.4c-0.8,0.6-1.9,0.6-2.7,0
			l0,0c-1-0.9-1-2.4,0-3.2c1.8-1.5,4.8-3.4,8.4-3.4c2.9,0,5.5,1.1,8,3.4C54.4,74.3,54.4,75.7,53.4,76.5L53.4,76.5z"/>
	</g>
	<g>
		<path class="st1" d="M106.7,76.5c-0.8,0.7-2,0.6-2.8-0.1c-1.6-1.5-3.3-2.2-5-2.2c-2.4,0-4.5,1.4-5.7,2.4c-0.8,0.6-1.9,0.6-2.7,0
			l0,0c-1-0.9-1-2.4,0-3.2c1.8-1.5,4.8-3.4,8.4-3.4c2.9,0,5.5,1.1,8,3.4C107.7,74.3,107.6,75.7,106.7,76.5L106.7,76.5z"/>
	</g>
	<g>
		<path class="st1" d="M68.7,104.8c3.1,0,6.2,0,9.3,0c1.1,0,2.2-1,2.1-2.1c-0.1-1.1-0.9-2.1-2.1-2.1c-3.1,0-6.2,0-9.3,0
			c-1.1,0-2.2,1-2.1,2.1S67.5,104.8,68.7,104.8L68.7,104.8z"/>
	</g>
	<g>
		<path class="st1" d="M73.4,125.4c-5.9,0-11-2.4-14.3-5c-1-0.8-1.1-2.2-0.2-3.1l0,0c0.7-0.8,1.9-0.8,2.8-0.2
			c3.5,2.6,12.7,7.9,23.3,0c0.9-0.7,2.1-0.5,2.8,0.3l0,0c0.8,0.9,0.7,2.3-0.3,3.1C82.7,124.1,77.8,125.4,73.4,125.4z"/>
	</g>
	<polygon class="st1" points="60.9,135.6 60.9,155.4 83.5,155.4 83.5,132.5 	"/>
	<path class="st1" d="M57.6,149.8c-2.6,0-5.1,0.3-7.6,1c-6.7,2-14.4,6.3-17.3,15.6c-5.6,17.7-28.2,64-32.1,94.8
		c-3.9,30.3-4.4,39.1,13.2,38.5c8.8-0.3,7.7-53.5,20.2-68.6c0,0-1.7,49.2,4.4,135.3c0.4,5.7-2.8,13.6-8.7,20.1
		c-10.5,11.7,18.4,14.1,31.7,4.2c10.3-7.7-2.7-107.4,9.2-108.8c11.3,1.4-1,101.1,8.7,108.8c12.6,9.9,40,7.6,30.1-4.2
		c-5.5-6.5-8.6-14.4-8.2-20.1c5.8-86.1,4.1-135.3,4.1-135.3c11.8,15.1,10.8,68.3,19.1,68.6c16.7,0.6,16.2-8.3,12.5-38.5
		c-3.8-30.7-25.1-77.1-30.4-94.8c-1.9-6.4-6-10.4-10.5-13c-3.9-2.3-8.2-3.3-12.5-3.3L57.6,149.8z"/>
</g>
<path class="st0" d="M86,24.9c-16.7-9.2-35.5-2.2-50,8.2c-12.2,9-20.3,23.6-19.5,38.6c-1.7,1.3,1.2,9.7,3,8.7
	C33.3,77.4,35,59.7,48.7,57.9c0,0-3.9,5.5-6,6.5c11.3,1.4,20.4-7.7,26.1-16c8.6,11.9,25.7,14.6,38.7,20.6c-2-2.4-5.5-7.2-5.2-11.1
	c8,7,11.8,20.6,22.3,23.3c13.7,3.5,6.2,0.6,9.8-3.2c1.9,0,2-3,0-2.9c-1.5,0.2-0.1-1.1-1.7-0.9c0.4-0.9-2.4-0.4-2.7-1.3
	c-5-11.4-8.7-27-22.1-31.5c-8.8-4.3-8.5-13.7-22.7-12.4L86,24.9z M75.1,23.9 M91.4,59.6C91.4,59.6,91.4,59.6,91.4,59.6
	c0,0-0.1,0-0.1,0C91.3,59.6,91.4,59.6,91.4,59.6z M102.4,63.9c0,0,0.1,0.1,0.1,0.1C102.4,64.1,102.3,64,102.4,63.9z"/>
</svg>
