<?xml version="1.0" encoding="utf-8"?>
<!-- Generator: Adobe Illustrator 24.3.0, SVG Export Plug-In . SVG Version: 6.00 Build 0)  -->
<svg version="1.1" id="Layer_1" xmlns="http://www.w3.org/2000/svg" xmlns:xlink="http://www.w3.org/1999/xlink" x="0px" y="0px"
	 viewBox="0 0 157 165.7" style="enable-background:new 0 0 157 165.7;" xml:space="preserve">
<style type="text/css">
	.st0{fill:#244C3A;}
	.st1{fill:#FFFFFF;}
</style>
<path class="st0" d="M109.3,5.3C94.8-3.7,80,0.5,70.6,5.2c0,0-10.5-9.6-26.1-1.4C0.6,27.2-5.5,102.8,3.6,132.5c0,0,3,15.3,9.5,19
	l-0.2-6.3c0,0,3,11.4,13.8,10c0,0,8.3,0.3,13,9.1c15.2-18.6,8.1-43.2,8.1-43.2l22.7-67.7v68.8l35.1,0.3c0,0-7.6,24.6,8.8,43.2
	c5.1-8.8,14-9.1,14-9.1c11.7,1.4,14.9-10,14.9-10l-0.2,6.3c7-3.7,10.2-19,10.2-19C163.3,104.2,154,32.8,109.3,5.3z"/>
<g>
	<ellipse class="st1" cx="81.2" cy="84" rx="55.6" ry="53.1"/>
	<ellipse class="st1" cx="53.2" cy="84.1" rx="6.3" ry="6"/>
	<ellipse class="st1" cx="105.7" cy="84.1" rx="6.3" ry="6"/>
	<g>
		<path class="st1" d="M61.2,74.1c-0.8,0.7-2,0.6-2.8-0.1c-1.6-1.4-3.3-2.1-5-2.1c-2.3,0-4.4,1.3-5.6,2.3c-0.8,0.6-1.9,0.6-2.7,0
			l0,0c-1-0.8-1-2.3,0-3c1.8-1.4,4.7-3.2,8.3-3.2c2.8,0,5.5,1.1,7.9,3.2C62.2,71.9,62.2,73.3,61.2,74.1L61.2,74.1z"/>
	</g>
	<g>
		<path class="st1" d="M113.7,74.1c-0.8,0.7-2,0.6-2.8-0.1c-1.6-1.4-3.3-2.1-5-2.1c-2.3,0-4.4,1.3-5.6,2.3c-0.8,0.6-1.9,0.6-2.7,0
			l0,0c-1-0.8-1-2.3,0-3c1.8-1.4,4.7-3.2,8.3-3.2c2.8,0,5.5,1.1,7.9,3.2C114.7,71.9,114.7,73.3,113.7,74.1L113.7,74.1z"/>
	</g>
	<g>
		<path class="st1" d="M80.9,120.1c-5.8,0-10.8-2.3-14.1-4.7c-1-0.7-1.1-2.1-0.2-3l0,0c0.7-0.7,1.9-0.8,2.8-0.2
			c3.4,2.5,12.6,7.4,23,0c0.9-0.6,2.1-0.5,2.8,0.3l0,0c0.8,0.9,0.6,2.2-0.3,2.9C90.1,118.9,85.3,120.1,80.9,120.1z"/>
	</g>
	<path class="st1" d="M78.3,93.5c0.7-1.1,2.3-1.1,2.9,0l1.2,2l1.2,2c0.7,1.1-0.2,2.4-1.5,2.4h-2.4h-2.4c-1.3,0-2.1-1.4-1.5-2.4
		l1.2-2L78.3,93.5z"/>
</g>
<path class="st0" d="M25.5,89.5c0,0,7.6-19,9.3-29s14-18,22.1-17c8.1,1,36.1-12.5,53.5,2s28.3,44.6,13.4,74.5
	c16.7-11.8,25.6-50.5,25.6-50.5l-26.2-47H54.5l-22.1,18l-15.1,33L25.5,89.5z"/>
</svg>
