<?xml version="1.0" encoding="utf-8"?>
<!-- Generator: Adobe Illustrator 24.3.0, SVG Export Plug-In . SVG Version: 6.00 Build 0)  -->
<svg version="1.1" id="Layer_1" xmlns="http://www.w3.org/2000/svg" xmlns:xlink="http://www.w3.org/1999/xlink" x="0px" y="0px"
	 viewBox="0 0 139.1 155.5" style="enable-background:new 0 0 139.1 155.5;" xml:space="preserve">
<style type="text/css">
	.st0{fill:#244C3A;}
	.st1{fill:#F9AB7A;}
	.st2{fill:#5F3112;}
	.st3{fill:#B55D38;}
	.st4{fill:#E88A56;}
	.st5{fill:#FFFFFF;}
</style>
<path class="st0" d="M137.6,110.7C145,60.9,125.8-11.4,71.3,1.5V1.3c-0.6,0.1-1.2,0.2-1.7,0.3c-0.6-0.1-1.2-0.2-1.7-0.3v0.2
	C13.2-11.4-5.9,60.9,1.6,110.7c1.8,11.8,8.1,22.3,16.9,30.4c2.8,2.6,1.6,5.3-8.7,9.7c0,0,15.5,8.3,28.6-9.4c0,0,9.1,3.6,3.2,7.2
	c0,0,4.4,4,9.9-2.5c0,0,2,7.9,6.8,9.4c0,0,2.2-1.3,11.3-7.3c9.1,6,11.3,7.3,11.3,7.3c4.8-1.4,6.8-9.4,6.8-9.4c5.6,6.5,10,2.5,10,2.5
	c-6-3.6,3.2-7.2,3.2-7.2c13.1,17.6,28.7,9.4,28.7,9.4c-10.3-4.5-11.5-7.2-8.7-9.7C129.4,133,135.8,122.5,137.6,110.7z"/>
<g>
	<circle class="st1" cx="69.8" cy="71.8" r="46.3"/>
	<circle class="st2" cx="46.4" cy="71.9" r="5.2"/>
	<circle class="st2" cx="90.1" cy="71.9" r="5.2"/>
	<g>
		<path class="st0" d="M53.1,63.1c-0.7,0.6-1.7,0.5-2.3-0.1c-1.3-1.2-2.7-1.8-4.1-1.8c-1.9,0-3.7,1.1-4.7,2c-0.6,0.5-1.6,0.5-2.2,0
			l0,0c-0.8-0.7-0.8-2,0-2.7c1.5-1.2,3.9-2.8,6.9-2.8c2.3,0,4.5,0.9,6.6,2.8C53.9,61.2,53.9,62.5,53.1,63.1L53.1,63.1z"/>
	</g>
	<g>
		<path class="st0" d="M96.8,63.1c-0.7,0.6-1.7,0.5-2.3-0.1c-1.3-1.2-2.7-1.8-4.1-1.8c-1.9,0-3.7,1.1-4.7,2c-0.6,0.5-1.6,0.5-2.2,0
			l0,0c-0.8-0.7-0.8-2,0-2.7c1.5-1.2,3.9-2.8,6.9-2.8c2.3,0,4.5,0.9,6.6,2.8C97.7,61.2,97.6,62.5,96.8,63.1L96.8,63.1z"/>
	</g>
	<g>
		<path class="st3" d="M69.5,103.3c-4.8,0-9-2-11.7-4.1c-0.8-0.6-0.9-1.8-0.2-2.6l0,0c0.6-0.6,1.6-0.7,2.3-0.2
			c2.8,2.1,10.5,6.5,19.1,0c0.7-0.5,1.7-0.4,2.3,0.2l0,0c0.7,0.8,0.5,1.9-0.3,2.5C77.1,102.2,73.1,103.3,69.5,103.3z"/>
	</g>
	<path class="st4" d="M67.3,80.1c0.5-0.9,1.9-0.9,2.5,0l1,1.8l1,1.8c0.5,0.9-0.1,2.1-1.2,2.1h-2h-2c-1.1,0-1.8-1.2-1.2-2.1l1-1.8
		L67.3,80.1z"/>
</g>
<path class="st0" d="M124.7,68.8c-1.5,0.2-0.1-1-1.6-0.9c0.4-0.8-2.3-0.4-2.6-1.3c-4.8-11.3-8.3-26.8-21.3-31.3
	c-8.5-4.3-8.1-13.6-21.8-12.3c-16.9-11.4-74.6,27-56.6,33.2c-2,2.5-4,4.8-6.5,6.7c0-25.8,28.6-48.6,53.4-45.1
	c9.2,5.6,23.1,3.9,29.4,13.9c0.9,1.6,3.5,0.2,2.5-1.5C95.2,22.7,86,21,78.2,18.9c-16.1-9.2-34.1-2.2-48,8.2
	c-11.7,8.9-19.5,23.4-18.7,38.3c-1.6,1.3,1.1,9.7,2.9,8.7c13.2-3.1,14.8-20.5,28-22.3c0,0-3.7,5.5-5.7,6.5
	c10.8,1.4,19.6-7.7,25.1-15.9C70,54.1,86.4,56.8,98.9,62.7c-1.9-2.4-5.3-7.1-5-11c7.7,7,11.3,20.4,21.4,23.1c13.2,3.5,6,0.6,9.5-3.1
	C126.6,71.7,126.6,68.8,124.7,68.8z"/>
<path class="st0" d="M83.4,53.3C83.4,53.3,83.4,53.3,83.4,53.3c0,0-0.1,0-0.1,0C83.3,53.3,83.4,53.3,83.4,53.3z"/>
<path class="st0" d="M93.9,57.6c0,0,0.1,0.1,0.1,0.1C94,57.7,93.9,57.7,93.9,57.6z"/>
<path class="st5" d="M59.2,117.5v6.5l-2.8,0c-2.1,0-4.3,0.2-6.3,0.9c-5.6,1.7-12,5.3-14.5,13c-1.3,4.2-3.8,10.4-6.8,17.6h74.9
	c-2.8-7.2-5.2-13.4-6.4-17.6c-1.6-5.4-5-8.7-8.7-10.9c-3.3-1.9-6.9-2.7-10.4-2.8V118c22.1-3.9,38.9-23.2,38.9-46.4
	c0-26-21.1-47.1-47.1-47.1c-26,0-47.1,21.1-47.1,47.1C22.7,94,38.3,112.7,59.2,117.5z"/>
</svg>
