<?xml version="1.0" encoding="utf-8"?>
<!-- Generator: Adobe Illustrator 24.2.3, SVG Export Plug-In . SVG Version: 6.00 Build 0)  -->
<svg version="1.1" id="Layer_1" xmlns="http://www.w3.org/2000/svg" xmlns:xlink="http://www.w3.org/1999/xlink" x="0px" y="0px"
	 viewBox="0 0 49.8 15" style="enable-background:new 0 0 49.8 15;" xml:space="preserve">
<style type="text/css">
	.st0{fill:#244C3A;}
</style>
<g>
	<path class="st0" d="M49.8,8.6c0.3,3-1.8,5.7-4.8,6.2c-3.2,0.6-6.3,0.1-9.4-0.9c-3.6-1.1-7-2.7-9.8-5.2c-0.3-0.2-0.5-0.5-0.7-0.6
		c-1.6,1.1-3.2,2.4-5,3.3c-4,2.2-8.3,3.7-13.1,3.6c-3.9,0-7.1-2.1-7-6.4C1.2,9,2.3,9.5,3.5,9.7C6,10.1,7.8,8.5,9.5,7
		c1.5-1.4,2.8-2.8,4.3-4.2c3.3-3.2,6.6-3.5,10.4-1.6c0.4,0.2,1,0.2,1.3,0.1c4.6-2.4,7.8-1,11,1.9c1.6,1.5,3.1,3.1,4.6,4.6
		c1.5,1.4,3.2,2.3,5.2,1.9C47.7,9.5,48.7,9,49.8,8.6z"/>
</g>
</svg>
