<?xml version="1.0" encoding="utf-8"?>
<!-- Generator: Adobe Illustrator 24.2.3, SVG Export Plug-In . SVG Version: 6.00 Build 0)  -->
<svg version="1.1" id="Layer_1" xmlns="http://www.w3.org/2000/svg" xmlns:xlink="http://www.w3.org/1999/xlink" x="0px" y="0px"
	 viewBox="0 0 69.6 55" style="enable-background:new 0 0 69.6 55;" xml:space="preserve">
<style type="text/css">
	.st0{fill:#244C3A;}
</style>
<g id="QjyiYC_1_">
	<g>
		<path class="st0" d="M55.1,46.8c-2.8,5.1-8.4,6.9-14.7,7.7c-8.2,1.1-16.1,0.3-23.3-3.2c-2.6-1.2-4.5-3.4-6.8-5.2
			c-1.7,0.6-3.8,1.3-6,2C-1.7,34.3,0,20.3,0.9,6.3C10.4,3.2,20,0.4,30.5,0.4c-0.2,1.1-0.7,2.1-0.6,3c0.3,2.4-1.6,2.9-3.7,3.4
			c-5.3,1.2-9.9,3.6-14.4,6.1C10.3,13.7,10,15,10,16.1c0.1,3.4,0.3,6.7,0.9,10c0.4,2.4,1.8,3.2,4.9,3.3c2.1,0.1,4.2,0,6.3,0
			c3,0,5.1-1.5,6.9-3.3c3.2-3.3,6.4-3.4,9.4,0c2.3,2.6,5.3,3.6,8.9,3.4c2.1-0.1,4.2,0,6.2-0.5c1-0.2,2-1.3,2.5-2.2
			c1.7-3.7,2-7.7,1.7-11.6c-0.1-0.8-0.8-1.8-1.6-2.2c-5-2.9-10.3-5.2-16.3-6.5c-1.7-0.3-2.3-1.1-2.5-2.4C37.2,2.9,37,1.8,36.8,0
			c5.1,0.7,10,1,14.6,2.2C57.1,3.6,62.5,5.7,68,7.6c0.7,0.2,1.4,1.2,1.4,1.8c0.1,5.3,0.4,10.7,0,16c-0.4,4.9-1.8,9.7-2.8,14.6
			c-0.5,2.6-1.1,5.3-1.6,7.9c-0.3,1.3-0.8,2.1-2.6,1.5C60,48.6,57.6,47.7,55.1,46.8z"/>
	</g>
</g>
</svg>
