<?xml version="1.0" encoding="utf-8"?>
<!-- Generator: Adobe Illustrator 24.3.0, SVG Export Plug-In . SVG Version: 6.00 Build 0)  -->
<svg version="1.1" id="Layer_1" xmlns="http://www.w3.org/2000/svg" xmlns:xlink="http://www.w3.org/1999/xlink" x="0px" y="0px"
	 viewBox="0 0 127 165.4" style="enable-background:new 0 0 127 165.4;" xml:space="preserve">
<style type="text/css">
	.st0{fill:#244C3A;}
</style>
<g id="QjyiYC_1_">
	<g>
		<path class="st0" d="M84.9,157.2c-2.8,5.1-8.4,6.9-14.7,7.7c-8.2,1.1-16.1,0.3-23.3-3.2c-2.6-1.2-4.5-3.4-6.8-5.2
			c-1.7,0.6-3.8,1.3-6,2c-6-13.8-4.3-27.8-3.4-41.8c9.5-3.1,19.1-5.9,29.6-5.9c-0.2,1.1-0.7,2.1-0.6,3c0.3,2.4-1.6,2.9-3.7,3.4
			c-5.3,1.2-9.9,3.6-14.4,6.1c-1.5,0.8-1.8,2.1-1.8,3.2c0.1,3.4,0.3,6.7,0.9,10c0.4,2.4,1.8,3.2,4.9,3.3c2.1,0.1,4.2,0,6.3,0
			c3,0,5.1-1.5,6.9-3.3c3.2-3.3,6.4-3.4,9.4,0c2.3,2.6,5.3,3.6,8.9,3.4c2.1-0.1,4.2,0,6.2-0.5c1-0.2,2-1.3,2.5-2.2
			c1.7-3.7,2-7.7,1.7-11.6c-0.1-0.8-0.8-1.8-1.6-2.2c-5-2.9-10.3-5.2-16.3-6.5c-1.7-0.3-2.3-1.1-2.5-2.4c-0.1-1.2-0.3-2.3-0.5-4.1
			c5.1,0.7,10,1,14.6,2.2c5.7,1.4,11.1,3.5,16.6,5.4c0.7,0.2,1.4,1.2,1.4,1.8c0.1,5.3,0.4,10.7,0,16c-0.4,4.9-1.8,9.7-2.8,14.6
			c-0.5,2.6-1.1,5.3-1.6,7.9c-0.3,1.3-0.8,2.1-2.6,1.5C89.8,159,87.4,158.1,84.9,157.2z"/>
	</g>
</g>
</svg>
