<svg id="Layer_1" data-name="Layer 1" xmlns="http://www.w3.org/2000/svg" viewBox="0 0 188.82 247.37"><defs><style>.cls-1{fill:#f15a29;}.cls-2{fill:#fff;}</style></defs><rect class="cls-1" x="43.35" y="108.11" width="17.44" height="144.14" rx="8.72" transform="translate(73.39 -6.16) rotate(22.65)"/><rect x="10.79" y="24.3" width="167.23" height="108.79" rx="12.03" transform="translate(37.58 -30.29) rotate(22.65)"/><path class="cls-2" d="M65.15,62.72,63,58.15,65.05,57c3.6-2,6-4.47,7.13-7.17a8.51,8.51,0,0,0-.25-7.31l-.06-.1C70,39,65.77,36,58.91,33.11a31.81,31.81,0,0,0-6.35-2l-1.1-.2a8.38,8.38,0,0,0-9.17,4.81L35.83,50.08C35,52,33.88,54.51,32.55,57.7c-1.07,2.57-1.86,4.62-2.4,6.26a19.24,19.24,0,0,0-1,5.22,11.76,11.76,0,0,0,.49,4.39,9,9,0,0,0,2.93,3.85,19.09,19.09,0,0,0,4,2.56c1.2.57,2.91,1.32,5.22,2.28,5.33,2.23,9.76,2.94,13.53,2.2s7.34-3.21,10.31-7.26a12.36,12.36,0,0,0,1.77-3,8.5,8.5,0,0,0,.33-5.49A31.91,31.91,0,0,0,65.15,62.72Zm-22.08,2.9a8.24,8.24,0,0,1,1.79-2.77c.28-.28.47-.37.45-.38l.28,0a7.52,7.52,0,0,1,2,.61A18.9,18.9,0,0,1,52,65.74a9.53,9.53,0,0,1,2.61,2.76l.06.12c.63,1.07.43,1.55.33,1.78-.31.75-1.3,1.3-2.93,1.63a10.74,10.74,0,0,1-6.39-.72,12.12,12.12,0,0,1-3.21-2C42.17,68.92,42.22,67.65,43.07,65.62Zm11-17c-.43.19-.83.37-1.2.52a1.46,1.46,0,0,1-1.91-1.9v0c.39-.92.71-1.63,1-2.18a1.44,1.44,0,0,1,1.79-.72q.53.18,1.23.48.45.18.87.39a1.46,1.46,0,0,1,0,2.6C55.31,48,54.72,48.31,54.05,48.62Z"/><path class="cls-2" d="M87.72,87.53l-7.08-3.32L86.48,69c7-18.32,6.5-20.86,4.75-22.7a4.27,4.27,0,0,0-1.55-1,5.86,5.86,0,0,0-6.46,1.31l-.09.09c-.62.64-1.48,1.51-6.3,13.07-1.63,3.9-2.88,7-3.71,9.12L66.94,84.68a6.73,6.73,0,0,0,3.65,8.62l9.5,4a76.92,76.92,0,0,0,11,4c4.75,1,6.36-1.5,6.83-2.64C100.13,93.36,92.06,89.57,87.72,87.53Z"/><path class="cls-2" d="M152.6,99.2c.46-10.27.61-17.09.47-20.83s-.69-7.59-3.7-8.84a5.53,5.53,0,0,0-4.83.49,37.71,37.71,0,0,0-4.28,2.8h0A18.62,18.62,0,0,1,138.58,74c0-.39,0-.87,0-1.48.11-4.72-2-6.58-3.71-7.31-1.59-.67-4.76-1.12-8.09,3.31l-.11.15c-.41.62-2.76,3.65-13.9,17-9.11,11-11,14.14-11.61,15.63a3.49,3.49,0,0,0-.09,2.79,4.41,4.41,0,0,0,2.4,2.52c3.2,1.34,7.2-.57,19.14-14.49L129.39,84c1.09,3.3,2.23,5,3.9,5.65a5.5,5.5,0,0,0,4,0,10.61,10.61,0,0,0,4.33-2.42c0,2.07-.07,5-.31,9.19-1.46,23.07.58,25.8,3.4,27l.9.38.6,0h.3a4.4,4.4,0,0,0,4.39-2.63C151.21,120.37,151.62,119.38,152.6,99.2Z"/></svg>