<svg id="Layer_1" data-name="Layer 1" xmlns="http://www.w3.org/2000/svg" viewBox="0 0 188.82 247.37"><defs><style>.cls-1{fill:#f26522;}.cls-2{fill:#eb94b3;}.cls-3{fill:#00aa4d;}.cls-4{fill:#fff;}</style></defs><rect class="cls-1" x="43.35" y="108.11" width="17.44" height="144.14" rx="8.72" transform="translate(73.39 -6.16) rotate(22.65)"/><rect class="cls-2" x="10.79" y="24.3" width="167.23" height="108.79" rx="12.03" transform="translate(37.58 -30.29) rotate(22.65)"/><path class="cls-3" d="M80.19,113.75a1.53,1.53,0,0,1-1-.93,1.65,1.65,0,0,1,.38-1.41c.06-.1.13-.2.16-.26,1.07-2.44,2.18-4.91,3.25-7.31.64-1.44,1.29-2.89,1.93-4.34-6.77,3.23-13.92,3.35-21.26.37l-.13,0-.29-.09a1,1,0,0,1-.68-1,1.33,1.33,0,0,1,1-1.15l.17-.07a25.45,25.45,0,0,1,15.51-2.84A58,58,0,0,1,57.41,67.09l-.36-.92,1,0a4.58,4.58,0,0,1,1.63.37,10.88,10.88,0,0,1,1.23.64l.31.19a57.46,57.46,0,0,1,19.44,17.3,73.49,73.49,0,0,1-1.76-34.85,4.57,4.57,0,0,1,.21-.68c.06-.15.13-.34.22-.6l.49-1.42.7,1.34A76.43,76.43,0,0,1,89.2,78.3a83.79,83.79,0,0,1,18.86-32.74l1.2-1.29L109.18,46A83.6,83.6,0,0,1,99,82.61a75.2,75.2,0,0,1,21.14-12.74l.46-.19a36.09,36.09,0,0,1,6-2l1.59-.35-.92,1.35a75.16,75.16,0,0,1-25.95,24.07,57,57,0,0,1,27.85,3l1.47.55-1.43.64a55.19,55.19,0,0,1-35,3.8,25.78,25.78,0,0,1,9.15,13.08,1.67,1.67,0,0,0,.08.2,1.4,1.4,0,0,1-.12,1.68,1.11,1.11,0,0,1-1.28.22h0a3,3,0,0,1-.4-.21l-.19-.11a25.27,25.27,0,0,1-14.41-15.26c-.68,1.76-1.37,3.53-2,5.3q-1.28,3.32-2.56,6.62a1.48,1.48,0,0,0-.08.29,1.64,1.64,0,0,1-.73,1.21,1.54,1.54,0,0,1-1.32,0Z"/><path class="cls-4" d="M108.53,46A82.24,82.24,0,0,1,96.36,85.88a73.91,73.91,0,0,1,24-15.41,37.83,37.83,0,0,1,6.36-2.13C119,79.66,109.51,88.22,97.41,94.08A56.91,56.91,0,0,1,129,96.4a54.43,54.43,0,0,1-36.62,3.28c.09.95.83,1.12,1.28,1.44a25.16,25.16,0,0,1,9.19,13c.13.38.48.86.12,1.21a.49.49,0,0,1-.58.08c-.2-.08-.4-.24-.59-.32A24.55,24.55,0,0,1,87.53,99.67l-.24-.85-.05-.07a3,3,0,0,0-.06-.36c-1.79,4.56-3.53,9.13-5.31,13.69-.21.53-.1,1.56-1.3,1.13l-.13,0c-1.24-.52-.34-1.22-.11-1.75,2-4.47,4-8.91,6-13.38a2.12,2.12,0,0,0-.28.2c-7.2,3.9-14.57,4.09-22.1,1-.12,0-.28-.08-.41-.13a.41.41,0,0,1-.29-.41c0-.46.5-.51.82-.68a24.68,24.68,0,0,1,15.79-2.67,5.43,5.43,0,0,0,1.82.06A57.88,57.88,0,0,1,58,66.86a3.89,3.89,0,0,1,1.4.32,11.34,11.34,0,0,1,1.47.79A57,57,0,0,1,80.32,85.38c.35.5.71,1.49,1.07,1.65a.24.24,0,0,0,.2,0c1-.57,0-1.49-.23-2.21A73.2,73.2,0,0,1,79.53,50c0-.26.17-.5.4-1.19a75.61,75.61,0,0,1,8.82,33.38A83.43,83.43,0,0,1,108.53,46M110,42.54l-2.4,2.57a84.22,84.22,0,0,0-18,30.07,77.57,77.57,0,0,0-8.46-27l-1.39-2.68-1,2.85L78.5,49a3.72,3.72,0,0,0-.24.79,74.84,74.84,0,0,0,.83,31.77A59.6,59.6,0,0,0,61.53,66.84l-.31-.18a12,12,0,0,0-1.3-.68,5.17,5.17,0,0,0-1.85-.42l-2-.07.73,1.84A61.9,61.9,0,0,0,66.5,84a58.44,58.44,0,0,0,10.39,9.82A26.51,26.51,0,0,0,63.43,96.9l-.12,0a2,2,0,0,0-1.4,1.71A1.66,1.66,0,0,0,63,100.33a2.08,2.08,0,0,0,.35.12l.08,0a26.12,26.12,0,0,0,20.23.29l-1.25,2.8c-1.08,2.4-2.18,4.87-3.26,7.32l-.1.16a2.27,2.27,0,0,0-.46,2,2.18,2.18,0,0,0,1.36,1.34l.19.07a2.18,2.18,0,0,0,1.86,0,2.24,2.24,0,0,0,1-1.64l0-.2c.86-2.2,1.73-4.44,2.56-6.61.48-1.23,1-2.49,1.45-3.74a25.83,25.83,0,0,0,14.15,14l.12.07a3.46,3.46,0,0,0,.48.26,1.8,1.8,0,0,0,2-.35,2,2,0,0,0,.27-2.41l-.06-.15a27.27,27.27,0,0,0-7.39-11.76,56.93,56.93,0,0,0,14.46.61,56.25,56.25,0,0,0,18.39-4.93l2.85-1.29-2.93-1.1a57.26,57.26,0,0,0-25.12-3.39,76.23,76.23,0,0,0,23.53-22.73l1.84-2.69-3.19.7a35.78,35.78,0,0,0-6.1,2l-.46.19a76,76,0,0,0-18.85,10.82,84.28,84.28,0,0,0,8.77-34l.16-3.52Z"/></svg>