<svg id="Layer_1" data-name="Layer 1" xmlns="http://www.w3.org/2000/svg" xmlns:xlink="http://www.w3.org/1999/xlink" viewBox="0 0 188.82 247.37"><defs><style>.cls-1,.cls-5{fill:none;}.cls-2{fill:#00b9b2;}.cls-3{fill:#f26522;}.cls-4{clip-path:url(#clip-path);}.cls-5{stroke:#fff;stroke-miterlimit:10;stroke-width:2.88px;}.cls-6{fill:#bcbec0;}.cls-7{fill:#7fcfd2;}.cls-8{fill:#96d7dd;}</style><clipPath id="clip-path"><rect class="cls-1" x="70.41" y="32.79" width="48" height="98.47" transform="translate(-15.42 141.85) rotate(-69.56)"/></clipPath></defs><rect class="cls-2" x="43.35" y="108.11" width="17.44" height="144.14" rx="8.72" transform="translate(73.39 -6.16) rotate(22.65)"/><rect class="cls-3" x="10.79" y="24.3" width="167.23" height="108.79" rx="12.03" transform="translate(37.58 -30.29) rotate(22.65)"/><g id="Artwork_112" data-name="Artwork 112"><g class="cls-4"><g class="cls-4"><path class="cls-5" d="M143.12,77.1C140,73.23,133,74.94,132.24,75.15a1.26,1.26,0,0,0-.67.46C97,70.27,75.88,56.6,70.75,53.08a1.26,1.26,0,0,0-.2-.9c-.48-.68-4.76-6.66-9.72-5.72-3.9.74-6.77,5.26-8.78,13.83-.91,3.87.57,9.82,2.13,16.12.76,3,1.54,6.18,2,9.06a1.27,1.27,0,0,0,.8,1,1.14,1.14,0,0,0,.32.07,2,2,0,0,0,.25,0c22.71,21,58,22.66,62.19,22.79a.8.8,0,0,0,.13.13,1.18,1.18,0,0,0,.29.16,1.27,1.27,0,0,0,1.24-.21c2.22-1.84,4.82-3.69,7.33-5.48,5.22-3.72,10.15-7.22,12-10.71C144.78,85.42,145.56,80.16,143.12,77.1ZM57.76,81.44c-.41-1.85-.88-3.74-1.34-5.58-1.43-5.76-2.91-11.71-2.13-15,2.19-9.32,5-11.72,7-12.1a4,4,0,0,1,2.19.24c2.2.82,4.14,3.12,4.88,4.1ZM138.69,92.1c-1.56,3-6.5,6.51-11.26,9.9-1.51,1.07-3.05,2.17-4.52,3.27l10.44-28c1.56-.33,6.11-1,8,1.28C142.55,80.08,143.09,83.68,138.69,92.1Z"/><path class="cls-6" d="M56.94,86.67a1.25,1.25,0,0,1-.8-1c-.5-2.88-1.28-6-2-9.06-1.57-6.3-3-12.25-2.14-16.12C54,52,56.86,47.44,60.76,46.7c4.95-.94,9.24,5,9.71,5.72a1.27,1.27,0,0,1,.14,1.15L58.55,85.93a1.26,1.26,0,0,1-1.29.81,1.14,1.14,0,0,1-.32-.07M63.37,49.2A4,4,0,0,0,61.19,49c-2,.38-4.79,2.78-7,12.1-.78,3.32.7,9.28,2.13,15,.46,1.85.93,3.73,1.34,5.58L68.26,53.3c-.75-1-2.68-3.28-4.89-4.1"/><path class="cls-6" d="M120.11,109.8a1,1,0,0,1-.29-.15,1.25,1.25,0,0,1-.44-1.46l11.93-32a1.24,1.24,0,0,1,.85-.77c.79-.21,7.8-1.92,10.88,2,2.45,3.06,1.67,8.32-2.38,16.07-1.83,3.48-6.76,7-12,10.71-2.51,1.79-5.11,3.64-7.33,5.47a1.22,1.22,0,0,1-1.24.21m13.16-32.31-10.44,28c1.48-1.11,3-2.2,4.52-3.27,4.77-3.39,9.7-6.9,11.27-9.9,4.4-8.42,3.85-12,2.62-13.57-1.86-2.33-6.41-1.61-8-1.28m-.52.12h0"/><path class="cls-7" d="M69.48,52.49c1.1.68,23.36,17.65,63.11,23.53l-12.48,33.51s-38.64-.47-62.8-23Z"/><path class="cls-8" d="M71.13,55.79,68.05,64s23.42,22.18,58.27,21.72l3.07-8.26s-32.16.66-58.26-21.71"/><path class="cls-8" d="M67.1,66.6l-2.9,7.78s23.67,21.49,58.26,21.71l2.9-7.77s-31.92,0-58.26-21.72"/><path class="cls-8" d="M63.23,77l-2.9,7.77s23.67,21.5,58.26,21.72l2.9-7.78S89.57,98.72,63.23,77"/></g></g></g></svg>