<svg id="Layer_1" data-name="Layer 1" xmlns="http://www.w3.org/2000/svg" xmlns:xlink="http://www.w3.org/1999/xlink" viewBox="0 0 188.82 247.37"><defs><style>.cls-1,.cls-5{fill:none;}.cls-2{fill:#662d91;}.cls-3{fill:#f15a2b;}.cls-4{clip-path:url(#clip-path);}.cls-5{stroke:#fff;stroke-miterlimit:10;stroke-width:1.28px;}.cls-6{clip-path:url(#clip-path-3);}.cls-7{fill:#c77440;}.cls-8{fill:#9c5a2d;}.cls-9{fill:#00afa8;}.cls-10{fill:#7bcbbf;}.cls-11{fill:#00b9b2;}</style><clipPath id="clip-path"><rect class="cls-1" x="62.73" y="46.37" width="63.36" height="72.45" transform="translate(-30.85 75.86) rotate(-38.1)"/></clipPath><clipPath id="clip-path-3"><rect class="cls-1" x="63.84" y="47.97" width="60.64" height="69.64" transform="translate(-31.02 75.75) rotate(-38.1)"/></clipPath></defs><rect class="cls-2" x="43.35" y="108.11" width="17.44" height="144.14" rx="8.72" transform="translate(73.39 -6.16) rotate(22.65)"/><rect class="cls-3" x="10.79" y="24.3" width="167.23" height="108.79" rx="12.03" transform="translate(37.58 -30.29) rotate(22.65)"/><g id="Artwork_103" data-name="Artwork 103"><g class="cls-4"><g class="cls-4"><path class="cls-5" d="M115.54,106.66a2.56,2.56,0,0,0,2.2-.35q2.36-4.61,4.72-9.22c-.26-.64-.29-1.43-1.08-1.75,1.17-2.34,2.31-4.69,3.54-7a5.61,5.61,0,0,0,.41-4.93c.7-1.33,1.46-2.64,2.09-4a4.58,4.58,0,0,0-2.11-6.16c-1.25-.67-2.54-1.29-3.8-1.93,0-.21.07-.42.11-.64.4-2.17,0-2.72-2.2-3.19l-3.78-.83c-2.74-.58-2.74-.58-2.9-3.45l-.09-1.54c-.12-2.33-.43-2.84-2.37-2.83-1-2.92-2-5.84-3-8.77-.88-2.57-1.32-2.81-3.84-2l-1.5.46c-2.77.85-2.77.85-4.36-1.56-.74-1.12-2.67-3.6-3.41-4.71-1.29-2-2-2.12-3.85-1l-.56.33c-1.38.88-4.2,6.06-6.81,10.59a5.33,5.33,0,0,0-3.6,1.3l-.94,1.85L62.19,86.9c-.15.31-.31.62-.47.93-.37,2.87,1,4.61,3.5,5.87,8.61,4.31,17.15,8.74,25.71,13.13,5,2.55,10,5.12,15,7.66a4.57,4.57,0,0,0,6.51-1.86l3.12-6"/></g><g class="cls-6"><path class="cls-7" d="M62.28,87.06q8-15.63,16-31.26a4.11,4.11,0,0,0,1.44,3.73A13.28,13.28,0,0,0,82,60.84l6.84,3.45c3.25,1.79,6.55,3.47,9.9,5.07l8.36,4.28,1.91,1,5.17,2.64,1.59.82,3.37,1.76L121.31,81c1.3.68,2.75,1.19,3.45,2.65a5.58,5.58,0,0,1-.41,4.87c-1.22,2.28-2.34,4.61-3.5,6.92-2.28-1.15-4.57-2.3-6.84-3.47a5,5,0,0,0-2.2-.6,6.54,6.54,0,0,0-6.35,4.43,6.34,6.34,0,0,0,3.25,7.57c2.11,1.11,4.24,2.19,6.36,3.28l-3.09,5.9c-.17,0-.37,0-.49,0-1.95,1.33-3.83.93-5.78-.08q-19.51-10-39.07-20c-2.21-1.12-4-2.38-4.14-5.13,0-.11-.14-.2-.22-.3"/><path class="cls-8" d="M112,112.51a4.51,4.51,0,0,1-6.44,1.84c-4.94-2.51-9.88-5-14.82-7.58-8.48-4.34-16.93-8.72-25.44-13-2.5-1.25-3.84-3-3.47-5.81l.47-.91c.08.1.22.19.22.3.1,2.75,1.93,4,4.14,5.14q19.58,9.91,39.07,20c2,1,3.83,1.41,5.78.08.12-.08.32,0,.49,0"/><path class="cls-8" d="M79.21,54c2.31-1.87,4.59-1.53,7.06-.16,3.8,2.12,7.72,4,11.59,6-.42,0-.84.12-1.26.14L82,60.84a13.65,13.65,0,0,1-2.32-1.31,4.11,4.11,0,0,1-1.44-3.73L79.21,54"/><path class="cls-9" d="M111,62.75c-.14-.41-.23-.83-.34-1.25q-1.9-5.45-3.79-10.89c-.88-2.55-1.31-2.78-3.81-2l-1.48.45c-2.74.84-2.74.84-4.32-1.55-.73-1.09-2.63-3.56-3.36-4.66-1.29-1.93-1.94-2.09-3.82-1l-.56.32c-2.11,1.37-7.7,13-10.56,16.52a3.43,3.43,0,0,0,1,1c.14.09.29.21.47.31s.31.18.52.29c1.32-1.14,7.77-10.85,8.77-11.51,2.94-1.92,3.11-1.88,4.87,1.32.23.41.48.81-.07,1.08s-.89.4-1.28-.14a3.11,3.11,0,0,1-.31-.43c-.56-1.16-1.31-1.07-2.2-.45s-6.11,8.46-8,10.69c.66.31,1.31.64,2,1,1.39.76,2.73,1.55,4.15,2.21,4.16-3.2,11-10.49,13.84-11.33a1,1,0,0,1,1.31.55c.7,2,1.37,4,2,5.95a.84.84,0,0,1-.55,1.14c-.57.2-.92-.17-1.11-.65-.32-.81-.59-1.64-.89-2.46-.95-2.61-1-2.67-3.51-1.83-1.48.5-6.26,6.14-9.33,9.35l.24.09A4.63,4.63,0,0,1,93,66.28c3.16-1.41,6.82-3.67,8.31-2.33a2.8,2.8,0,0,1,1.52-.15c4.25.46,6.83,3.31,7,7.82l5.88,5.31q-2.37-7.09-4.75-14.18"/><path class="cls-10" d="M88.86,64.05a17.59,17.59,0,0,0,1.79.72c3.07-3.21,7.85-8.85,9.33-9.35,2.53-.84,2.56-.78,3.51,1.83.3.82.57,1.65.89,2.46.19.48.54.85,1.11.65a.84.84,0,0,0,.55-1.14c-.66-2-1.33-4-2-5.95a1,1,0,0,0-1.31-.55c-2.87.84-9.68,8.13-13.84,11.33"/><path class="cls-10" d="M109.85,71.62c-.21-4.51-2.79-7.36-7-7.82a2.8,2.8,0,0,0-1.52.15q4.18,3.94,8.56,7.67"/><path class="cls-10" d="M80.78,60.21a4.8,4.8,0,0,0,.79.39c.39.19.73.38,1.07.54,1.85-2.23,7.27-10.41,8.07-11s1.64-.71,2.2.45a3.11,3.11,0,0,0,.31.43c.39.54.86.34,1.28.13s.3-.65.07-1.07c-1.76-3.2-1.93-3.24-4.87-1.32-1,.66-7.59,10.29-8.92,11.43"/><path class="cls-11" d="M82,60.84,96.6,60c.42,0,.84-.09,1.26-.14l11.23-.53c2.62-.13,3,.19,3.12,2.77l.09,1.53c.15,2.84.15,2.84,2.86,3.41l3.75.82c2.2.47,2.57,1,2.17,3.17,0,.21-.07.42-.11.62q-.9,4.11-1.79,8.21l-3.37-1.76c.24-1.21.46-2.43.73-3.63.77-3.42.67-3.57-2.85-4-.45-.06-.9-.14-1,.47s-.08,1,.55,1.13a3.07,3.07,0,0,0,.5.13c1.25.09,1.41.8,1.14,1.86s-.48,2.15-.71,3.23l-5.17-2.64c0-3.58-.26-7.14-.49-10.7,0-.56-.32-1-1-1-2,.08-4.08.2-6.12.32a.86.86,0,0,0-.86.93c0,.6.47.79,1,.79.85,0,1.7-.06,2.55-.09,2.71-.08,2.77-.08,2.85,2.56a34.93,34.93,0,0,1,.14,6.22l-8.36-4.28a2.92,2.92,0,0,0-.38-1.46c-1.85-3.75-5.33-5.07-9.52-3.61L82,60.84"/><path class="cls-8" d="M119.18,79.84c.59-2.73,1.19-5.47,1.79-8.2,1.26.63,2.52,1.25,3.77,1.91a4.53,4.53,0,0,1,2.08,6.09c-.62,1.36-1.37,2.65-2.06,4-.7-1.47-2.15-2-3.45-2.65l-2.13-1.12"/><path class="cls-10" d="M107.14,73.64a34.93,34.93,0,0,0-.14-6.22c-.08-2.64-.14-2.64-2.84-2.56-.86,0-1.71.08-2.56.09-.5,0-1-.19-1-.79a.86.86,0,0,1,.86-.93c2-.12,4.08-.24,6.12-.32.62,0,.91.45,1,1,.23,3.56.54,7.12.49,10.7l-1.91-1"/><path class="cls-10" d="M88.88,64.29c4.19-1.46,7.67-.14,9.52,3.61a2.92,2.92,0,0,1,.38,1.46c-3.35-1.6-6.65-3.28-9.9-5.07"/><path class="cls-10" d="M114.22,77.26c.23-1.08.44-2.16.72-3.23s.1-1.77-1.15-1.86a3.07,3.07,0,0,1-.5-.13c-.63-.16-.6-.67-.55-1.13s.49-.53,1-.47c3.52.45,3.62.59,2.85,4-.27,1.2-.49,2.42-.73,3.63l-1.59-.82"/><path class="cls-8" d="M121.92,97.14c-.26-.64-.29-1.42-1.07-1.74-2.28-1.15-4.57-2.3-6.84-3.47a5,5,0,0,0-2.2-.6,6.54,6.54,0,0,0-6.35,4.43,6.34,6.34,0,0,0,3.25,7.57c2.11,1.11,4.24,2.19,6.36,3.28a2.53,2.53,0,0,0,2.17-.35l4.68-9.12"/></g></g></g></svg>