<svg id="Layer_1" data-name="Layer 1" xmlns="http://www.w3.org/2000/svg" xmlns:xlink="http://www.w3.org/1999/xlink" viewBox="0 0 188.82 247.37"><defs><style>.cls-1{fill:none;}.cls-2{fill:#f15b2c;}.cls-3{fill:#eb94b3;}.cls-4{clip-path:url(#clip-path);}.cls-5{fill:#074971;}.cls-6{fill:#fff;}.cls-7{fill:#fac214;}</style><clipPath id="clip-path"><rect class="cls-1" x="68.12" y="36.58" width="55.29" height="85.35" transform="translate(-14.26 137.12) rotate(-67.35)"/></clipPath></defs><rect class="cls-2" x="43.35" y="108.11" width="17.44" height="144.14" rx="8.72" transform="translate(73.39 -6.16) rotate(22.65)"/><rect class="cls-3" x="10.79" y="24.3" width="167.23" height="108.79" rx="12.03" transform="translate(37.58 -30.29) rotate(22.65)"/><g id="Artwork_136" data-name="Artwork 136"><g class="cls-4"><g class="cls-4"><path class="cls-5" d="M64.72,71.77c-.54-2.14-2-3.71-3.37-5.3-.64-.71-1.27-1.42-1.88-2.15A3.24,3.24,0,0,1,59,60.64a16.17,16.17,0,0,1,6.73-7.2,17.09,17.09,0,0,1,5.73-2.2,7.23,7.23,0,0,1,4.35.6,36.2,36.2,0,0,0,5.48,2.42,10.61,10.61,0,0,0,3.72.26c3.41-.33,6.79-1,10.22-1.08,8.36-.3,15.13,2.94,20.38,9.38q2.56,3.17,5,6.41a13,13,0,0,0,5.29,4,26.41,26.41,0,0,1,4.4,2,3.67,3.67,0,0,1,.86.76,19.78,19.78,0,0,1,4.49,11.56,12.17,12.17,0,0,1-.81,4.55,3.43,3.43,0,0,1-3.25,2.51c-1.39.09-2.79.16-4.19.23a9.86,9.86,0,0,0-4.53,1.24c-.61-.65-1.21-1.31-1.85-1.94-5.54-5.38-12-9.33-18.93-12.71a101.67,101.67,0,0,0-21.6-7.91,54.46,54.46,0,0,0-15.83-1.73M96.45,58l.24.52c.79,1.57.54,3.31-1.2,4.08a4.42,4.42,0,0,0-.82.53c-2.91,2.14-3.41,5.29-1.28,8.22a13.48,13.48,0,0,0,3,3c.41.29.76.72,1.27.81a14.94,14.94,0,0,0,6,.1,5.2,5.2,0,0,0,4.29-5,8.72,8.72,0,0,0-.32-2.92,2.42,2.42,0,0,1,1.23-3c.43-.25.91-.42,1.41-.65-.71-1.1-1.56-2.1-2.37-3.12a.82.82,0,0,0-1-.34,2.25,2.25,0,0,1-2.51-.93.6.6,0,0,0-.67-.31,2.34,2.34,0,0,1-2.61-1.27.53.53,0,0,0-.56-.34,38.39,38.39,0,0,0-4.19.53"/><path class="cls-6" d="M63.48,73.47l-.33-1.31a11.34,11.34,0,0,0-3-4.57l0,0c-.65-.73-1.29-1.45-1.91-2.19A4.88,4.88,0,0,1,57.57,60a17.66,17.66,0,0,1,7.37-7.92,18.94,18.94,0,0,1,6.27-2.4,8.9,8.9,0,0,1,5.29.71c.66.29,1.29.62,1.9.93a16.31,16.31,0,0,0,3.33,1.4,9,9,0,0,0,3.16.23c1.22-.12,2.48-.29,3.69-.44,2.15-.28,4.38-.57,6.63-.65,8.75-.31,16,3.05,21.69,10,1.51,1.85,3.11,3.9,5,6.45a11.23,11.23,0,0,0,4.66,3.48c.41.18.82.34,1.27.51a17.14,17.14,0,0,1,3.38,1.63A5.18,5.18,0,0,1,132.5,75a21.48,21.48,0,0,1,4.82,12.49,13.77,13.77,0,0,1-.9,5.15,5,5,0,0,1-4.66,3.59l-3.27.19-.94,0a8.13,8.13,0,0,0-3.8,1l-1.1.65-.88-.93c-.2-.2-.4-.42-.6-.63-.41-.44-.81-.86-1.22-1.26-4.71-4.58-10.59-8.53-18.51-12.42a99.13,99.13,0,0,0-21.26-7.78,52.14,52.14,0,0,0-15.36-1.7Zm32.67,3.44q3.31,1.38,6.71,3c8.23,4.05,14.38,8.18,19.34,13,.38.36.74.74,1.09,1.11a12.22,12.22,0,0,1,4.09-.87l.94,0c1.06,0,2.16-.11,3.23-.18a1.84,1.84,0,0,0,1.82-1.43,10.57,10.57,0,0,0,.73-4A18.18,18.18,0,0,0,130,77a2.13,2.13,0,0,0-.5-.41,14.26,14.26,0,0,0-2.75-1.3c-.46-.17-.92-.36-1.39-.56a14.48,14.48,0,0,1-5.93-4.48c-1.93-2.53-3.51-4.55-5-6.37-5.05-6.19-11.28-9.06-19.07-8.79-2.1.08-4.25.36-6.34.63-1.23.16-2.51.33-3.78.45a12,12,0,0,1-4.27-.31,18.17,18.17,0,0,1-4-1.66c-.6-.3-1.16-.59-1.73-.84a5.61,5.61,0,0,0-3.42-.49,15.32,15.32,0,0,0-5.19,2,14.56,14.56,0,0,0-6.09,6.47,1.65,1.65,0,0,0,.2,2c.59.7,1.2,1.4,1.84,2.11l0,0a16.47,16.47,0,0,1,3.27,4.67,58.28,58.28,0,0,1,15.06,1.82,96.56,96.56,0,0,1,15.23,5m.68-.31a4.34,4.34,0,0,1-1.11-.73,1.64,1.64,0,0,0-.24-.19,15.25,15.25,0,0,1-3.4-3.35c-2.66-3.67-2-7.78,1.63-10.47l.13-.09a5,5,0,0,1,1-.62,1,1,0,0,0,.61-.57,1.8,1.8,0,0,0-.2-1.31c-.06-.11-.11-.24-.18-.38L95,58.71l-.86-1.84,2-.42A30.62,30.62,0,0,1,99.65,56l.83-.08a2.08,2.08,0,0,1,2.1,1.1c.39.63.65.58.93.53a2.19,2.19,0,0,1,2.29,1,.63.63,0,0,0,.82.28,2.45,2.45,0,0,1,2.62.92l.56.7a30,30,0,0,1,1.9,2.54l1,1.57-1.69.77-.5.23a6.17,6.17,0,0,0-.76.35.86.86,0,0,0-.49,1.17,10.52,10.52,0,0,1,.37,3.45,6.83,6.83,0,0,1-5.54,6.38,16.55,16.55,0,0,1-6.68-.08,3.28,3.28,0,0,1-.58-.17m1.82-17.28a4.53,4.53,0,0,1-.16,2.35,4.16,4.16,0,0,1-2.35,2.43l-.37.26-.14.11c-2.22,1.62-2.55,3.74-.94,6a11.82,11.82,0,0,0,2.69,2.63l.42.34.25.21a13.53,13.53,0,0,0,5.32.09,3.58,3.58,0,0,0,3-3.51,7.15,7.15,0,0,0-.28-2.39,4,4,0,0,1,1.78-4.6l-.63-.79L107,62a3.8,3.8,0,0,1-3.45-1.21,3.84,3.84,0,0,1-3.34-1.61l-.2,0-1.31.13"/><path class="cls-5" d="M120.17,100.4a5.71,5.71,0,0,1-3.18,6.15,17.5,17.5,0,0,1-8.74,1.82,51.05,51.05,0,0,1-14.15-2.18A73,73,0,0,1,80.7,101c-5.81-3-11.25-6.46-15.63-11.39a15.42,15.42,0,0,1-3.64-6.19,5.72,5.72,0,0,1,2.14-6.58,75.69,75.69,0,0,1,21.17,3.57,97.4,97.4,0,0,1,18.78,7.93,74.33,74.33,0,0,1,16.65,12.11"/><path class="cls-6" d="M85.14,104.78c-1.76-.74-3.48-1.53-5.17-2.39C72.9,98.78,67.78,95,63.86,90.63a17,17,0,0,1-4-6.85A7.31,7.31,0,0,1,62.6,75.5l.44-.33h.55a76.81,76.81,0,0,1,21.62,3.65,99.16,99.16,0,0,1,19.1,8.06,75.14,75.14,0,0,1,17,12.38l.38.39.08.54a7.29,7.29,0,0,1-4,7.76,19.16,19.16,0,0,1-9.52,2,52,52,0,0,1-14.6-2.25,75.28,75.28,0,0,1-8.52-3m-21-26.37A4.09,4.09,0,0,0,63,83a13.56,13.56,0,0,0,3.29,5.53c3.69,4.15,8.37,7.55,15.16,11a72,72,0,0,0,13.1,5.13,49.38,49.38,0,0,0,13.7,2.12,16,16,0,0,0,8-1.62,4.11,4.11,0,0,0,2.42-4A72.87,72.87,0,0,0,102.74,89.7a95.49,95.49,0,0,0-18.48-7.79,73.63,73.63,0,0,0-20.13-3.5"/><path class="cls-7" d="M120.17,100.4a74.33,74.33,0,0,0-16.65-12.11,97.4,97.4,0,0,0-18.78-7.93,75.69,75.69,0,0,0-21.17-3.57c.38-1.67.76-3.35,1.15-5A54.46,54.46,0,0,1,80.55,73.5a101.67,101.67,0,0,1,21.6,7.91c6.88,3.38,13.39,7.33,18.93,12.71.64.63,1.24,1.29,1.85,1.94l-2.76,4.34"/><path class="cls-6" d="M120.45,103,119,101.55A72.11,72.11,0,0,0,102.74,89.7a95.49,95.49,0,0,0-18.48-7.79A73.4,73.4,0,0,0,63.54,78.4l-2,0,1.87-8.13,1.21-.08a56.56,56.56,0,0,1,16.3,1.77,102.74,102.74,0,0,1,21.94,8c8.23,4.05,14.38,8.18,19.34,13,.47.45.91.92,1.33,1.37l.57.6.88.92ZM66,73.33l-.44,1.9a78.49,78.49,0,0,1,19.63,3.59,99.16,99.16,0,0,1,19.1,8.06,77.62,77.62,0,0,1,15.56,11l1-1.62c-.32-.34-.63-.66-1-1-4.71-4.58-10.59-8.53-18.51-12.42a99.13,99.13,0,0,0-21.26-7.78A54.27,54.27,0,0,0,66,73.33"/><path class="cls-7" d="M96.45,58a38.39,38.39,0,0,1,4.19-.53.53.53,0,0,1,.56.34,2.34,2.34,0,0,0,2.61,1.27.6.6,0,0,1,.67.31,2.25,2.25,0,0,0,2.51.93.82.82,0,0,1,1,.34c.81,1,1.66,2,2.37,3.12-.5.23-1,.4-1.41.65a2.42,2.42,0,0,0-1.23,3,8.72,8.72,0,0,1,.32,2.92,5.2,5.2,0,0,1-4.29,5,14.94,14.94,0,0,1-6-.1c-.51-.09-.86-.52-1.27-.81a13.48,13.48,0,0,1-3-3c-2.13-2.93-1.63-6.08,1.28-8.22a4.42,4.42,0,0,1,.82-.53c1.74-.77,2-2.51,1.2-4.08L96.45,58"/><path class="cls-6" d="M96.83,76.6a4.34,4.34,0,0,1-1.11-.73,1.64,1.64,0,0,0-.24-.19,15.25,15.25,0,0,1-3.4-3.35c-2.66-3.67-2-7.78,1.63-10.47l.13-.09a5,5,0,0,1,1-.62,1,1,0,0,0,.61-.57,1.8,1.8,0,0,0-.2-1.31c-.06-.11-.11-.24-.18-.38L95,58.71l-.86-1.84,2-.42A30.62,30.62,0,0,1,99.65,56l.83-.08a2.08,2.08,0,0,1,2.1,1.1c.39.63.65.58.93.53a2.19,2.19,0,0,1,2.29,1,.63.63,0,0,0,.82.28,2.45,2.45,0,0,1,2.62.92l.56.7a30,30,0,0,1,1.9,2.54l1,1.57-1.69.77-.5.23a6.17,6.17,0,0,0-.76.35.86.86,0,0,0-.49,1.17,10.52,10.52,0,0,1,.37,3.45,6.83,6.83,0,0,1-5.54,6.38,16.55,16.55,0,0,1-6.68-.08,3.28,3.28,0,0,1-.58-.17m1.82-17.28a4.53,4.53,0,0,1-.16,2.35,4.16,4.16,0,0,1-2.35,2.43l-.37.26-.14.11c-2.22,1.62-2.55,3.74-.94,6a11.82,11.82,0,0,0,2.69,2.63l.42.34.25.21a13.53,13.53,0,0,0,5.32.09,3.58,3.58,0,0,0,3-3.51,7.15,7.15,0,0,0-.28-2.39,4,4,0,0,1,1.78-4.6l-.63-.79L107,62a3.8,3.8,0,0,1-3.45-1.21,3.84,3.84,0,0,1-3.34-1.61l-.2,0-1.31.13"/><path class="cls-5" d="M64.67,71.89c-.53-2.14-2-3.72-3.37-5.3-.63-.71-1.27-1.43-1.88-2.16A3.26,3.26,0,0,1,59,60.75a16.14,16.14,0,0,1,6.72-7.2,17.35,17.35,0,0,1,5.74-2.2,7.33,7.33,0,0,1,4.35.6,34.31,34.31,0,0,0,5.48,2.42,10.84,10.84,0,0,0,3.72.27c3.41-.34,6.79-1,10.22-1.09,8.36-.29,15.12,2.94,20.38,9.39,1.71,2.1,3.37,4.24,5,6.4a12.68,12.68,0,0,0,5.29,4,27.14,27.14,0,0,1,4.39,2,3.53,3.53,0,0,1,.87.76,19.8,19.8,0,0,1,4.49,11.57,12.37,12.37,0,0,1-.82,4.54,3.41,3.41,0,0,1-3.24,2.51c-1.4.1-2.79.16-4.19.24a9.73,9.73,0,0,0-4.53,1.23c-.62-.64-1.21-1.31-1.85-1.93C115.5,88.85,109,84.9,102.11,81.52a101.3,101.3,0,0,0-21.6-7.9,53.89,53.89,0,0,0-15.84-1.73M96.41,58.14c.09.21.16.37.24.52.78,1.57.54,3.31-1.2,4.08a4.37,4.37,0,0,0-.83.54,5.48,5.48,0,0,0-1.28,8.21,13.32,13.32,0,0,0,3,3,3.35,3.35,0,0,0,1.26.82,15,15,0,0,0,6,.09,5.18,5.18,0,0,0,4.28-5,8.77,8.77,0,0,0-.32-2.92,2.44,2.44,0,0,1,1.24-3c.43-.25.91-.42,1.41-.65-.71-1.1-1.56-2.09-2.37-3.12a.85.85,0,0,0-1-.34,2.24,2.24,0,0,1-2.51-.93.59.59,0,0,0-.66-.3A2.36,2.36,0,0,1,101.16,58c-.13-.21-.26-.37-.56-.34-1.39.15-2.78.24-4.19.53"/><path class="cls-5" d="M120.12,100.52a5.69,5.69,0,0,1-3.17,6.14c-2.72,1.53-5.71,1.81-8.74,1.83a51.06,51.06,0,0,1-14.15-2.19,72.34,72.34,0,0,1-13.4-5.24c-5.81-3-11.25-6.46-15.63-11.39a15.2,15.2,0,0,1-3.64-6.19,5.71,5.71,0,0,1,2.13-6.58,75.34,75.34,0,0,1,21.17,3.58,97.45,97.45,0,0,1,18.79,7.92,74.23,74.23,0,0,1,16.64,12.12"/><path class="cls-7" d="M120.12,100.52A74.23,74.23,0,0,0,103.48,88.4a97.45,97.45,0,0,0-18.79-7.92A75.34,75.34,0,0,0,63.52,76.9q.58-2.5,1.15-5a53.89,53.89,0,0,1,15.84,1.73,101.3,101.3,0,0,1,21.6,7.9C109,84.9,115.5,88.85,121,94.24c.64.62,1.23,1.29,1.85,1.93q-1.38,2.17-2.77,4.35"/><path class="cls-7" d="M96.41,58.14c1.41-.29,2.8-.38,4.19-.53.3,0,.43.13.56.34a2.36,2.36,0,0,0,2.61,1.28.59.59,0,0,1,.66.3,2.24,2.24,0,0,0,2.51.93.85.85,0,0,1,1,.34c.81,1,1.66,2,2.37,3.12-.5.23-1,.4-1.41.65a2.44,2.44,0,0,0-1.24,3,8.77,8.77,0,0,1,.32,2.92,5.18,5.18,0,0,1-4.28,5,15,15,0,0,1-6-.09,3.35,3.35,0,0,1-1.26-.82,13.32,13.32,0,0,1-3-3,5.48,5.48,0,0,1,1.28-8.21,4.37,4.37,0,0,1,.83-.54c1.74-.77,2-2.51,1.2-4.08-.08-.15-.15-.31-.24-.52"/></g></g></g></svg>