<svg id="Layer_1" data-name="Layer 1" xmlns="http://www.w3.org/2000/svg" xmlns:xlink="http://www.w3.org/1999/xlink" viewBox="0 0 188.82 247.37"><defs><style>.cls-1{fill:none;}.cls-2{fill:#f15a29;}.cls-3{fill:#00b9b2;}.cls-4{clip-path:url(#clip-path);}.cls-5{fill:#f1f2f2;}.cls-6{fill:#652e8f;}.cls-7{fill:#432466;}.cls-8{fill:#00b9b1;}</style><clipPath id="clip-path"><rect class="cls-1" x="65.84" y="27.76" width="54.5" height="108.21" transform="translate(-20.3 131.97) rotate(-65.17)"/></clipPath></defs><rect class="cls-2" x="43.35" y="108.11" width="17.44" height="144.14" rx="8.72" transform="translate(73.39 -6.16) rotate(22.65)"/><rect class="cls-3" x="10.79" y="24.3" width="167.23" height="108.79" rx="12.03" transform="translate(37.58 -30.29) rotate(22.65)"/><g id="Artwork_100" data-name="Artwork 100"><g class="cls-4"><g class="cls-4"><path class="cls-5" d="M103.75,59.19l37.72,31.44-22.53-1-5.6,14.93a16.94,16.94,0,0,1-4.91.27l-.87,2.24.35,2.1-1,6.45-2.31-1-1-.43h0l-2.37-1v0l-.27-.11,3.69-5.41,1.69-1.25.69-1.75a67,67,0,0,1-16.86-4.24c-1.72-.63-2.78-1.07-2.78-1.07q-2.7-1.08-5-2.15L81.87,97c-13.82-6.39-17.1-11.73-17.1-11.73l4.09-14.14L52,57.18l51.46,1.89.15.12h.12m.79-2h-.12l-.15-.12-.71,0-51.47-1.9L46,54.87l4.72,3.91L66.48,71.87,62.77,84.7l-.26.88.48.79c.37.6,4,6.06,18,12.53l.54.25c1.63.75,3.33,1.48,5.07,2.18.14.06,1.19.49,2.85,1.1a77.51,77.51,0,0,0,13.65,3.85l-.18.26L99.23,112l-1.45,2.12.28.11,2.37,1,2.37,1,1,.43,2.32,1,2.46,1,.39-2.63,1-6.45,0-.33-.06-.33-.26-1.54.13-.33a15.84,15.84,0,0,0,4.07-.38l1-.29.37-1,5.07-13.51,21,.93,6.18.28-4.75-4L105.09,57.59Z"/><path class="cls-6" d="M52,57.18l51.46,1.89L141.2,90.51l-22.54-1-5.59,14.93s-7.68,2.19-25.94-5.15-22.36-14-22.36-14l4.09-14.14Z"/><path class="cls-7" d="M118.68,89.49,91.14,87.68l-4,11.6s16.6,7,25.94,5.15Z"/><polygon class="cls-8" points="103.33 114.1 112.7 90.34 98.52 74.49 99.22 73.87 113.78 90.15 104.36 114.53 103.33 114.1"/><path class="cls-7" d="M100.53,74.47c-.35.75-2.11.66-4-.18s-3-2.14-2.69-2.89,2.11-.66,3.94.19,3,2.14,2.7,2.88"/><polygon class="cls-8" points="107.12 105.88 104.65 107.71 100.96 113.12 106.67 115.48 107.65 109.03 107.12 105.88"/><path class="cls-6" d="M52.29,57.3l51.46,1.89,37.72,31.44-22.54-1-5.59,14.93s-7.68,2.2-25.95-5.15S65,85.4,65,85.4l4.09-14.14Z"/><path class="cls-7" d="M118.94,89.62,91.41,87.8l-4,11.6s16.61,6.95,26,5.15Z"/><polygon class="cls-8" points="103.59 114.22 112.97 90.47 98.79 74.62 99.49 73.99 114.05 90.27 104.63 114.65 103.59 114.22"/><path class="cls-7" d="M100.8,74.6c-.35.74-2.12.66-4-.19s-3-2.14-2.7-2.89,2.12-.66,3.95.19,3,2.14,2.7,2.89"/><polygon class="cls-8" points="107.39 106.01 104.92 107.84 101.22 113.25 106.94 115.61 107.91 109.16 107.39 106.01"/></g></g></g></svg>