<svg id="Layer_1" data-name="Layer 1" xmlns="http://www.w3.org/2000/svg" xmlns:xlink="http://www.w3.org/1999/xlink" viewBox="0 0 188.82 247.37"><defs><style>.cls-1,.cls-6{fill:none;}.cls-2{fill:#662d91;}.cls-3{fill:#f15a2b;}.cls-4{clip-path:url(#clip-path);}.cls-5{fill:#652e8f;}.cls-6{stroke:#fff;stroke-miterlimit:10;stroke-width:1.72px;}</style><clipPath id="clip-path"><rect class="cls-1" x="67.71" y="36.69" width="56.19" height="87.46" transform="translate(-15.3 137.87) rotate(-67.35)"/></clipPath></defs><rect class="cls-2" x="43.35" y="108.11" width="17.44" height="144.14" rx="8.72" transform="translate(73.39 -6.16) rotate(22.65)"/><rect class="cls-3" x="10.79" y="24.3" width="167.23" height="108.79" rx="12.03" transform="translate(37.58 -30.29) rotate(22.65)"/><g id="MILkLy"><g class="cls-4"><g class="cls-4"><path class="cls-5" d="M121.4,110.46c1-6.51-1.5-11.43-6.79-13.64s-10.55-.5-14.45,4.73l-22-9.18a11.75,11.75,0,0,0-1.45-9.1,11.56,11.56,0,0,0-13.28-4.84A11.86,11.86,0,0,0,57,83.53c-2.42-.83-4.82-1.65-5.54-4.38a5.87,5.87,0,0,1,0-3.47C55.22,66.54,60,58,67.65,51.44c3.83-3.29,8.2-5.31,13.42-5a21.11,21.11,0,0,1,6.43,1.71c3.85,1.44,7.72,2.81,11.57,4.25,10.26,3.85,16.39,11.36,19.17,21.78.62,2.29,1,4.64,1.61,6.94a3,3,0,0,0,.81,1.41c2.45,2.22,5,4.31,7.41,6.58,4.75,4.48,5.61,9.9,3.64,15.94-.37,1.13-.73,2.27-1.2,3.36a5.6,5.6,0,0,1-7,2.93c-.7-.27-1.39-.57-2.06-.85M93.94,59,89.15,70.47l22.14,9.23c-.5-9.33-7.41-17.59-17.35-20.72m-9.87,9.39,4.64-11.12c-1.94-.81-3.78-1.62-5.66-2.35a7.64,7.64,0,0,0-4.86-.32c-4.17,1.14-6.94,4.11-9.69,7.29Z"/><path class="cls-6" d="M121.4,110.46c1-6.51-1.5-11.43-6.79-13.64s-10.55-.5-14.45,4.73l-22-9.18a11.75,11.75,0,0,0-1.45-9.1,11.56,11.56,0,0,0-13.28-4.84A11.86,11.86,0,0,0,57,83.53c-2.42-.83-4.82-1.65-5.54-4.38a5.87,5.87,0,0,1,0-3.47C55.22,66.54,60,58,67.65,51.44c3.83-3.29,8.2-5.31,13.42-5a21.11,21.11,0,0,1,6.43,1.71c3.85,1.44,7.72,2.81,11.57,4.25,10.26,3.85,16.39,11.36,19.17,21.78.62,2.29,1,4.64,1.61,6.94a3,3,0,0,0,.81,1.41c2.45,2.22,5,4.31,7.41,6.58,4.75,4.48,5.61,9.9,3.64,15.94-.37,1.13-.73,2.27-1.2,3.36a5.6,5.6,0,0,1-7,2.93C122.76,111,122.07,110.74,121.4,110.46ZM93.94,59,89.15,70.47l22.14,9.23C110.79,70.37,103.88,62.11,93.94,59Zm-9.87,9.39,4.64-11.12c-1.94-.81-3.78-1.62-5.66-2.35a7.64,7.64,0,0,0-4.86-.32c-4.17,1.14-6.94,4.11-9.69,7.29Z"/><path class="cls-5" d="M74.12,92.42a7.78,7.78,0,0,1-14.37-6,7.78,7.78,0,1,1,14.37,6"/><path class="cls-6" d="M74.12,92.42a7.78,7.78,0,0,1-14.37-6,7.78,7.78,0,1,1,14.37,6Z"/><path class="cls-5" d="M103.07,104.35A7.75,7.75,0,1,1,107,114.5a7.76,7.76,0,0,1-3.88-10.15"/><path class="cls-6" d="M103.07,104.35A7.75,7.75,0,1,1,107,114.5,7.76,7.76,0,0,1,103.07,104.35Z"/></g></g></g></svg>