<svg id="Layer_1" data-name="Layer 1" xmlns="http://www.w3.org/2000/svg" xmlns:xlink="http://www.w3.org/1999/xlink" viewBox="0 0 188.82 247.37"><defs><style>.cls-1{fill:none;}.cls-2{fill:#662d91;}.cls-3{fill:#eb94b3;}.cls-4{clip-path:url(#clip-path);}.cls-5{fill:#fff;}.cls-6{fill:#8f3995;}.cls-7{fill:#6eb645;}.cls-8{fill:#ffd500;}.cls-9{fill:#f68520;}.cls-10{fill:#ee282d;}.cls-11{fill:#2584c6;}</style><clipPath id="clip-path"><rect class="cls-1" x="60.43" y="33.05" width="67.95" height="91.29" transform="translate(-14.57 135.53) rotate(-67.35)"/></clipPath></defs><rect class="cls-2" x="43.35" y="108.11" width="17.44" height="144.14" rx="8.72" transform="translate(73.39 -6.16) rotate(22.65)"/><rect class="cls-3" x="10.79" y="24.3" width="167.23" height="108.79" rx="12.03" transform="translate(37.58 -30.29) rotate(22.65)"/><g id="Artwork_98" data-name="Artwork 98"><g class="cls-4"><g class="cls-4"><path class="cls-5" d="M103.89,119.46c-2.19-.91-4.46-2-6.84-3.22-4.31-2.24-8.48-4.78-12.35-7.19l-2.59-1.62c-3.9-2.45-7.93-5-12-7.25A88.22,88.22,0,0,0,59.36,95a49.46,49.46,0,0,0-14.23-3.43,3.71,3.71,0,0,1-3.29-5.43c.84-1.94,1.66-3.89,2.47-5.83l4.52-10.79L57.4,49h0l.3-.72h0l6.59-15.84,2.93.94.3.1a65.24,65.24,0,0,1,7,1.14,59.16,59.16,0,0,1,9.27,2.88,94.68,94.68,0,0,1,11.59,5.66c2.79,1.57,5.49,3.23,8,4.79l2.13,1.34c1.28.81,2.56,1.62,3.86,2.4l2.54,1.55c1.91,1.17,3.89,2.38,5.85,3.46l1.4.78c1.74,1,3.39,1.9,5.1,2.69a63.6,63.6,0,0,0,14.16,4.92,28.35,28.35,0,0,0,5.71.7l5.1-.08L146.6,72l-2.73,6.59c0,.1-.08.18-.12.26l-.89,2.16c-.83,2-1.65,4-2.48,6a3.67,3.67,0,0,1-.21.44l-.82,2q-1.24,3-2.47,6a5,5,0,0,1-.28.57c-.06.19-.13.39-.21.58L133,104.75l-4.6,11q-1.19,2.85-2.36,5.72a3.92,3.92,0,0,1-4.11,2.51,55.86,55.86,0,0,1-11.7-2.29,62.77,62.77,0,0,1-6.3-2.27m-40.5-30a96.54,96.54,0,0,1,10,4.91c4.2,2.35,8.31,4.92,12.28,7.41l2.58,1.61c3.75,2.34,7.79,4.8,11.89,6.94a68.47,68.47,0,0,0,12,5,51.91,51.91,0,0,0,8.43,1.83c.54-1.31,1.08-2.62,1.63-3.93l4.6-11.06,3.12-7.41-.48-1.54,1.54-1q1.09-2.66,2.2-5.31l1.05-2.55.09-.13c.5-1.23,1-2.47,1.53-3.71l-1-.08,3-4.61L139.35,72c-.74-.12-1.48-.26-2.22-.41a69.71,69.71,0,0,1-15.68-5.41c-1.94-.89-3.78-1.93-5.57-2.92l-1.36-.76c-2.09-1.16-4.13-2.41-6.11-3.62l-2.49-1.52c-1.35-.8-2.67-1.64-4-2.48L99.84,53.6c-2.44-1.52-5-3.13-7.72-4.62A89.68,89.68,0,0,0,81.35,43.7a53.18,53.18,0,0,0-8.22-2.56c-1.74-.37-3.35-.65-4.87-.86l-1.08,2.6h0L61,57.73h0L55,72.12,50.49,82.91c-.34.82-.68,1.64-1,2.46A57.37,57.37,0,0,1,61.8,88.79c.53.2,1.06.42,1.59.64M130.22,94Zm7.64-18.28v0ZM67.21,33.42h0"/><path class="cls-6" d="M126.26,112.11c-1.12,2.71-2.25,5.42-3.36,8.13a.62.62,0,0,1-.74.44,52.74,52.74,0,0,1-11-2.15,72.9,72.9,0,0,1-12.57-5.26c-4.15-2.16-8.15-4.59-12.12-7.06-4.87-3-9.7-6.15-14.71-8.95A92.49,92.49,0,0,0,60.58,91.9,53,53,0,0,0,45.4,88.26c-.59-.05-.75-.16-.48-.77,1.15-2.66,2.26-5.35,3.38-8,.28,0,.55.08.82.1a51.22,51.22,0,0,1,13.07,2.9A100.27,100.27,0,0,1,80,91.24c5,3,9.86,6.18,14.86,9.16,3.26,1.95,6.56,3.82,10,5.48a67.45,67.45,0,0,0,8.1,3.37,62,62,0,0,0,6.79,1.85c2.17.48,4.38.64,6.56,1"/><path class="cls-7" d="M51.92,70.83l3.66-8.78a4.53,4.53,0,0,0,.64.13,52.29,52.29,0,0,1,12.62,2.74A79.21,79.21,0,0,1,78.43,69c3.4,1.74,6.72,3.63,10,5.62,5,3,9.78,6.21,14.8,9.1,3.08,1.77,6.13,3.58,9.37,5.06a69.4,69.4,0,0,0,11.6,4.32,48.51,48.51,0,0,0,9.18,1.54.84.84,0,0,1-.06.62q-1.73,4.08-3.44,8.17a3.8,3.8,0,0,0-.88-.17,52.34,52.34,0,0,1-10.53-2.07,66.45,66.45,0,0,1-7.67-2.92,101.86,101.86,0,0,1-10.67-5.56c-2.16-1.28-4.27-2.64-6.43-3.92-3.46-2.07-6.84-4.29-10.31-6.35A115.42,115.42,0,0,0,73,76.78a66.57,66.57,0,0,0-11.5-4.32,54.22,54.22,0,0,0-9.54-1.63"/><path class="cls-8" d="M133.37,94.66a48.51,48.51,0,0,1-9.18-1.54,69.4,69.4,0,0,1-11.6-4.32c-3.24-1.48-6.29-3.29-9.37-5.06-5-2.89-9.85-6.1-14.8-9.1-3.27-2-6.59-3.88-10-5.62a79.21,79.21,0,0,0-9.59-4.1,52.29,52.29,0,0,0-12.62-2.74,4.53,4.53,0,0,1-.64-.13l3.62-8.7a3.52,3.52,0,0,0,.7.21,60.41,60.41,0,0,1,6.94,1.12,55.06,55.06,0,0,1,8.75,2.71,91.6,91.6,0,0,1,11.17,5.47c2.67,1.5,5.27,3.09,7.86,4.71,2,1.25,4,2.55,6,3.77,2.83,1.7,5.61,3.48,8.5,5.07,2.22,1.23,4.41,2.52,6.71,3.58a65.75,65.75,0,0,0,14.92,5.16,30.77,30.77,0,0,0,6.41.77q-1.71,4.13-3.41,8.25a1,1,0,0,1-.41.49"/><path class="cls-9" d="M136.88,86.25a47.68,47.68,0,0,1-9.19-1.53,69.4,69.4,0,0,1-11.6-4.32c-3.23-1.48-6.29-3.29-9.37-5.06-5-2.89-9.84-6.1-14.79-9.11-3.27-2-6.59-3.87-10-5.61a77.87,77.87,0,0,0-9.59-4.1,52.19,52.19,0,0,0-12.62-2.74,5.19,5.19,0,0,1-.64-.13L62.71,45a3.52,3.52,0,0,0,.7.21,60.76,60.76,0,0,1,6.94,1.12A55.27,55.27,0,0,1,79.09,49a91.73,91.73,0,0,1,11.18,5.47c2.66,1.5,5.26,3.09,7.85,4.71,2,1.25,4,2.55,6,3.77,2.82,1.7,5.61,3.48,8.5,5.07,2.22,1.23,4.41,2.52,6.71,3.58a66.07,66.07,0,0,0,14.92,5.16,30.69,30.69,0,0,0,6.41.77c-1.14,2.75-2.28,5.49-3.41,8.25a1,1,0,0,1-.41.48"/><path class="cls-10" d="M140.37,77.85a48.46,48.46,0,0,1-9.19-1.53A70.33,70.33,0,0,1,119.58,72c-3.24-1.47-6.29-3.29-9.37-5.06-5-2.89-9.85-6.1-14.79-9.1-3.27-2-6.59-3.88-10-5.62a80.82,80.82,0,0,0-9.59-4.1,52.77,52.77,0,0,0-12.62-2.74,4.53,4.53,0,0,1-.64-.13q1.82-4.35,3.62-8.7a5.11,5.11,0,0,0,.7.22,58.27,58.27,0,0,1,6.94,1.11,56.11,56.11,0,0,1,8.75,2.71,94,94,0,0,1,11.18,5.47c2.66,1.5,5.26,3.09,7.85,4.71,2,1.26,4,2.55,6,3.77,2.83,1.7,5.61,3.48,8.5,5.08,2.22,1.22,4.42,2.51,6.72,3.57a65.93,65.93,0,0,0,14.92,5.17,31.27,31.27,0,0,0,6.4.76q-1.69,4.13-3.41,8.25a1.08,1.08,0,0,1-.4.49"/><path class="cls-11" d="M51.92,70.83a54.22,54.22,0,0,1,9.54,1.63A66.57,66.57,0,0,1,73,76.78a115.42,115.42,0,0,1,10.42,5.68c3.47,2.06,6.85,4.28,10.31,6.35,2.16,1.28,4.27,2.64,6.43,3.92a101.86,101.86,0,0,0,10.67,5.56,66.45,66.45,0,0,0,7.67,2.92A52.34,52.34,0,0,0,129,103.28a3.8,3.8,0,0,1,.88.17l-3.61,8.67c-2.18-.38-4.39-.55-6.56-1a62,62,0,0,1-6.79-1.85,67.45,67.45,0,0,1-8.1-3.37c-3.42-1.66-6.72-3.53-10-5.48-5-3-9.88-6.15-14.86-9.16a100.27,100.27,0,0,0-17.78-8.78,51.22,51.22,0,0,0-13.07-2.9c-.27,0-.54-.06-.82-.1l3.62-8.63"/></g></g></g></svg>