<svg id="Layer_1" data-name="Layer 1" xmlns="http://www.w3.org/2000/svg" xmlns:xlink="http://www.w3.org/1999/xlink" viewBox="0 0 188.82 247.37"><defs><style>.cls-1{fill:none;}.cls-2{fill:#00b9b2;}.cls-3{fill:#39b54a;}.cls-4{clip-path:url(#clip-path);}.cls-5{fill:#43acd0;}.cls-6{fill:#6dc17c;}.cls-7{fill:#6385b8;}.cls-8{fill:#59b171;}.cls-9{fill:#67c187;}.cls-10{fill:#fff;}</style><clipPath id="clip-path"><rect class="cls-1" x="50.84" y="35.12" width="87.15" height="87.15"/></clipPath></defs><rect class="cls-2" x="43.35" y="108.11" width="17.44" height="144.14" rx="8.72" transform="translate(73.39 -6.16) rotate(22.65)"/><rect class="cls-3" x="10.79" y="24.3" width="167.23" height="108.79" rx="12.03" transform="translate(37.58 -30.29) rotate(22.65)"/><g id="Artwork_108" data-name="Artwork 108"><g class="cls-4"><g class="cls-4"><path class="cls-5" d="M90,42c-1.9-.49-3.55.08-5.24.68-.45.16-.92.55-.83,1.08s.76.44,1.21.51c1.35.19,2.38-.58,3.52-1.08,2.49-1.08,3.41-.45,3.36,2.27a3.2,3.2,0,0,0,0,.62c.68,3.6-.52,4.76-4.28,4.18a4.46,4.46,0,0,0-1.84-.1C83,51.05,80.1,52,77.25,53a3.42,3.42,0,0,0-2.37,3.35c0,1.08-.32,2.23-1.55,2.38-1.45.18-1.46-1.11-1.73-2.12a2.57,2.57,0,0,0-3.37-1.94,6.54,6.54,0,0,0-4,3.13c-.52.83-.44,1.66,1,1.89,2.13.35,2.25.75,1.27,2.67-.09.18-.31.47-.27.52,1.39,1.5.45,3.47,1,5.09.66,1.81,1.79,2.11,3.08.8a2.5,2.5,0,0,1,3.39-.46c2.19,1.38,4.87,2.13,6.34,4.54.37.62,1.07.6,1.63.82,2.49,1,4.86,2,5.42,5.14.2,1.1,1.34,1.52,2.27,2,5.06,2.59,5.18,2.79,2.25,7.48a64.24,64.24,0,0,1-4.71,6.31c-1.13,1.4-2.36,2.74-4.44,2.74A2.1,2.1,0,0,0,81,98c-.46.57-.91,1.15-1.36,1.73-1.35,1.74-2.66,3.51-4,5.26a16.45,16.45,0,0,0,7.47,2.31l1.8.18a37.12,37.12,0,0,0,26.93-8,42.83,42.83,0,0,0,8-8.58l.19-.23c.21-.22.44-.42.66-.64s.18-.49.28-.73l.66-1.76c0-.28-.05-.56-.07-.83-.26-3.25-1-3.84-4.17-3.2a13,13,0,0,1-6.16-.18,4.81,4.81,0,0,1-3.7-6,30.5,30.5,0,0,0,1.06-8.6,3.3,3.3,0,0,1,1.13-2.58c3.61-3.55,7.76-4.57,12.55-2.77,1.55.58,3.13,1.06,4.69,1.59V62.18c0-.11-.05-.22-.07-.33-1.13-.5-2.21-1.18-3.54-1-1.09.18-1.33-.74-1.81-1.4-1.27-1.73-2.14-1.65-3,.28-.58,1.31-1.47,2-2.92,1.64a3.53,3.53,0,0,1-2.75-3.29c-.1-1.51.91-2.37,2.4-2.66,1-.2,2.13,0,2.82-1a3.11,3.11,0,0,0-.76-4.26c-.77-.58-1.66-1-2.47-1.53-2.26-1.48-2.2-2.72.16-4.14a5.52,5.52,0,0,0,.47-.32,40,40,0,0,0-11.46-4.77c-.24.38-.49.76-.7,1.15-.55,1-2.47,2.43.69,2.53.57,0,.91.89.7,1.54a2.78,2.78,0,0,1-2.14,1.75,2.42,2.42,0,0,1-2.53-.4c-1-1.19.32-2,.88-2.93-1.36-.16-2,.65-2.66,1.56s-1,2.16-2.27,1.71-1.63-1.8-1.64-3.1c0-1.49.79-2.77,1.17-4.17.07-.26.16-.51.24-.77-.44,0-.87,0-1.31,0h-.23c-.06.27-.12.54-.16.82C93.69,41.67,92.44,42.65,90,42M73.61,62.58a3.44,3.44,0,0,1-1.14-.1c-.76-.45-2.33-.36-2-1.57.35-1.39,1.44-.2,2.21-.1l.82.08c.76.06,1.76,0,1.71,1s-1.13.38-1.58.66m2.76,2.47c-.61-.24-1.54-.18-1.47-1.27,0-.35.39-.83.57-.58.58.8,1.94.15,2.17,1.11.14.59-.67.7-1.27.74m34.8-15.19a1.5,1.5,0,0,1,1.45-1c1.44-.12,3.23,1.84,3.12,3.3a1.53,1.53,0,0,1-.13.54c-.28.64-1,.71-1.63.86a2.9,2.9,0,0,1-1.7-1.18,5.49,5.49,0,0,1-1-1.75,1.54,1.54,0,0,1-.1-.56.66.66,0,0,1,0-.21"/><path class="cls-6" d="M61.05,62a2.78,2.78,0,0,0,.8,1.41,10.91,10.91,0,0,1,3,12.67,10.41,10.41,0,0,0,1.32,9.31,14.37,14.37,0,0,1,2.52,9.16c-.2,2.41.63,4.81.25,7.24.05.26.11.51.17.77l6.18,2.53.33-.08c1.33-1.75,2.64-3.52,4-5.26L81,98a2.1,2.1,0,0,1,1.46-.7c2.08,0,3.31-1.34,4.44-2.74a64.24,64.24,0,0,0,4.71-6.31c2.93-4.69,2.81-4.89-2.25-7.48-.93-.47-2.07-.89-2.27-2-.56-3.1-2.93-4.14-5.42-5.14-.56-.22-1.26-.2-1.63-.82-1.47-2.41-4.14-3.16-6.34-4.54a2.5,2.5,0,0,0-3.39.46c-1.29,1.31-2.42,1-3.08-.8-.58-1.62.36-3.59-1-5.09,0,0,.18-.34.27-.52,1-1.92.86-2.32-1.27-2.67-1.4-.23-1.48-1.06-1-1.89a6.51,6.51,0,0,1,4-3.13,2.57,2.57,0,0,1,3.37,1.94c.27,1,.28,2.3,1.73,2.12,1.23-.15,1.52-1.3,1.55-2.38A3.42,3.42,0,0,1,77.25,53c2.85-1,5.73-2,8.63-2.84a4.46,4.46,0,0,1,1.84.1c3.76.58,5-.58,4.28-4.18a3.2,3.2,0,0,1,0-.62c.05-2.72-.87-3.35-3.36-2.27-1.13.5-2.17,1.27-3.52,1.08-.45-.07-1.09.13-1.21-.51s.38-.92.83-1.08c1.69-.6,3.34-1.17,5.24-.68,2.47.64,3.72-.34,4.15-2.89,0-.28.1-.55.16-.82A40.43,40.43,0,0,0,59.57,58.42a18.32,18.32,0,0,1,.89,1.84A14.54,14.54,0,0,1,61.05,62"/><path class="cls-7" d="M94.51,119.09a40.13,40.13,0,0,0,22-6.52,3.58,3.58,0,0,1,.27-2.73c1.45-4.31,2.91-8.62,4.31-13a5.34,5.34,0,0,0-.13-4.6c-.34-.59-.14-1.48-.19-2.24-.22.22-.45.42-.66.64l-.19.23a42.83,42.83,0,0,1-8,8.58,37.12,37.12,0,0,1-26.93,8l-1.8-.18A16.45,16.45,0,0,1,75.64,105l-.33.08a10,10,0,0,0-.43,3.88,1.94,1.94,0,0,1-1.21,2.18c-1,.36-1.42-.55-1.91-1.2-1.66-2.19-3-4.48-2.63-7.39-.06-.26-.12-.51-.17-.77-4.38-2.27-7.69-5.73-10.7-9.53A50.16,50.16,0,0,1,55,86.92a40.47,40.47,0,0,0,39.56,32.17"/><path class="cls-8" d="M127.45,65.24c-.23,6.79-1.28,13.39-4.13,19.57-.19.42-.39.83-.6,1.24s-.44,1.18-1,1.5L121,89.32c-.1.24-.19.49-.28.73.05.76-.15,1.65.19,2.24a5.34,5.34,0,0,1,.13,4.6c-1.4,4.33-2.86,8.64-4.31,13a3.58,3.58,0,0,0-.27,2.73A40.39,40.39,0,0,0,132.6,65.24a13.52,13.52,0,0,1-5.15,0"/><path class="cls-5" d="M69,101.81c.38-2.43-.45-4.83-.25-7.24a14.31,14.31,0,0,0-2.53-9.16,10.44,10.44,0,0,1-1.31-9.31,10.91,10.91,0,0,0-3-12.67,2.78,2.78,0,0,1-.8-1.41,14.54,14.54,0,0,0-.59-1.76,18.32,18.32,0,0,0-.89-1.84,40.18,40.18,0,0,0-5.46,20.27A40.59,40.59,0,0,0,55,86.92a50.16,50.16,0,0,0,3.31,5.36c3,3.8,6.32,7.26,10.7,9.53"/><path class="cls-6" d="M114.91,48.68c.81.54,1.7,1,2.47,1.53a3.09,3.09,0,0,1,.76,4.25c-.69,1-1.84.81-2.82,1-1.49.29-2.5,1.15-2.4,2.66a3.53,3.53,0,0,0,2.75,3.29c1.45.4,2.34-.33,2.92-1.64.86-1.93,1.73-2,3-.28.48.66.72,1.58,1.81,1.4,1.33-.23,2.41.45,3.54,1-.26-3.54-1.57-6.82-2.46-10.21a40.65,40.65,0,0,0-8.94-7.42,5.52,5.52,0,0,1-.47.32c-2.36,1.42-2.42,2.66-.16,4.14"/><path class="cls-6" d="M94.41,43.26c0,1.3.36,2.65,1.64,3.1s1.69-.9,2.26-1.71,1.31-1.72,2.67-1.56c-.56,1-1.93,1.74-.88,2.93a2.42,2.42,0,0,0,2.53.4,2.78,2.78,0,0,0,2.14-1.75c.21-.65-.13-1.52-.7-1.54-3.16-.1-1.24-1.5-.69-2.53.21-.39.46-.77.7-1.15a40.1,40.1,0,0,0-8.26-1.13c-.08.26-.17.51-.24.78-.38,1.39-1.18,2.67-1.17,4.16"/><path class="cls-8" d="M127,62.18c1.49.39,2.32,1.9,3.88,2.23a8.51,8.51,0,0,0,1.48.21,40.35,40.35,0,0,0-7.89-13c.89,3.39,2.2,6.67,2.46,10.21,0,.11,0,.22.07.33"/><path class="cls-7" d="M127,62.18V65l.44.27a13.52,13.52,0,0,0,5.15,0l-.23-.62a8.51,8.51,0,0,1-1.48-.21c-1.56-.33-2.39-1.84-3.88-2.23"/><path class="cls-6" d="M122.72,86.05c.21-.41.41-.82.6-1.24,2.85-6.18,3.9-12.78,4.13-19.57L127,65c-1.56-.53-3.14-1-4.69-1.59-4.79-1.8-8.94-.78-12.55,2.77a3.3,3.3,0,0,0-1.13,2.58,30.5,30.5,0,0,1-1.06,8.6,4.81,4.81,0,0,0,3.7,6,13,13,0,0,0,6.16.18c3.19-.64,3.91,0,4.17,3.2,0,.27,0,.55.07.83.6-.33.76-1,1-1.51"/><path class="cls-6" d="M112.28,52.38a2.9,2.9,0,0,0,1.7,1.18c.65-.15,1.34-.22,1.63-.86a1.53,1.53,0,0,0,.13-.54c.11-1.46-1.68-3.42-3.12-3.3a1.5,1.5,0,0,0-1.45,1,.66.66,0,0,0,0,.21,1.54,1.54,0,0,0,.1.56,5.49,5.49,0,0,0,1,1.75"/><path class="cls-9" d="M75.19,61.92c0-1-1-1-1.71-1l-.82-.08c-.77-.1-1.86-1.29-2.21.1-.31,1.21,1.26,1.12,2,1.57a3.44,3.44,0,0,0,1.14.1c.45-.28,1.53.35,1.58-.66"/><path class="cls-9" d="M75.47,63.2c-.18-.25-.55.23-.57.58-.07,1.09.86,1,1.47,1.27.6,0,1.41-.15,1.27-.74-.23-1-1.59-.31-2.17-1.11"/><path class="cls-8" d="M71.76,110c.49.65.88,1.56,1.91,1.2A1.94,1.94,0,0,0,74.88,109a10,10,0,0,1,.43-3.88l-6.18-2.53c-.39,2.91,1,5.2,2.63,7.39"/><path class="cls-10" d="M94.41,38.3l1.32,0a40.27,40.27,0,0,1,19.72,5.9,40.59,40.59,0,0,1,16.83,20.4c.08.21.15.41.22.62a40.42,40.42,0,0,1-38.09,53.85A40.45,40.45,0,0,1,54.86,86.92a40.29,40.29,0,0,1,4.62-28.5A40.43,40.43,0,0,1,94.19,38.3h.22m0-3.18h-.24A43.6,43.6,0,0,0,50.84,78.69a43.21,43.21,0,0,0,.91,8.87A43.58,43.58,0,1,0,135.5,64.18c-.08-.22-.16-.45-.25-.67A43.5,43.5,0,0,0,95.83,35.15c-.47,0-.94,0-1.42,0"/></g></g></g></svg>