<svg id="Layer_1" data-name="Layer 1" xmlns="http://www.w3.org/2000/svg" xmlns:xlink="http://www.w3.org/1999/xlink" viewBox="0 0 188.82 247.37"><defs><style>.cls-1,.cls-5{fill:none;}.cls-2{fill:#662d91;}.cls-3{fill:#00b9b2;}.cls-4{clip-path:url(#clip-path);}.cls-5{stroke:#fff;stroke-miterlimit:10;stroke-width:6.35px;}.cls-6{fill:#fced00;}.cls-7{fill:#ffd800;}</style><clipPath id="clip-path"><rect class="cls-1" x="62.98" y="35.57" width="62.86" height="86.25" transform="translate(-14.57 135.53) rotate(-67.35)"/></clipPath></defs><rect class="cls-2" x="43.35" y="108.11" width="17.44" height="144.14" rx="8.72" transform="translate(73.39 -6.16) rotate(22.65)"/><rect class="cls-3" x="10.79" y="24.3" width="167.23" height="108.79" rx="12.03" transform="translate(37.58 -30.29) rotate(22.65)"/><g id="Artwork_120" data-name="Artwork 120"><g class="cls-4"><g class="cls-4"><path class="cls-5" d="M126.25,82.07a18.82,18.82,0,0,0-.42-2.89,33.06,33.06,0,0,0-2.85-8,6.49,6.49,0,0,0-.62-1.27,37.19,37.19,0,0,0-4.81-6.85c-.7-.64-1.27-1.4-2-2a30.42,30.42,0,0,1,1.35-3,.51.51,0,0,0-.29-.21c-1.42-.66-2.83-1.34-4.26-2-6.14-2.74-12.36-5.3-18.68-7.61-.34-.12-.47,0-.58.27-.25.75-.53,1.5-.81,2.24-.06.17-.09.38-.31.45a32.49,32.49,0,0,0-7.81.62,25.34,25.34,0,0,0-4.52,1.21c-.1,0-.21,0-.31.08a35.94,35.94,0,0,0-10.16,5.43,35.1,35.1,0,0,0-9.29,10.6,34.72,34.72,0,0,0-3.74,9.39c-.09.39-.23.41-.57.26-1.06-.46-2.15-.89-3.21-1.35-.26-.11-.41-.11-.53.19-.37.93-.76,1.86-1.14,2.79a11.25,11.25,0,0,0-.82,2.11c.61.56,1.22,1.12,1.84,1.67A111.85,111.85,0,0,0,80.18,103a111.28,111.28,0,0,0,17.16,6.22,111.72,111.72,0,0,0,12.91,2.71,120.5,120.5,0,0,0,12.29,1.17c.37,0,.58-.07.7-.44s.4-1,.6-1.52c.39-.93.77-1.86,1.19-2.77.16-.34.08-.49-.26-.62-1.07-.43-2.11-.89-3.18-1.31-.32-.13-.42-.24-.25-.52s.35-.56.48-.8a35.24,35.24,0,0,0,4.71-12.54,18.84,18.84,0,0,0,.15-3.9Z"/><path class="cls-6" d="M126.47,85.87V86c0,1.17,0,2.35-.13,3.51a35.64,35.64,0,0,1-4.4,14.82c-.27.49-.54,1-.85,1.46s-.14.45.21.59c1.06.42,2.11.88,3.17,1.31.34.13.42.27.27.62-.42.91-.8,1.84-1.19,2.76a1.56,1.56,0,0,0-.73-.41L57.66,83.47l-7.27-3c.38-.92.77-1.85,1.14-2.78.11-.3.26-.3.52-.19,1.07.46,2.15.88,3.22,1.35.33.15.48.13.57-.26a34.38,34.38,0,0,1,3.73-9.39,35.14,35.14,0,0,1,9.3-10.6A35.81,35.81,0,0,1,79,53.14a1.67,1.67,0,0,1,.3-.08c-.07.74-.19,1.48-.2,2.22A17.14,17.14,0,0,1,79,57c-.25,2.2-.35,4.41-.59,6.62-.22,2-.33,3.94-.48,5.92s-.3,4-.46,5.94c-.09,1.18-.2,2.37-.3,3.56s-.19,2.45-.29,3.67a29.35,29.35,0,0,1-.27,3.13c-.3,1.54-.24,1.76,1.2,2.34l0,0c.39.23.59,0,.7-.43a20.39,20.39,0,0,1,.88-2.6c.52-1.32.94-2.68,1.45-4q1.36-3.51,2.59-7.08c.44-1.26.93-2.5,1.36-3.76.76-2.21,1.59-4.39,2.39-6.59.23-.62.48-1.24.69-1.87.79-2.29,1.65-4.56,2.48-6.84.34-.9.71-1.8,1-2.72a2.2,2.2,0,0,0,.24-1.11c.22-.07.25-.28.32-.45.27-.75.55-1.49.81-2.24.11-.31.23-.39.57-.27,6.32,2.31,12.54,4.87,18.68,7.61,1.43.64,2.85,1.32,4.27,2,.11.06.23.1.28.22-.44,1-1,1.93-1.35,3l-1,2c-.43.85-.74,1.76-1.19,2.59-1.07,2-1.92,4-2.92,6-.72,1.44-1.37,2.93-2.06,4.39q-1.47,3.15-3,6.27c-.6,1.22-1.17,2.44-1.73,3.67-1.12,2.46-2.34,4.88-3.43,7.35-.2.46-.48.86-.67,1.32a8.85,8.85,0,0,1-.69,1.42c-.12.2-.41.47-.07.74s1.62.67,1.82.44c.51-.57,1-1.15,1.51-1.73L104,93c1.16-1.34,2.32-2.67,3.47-4,1-1.2,2-2.41,3.07-3.61,1.54-1.77,3.07-3.55,4.58-5.36,1.21-1.44,2.46-2.85,3.68-4.29s2.65-3,3.9-4.55A34.51,34.51,0,0,1,126,81.29c.22,1.3.34,2.61.44,3.93Z"/><path class="cls-7" d="M50.39,80.44l7.27,3,65.16,27.18a1.56,1.56,0,0,1,.73.41c-.21.51-.44,1-.61,1.53s-.33.45-.7.43A117.52,117.52,0,0,1,110,111.87a111.28,111.28,0,0,1-12.91-2.71,111.4,111.4,0,0,1-17.17-6.22A112.12,112.12,0,0,1,51.4,84.23l-1.84-1.67a11.66,11.66,0,0,1,.83-2.12"/><path class="cls-7" d="M122.69,71.15c-1.25,1.56-2.61,3-3.9,4.55s-2.43,2.81-3.62,4.23q-2.17,2.59-4.4,5.15c-1.12,1.28-2.2,2.59-3.31,3.88s-2.31,2.68-3.47,4l-2.18,2.55c-.5.58-1,1.16-1.51,1.73-.21.23-1.33,0-1.82-.44s0-.54.07-.74a8.85,8.85,0,0,0,.69-1.42c.19-.46.47-.86.67-1.32,1.09-2.47,2.31-4.89,3.43-7.35.56-1.23,1.13-2.45,1.73-3.67q1.52-3.12,3-6.27c.69-1.46,1.34-3,2.06-4.39,1-2,1.85-4,2.92-6,.45-.83.76-1.74,1.19-2.59l1-2c.74.59,1.32,1.35,2,2a36.71,36.71,0,0,1,4.81,6.85,6,6,0,0,1,.63,1.27"/><path class="cls-7" d="M91.66,51.23a2.2,2.2,0,0,1-.24,1.11c-.29.92-.66,1.82-1,2.72-.83,2.28-1.69,4.55-2.48,6.84-.21.63-.46,1.25-.69,1.87-.8,2.2-1.63,4.38-2.39,6.59-.43,1.26-.92,2.5-1.36,3.76-.85,2.46-1.76,4.89-2.68,7.32-.49,1.3-.9,2.63-1.42,3.92-.33.84-.58,1.72-.86,2.59-.12.36-.31.5-.66.29l0,0c-1.44-.58-1.5-.8-1.2-2.34a29.35,29.35,0,0,0,.27-3.13c.1-1.22.2-2.45.29-3.67s.21-2.38.3-3.56q.24-3,.46-5.94c.15-2,.26-4,.48-5.92.16-1.51.26-3,.39-4.54.11-1.35.26-2.72.32-4.08,0-.66.13-1.32.19-2a25.45,25.45,0,0,1,4.53-1.21,31.91,31.91,0,0,1,7.8-.62"/></g></g></g></svg>