<svg id="Layer_1" data-name="Layer 1" xmlns="http://www.w3.org/2000/svg" xmlns:xlink="http://www.w3.org/1999/xlink" viewBox="0 0 188.82 247.37"><defs><style>.cls-1,.cls-6{fill:none;}.cls-2{fill:#f26522;}.cls-3{fill:#00b9b2;}.cls-4{clip-path:url(#clip-path);}.cls-5{fill:#fff;}.cls-6{stroke:#fff;stroke-miterlimit:10;stroke-width:3.17px;}.cls-7{fill:#bcbec0;}.cls-8{fill:#a7a9ac;}</style><clipPath id="clip-path"><rect class="cls-1" x="56.56" y="50.37" width="75.69" height="56.65" transform="translate(-14.57 135.53) rotate(-67.35)"/></clipPath></defs><rect class="cls-2" x="43.35" y="108.11" width="17.44" height="144.14" rx="8.72" transform="translate(73.39 -6.16) rotate(22.65)"/><rect class="cls-3" x="10.79" y="24.3" width="167.23" height="108.79" rx="12.03" transform="translate(37.58 -30.29) rotate(22.65)"/><g id="Artwork_124" data-name="Artwork 124"><g class="cls-4"><g class="cls-4"><path class="cls-5" d="M112.17,77.1a20.68,20.68,0,0,0-9.34-5.81,6.15,6.15,0,0,0-.47-1.79,19.63,19.63,0,0,0,5.74-7.4c3.15-7.55-.3-16.17-.3-16.17s-8.54,3.62-11.69,11.16a19.52,19.52,0,0,0-1.25,9.12,6.2,6.2,0,0,0-1.45.74,20.76,20.76,0,0,0-11.06-2.12C74.23,65.78,68.41,73,68.41,73s7.35,5.68,15.47,4.72a18.84,18.84,0,0,0,7.4-2.66l-17,34.37,12,5,12.35-36a18.87,18.87,0,0,0,3.73,7.17c5.35,6.18,14.6,7,14.6,7s.58-9.27-4.77-15.45"/><path class="cls-6" d="M112.17,77.1a20.68,20.68,0,0,0-9.34-5.81,6.15,6.15,0,0,0-.47-1.79,19.63,19.63,0,0,0,5.74-7.4c3.15-7.55-.3-16.17-.3-16.17s-8.54,3.62-11.69,11.16a19.52,19.52,0,0,0-1.25,9.12,6.2,6.2,0,0,0-1.45.74,20.76,20.76,0,0,0-11.06-2.12C74.23,65.78,68.41,73,68.41,73s7.35,5.68,15.47,4.72a18.84,18.84,0,0,0,7.4-2.66l-17,34.37,12,5,12.35-36a18.87,18.87,0,0,0,3.73,7.17c5.35,6.18,14.6,7,14.6,7S117.52,83.28,112.17,77.1Z"/><path class="cls-7" d="M96.11,57.09c-3.15,7.55.29,16.17.29,16.17S105,69.64,108.1,62.1s-.3-16.17-.3-16.17-8.54,3.62-11.69,11.16"/><path class="cls-7" d="M112.17,77.1c-5.35-6.19-14.6-6.95-14.6-6.95S97,79.41,102.34,85.6s14.6,7,14.6,7,.58-9.27-4.77-15.45"/><path class="cls-7" d="M83.88,77.73c8.12-1,13.94-8.19,13.94-8.19s-7.35-5.67-15.47-4.71S68.41,73,68.41,73s7.35,5.68,15.47,4.72"/><polygon class="cls-8" points="92.09 73.43 74.27 109.44 86.26 114.44 99.88 74.71 92.09 73.43"/><path class="cls-5" d="M91.3,69.56a6,6,0,1,0,7.86-3.23,6,6,0,0,0-7.86,3.23"/></g></g></g></svg>