<svg id="Layer_1" data-name="Layer 1" xmlns="http://www.w3.org/2000/svg" xmlns:xlink="http://www.w3.org/1999/xlink" viewBox="0 0 188.82 247.37"><defs><style>.cls-1,.cls-6{fill:none;}.cls-2{fill:#f26522;}.cls-3{fill:#ec94b3;}.cls-4{clip-path:url(#clip-path);}.cls-5{clip-path:url(#clip-path-2);}.cls-6{stroke:#fff;stroke-miterlimit:10;stroke-width:3.51px;}.cls-7{fill:#f7941d;}.cls-8{fill:#754c29;}.cls-9{fill:#231f20;}</style><clipPath id="clip-path"><rect class="cls-1" x="60.36" y="41.22" width="57.83" height="70.65" transform="translate(-15.75 129.46) rotate(-67.35)"/></clipPath><clipPath id="clip-path-2"><rect class="cls-1" x="60.36" y="41.22" width="57.83" height="70.65" transform="translate(-15.75 129.46) rotate(-67.35)"/></clipPath></defs><rect class="cls-2" x="43.35" y="108.11" width="17.44" height="144.14" rx="8.72" transform="translate(73.39 -6.16) rotate(22.65)"/><rect class="cls-3" x="10.79" y="24.3" width="167.23" height="108.79" rx="12.03" transform="translate(37.58 -30.29) rotate(22.65)"/><g id="Artwork_121" data-name="Artwork 121"><g class="cls-4"><g class="cls-5"><path class="cls-6" d="M104.73,109.29c.35,0,.45-.15.31-.48-1.77-4.09,3-7.49,4.56-10.93h0v0h0c2.39-4.27,8-7,10.94-10.66,7.31-10.64,3.89-25.24-8.13-30.25C93.14,50.72,96.2,65.76,78.54,64.8c-6.61-.36-12,6.52-11.16,12.65L48.36,88a.4.4,0,0,0,.31.73l21.07-6.25.44.66a11.08,11.08,0,0,0,14,1.92c4.42.08,7.09,4.44,10.67,6.6v0c.35.21.7.41,1.07.6C94.65,94,94,97,92.35,98.08c-2.81-.71-7-.81-7.91,2.64a.06.06,0,0,0,.09.06c1.51-1.08,3.13-.9,4.78-.68l-1,2.7s0,0,0,0a5.88,5.88,0,0,1,6.51-1,.4.4,0,0,0,.45-.62c-.27-2.74,2.4-5.7,4.44-7.44a18.47,18.47,0,0,0,3.09.58c1.58,2.87,2,5.79.26,8.56-2.19,3.47-7.54-.31-10.52,2a.28.28,0,0,0,.14.5,29.18,29.18,0,0,1,5.08,1.23l-1.13,1.79a.29.29,0,0,0,.24.44Z"/><polyline class="cls-7" points="47.97 88.73 67.57 77.09 67.56 78.59 70.31 82.16"/><path class="cls-8" d="M69.92,83.07a11.07,11.07,0,0,0,14,1.92c4.42.09,7.09,4.44,10.66,6.6v0c.35.21.71.41,1.08.61-1.28,1.72-1.89,4.73-3.58,5.79-2.86-.72-7.15-.81-7.94,2.79,1.54-1.17,3.2-1,4.9-.77l-1,2.78a5.87,5.87,0,0,1,6.57-1,.4.4,0,0,0,.45-.62c-.27-2.74,2.4-5.7,4.44-7.44a18.47,18.47,0,0,0,3.09.58c1.58,2.87,2,5.79.26,8.56-2.31,3.66-8.12-.73-11,2.44a27.79,27.79,0,0,1,5.67,1.3l-1.39,2.21.06.1a13.65,13.65,0,0,1,8.22.3c.35,0,.45-.15.3-.48-1.76-4.09,3-7.49,4.56-10.93h0v0h0c2.4-4.27,8-7,11-10.66,7.3-10.64,3.89-25.24-8.13-30.25-19.27-6.22-16.21,8.82-33.87,7.86-7.8-.42-13.89,9.23-10.08,15.84"/><path class="cls-9" d="M78.11,74.76a1.67,1.67,0,1,1-.9-2.19,1.68,1.68,0,0,1,.9,2.19"/></g></g></g></svg>