<?xml version="1.0" encoding="utf-8"?>
<!-- Generator: Adobe Illustrator 24.3.0, SVG Export Plug-In . SVG Version: 6.00 Build 0)  -->
<svg version="1.1" id="Layer_1" xmlns="http://www.w3.org/2000/svg" xmlns:xlink="http://www.w3.org/1999/xlink" x="0px" y="0px"
	 viewBox="0 0 173.3 100" style="enable-background:new 0 0 173.3 100;" xml:space="preserve">
<style type="text/css">
	.st0{fill:#B55D38;}
</style>
<path class="st0" d="M102.7,63.9L102.7,63.9c-0.7-1.3-2.3-1.8-3.6-1.1c-14.9,7.1-25.3-0.8-29.6-5.3c1.5-1.9,2.5-4.2,2.7-6.6
	c0.1-1.1-0.6-2.3-1.8-2.5c-1.1-0.1-2.3,0.6-2.5,1.8c0,0.3-0.1,0.7-0.1,1c0,0.1-0.1,0.3-0.1,0.4c0,0.1,0,0.1,0,0.1c0,0,0,0,0,0.1
	c-0.2,0.6-0.4,1.2-0.7,1.7c0,0.1-0.1,0.2-0.1,0.2c-0.1,0.1-0.2,0.3-0.3,0.4c-0.2,0.3-0.4,0.5-0.6,0.7c-0.1,0.1-0.2,0.3-0.3,0.4
	c0,0,0,0,0,0s0,0,0,0c-0.3,0.2-0.5,0.5-0.8,0.7c-0.2,0.2-0.5,0.4-0.8,0.5c0,0-0.1,0-0.1,0c-0.2,0.1-0.4,0.2-0.6,0.3
	c-0.3,0.1-0.7,0.3-1.1,0.4c-0.4,0.1-0.5,0.1-0.9,0.2c-1.6,0.3-3.3,0.4-4.9,0.5c-1.1,0.1-2.1,1.3-1.9,2.4c0.2,1.2,1.2,2,2.4,1.9
	c2.7-0.2,5.5-0.4,7.9-1.5c3.7,4.1,9.5,8.3,16.9,9.8c5.7,1.2,12.4,0.7,19.7-2.8C103,67.1,103.5,65.3,102.7,63.9z M64.1,56.5
	C64.1,56.5,64.1,56.5,64.1,56.5L64.1,56.5z"/>
</svg>
