<?xml version="1.0" encoding="utf-8"?>
<!-- Generator: Adobe Illustrator 24.3.0, SVG Export Plug-In . SVG Version: 6.00 Build 0)  -->
<svg version="1.1" id="Layer_1" xmlns="http://www.w3.org/2000/svg" xmlns:xlink="http://www.w3.org/1999/xlink" x="0px" y="0px"
	 viewBox="0 0 173.3 100" style="enable-background:new 0 0 173.3 100;" xml:space="preserve">
<style type="text/css">
	.st0{fill:#E95724;}
	.st1{fill:#B55D38;}
</style>
<circle class="st0" cx="81.9" cy="63.2" r="6.5"/>
<circle class="st0" cx="92.3" cy="63.2" r="6.5"/>
<ellipse class="st0" cx="87.2" cy="71.7" rx="11.5" ry="8.4"/>
<g>
	<path class="st1" d="M86.8,72.5c-9,0-16.9-3.7-22-7.7c-1.5-1.2-1.7-3.4-0.3-4.8l0,0c1.1-1.2,3-1.3,4.3-0.3
		c5.3,4,19.6,12.1,35.8-0.1c1.3-1,3.3-0.8,4.4,0.5l0,0c1.2,1.4,1,3.6-0.5,4.7C100.9,70.5,93.5,72.5,86.8,72.5z"/>
</g>
</svg>
