<?xml version="1.0" encoding="utf-8"?>
<!-- Generator: Adobe Illustrator 24.3.0, SVG Export Plug-In . SVG Version: 6.00 Build 0)  -->
<svg version="1.1" id="Layer_1" xmlns="http://www.w3.org/2000/svg" xmlns:xlink="http://www.w3.org/1999/xlink" x="0px" y="0px"
	 viewBox="0 0 173.3 100" style="enable-background:new 0 0 173.3 100;" xml:space="preserve">
<style type="text/css">
	.st0{fill:#E95724;}
	.st1{fill:#B55D38;}
</style>
<path class="st0" d="M91.2,65.9c-2.9-5.4,1.2-6.8,5.9-9.4s8.1-5.3,11.1,0s1.5,11.8-3.2,14.4C100.3,73.5,94.1,71.2,91.2,65.9z"/>
<g>
	<path class="st1" d="M86.8,64.2c-9.1,0-16.9-3.7-22-7.7c-1.5-1.2-1.7-3.4-0.3-4.8l0-0.1c1.2-1.2,3-1.3,4.3-0.3
		c5.3,4,19.6,12.1,35.8-0.1c1.3-1,3.3-0.8,4.4,0.5l0,0c1.2,1.4,1,3.6-0.5,4.7C100.9,62.1,93.5,64.2,86.8,64.2z"/>
</g>
</svg>
