<?xml version="1.0" encoding="utf-8"?>
<!-- Generator: Adobe Illustrator 24.2.3, SVG Export Plug-In . SVG Version: 6.00 Build 0)  -->
<svg version="1.1" id="Layer_1" xmlns="http://www.w3.org/2000/svg" xmlns:xlink="http://www.w3.org/1999/xlink" x="0px" y="0px"
	 viewBox="0 0 173.3 173.3" style="enable-background:new 0 0 173.3 173.3;" xml:space="preserve">
<style type="text/css">
	.st0{fill:#E88A56;}
</style>
<g>
	<path class="st0" d="M91.8,123.6c-9,0-12.4-5.5-13-8.5l0,0c-0.1-0.7,0.1-1.4,0.7-1.9l0,0c6.6-5.8,6.8-13.3,6.5-16.6
		c-0.1-1,0.6-1.9,1.5-2.1l0,0c1.2-0.3,2.3,0.6,2.4,1.8c0.3,3.7,0.1,11.4-5.8,17.9c-0.7,0.8-0.7,1.9,0,2.7c1,1,2.5,2.1,5.1,2.5
		c2,0.3,3.5,1.9,3.6,3.9v0.3C92.5,123.6,92.2,123.6,91.8,123.6z"/>
</g>
</svg>
