<?xml version="1.0" encoding="utf-8"?>
<!-- Generator: Adobe Illustrator 24.2.3, SVG Export Plug-In . SVG Version: 6.00 Build 0)  -->
<svg version="1.1" id="Layer_1" xmlns="http://www.w3.org/2000/svg" xmlns:xlink="http://www.w3.org/1999/xlink" x="0px" y="0px"
	 viewBox="0 0 173.3 173.3" style="enable-background:new 0 0 173.3 173.3;" xml:space="preserve">
<style type="text/css">
	.st0{fill:#E88A56;}
</style>
<path class="st0" d="M90.4,114.8c-0.4-1-1.2-1.6-2-1.7c-0.8-0.1-1.6,0.3-2.1,1.1c-1.1,1.7-2.8,3.8-4.6,3.8l0,0c-2.1,0-4-2.6-4.7-3.7
	c-0.6-0.8-1.3-1.2-2.1-1.2c-0.8,0.1-1.6,0.6-2,1.6c-0.7,1.4-0.6,2.5,0.1,3.8c1.4,2.3,4.4,6,8.6,6c3.1,0,5.9-2,8.5-6.1
	C90.9,117.2,90.9,116.2,90.4,114.8z"/>
</svg>
