<?xml version="1.0" encoding="utf-8"?>
<!-- Generator: Adobe Illustrator 24.3.0, SVG Export Plug-In . SVG Version: 6.00 Build 0)  -->
<svg version="1.1" id="Layer_1" xmlns="http://www.w3.org/2000/svg" xmlns:xlink="http://www.w3.org/1999/xlink" x="0px" y="0px"
	 viewBox="0 0 451.5 374" style="enable-background:new 0 0 451.5 374;" xml:space="preserve">
<style type="text/css">
	.st0{filter:url(#Ellipse_62);}
	.st1{fill:#EB94B3;}
	.st2{enable-background:new    ;}
	.st3{fill:none;}
	.st4{fill:#FFFFFF;}
</style>
<filter  filterUnits="userSpaceOnUse" height="373.967" id="Ellipse_62" width="451.458" x="0" y="0">
	<feOffset  dy="8" input="SourceAlpha"></feOffset>
	<feGaussianBlur  result="blur" stdDeviation="10"></feGaussianBlur>
	<feFlood  flood-opacity="0.251"></feFlood>
	<feComposite  in2="blur" operator="in"></feComposite>
	<feComposite  in="SourceGraphic" operator="over"></feComposite>
</filter>
<g transform="matrix(1, 0, 0, 1, 9.77, 0.02)" class="st0">
	
		<ellipse id="Ellipse_62-2_1_" transform="matrix(0.9925 -0.1219 0.1219 0.9925 -20.2008 27.6528)" class="st1" cx="216" cy="179" rx="180.5" ry="136"/>
</g>
<g class="st2">
	<rect x="106" y="98.5" class="st3" width="326.7" height="159.6"/>
	<path class="st4" d="M115.7,139.6c1.4-2.2,2.6-3.2,3.7-3.2c3.7,0,5.9,7.8,6.6,23.3l0.9,21.1l10.4-1.9c1.9-0.5,3.9-0.7,6-0.7
		c4,0,7.1,1.3,9.5,3.9c3.4,3.2,5.1,8.7,5.1,16.7c0,6.1-1.2,10.2-3.6,12.2c-5.3,4-11.9,6-19.7,6c-3.4,0-6.3-0.5-8.8-1.5
		c-2-0.8-3.5-1.6-4.3-2.3c-0.8-0.7-1.7-2.6-2.5-5.5c-0.8-2.9-1.3-6.4-1.6-10.3c-0.3-3.9-0.7-10.5-1.3-19.6c-0.7-10.9-1-20.3-1-28.2
		C115,143.7,115.3,140.4,115.7,139.6z M147.2,193.2c-1.1-2-3.4-3.1-6.8-3.1c-4.3,0-7.8,1.5-10.5,4.6c-1.4,1.7-2,3.4-2,5.1
		c0,1.7,0.7,3.1,2.1,4.3c1.4,1.1,3.4,1.7,5.9,1.7c2.9,0,5.7-1.1,8.2-3.3c2.5-2.2,3.8-4.5,3.8-6.9
		C147.8,194.5,147.6,193.7,147.2,193.2z"/>
	<path class="st4" d="M187.5,154.4c1.4-1.5,3.5-2.2,6.5-2.2c6,0,11,2.2,15.1,6.6c2.2,2.4,3.8,6.8,4.9,13.2
		c1.1,6.4,1.7,13.2,1.7,20.5c0,6.8-0.5,12.6-1.5,17.4c-1,4.8-2.5,7.4-4.4,7.7c-0.5,0.1-1,0.2-1.7,0.2c-2.6,0-3.9-1.8-3.9-5.4
		c0-3.3-0.9-4.9-2.5-4.9c-1.2,0-3.6,0.7-7,2c-4,1.2-7.1,1.9-9.5,1.9c-6.2,0-9.4-3.9-9.4-11.7c0-5.3,2.1-9.9,6.2-13.6
		c4.1-3.7,9.2-5.6,15.2-5.6c2.4,0,4.1-0.3,5.1-0.9c1-0.6,1.5-1.7,1.5-3.3c0-0.6-0.1-1.5-0.3-2.9c-0.6-4.5-3.7-7.1-9.5-7.8
		c-2.7-0.3-4.8-1.1-6.4-2.3c-1.5-1.2-2.3-2.6-2.3-4.2C185.2,157.4,186,155.9,187.5,154.4z M196.1,196.2c0.5-0.9,0.4-1.6-0.1-2.2
		c-0.5-0.6-1.4-0.9-2.6-0.9c-3.3,0-5.5,1-6.6,3.1c-0.2,0.5-0.3,0.8-0.3,1.2c0,1.4,1,2,3.1,2C192.4,199.5,194.6,198.4,196.1,196.2z"
		/>
	<path class="st4" d="M249.2,155.3c4-1.7,8.1-2.6,12.4-2.6c3.5,0,6.3,0.7,8.5,2c2.2,1.4,3.2,3.2,3.2,5.6c0,2.9-3.6,4.4-10.9,4.4
		c-7,0-11.8,2-14.3,6c-2,4.1-3.1,8.8-3.1,14.3c0,5.8,1.1,10.8,3.4,15c1.8,3.4,4.6,5.1,8.3,5.1c2,0,4.4-0.2,7.1-0.7
		c2.6-0.3,4.8-0.5,6.6-0.5c5,0,7.5,1.1,7.5,3.2c0,1.8-1.9,4-5.6,6.5c-3.4,2-7.5,3.1-12.2,3.1c-8.6,0-15.2-2.6-19.9-7.8
		c-4.6-5.1-7-12.3-7-21.6c0-7,1.4-13.6,4.3-19.8C240.6,161.2,244.4,157.2,249.2,155.3z"/>
	<path class="st4" d="M296.9,137.1c1.1-4.3,2.6-6.5,4.3-6.5c1.5,0,2.9,1.7,4.2,5c1.3,3.3,2.2,7.8,2.6,13.3l1.5,16.7l7.8-8.2
		c2.2-2.4,4.4-4.4,6.8-6c2.4-1.6,4.1-2.5,5.3-2.5c2.6,0,3.9,1,3.9,3.1c0,3.7-3.6,9.1-10.9,16.2l-11,10.2l12.6,15
		c8.3,10.2,12.4,16.3,12.4,18.4c0,2.5-1,3.7-2.9,3.7c-4.1,0-9.4-4-15.8-11.9l-9.7-12.1v12.1c0,4.3-0.3,7.2-0.8,8.8
		c-0.5,1.5-1.5,2.3-3,2.3c-0.7,0-1.2-0.1-1.7-0.2c-2.5-0.5-4.1-2.7-4.8-6.6c-0.7-4-1.3-13.6-1.9-28.9c-0.2-7.3-0.3-12.5-0.3-15.6
		C295.6,149.7,296,140.9,296.9,137.1z"/>
</g>
</svg>
