<?xml version="1.0" encoding="utf-8"?>
<!-- Generator: Adobe Illustrator 24.3.0, SVG Export Plug-In . SVG Version: 6.00 Build 0)  -->
<svg version="1.1" id="Layer_1" xmlns="http://www.w3.org/2000/svg" xmlns:xlink="http://www.w3.org/1999/xlink" x="0px" y="0px"
	 viewBox="0 0 451.5 374" style="enable-background:new 0 0 451.5 374;" xml:space="preserve">
<style type="text/css">
	.st0{filter:url(#Ellipse_62);}
	.st1{fill:#EB94B3;}
	.st2{enable-background:new    ;}
	.st3{fill:#FFFFFF;}
</style>
<filter  filterUnits="userSpaceOnUse" height="373.967" id="Ellipse_62" width="451.458" x="0" y="0">
	<feOffset  dy="8" input="SourceAlpha"></feOffset>
	<feGaussianBlur  result="blur" stdDeviation="10"></feGaussianBlur>
	<feFlood  flood-opacity="0.251"></feFlood>
	<feComposite  in2="blur" operator="in"></feComposite>
	<feComposite  in="SourceGraphic" operator="over"></feComposite>
</filter>
<g transform="matrix(1, 0, 0, 1, 9.77, 0.02)" class="st0">
	
		<ellipse id="Ellipse_62-2_1_" transform="matrix(0.1219 -0.9925 0.9925 0.1219 12.0078 371.5058)" class="st1" cx="216" cy="179" rx="136" ry="180.5"/>
</g>
<g class="st2">
	<path class="st3" d="M120.6,162.9c6.5-2,10.4-3.4,11.7-4.1h0.2c0.2-0.1,0.4-0.2,0.5-0.2c2,0,4.9,1.7,8.7,5c3.7,3.3,6.4,6.7,8,9.9
		c4.5,8.6,6.8,17.8,6.8,27.5c0,6.2-1.2,9.4-3.6,9.4c-1.1,0-2.3-0.8-3.6-2.4c-2.2-2.9-4.4-8.9-6.6-17.9c-2.4-11.3-5.4-17-9-17
		c-2.2,0-4.2,2.2-6.1,6.6c-2.3,4.9-3.6,11.6-4.1,20.1c0,8-1.6,12.1-4.8,12.1c-3.2,0-4.8-3.1-4.8-9.2c0-5.9-0.6-13.4-1.9-22.6
		c-0.6-4.3-0.9-7.3-0.9-8.8c0-2.5,0.6-4.2,1.8-5.2C114.2,165.3,116.7,164.2,120.6,162.9z"/>
	<path class="st3" d="M185.4,167.8c2.3-1.7,4.8-3.2,7.7-4.4c2.8-1.2,5.1-1.9,6.8-1.9c4.4,0,8.5,1.8,12.3,5.5
		c3.8,3.7,5.7,7.7,5.7,12.2c0,3.2-0.8,5.2-2.5,6c-1.6,0.8-5.8,1.6-12.3,2.1c-9.7,0.9-15,2.4-15.8,4.4l-0.2,0.3v0.3
		c0,1.5,1.3,2.7,3.8,3.6c2.5,0.9,5.5,1.4,8.9,1.4c3.9,0,7-0.6,9.5-1.9c2-1,3.9-1.5,5.4-1.5c1.7,0,3,0.4,4,1.3c1,0.9,1.4,2,1.4,3.3
		c0,2.2-1.2,4.1-3.6,5.8c-4.2,2.9-9.9,4.4-17,4.4c-8.4,0-14.9-1.9-19.5-5.6c-4-3.3-6-6.7-6-10.4c0-1.5,0.3-3.8,0.8-7
		C176.3,178.3,179.8,172.3,185.4,167.8z M203.7,174.1c-1-1.8-1.9-2.7-2.5-2.7c-0.7,0-2.5,0.9-5.4,2.7c-1.6,1-2.4,1.8-2.4,2.2
		c0,0.7,1.6,1,4.9,1c3.7,0,5.6-0.8,5.6-2.4C203.9,174.6,203.8,174.4,203.7,174.1z"/>
	<path class="st3" d="M238.2,159.3c0-2.6,1.1-3.9,3.2-3.9c3.4,0,7.6,2.6,12.6,7.8c4.8,5.2,7.9,7.8,9.3,7.8c0.6,0,1.5-0.8,2.8-2.3
		c1.3-1.5,2.5-3.4,3.5-5.5c2.8-5.2,5.9-7.8,9.2-7.8c2.3,0,3.4,1.6,3.4,4.9c0,3.3-2.1,7.9-6.3,13.8l-6.3,8.8l7.8,9.5
		c5.3,6.1,8,10.4,8,12.9c0,2.3-1.2,3.4-3.7,3.4c-4.3,0-8.3-2.4-12.1-7.1l-5.9-7l-9.5,11c-4.5,5.6-7.5,8.3-8.8,8.3
		c-0.9,0-1.7-0.9-2.4-2.7c-0.2-0.9-0.3-1.7-0.3-2.4c0-3.5,1.7-7.8,5.1-12.8c3.3-4.6,4.9-8.7,4.9-12.2c0-4.8-2.7-9.6-8.2-14.5
		C240.3,165.6,238.2,162.2,238.2,159.3z"/>
	<path class="st3" d="M318.1,158.2c0-3.5,0.5-5.9,1.4-7.2c0.9-1.3,2.5-2,4.9-2s4,0.7,4.9,2c0.9,1.3,1.4,3.7,1.4,7.2
		c0,6,1.6,9.7,4.8,11c3.1,1.2,4.6,3.5,4.6,6.6c0,3.1-1.4,4.6-4.3,4.6c-3.1,0-4.9,4.4-5.6,13.3c-0.3,4.4-1,7.9-2.1,10.4
		c-1.1,2.5-2.3,3.7-3.7,3.7c-1.4,0-2.6-1.2-3.7-3.5c-1.1-2.3-1.7-5.6-2-9.9c-0.3-5.1-1-8.7-2.1-10.8c-1.1-2.1-3-3.5-5.7-4.3l-7-2.2
		l7.3-5.1C315.9,168.6,318.1,164.1,318.1,158.2z"/>
</g>
</svg>
