<?xml version="1.0" encoding="utf-8"?>
<!-- Generator: Adobe Illustrator 24.2.3, SVG Export Plug-In . SVG Version: 6.00 Build 0)  -->
<svg version="1.1" id="Layer_1" xmlns="http://www.w3.org/2000/svg" xmlns:xlink="http://www.w3.org/1999/xlink" x="0px" y="0px"
	 viewBox="0 0 362.4 186.4" style="enable-background:new 0 0 362.4 186.4;" xml:space="preserve">
<style type="text/css">
	.st0{fill:#EC94B3;}
	.st1{fill:#FFFBFB;}
</style>
<g id="yfgKLB_12_">
	<g>
		<path class="st0" d="M56.2,168c1.2-13.4,4.4-25.5,10.9-36.6c1.8-3.1,2.1-5.9,1.7-9.4c-4-34,2.1-65.1,27.7-89.9
			c17.1-16.5,38.2-25.3,61.2-29.2c24.8-4.3,49.7-4,74.2,2.5c30.5,8.1,54.9,36.2,59.3,67.4c6,42.8-13.3,72.8-47.9,94.9
			c-26.7,17-56.3,20.7-87.3,17.9c-18.8-1.7-36.7-6.2-53-15.9c-4.9-2.9-9.4-6.3-13.5-10.2c-2.3-2.1-4.5-2.4-7.3-2
			C71.2,159.4,66.6,161.2,56.2,168z M120.8,129.6c-4.3-6.1-7.6-11-11-15.9c-1.8-2.5-4.2-3.9-7.3-2.9c-2.8,1-4.2,3.1-4.2,6.1
			c0,9.5-0.1,19,0,28.4c0,3.9,2.5,5.8,6.1,5.9c3.7,0.1,5.9-2,6-5.8c0.1-2.8,0-5.5,0-9.3c3.6,4.3,6.8,7.6,9.3,11.4
			c1.8,2.6,4,1.9,6.1,1.8c2.4-0.1,3.8-1.6,4.5-4c0.9-3.1,0.6-6.5,2.4-9.7c5.2,10.1,10.2,20,15.4,29.8c2.7,5,5.4,6.1,9.1,4.1
			c3.5-1.9,4.3-5.4,1.7-9.9c-8.7-15.5-16.1-31.7-22.7-48.2c-1.2-3.1-2.9-5.9-6.7-5.6c-4.3,0.4-5.6,3.6-6.2,7.3
			C122.7,118.1,121.9,123,120.8,129.6z M173.4,67.7c0.3-7.6-1.7-14.4-5.5-20.6c-4.1-6.8-11.2-10.4-17.4-9.1
			c-9.1,1.9-16.2,8.4-17.1,16c-1.3,11.6,2.5,21.7,10.9,29.7c8.2,7.8,20,6.1,26.2-3.3C173.1,76.4,173.6,72,173.4,67.7z M238.5,68
			c-0.5-7.3-0.5-7.3,6.4-7.6c1,0,2.1,0,2.9-0.3c2.4-0.9,4.4-2.3,4.4-5.4c0.1-3-1.1-5.1-3.9-6.3c-1.7-0.7-3.6-0.9-5.4-0.7
			c-5.9,0.9-5.3-3.4-5.7-6.9c-0.5-4.5,3-2.8,5.1-3.1c0.6-0.1,1.3,0,2,0c3.8,0,6-1.7,6-5.7c0.1-4-1.8-6.4-5.9-6.5
			c-5.5-0.1-11-0.2-16.5,0c-4.8,0.2-7.6,4.4-5.6,8.7c3.4,7.3,3.7,15.1,3.8,22.9c0.1,6.5-0.4,13,1,19.4c1.1,5,4.3,7.2,9.1,5.5
			c4.4-1.5,8.6-3.2,13.3-4c3.6-0.6,5.1-3.5,4.7-7.1c-0.4-3.9-3-4.7-6.4-4.6C244.8,66.3,241.8,67.5,238.5,68z M208,15.6
			c-12,1.6-24.8,3.2-37.6,5c-3.2,0.5-5.5,2.6-5.1,6.3c0.4,3.6,2.5,5.7,6.4,5.5c4-0.3,7.9-0.7,11.9-1.1c2-0.2,3.3,0.1,4.1,2.4
			c3.7,11.7,8.4,23.1,7.7,35.7c-0.2,3.8,1.6,6.3,5.2,6.6c4,0.4,6.7-2,7.3-5.9c0.4-2.6,0-5.3-0.2-7.9c-0.9-10-4-19.5-7.3-28.9
			c-1.2-3.4-0.2-4.9,3.3-4.9c2.7,0,5.4-0.2,7.8-1.3c2.9-1.3,4.4-3.7,3.5-6.9C214.2,17.4,212.3,15.3,208,15.6z M108.7,72.4
			c-2.6-5-3.4-9.2-4.5-13.3c-0.9-3.4-2.8-5.1-6.4-4.8c-4.9,0.4-6.8,3.7-5.1,9.6c3.3,11.9,7.6,23.4,11.7,35c1.2,3.5,3.4,5.8,7.3,5.5
			c4.4-0.3,4.9-3.8,5.5-7.1c1-5,1.8-10.1,2.7-15.2c1.8-9.8,3.7-19.5,5.3-29.3c0.7-4.5-1.4-7.6-5.3-8.1c-4.1-0.6-6,1.6-6.7,5.6
			C111.9,57.2,110.4,64.1,108.7,72.4z M161.4,121.7c0,1.3-0.1,2.7,0,4c0.8,9.6,5.3,15.5,13.6,17.5c7.3,1.8,14.6-1.3,18.8-8.2
			c3.2-5.4,5.1-11.1,4.7-17.5c-0.4-6.8-3.6-11.7-9.5-14.7C174.9,95.5,161.6,104.7,161.4,121.7z M226.1,104.4c-2.5,0-5-0.1-7.5,0
			c-3.1,0.1-5.5,1.5-6.2,4.7c-0.6,3.4,0.7,6,4.1,7c1.9,0.5,2.6,1.1,2.8,3.2c0.6,6.4,1.6,12.8,2.5,19.2c0.9,6.3,0,7.8-6.2,9
			c-4.1,0.9-6,3.5-5.3,7.6c0.6,3.9,3.5,5.1,6.9,5c10.2-0.5,16.5-7,17-17.2c0.3-7.4-1.6-14.5-2.6-21.7c-0.4-2.7-1-4.7,3-5
			c3.2-0.3,4.7-3.2,4.4-6.3c-0.3-3-2-5.3-5.4-5.4C231.1,104.4,228.6,104.4,226.1,104.4z M262.2,113.2c0-5.6,0-11.3,0-16.9
			c0-4.2-1.9-6.8-6.2-6.7c-4,0.1-6.5,2.5-6.5,6.7c-0.1,11.6-0.1,23.2,0,34.8c0.1,3.9,2.1,6.7,6.5,6.5c4.3-0.2,6.1-2.7,6.1-6.9
			C262.1,124.8,262.2,119,262.2,113.2z"/>
		<path class="st1" d="M120.8,129.6c1-6.5,1.8-11.4,2.6-16.3c0.6-3.7,1.9-6.9,6.2-7.3c3.9-0.3,5.5,2.5,6.7,5.6
			c6.6,16.5,13.9,32.7,22.7,48.2c2.6,4.6,1.8,8-1.7,9.9c-3.6,2-6.4,0.9-9.1-4.1c-5.2-9.8-10.2-19.7-15.4-29.8
			c-1.8,3.2-1.5,6.6-2.4,9.7c-0.7,2.4-2.1,3.9-4.5,4c-2.1,0.1-4.4,0.8-6.1-1.8c-2.6-3.8-5.8-7.1-9.3-11.4c0,3.8,0.1,6.5,0,9.3
			c-0.1,3.9-2.3,5.9-6,5.8c-3.6-0.1-6-2-6.1-5.9c-0.1-9.5,0-19,0-28.4c0-3,1.3-5.2,4.2-6.1c3.1-1.1,5.5,0.3,7.3,2.9
			C113.2,118.5,116.6,123.4,120.8,129.6z"/>
		<path class="st1" d="M173.4,67.7c0.2,4.3-0.3,8.8-2.8,12.7c-6.2,9.4-18,11.1-26.2,3.3c-8.5-8-12.2-18-10.9-29.7
			c0.8-7.6,8-14.1,17.1-16c6.2-1.3,13.3,2.3,17.4,9.1C171.7,53.3,173.6,60.1,173.4,67.7z M161.4,68.4c-0.7-4.9-1.2-9.5-3.3-13.8
			c-1.4-2.7-3-4.9-6.5-4.1c-3.4,0.8-6,2.8-6,6.4c0,7,2.2,13.4,7.7,18.2c2.9,2.4,5.6,1.5,7-2.1C160.9,71.4,161.1,69.8,161.4,68.4z"/>
		<path class="st1" d="M238.5,68c3.3-0.5,6.3-1.7,9.5-1.7c3.4,0,5.9,0.8,6.4,4.6c0.4,3.7-1.1,6.5-4.7,7.1c-4.6,0.8-8.9,2.6-13.3,4
			c-4.8,1.6-8-0.5-9.1-5.5c-1.4-6.4-0.9-12.9-1-19.4c-0.1-7.8-0.4-15.6-3.8-22.9c-2-4.3,0.8-8.5,5.6-8.7c5.5-0.2,11-0.1,16.5,0
			c4.1,0.1,6,2.5,5.9,6.5c-0.1,3.9-2.2,5.7-6,5.7c-0.7,0-1.3-0.1-2,0c-2.1,0.3-5.6-1.3-5.1,3.1c0.4,3.5-0.2,7.8,5.7,6.9
			c1.8-0.3,3.6,0,5.4,0.7c2.8,1.2,4,3.2,3.9,6.3c-0.1,3-2,4.4-4.4,5.4c-0.9,0.3-2,0.3-2.9,0.3C238,60.6,238,60.6,238.5,68z"/>
		<path class="st1" d="M208,15.6c4.3-0.3,6.1,1.8,7,4.7c0.9,3.2-0.6,5.5-3.5,6.9c-2.4,1.1-5.1,1.3-7.8,1.3c-3.5,0-4.6,1.5-3.3,4.9
			c3.3,9.4,6.4,18.9,7.3,28.9c0.2,2.6,0.6,5.4,0.2,7.9c-0.6,4-3.3,6.3-7.3,5.9c-3.6-0.3-5.4-2.8-5.2-6.6c0.7-12.6-4-24.1-7.7-35.7
			c-0.7-2.3-2-2.7-4.1-2.4c-4,0.4-7.9,0.9-11.9,1.1c-3.8,0.3-5.9-1.9-6.4-5.5c-0.4-3.7,1.9-5.8,5.1-6.3
			C183.2,18.8,196,17.2,208,15.6z"/>
		<path class="st1" d="M108.7,72.4c1.7-8.3,3.2-15.2,4.4-22.2c0.7-4,2.6-6.1,6.7-5.6c3.9,0.5,6.1,3.6,5.3,8.1
			c-1.6,9.8-3.5,19.6-5.3,29.3c-0.9,5.1-1.8,10.1-2.7,15.2c-0.6,3.3-1.1,6.8-5.5,7.1c-3.9,0.3-6-2-7.3-5.5
			c-4.1-11.6-8.4-23.1-11.7-35c-1.6-5.9,0.2-9.2,5.1-9.6c3.6-0.3,5.5,1.4,6.4,4.8C105.3,63.2,106.1,67.4,108.7,72.4z"/>
		<path class="st1" d="M161.4,121.7c0.3-17,13.5-26.2,27.5-19c6,3,9.1,8,9.5,14.7c0.4,6.4-1.5,12.2-4.7,17.5
			c-4.1,6.9-11.5,10-18.8,8.2c-8.2-2-12.8-7.9-13.6-17.5C161.3,124.4,161.4,123,161.4,121.7z M173.3,123.3c0.1,0.6,0,2.2,0.4,3.6
			c0.6,2.4,1.9,4.3,4.7,4.5c2.5,0.2,4.1-1,5.1-3.2c0.5-1,1.2-2,1.6-3.1c1.3-3.5,2.6-7.1-0.2-10.3c-1.7-1.9-4.2-3-6.8-1.9
			C173.9,114.6,173.3,118.4,173.3,123.3z"/>
		<path class="st1" d="M226.1,104.4c2.5,0,5-0.1,7.5,0c3.5,0.1,5.1,2.4,5.4,5.4c0.3,3.1-1.2,6-4.4,6.3c-4,0.3-3.4,2.3-3,5
			c1,7.2,2.9,14.3,2.6,21.7c-0.5,10.2-6.8,16.8-17,17.2c-3.5,0.2-6.3-1.1-6.9-5c-0.7-4.1,1.2-6.7,5.3-7.6c6.2-1.3,7.2-2.7,6.2-9
			c-0.9-6.4-1.9-12.8-2.5-19.2c-0.2-2.1-0.9-2.6-2.8-3.2c-3.3-1-4.7-3.6-4.1-7c0.6-3.3,3-4.6,6.2-4.7
			C221.1,104.4,223.6,104.4,226.1,104.4z"/>
		<path class="st1" d="M262.2,113.2c0,5.8,0,11.6,0,17.4c0,4.1-1.8,6.7-6.1,6.9c-4.5,0.2-6.5-2.5-6.5-6.5c-0.2-11.6-0.1-23.2,0-34.8
			c0-4.2,2.4-6.6,6.5-6.7c4.3-0.1,6.2,2.6,6.2,6.7C262.2,101.9,262.2,107.6,262.2,113.2z"/>
		<path class="st0" d="M161.4,68.4c-0.3,1.4-0.5,3-1.1,4.6c-1.3,3.6-4.1,4.5-7,2.1c-5.6-4.7-7.7-11.1-7.7-18.2c0-3.6,2.6-5.6,6-6.4
			c3.5-0.8,5.1,1.4,6.5,4.1C160.2,58.9,160.6,63.5,161.4,68.4z"/>
		<path class="st0" d="M173.3,123.3c0.1-4.8,0.6-8.7,4.8-10.4c2.6-1.1,5.1,0,6.8,1.9c2.8,3.2,1.5,6.9,0.2,10.3
			c-0.4,1.1-1,2.1-1.6,3.1c-1.1,2.1-2.7,3.4-5.1,3.2c-2.7-0.2-4.1-2.1-4.7-4.5C173.3,125.4,173.3,123.9,173.3,123.3z"/>
	</g>
	<g>
		<path class="st0" d="M46.8,55.5c1,6.6-5.2,10.1-11,9.6c-5-0.4-8.8-4.7-9-9.8c-1.2-26.5,38.5-27.5,23.2-16.9
			c-0.6,0.4-1.2,0.7-1.8,0.9C39.9,43,45.1,47.2,46.8,55.5z"/>
	</g>
	<g>
		<path class="st0" d="M20.1,47.1c1,6.6-5.2,10.1-11,9.6C4,56.4,0.2,52,0,47c-1.2-26.5,38.5-27.5,23.2-16.9
			c-0.6,0.4-1.2,0.7-1.8,0.9C13.1,34.6,18.4,38.7,20.1,47.1z"/>
	</g>
	<g>
		<path class="st0" d="M316.2,126.5c-0.7-6.7,5.8-9.8,11.5-9c5,0.7,8.5,5.2,8.5,10.3c-0.3,26.5-40,25.2-24.1,15.6
			c0.6-0.4,1.2-0.6,1.9-0.8C322.4,139.4,317.4,134.9,316.2,126.5z"/>
	</g>
	<g>
		<path class="st0" d="M342.4,136.4c-0.7-6.7,5.8-9.8,11.5-9c5,0.7,8.5,5.2,8.5,10.3c-0.3,26.5-40,25.2-24.1,15.6
			c0.6-0.4,1.2-0.6,1.9-0.8C348.6,149.3,343.6,144.9,342.4,136.4z"/>
	</g>
</g>
</svg>
