<svg id="Layer_1" data-name="Layer 1" xmlns="http://www.w3.org/2000/svg" viewBox="0 0 128.29 62.53"><defs><style>.cls-1{fill:none;stroke:#fff;stroke-miterlimit:10;stroke-width:4px;}.cls-2{fill:#bcbec0;}.cls-3{fill:#7fcfd2;}.cls-4{fill:#96d7dd;}</style></defs><path class="cls-1" d="M121.36,3.09c-5.52-3.32-13.3,2-14.16,2.57a1.6,1.6,0,0,0-.61.86C61.92,15.75,30,8.66,22.09,6.69a1.63,1.63,0,0,0-.66-1c-.89-.62-8.84-6-14.46-2.57C2.55,5.8,1.1,12.63,2.54,24c.65,5.13,5.16,11.72,9.94,18.7,2.3,3.37,4.69,6.84,6.6,10.13a1.64,1.64,0,0,0,1.41.81,1.58,1.58,0,0,0,.43,0,1.3,1.3,0,0,0,.29-.14c37.27,15.28,81.1,1.29,86.29-.46a1.47,1.47,0,0,0,.22.1,1.52,1.52,0,0,0,.42.06,1.65,1.65,0,0,0,1.42-.82c1.87-3.26,4.2-6.7,6.46-10,4.68-6.91,9.11-13.43,9.74-18.51C127.18,12.49,125.74,5.72,121.36,3.09ZM19.13,47.22C17.78,45.15,16.36,43.06,15,41c-4.37-6.38-8.89-13-9.45-17.39C4,11.26,6.29,7,8.52,5.69A5.26,5.26,0,0,1,11.3,5c3.07,0,6.48,1.93,7.83,2.78Zm103.66-23.8c-.55,4.37-5,10.9-9.25,17.21-1.35,2-2.73,4-4,6v-39c1.75-1.11,7-4.06,10.31-2.06C122,7,124.33,11.14,122.79,23.42Z" transform="translate(0 0)"/><path class="cls-2" d="M20.51,54a1.65,1.65,0,0,1-1.42-.81C17.18,49.88,14.8,46.4,12.5,43c-4.78-7-9.3-13.57-9.95-18.71C1.11,13,2.56,6.13,7,3.45,12.61.05,20.56,5.39,21.45,6a1.63,1.63,0,0,1,.69,1.33v45a1.66,1.66,0,0,1-1.21,1.59A2,2,0,0,1,20.51,54ZM11.32,5.31A5.26,5.26,0,0,0,8.54,6C6.3,7.37,4,11.58,5.53,24,6.09,28.37,10.6,35,15,41.34c1.4,2,2.83,4.13,4.17,6.21V8.09C17.79,7.24,14.38,5.31,11.32,5.31Z" transform="translate(0 0)"/><path class="cls-2" d="M108.16,53.48a2,2,0,0,1-.42,0,1.64,1.64,0,0,1-1.22-1.59V7.32A1.64,1.64,0,0,1,107.21,6c.87-.61,8.64-5.88,14.17-2.57,4.38,2.64,5.82,9.41,4.4,20.71-.64,5.09-5.06,11.61-9.75,18.52-2.25,3.33-4.59,6.77-6.46,10A1.61,1.61,0,0,1,108.16,53.48Zm1.36-45.43V47c1.3-2,2.68-4,4-6,4.28-6.32,8.7-12.84,9.25-17.21,1.54-12.28-.76-16.44-3-17.76C116.5,4,111.27,6.94,109.52,8.05Zm-.58.38h0Z" transform="translate(0 0)"/><path class="cls-3" d="M20.27,6.56c1.65.32,36.55,10.91,87.75,0V53.15s-47.37,17-87.11.51Z" transform="translate(0 0)"/><path class="cls-4" d="M23.78,9.83V21.3s38.67,16.42,81,0V9.83S65.83,25.26,23.78,9.83Z" transform="translate(0 0)"/><path class="cls-4" d="M23.78,24.86V35.68s38.67,15.47,81,0V24.86S65.83,39.4,23.78,24.86Z" transform="translate(0 0)"/><path class="cls-4" d="M23.78,39.3V50.11s38.67,15.48,81,0V39.3S65.83,53.84,23.78,39.3Z" transform="translate(0 0)"/></svg>