<svg id="Layer_1" data-name="Layer 1" xmlns="http://www.w3.org/2000/svg" viewBox="0 0 148.45 198.37"><defs><style>.cls-1,.cls-4{fill:#fff;}.cls-1{stroke:#fff;stroke-miterlimit:10;stroke-width:9px;}.cls-2{fill:#bcbec0;}.cls-3{fill:#a7a9ac;}</style></defs><path class="cls-1" d="M115.56,77.41c-9.63-4.8-20.26-5.3-28.45-4.61a15.9,15.9,0,0,0-2.94-3.87c3.45-6.55,6.4-14.77,6.4-23.69,0-21.44-17-38.81-17-38.81s-17,17.37-17,38.81c0,8.74,2.83,16.81,6.19,23.3A16,16,0,0,0,60,71.8c-8.32-.36-19.25.58-28.9,6C12.39,88.33,5.6,111.69,5.6,111.69s23.49,6.31,42.17-4.21A49.3,49.3,0,0,0,63,93.6L56.53,193.87h34L84.1,94.33a49.69,49.69,0,0,0,16.27,13.55c19.18,9.56,42.33,2.08,42.33,2.08S134.74,87,115.56,77.41Z"/><path class="cls-2" d="M56.53,45.24c0,21.43,17,38.8,17,38.8s17-17.37,17-38.8-17-38.81-17-38.81S56.53,23.8,56.53,45.24Z"/><path class="cls-2" d="M115.56,77.41c-19.18-9.56-42.33-2.07-42.33-2.07s8,23,27.14,32.54S142.7,110,142.7,110,134.74,87,115.56,77.41Z"/><path class="cls-2" d="M47.77,107.48C66.45,97,73.23,73.61,73.23,73.61s-23.49-6.31-42.17,4.2S5.6,111.69,5.6,111.69,29.09,118,47.77,107.48Z"/><polygon class="cls-3" points="63.3 88.8 56.53 193.87 90.57 193.87 83.44 84.04 63.3 88.8"/><circle class="cls-4" cx="73.23" cy="80.24" r="15.74"/></svg>