<svg id="Layer_1" data-name="Layer 1" xmlns="http://www.w3.org/2000/svg" viewBox="0 0 77.42 29.76"><defs><style>.cls-1{fill:#fff;}</style></defs><path class="cls-1" d="M17.4,15.53l-1.62-1.45a2.44,2.44,0,0,1-.3-3.32l.32-.42a8.3,8.3,0,0,0,2.06-4.91,3.82,3.82,0,0,0-1.4-3C14.86,1.12,12,.5,7.75.5A18,18,0,0,0,4,.86l-.17,0A4.42,4.42,0,0,0,.32,5.08l-.26,9.2C0,15.54,0,17.2,0,19.36c0,1.66,0,3,.12,4a10.83,10.83,0,0,0,.57,2.84,6.16,6.16,0,0,0,1.05,1.92,4.31,4.31,0,0,0,2,1.09,10.21,10.21,0,0,0,2.51.45c.79,0,1.92.06,3.45.06,3.23,0,5.74-.58,7.44-1.73a9.17,9.17,0,0,0,3.57-5.76,5.94,5.94,0,0,0,.25-1.76,3.8,3.8,0,0,0-.82-2.35A18.75,18.75,0,0,0,17.4,15.53ZM12.26,6.18c0,.42-.33,1.48-2.54,3.86S6.46,12.76,6,12.76c-.15,0-.89-.18-.89-3.76,0-2.78.31-3.29.37-3.36h0s.4-.4,2.75-.4A10.6,10.6,0,0,1,11,5.57c1.08.28,1.29.54,1.32.59h0S12.26,6.13,12.26,6.18ZM6.7,17.65a5.62,5.62,0,0,1,1.74-.21,13.23,13.23,0,0,1,3.52.5,7.5,7.5,0,0,1,2.69,1.24,2.56,2.56,0,0,1,1.18,2.08c0,1-.63,1.94-1.91,2.81a8.06,8.06,0,0,1-4.61,1.35,8.66,8.66,0,0,1-2.82-.48C5.52,24.56,5,23.36,5,21.37a6.6,6.6,0,0,1,.47-2.56A1.79,1.79,0,0,1,6.7,17.65Z" transform="translate(0 0)"/><path class="cls-1" d="M37.07,24.67l-3.61-.15a2.75,2.75,0,0,1-2.62-2.66L30.58,13C30.23.84,29.25.42,28.75.21A1.18,1.18,0,0,0,28.18.1a2.18,2.18,0,0,0-2.07,1.46c-.18.45-.38,1.8-.38,8.42,0,2.59,0,4.63.05,6.05L26,26.5a2.75,2.75,0,0,0,2.74,2.68h6.33a46.67,46.67,0,0,0,7-.32c1.4-.26,2.11-.84,2.11-1.73C44.17,25.64,42,24.89,37.07,24.67Z" transform="translate(0 0)"/><path class="cls-1" d="M73.33,15.18h0c-2.09-5.73-3.62-9.65-4.55-11.66-1-2.25-2-3.37-3.07-3.51a2.31,2.31,0,0,0-2,1.05A21.24,21.24,0,0,0,62,3.51c-1.08,1.79-1.62,2-1.62,2s-.49-.28-1.1-2S57.66,1,56.43,1,54.12,2,53.6,4c-.1.55-.85,3.23-3.81,12.84C47.88,23.11,47,26.65,47,28a1.25,1.25,0,0,0,.32.9,1.73,1.73,0,0,0,1.24.56c1.23,0,2.84-.91,6.4-11.86l2.42-7.8.9,1.14c1.26,1.5,2.15,2.15,3,2.15a2.38,2.38,0,0,0,1.58-.67,7,7,0,0,0,2.32-3.92l.06-.25a58.28,58.28,0,0,1,3,7.41c4.33,12.55,6,13.61,7.27,13.61h.37l.19-.1.17-.06a1.71,1.71,0,0,0,1.23-1.61C77.42,27,77.1,25.62,73.33,15.18Z" transform="translate(0 0)"/></svg>