<svg id="Layer_1" data-name="Layer 1" xmlns="http://www.w3.org/2000/svg" viewBox="0 0 207.59 104.56"><defs><style>.cls-1{fill:#fff;}.cls-2{fill:#652e8f;}.cls-3{fill:#432466;}.cls-4{fill:#00b9b1;}</style></defs><path class="cls-1" d="M104.09,4.22l91,24.34-40,16.4,2.28,30.5s-2.35,2-8.34,4.42l.29,4.59,2.31,3.38,3.5,12-4.8.2-2.14.09h0l-4.91.21v0l-.57,0L144.74,88l1.94-3.55-.21-3.59c-6.83,2.42-17.34,5-32.77,6.19-3.51.29-5.7.38-5.7.38-3.72.19-7.18.27-10.42.28H96.45C67.25,87.69,57.24,81,57.24,81L53,53.12,12.4,42.38,103.53,4.22l.34.09.22-.09M103.81,0l-.22.09L103.24,0,102,.53,10.85,38.69,0,43.24l11.37,3,38,10.07,3.88,25.32.26,1.75,1.48,1c1.12.75,11.87,7.33,41.42,7.33H97.6c3.43,0,7-.11,10.58-.29.29,0,2.47-.1,5.85-.38a150.68,150.68,0,0,0,26.86-4.29l-.09.59L138.72,99.7l-.81,4.86.56,0h0l4.93-.19,4.92-.2,2.14-.09,4.8-.2,5.1-.22-1.43-4.9-3.5-12-.18-.61-.36-.53-1.68-2.47-.05-.68a30.42,30.42,0,0,0,6.77-3.94l1.54-1.32-.15-2-2.06-27.61,37.34-15.3,11-4.5L196.12,24.7,105.13.35,103.81,0Z" transform="translate(0 0)"/><path class="cls-2" d="M12.4,42.38,103.53,4.22l91,24.34L154.46,45l2.3,30.49s-11.6,10-49.32,11.94S57.24,81,57.24,81L53,53.12Z" transform="translate(0 0)"/><path class="cls-3" d="M154.48,44.94l-49.4,19,2.36,23.43S142,86.12,156.76,75.46Z" transform="translate(0 0)"/><polygon class="cls-4" points="147.58 100.15 144.76 51.24 107.31 35.07 108.03 33.41 146.49 50.02 149.72 100.06 147.58 100.15"/><ellipse class="cls-3" cx="103.77" cy="33.42" rx="7.02" ry="2.85"/><path class="cls-4" d="M147.53,82.21" transform="translate(0 0)"/><polygon class="cls-4" points="147.57 82.79 144.74 87.97 142.67 100.36 154.53 99.86 151.02 87.85 147.57 82.79"/><path class="cls-2" d="M13,42.38,104.09,4.22l91,24.34L155,45l2.3,30.49s-11.6,10-49.33,11.94S57.81,81,57.81,81L53.53,53.12Z" transform="translate(0 0)"/><path class="cls-3" d="M155.05,44.94l-49.4,19L108,87.4s34.51-1.28,49.33-11.94Z" transform="translate(0 0)"/><polygon class="cls-4" points="148.15 100.15 145.33 51.24 107.88 35.07 108.59 33.41 147.06 50.02 150.29 100.06 148.15 100.15"/><ellipse class="cls-3" cx="104.34" cy="33.42" rx="7.02" ry="2.85"/><path class="cls-4" d="M148.1,82.21" transform="translate(0 0)"/><polygon class="cls-4" points="148.13 82.79 145.31 87.97 143.24 100.36 155.09 99.86 151.59 87.85 148.13 82.79"/></svg>