<svg id="Layer_1" data-name="Layer 1" xmlns="http://www.w3.org/2000/svg" xmlns:xlink="http://www.w3.org/1999/xlink" viewBox="0 0 139.36 121.87"><defs><style>.cls-1,.cls-2,.cls-4{fill:none;}.cls-2,.cls-4{stroke:#fff;stroke-miterlimit:10;}.cls-2{stroke-width:4px;}.cls-3{clip-path:url(#clip-path);}.cls-4{stroke-width:3.79px;}.cls-5{clip-path:url(#clip-path-3);}.cls-6{fill:#c77440;}.cls-7{fill:#9c5a2d;}.cls-8{fill:#00afa8;}.cls-9{fill:#7bcbbf;}.cls-10{fill:#00b9b2;}</style><clipPath id="clip-path" transform="translate(0)"><rect class="cls-1" x="3.69" y="3.23" width="131.97" height="115.42"/></clipPath><clipPath id="clip-path-3" transform="translate(0)"><rect class="cls-1" x="6.26" y="6.29" width="126.85" height="110.46"/></clipPath></defs><path class="cls-2" d="M131.2,57.52a4.94,4.94,0,0,0,2.08-3.73L124.92,35.7c-1.29-.37-2.51-1.26-3.94-.45-2.13-4.55-4.36-9.06-6.38-13.66a10.76,10.76,0,0,0-7-6.46c-1.19-2.65-2.27-5.35-3.6-7.92A8.78,8.78,0,0,0,92.22,3.09c-2.5,1.1-5,2.3-7.44,3.46L84,5.62c-2.82-3.19-4.09-3.26-7.45-.47-1.9,1.59-3.83,3.16-5.74,4.75-4.13,3.46-4.13,3.46-8.66.3L59.66,8.49c-3.67-2.57-4.8-2.7-7.09.23q-8.44-2.9-16.89-5.79C30.73,1.22,29.85,1.6,28,6.34c-.35.94-.72,1.88-1.08,2.81-2,5.2-2,5.2-7.54,4.75-2.56-.2-8.61-.24-11.17-.44-4.5-.35-5.53.44-6.06,4.68-.05.41-.11.82-.17,1.23-.28,3.14,4.2,13.56,8,22.89a10.13,10.13,0,0,0-2.29,7l1.67,3.62,28.62,62,.84,1.81c3.91,4,8.15,4,13.05,1.68,16.74-7.9,33.58-15.58,50.38-23.34q14.7-6.78,29.39-13.58c5.14-2.39,7-7,4.9-12.06q-2.67-5.89-5.32-11.81" transform="translate(0)"/><g id="Money_-_s" data-name="Money - s"><g class="cls-3"><g class="cls-3"><path class="cls-4" d="M127.94,57.71a4.74,4.74,0,0,0,2-3.54L122,37c-1.22-.36-2.38-1.2-3.73-.43-2-4.31-4.13-8.58-6-12.93a10.22,10.22,0,0,0-6.59-6.13c-1.13-2.5-2.15-5.06-3.41-7.5A8.33,8.33,0,0,0,91,6.15c-2.37,1-4.7,2.19-7,3.28l-.79-.87c-2.67-3-3.86-3.1-7-.45-1.81,1.51-3.63,3-5.44,4.5-3.91,3.27-3.91,3.27-8.2.28l-2.31-1.62c-3.48-2.44-4.55-2.56-6.71.22q-8-2.73-16-5.49C32.8,4.39,32,4.75,30.24,9.24c-.34.89-.68,1.77-1,2.66-1.89,4.92-1.89,4.91-7.14,4.49-2.42-.19-8.15-.22-10.57-.41-4.26-.34-5.24.41-5.75,4.43,0,.39-.1.78-.15,1.17-.27,3,4,12.84,7.53,21.67A9.58,9.58,0,0,0,11,49.86c.53,1.15,1.06,2.29,1.58,3.43Q26.1,82.63,39.64,112l.8,1.71c3.7,3.77,7.71,3.78,12.36,1.59,15.85-7.49,31.8-14.75,47.71-22.1q13.9-6.44,27.82-12.86c4.87-2.26,6.62-6.62,4.64-11.42q-2.52-5.6-5-11.18" transform="translate(0)"/></g><g class="cls-5"><path class="cls-6" d="M40,112,13.14,54c2,1.71,4.19,2.82,7,2.13a25.49,25.49,0,0,0,4.48-1.86L37.23,48.3q9.33-4,18.4-8.49l15.53-7.18L74.71,31l9.59-4.44,3-1.37,6.31-2.84c1.34-.6,2.68-1.19,4-1.8,2.44-1.1,4.78-2.6,7.67-2a10.14,10.14,0,0,1,6.53,6.06c1.89,4.31,4,8.53,6,12.8-4.22,2-8.43,4-12.67,5.9a9.16,9.16,0,0,0-3.33,2.47c-3.32,4-3.66,10.36-.78,14.09,3.69,4.79,9.15,6.26,14.49,3.85,4-1.79,7.91-3.62,11.86-5.44l5,11.07c-.16.25-.46.5-.48.76-.29,4.29-3,6.52-6.61,8.19Q88.91,95,52.66,111.87c-4.1,1.92-8,3.13-12,.16-.15-.11-.45,0-.68,0" transform="translate(0)"/><path class="cls-7" d="M132.31,69.39c2,4.74.23,9.06-4.59,11.3Q114,87.08,100.19,93.41C84.44,100.69,68.66,107.88,53,115.28c-4.59,2.17-8.56,2.17-12.23-1.57L40,112c.23,0,.53-.1.68,0,4.06,3,7.92,1.76,12-.15Q88.89,95,125.22,78.34c3.64-1.67,6.32-3.9,6.61-8.18,0-.27.32-.52.48-.77" transform="translate(0)"/><path class="cls-7" d="M11.57,50.56c-.08-5.42,2.95-8.3,7.7-10.3,7.31-3.07,14.45-6.54,21.67-9.83-.4.65-.77,1.32-1.2,2L24.59,54.22a25.49,25.49,0,0,1-4.48,1.86c-2.78.68-4.95-.42-7-2.13l-1.57-3.39" transform="translate(0)"/><path class="cls-8" d="M59.86,14.89c-.74-.27-1.45-.61-2.17-.91L37.81,7.16c-4.63-1.6-5.46-1.24-7.16,3.2-.33.88-.68,1.75-1,2.63-1.88,4.87-1.88,4.87-7.07,4.45-2.4-.19-8.07-.22-10.47-.41-4.21-.33-5.18.41-5.68,4.38l-.15,1.16c-.42,4.57,10,25.67,11.8,33.7A6.58,6.58,0,0,0,20.59,56c.28-.11.63-.19,1-.34s.61-.23,1-.41c-.14-3.18-6.81-23.34-6.62-25.51.53-6.38.8-6.58,7.36-5.51.85.14,1.69.22,1.45,1.32-.18.82-.41,1.74-1.63,1.68a6.12,6.12,0,0,1-1,0c-2.3-.51-3,.66-3.11,2.64C19,31.57,24.3,48.05,25.41,53.22c1.19-.6,2.39-1.16,3.62-1.7,2.66-1.14,5.3-2.17,7.83-3.46.09-9.56-2.7-27.52-.69-32.58a1.78,1.78,0,0,1,2.27-1.26c3.62,1.21,7.22,2.48,10.81,3.78a1.52,1.52,0,0,1,1,2.07c-.35,1.05-1.28,1.12-2.18.86-1.53-.45-3-1-4.54-1.49-4.8-1.56-4.92-1.6-6.55,3-1,2.69,1.76,15.88,2.91,23.89l.4-.25a8.34,8.34,0,0,1,4.39-1.39c1.51-6.11,2.4-13.9,6-14.53a5.34,5.34,0,0,1,1.5-2.36c5.44-5.58,12.43-6.06,19.12-1.3L85.53,24,59.86,14.89" transform="translate(0)"/><path class="cls-9" d="M36.86,48.06a33.38,33.38,0,0,0,3-1.76C38.76,38.29,36,25.1,37,22.41c1.63-4.57,1.75-4.53,6.55-3,1.52.49,3,1,4.54,1.49.9.26,1.83.19,2.18-.86a1.52,1.52,0,0,0-1-2.07c-3.59-1.3-7.19-2.57-10.81-3.78a1.76,1.76,0,0,0-2.26,1.26c-2,5.06.77,23,.68,32.58" transform="translate(0)"/><path class="cls-9" d="M71.31,26.47c-6.7-4.76-13.69-4.28-19.13,1.3a5.34,5.34,0,0,0-1.5,2.36c6.91-1.05,13.79-2.25,20.63-3.66" transform="translate(0)"/><path class="cls-9" d="M22.27,55.31a9.88,9.88,0,0,0,1.46-.68c.69-.35,1.36-.62,2-.93C24.58,48.53,19,31.57,19,29.79c.11-2,.81-3.15,3.11-2.64a6.12,6.12,0,0,0,1,0c1.22.06,1.45-.86,1.63-1.68.24-1.1-.6-1.18-1.45-1.32-6.56-1.07-6.83-.87-7.36,5.51-.19,2.17,6.2,22.44,6.34,25.62" transform="translate(0)"/><path class="cls-10" d="M24.59,54.22,39.74,32.38c.43-.63.8-1.3,1.2-2q5.93-8.35,11.87-16.7c2.76-3.9,3.61-4.07,7.48-1.36L62.58,14c4.24,3,4.24,3,8.11-.28,1.79-1.49,3.6-3,5.38-4.45,3.15-2.62,4.34-2.55,7,.44l.78.87,9.75,11.8-6.32,2.84c-1.46-1.7-3-3.38-4.38-5.12-4-5-4.36-5-8.94-.43-.6.59-1.22,1.13-.4,1.9.6.58,1.3,1.2,2.23.47a5.23,5.23,0,0,0,.75-.56c1.53-1.7,2.75-1.13,4,.44S83,25,84.3,26.56L74.71,31c-5.08-4.09-10.52-7.66-15.9-11.33a1.68,1.68,0,0,0-2.5.22C54.13,22.91,52,26,49.89,29a1.57,1.57,0,0,0,.37,2.28c.87.66,1.64.21,2.21-.51,1-1.23,1.83-2.51,2.74-3.76,2.92-4,3-4.06,6.88-1.21,3,2.24,6.42,4,9.07,6.8L55.62,39.81a5.14,5.14,0,0,0-2.51-1.1c-7.47-1.56-13.27,1.94-15.88,9.59L24.59,54.22" transform="translate(0)"/><path class="cls-7" d="M93.57,22.35l-9.74-11.8c2.32-1.08,4.63-2.21,7-3.24a8.23,8.23,0,0,1,11.07,3.86c1.24,2.41,2.26,4.94,3.37,7.42-2.89-.64-5.23.86-7.67,2-1.33.61-2.67,1.2-4,1.8" transform="translate(0)"/><path class="cls-9" d="M71.16,32.63c-2.65-2.77-6-4.56-9.08-6.8C58.21,23,58.13,23.08,55.22,27c-.92,1.25-1.8,2.53-2.75,3.75-.57.73-1.34,1.18-2.22.52A1.57,1.57,0,0,1,49.89,29C52,26,54.13,22.91,56.31,19.89a1.69,1.69,0,0,1,2.51-.22C64.19,23.34,69.63,26.91,74.71,31l-3.55,1.63" transform="translate(0)"/><path class="cls-9" d="M37.23,48.3c2.61-7.65,8.41-11.15,15.88-9.59a5.14,5.14,0,0,1,2.51,1.1q-9.07,4.5-18.39,8.49" transform="translate(0)"/><path class="cls-9" d="M84.3,26.56C83,25,81.7,23.49,80.47,21.89s-2.42-2.14-4-.44a5.23,5.23,0,0,1-.75.56c-.92.73-1.63.11-2.23-.47-.82-.77-.2-1.31.4-1.9,4.59-4.54,4.9-4.52,8.94.43,1.42,1.74,2.92,3.41,4.38,5.12l-3,1.37" transform="translate(0)"/><path class="cls-7" d="M121.45,37.87c-1.21-.35-2.36-1.19-3.69-.42-4.22,2-8.43,4-12.67,5.9a9.16,9.16,0,0,0-3.33,2.47c-3.31,4-3.66,10.36-.78,14.09,3.69,4.79,9.15,6.26,14.49,3.85,4-1.79,7.91-3.62,11.86-5.44a4.64,4.64,0,0,0,2-3.5l-7.83-17" transform="translate(0)"/></g></g></g></svg>