<svg id="Layer_1" data-name="Layer 1" xmlns="http://www.w3.org/2000/svg" viewBox="0 0 140.94 90.54"><defs><style>.cls-1{fill:#652e8f;stroke:#fff;stroke-miterlimit:10;stroke-width:3px;}</style></defs><g id="MILkLy"><path class="cls-1" d="M127.18,74.06C124.59,63.78,117.85,58,108.61,58s-16,5.81-18.55,16H51.66a19,19,0,0,0-7.8-12.64,18.63,18.63,0,0,0-22.75,1A19,19,0,0,0,14.66,74c-4.12.27-8.2.54-11-3.08a9.42,9.42,0,0,1-2.2-5.14c0-15.95,1.85-31.62,9.13-46.13,3.64-7.27,8.9-13,16.82-15.81,3.45-1.23,7-1.31,10.63-1.45,6.62-.23,13.23-.6,19.85-.84C75.57.89,89.34,8.26,100,22c2.34,3,4.41,6.26,6.69,9.34A4.8,4.8,0,0,0,108.73,33c5,1.77,10.13,3.3,15.1,5.18,9.83,3.71,14.48,11.25,15.3,21.45.15,1.91.33,3.83.31,5.74a9,9,0,0,1-8.68,8.74C129.55,74.09,128.34,74.06,127.18,74.06ZM54.4,14.54V34.6H93.06C86.52,21,71.12,13,54.4,14.54ZM45.54,34.63V15.22c-3.38,0-6.62-.06-9.87,0a12.27,12.27,0,0,0-7.43,2.54c-5.5,4.27-7.77,10.42-9.88,16.85Z" transform="translate(0 0)"/><path class="cls-1" d="M45.66,76.57a12.54,12.54,0,0,1-25.07,0,12.54,12.54,0,1,1,25.07,0Z" transform="translate(0 0)"/><path class="cls-1" d="M96.12,76.35A12.49,12.49,0,1,1,108.2,89,12.51,12.51,0,0,1,96.12,76.35Z" transform="translate(0 0)"/></g></svg>