<svg id="Layer_1" data-name="Layer 1" xmlns="http://www.w3.org/2000/svg" viewBox="0 0 111.41 91.18"><defs><style>.cls-1{fill:none;stroke:#fff;stroke-miterlimit:10;stroke-width:6px;}.cls-2{fill:#f7941d;}.cls-3{fill:#754c29;}.cls-4{fill:#231f20;}</style></defs><path class="cls-1" d="M98.07,83.85c.53-.16.56-.5.16-.88-5-4.89-.19-12.72,0-18.68h0v0h0v0h0c.89-7.67,7.44-15.06,9.45-22.16C111.84,22.17,98,3,77.48,3,45.66,5.65,59.23,25.68,33,35c-9.85,3.5-13.5,16.77-8.56,25.19l-21.26,27A.63.63,0,0,0,4,88L30.9,66.14l1,.68c7.29,3.7,17.18.92,21.54-5.7C60,58.56,66.5,63.28,73,64.26v0c.63.09,1.28.17,1.92.23-.81,3.28.13,8-1.68,10.61-4.53.67-10.73,3.08-9.91,8.64a.09.09,0,0,0,.17,0c1.54-2.48,4-3.21,6.54-3.89l.25,4.51a0,0,0,0,0,.06,0c1.77-3.64,4.9-5.32,8.89-5.36a.63.63,0,0,0,.28-1.17c-2.06-3.82,0-9.75,1.94-13.52a31.3,31.3,0,0,0,4.86-1c4,3.22,6.44,7.2,5.56,12.3C90.82,82,80.75,79.7,77.82,84.89a.45.45,0,0,0,.51.64,46,46,0,0,1,8.14-1.3c-.19,1.13-.37,2.22-.56,3.29a.46.46,0,0,0,.61.51Z" transform="translate(0 0)"/><polyline class="cls-2" points="3 88.4 24.45 59.56 25.34 61.75 31.51 65.28"/><path class="cls-3" d="M31.5,66.82c7.29,3.7,17.18.92,21.54-5.7,6.49-2.56,13,2.16,19.53,3.14v0c.64.09,1.28.17,1.93.23-.82,3.28.13,8-1.69,10.61-4.59.68-10.9,3.15-9.86,8.88,1.53-2.65,4.06-3.4,6.67-4.1l.25,4.63C71.63,80.76,74.78,79,78.81,79a.63.63,0,0,0,.28-1.17c-2-3.82,0-9.75,1.94-13.52a31.06,31.06,0,0,0,4.86-1c4,3.22,6.45,7.2,5.57,12.3C90.32,82.3,79.21,79.44,77,85.78a45.13,45.13,0,0,1,9-1.55c-.23,1.4-.46,2.74-.68,4.07l.15.1c3.68-2.6,7.57-4.47,12.14-4.55.53-.16.56-.5.16-.88-5.06-4.89-.19-12.72,0-18.68h0v0h0v0h0c.89-7.67,7.44-15.06,9.45-22.16C111.39,22.17,97.56,3,77,3,45.21,5.65,58.79,25.68,32.51,35,20.9,39.13,17.9,56.87,27.45,64.17" transform="translate(0 0)"/><circle class="cls-4" cx="35.74" cy="49.76" r="2.64"/></svg>