<svg id="Layer_1" data-name="Layer 1" xmlns="http://www.w3.org/2000/svg" viewBox="0 0 169.71 126.33"><defs><style>.cls-1{fill:#fff;}.cls-2{fill:#8f3995;}.cls-3{fill:#6eb645;}.cls-4{fill:#ffd500;}.cls-5{fill:#f68520;}.cls-6{fill:#ee282d;}.cls-7{fill:#2584c6;}</style></defs><path class="cls-1" d="M130.31,126.33c-4.42,0-9.08-.21-14.06-.63-9-.76-18-2.13-26.33-3.5l-5.6-.93c-8.44-1.4-17.18-2.86-25.76-3.84a162,162,0,0,0-22.16-1.15,91.75,91.75,0,0,0-26.86,4.3,7.12,7.12,0,0,1-6.75-.83A7.09,7.09,0,0,1,0,113.6c.06-3.92.06-7.84.06-11.76l0-21.76,0-41.43h0V37.2h0L0,5.32l5.7-.49.58,0A120.43,120.43,0,0,1,19.18,1.73,110.79,110.79,0,0,1,37.14,0,177.39,177.39,0,0,1,61.08,1.45c5.91.69,11.73,1.6,17.14,2.49l4.6.78c2.78.47,5.56,1,8.35,1.36l5.46.83c4.12.64,8.38,1.3,12.53,1.76L112.1,9c3.7.42,7.19.83,10.68,1,7.72.29,17.86.35,27.82-1.69a52.33,52.33,0,0,0,10.3-2.89l8.69-3.78,0,12.79c0,4.43,0,8.85,0,13.27,0,.18,0,.36,0,.53v4.33q0,6,.05,12.06a7.85,7.85,0,0,1-.06.91v4q0,6,.05,12a9.23,9.23,0,0,1-.08,1.18,10.6,10.6,0,0,1,.06,1.14l-.05,16.45,0,22.23q0,5.76,0,11.52a7.28,7.28,0,0,1-5.25,7.24,104.06,104.06,0,0,1-21.71,4.46A120,120,0,0,1,130.31,126.33Zm-91-22.54A181.48,181.48,0,0,1,60,105.05c8.9,1,17.79,2.51,26.39,3.94l5.56.92c8.12,1.33,16.8,2.66,25.37,3.38a127.14,127.14,0,0,0,24.15,0,95.75,95.75,0,0,0,15.78-2.9l0-7.9,0-22.26,0-15L155.3,63l1.94-2.79,0-10.7,0-5.12.06-.28,0-7.47-1.78.59,1.77-10,0-7.64c-1.35.32-2.71.61-4.08.89-11.25,2.31-22.36,2.25-30.78,1.94-4-.14-7.88-.6-11.65-1l-2.88-.33c-4.42-.49-8.82-1.17-13.07-1.83-1.79-.28-3.58-.56-5.37-.82C86.47,18,83.6,17.49,80.72,17l-4.52-.76c-5.26-.86-10.91-1.75-16.55-2.41a164.48,164.48,0,0,0-22.26-1.34A98.36,98.36,0,0,0,21.46,14c-3.26.61-6.22,1.27-9,2v5.24h0l0,29.89h0v29l0,21.76c0,1.65,0,3.29,0,4.94a108.86,108.86,0,0,1,23.62-3C37.19,103.8,38.25,103.79,39.32,103.79Zm117.92-40v0Zm0-36.82v0ZM5.78,5Z" transform="translate(0 0)"/><g id="lYtISG"><path class="cls-2" d="M163.42,97.71c0,5.45,0,10.9.06,16.35a1.15,1.15,0,0,1-1,1.28,98.08,98.08,0,0,1-20.42,4.18,134.6,134.6,0,0,1-25.31,0c-8.67-.73-17.27-2-25.86-3.45-10.53-1.72-21-3.59-31.65-4.81a170.15,170.15,0,0,0-23-1.19,98.83,98.83,0,0,0-28.65,4.61c-1.05.34-1.4.27-1.38-1,.07-5.4,0-10.8.07-16.2.49-.14,1-.26,1.46-.42A95.27,95.27,0,0,1,32.27,92.7,185.7,185.7,0,0,1,69.05,95c10.7,1.6,21.34,3.55,32.05,5.08,7,1,14,1.85,21.05,2.26a127,127,0,0,0,16.32,0,115.76,115.76,0,0,0,13-1.68C155.5,99.93,159.42,98.63,163.42,97.71Z" transform="translate(0 0)"/><path class="cls-3" d="M6.31,80.09V62.42a11.4,11.4,0,0,0,1.19-.25,97.57,97.57,0,0,1,23.62-4.33A149.23,149.23,0,0,1,50.5,58c7.1.55,14.14,1.41,21.17,2.48,10.65,1.62,21.22,3.66,31.9,5,6.55.84,13.1,1.77,19.7,2a130,130,0,0,0,23-.88,89.59,89.59,0,0,0,16.86-4,1.6,1.6,0,0,1,.33,1.12q0,8.23-.05,16.47a7.65,7.65,0,0,0-1.63.35,96.79,96.79,0,0,1-19.55,4,123,123,0,0,1-15.24.47,191.09,191.09,0,0,1-22.3-1.9c-4.62-.66-9.22-1.46-13.83-2.13-7.43-1.07-14.8-2.45-22.23-3.51a215.68,215.68,0,0,0-21.95-2.29,125.43,125.43,0,0,0-22.83.82A101.17,101.17,0,0,0,6.31,80.09Z" transform="translate(0 0)"/><path class="cls-4" d="M163.13,62.66a89.59,89.59,0,0,1-16.86,4,130,130,0,0,1-23,.88c-6.6-.21-13.15-1.14-19.7-2-10.68-1.36-21.25-3.4-31.9-5-7-1.07-14.07-1.93-21.17-2.48a149.23,149.23,0,0,0-19.38-.17A97.57,97.57,0,0,0,7.5,62.17a11.4,11.4,0,0,1-1.19.25q0-8.78,0-17.54a6,6,0,0,0,1.35-.13,114.66,114.66,0,0,1,12.71-3A103.9,103.9,0,0,1,37.3,40.09a171.76,171.76,0,0,1,23.1,1.39C66,42.14,71.65,43,77.25,43.93c4.35.71,8.68,1.51,13,2.15,6.06.9,12.11,2,18.21,2.62,4.69.52,9.37,1.16,14.08,1.33,9.81.36,19.62.17,29.29-1.82a57.14,57.14,0,0,0,11.54-3.28c0,5.54,0,11.07.06,16.61A1.84,1.84,0,0,1,163.13,62.66Z" transform="translate(0 0)"/><path class="cls-5" d="M163.13,45.74a89.59,89.59,0,0,1-16.86,3.95,130,130,0,0,1-23,.88c-6.6-.21-13.15-1.14-19.7-2-10.68-1.36-21.25-3.41-31.9-5-7-1.07-14.07-1.93-21.17-2.48a147.48,147.48,0,0,0-19.38-.17A97.57,97.57,0,0,0,7.5,45.25a11.39,11.39,0,0,1-1.19.24q0-8.76,0-17.53a6.65,6.65,0,0,0,1.35-.13,114.7,114.7,0,0,1,12.71-3.06,105,105,0,0,1,16.94-1.6,171.76,171.76,0,0,1,23.1,1.39C66,25.22,71.65,26.09,77.25,27c4.35.71,8.68,1.51,13,2.15,6.06.9,12.11,1.95,18.21,2.62,4.69.52,9.37,1.16,14.08,1.33,9.81.36,19.62.17,29.29-1.82A57.14,57.14,0,0,0,163.42,28c0,5.54,0,11.07.06,16.6A1.87,1.87,0,0,1,163.13,45.74Z" transform="translate(0 0)"/><path class="cls-6" d="M163.09,28.82a89.31,89.31,0,0,1-16.85,4,130.16,130.16,0,0,1-23,.88c-6.6-.21-13.14-1.15-19.69-2-10.69-1.36-21.26-3.41-31.9-5-7-1.07-14.08-1.93-21.17-2.48A147.51,147.51,0,0,0,31.09,24,97.56,97.56,0,0,0,7.46,28.33a11.74,11.74,0,0,1-1.18.24q0-8.76,0-17.53a6.75,6.75,0,0,0,1.36-.13,112.33,112.33,0,0,1,12.7-3.06,104,104,0,0,1,17-1.6A169.88,169.88,0,0,1,60.36,7.64c5.65.65,11.25,1.53,16.85,2.45,4.35.71,8.69,1.51,13.05,2.15,6.07.89,12.11,1.95,18.22,2.62,4.68.52,9.36,1.16,14.07,1.33,9.82.36,19.62.17,29.3-1.82a57.32,57.32,0,0,0,11.54-3.28q0,8.3.05,16.6A1.87,1.87,0,0,1,163.09,28.82Z" transform="translate(0 0)"/><path class="cls-7" d="M6.31,80.09a101.17,101.17,0,0,1,17.54-4,125.43,125.43,0,0,1,22.83-.82,215.68,215.68,0,0,1,21.95,2.29C76.06,78.58,83.43,80,90.86,81c4.61.67,9.21,1.47,13.83,2.13a191.09,191.09,0,0,0,22.3,1.9,123,123,0,0,0,15.24-.47,96.79,96.79,0,0,0,19.55-4,7.65,7.65,0,0,1,1.63-.35q0,8.73,0,17.46c-4,.92-7.92,2.22-12,3a115.76,115.76,0,0,1-13,1.68,127,127,0,0,1-16.32,0c-7.05-.41-14.05-1.25-21.05-2.26-10.71-1.53-21.35-3.48-32-5.08A185.7,185.7,0,0,0,32.27,92.7,95.27,95.27,0,0,0,7.76,97.07c-.48.16-1,.28-1.46.42Q6.3,88.79,6.31,80.09Z" transform="translate(0 0)"/></g></svg>