<svg id="Layer_1" data-name="Layer 1" xmlns="http://www.w3.org/2000/svg" viewBox="0 0 109.78 109.78"><defs><style>.cls-1{fill:none;}.cls-2{fill:#43acd0;}.cls-3{fill:#6dc17c;}.cls-4{fill:#6385b8;}.cls-5{fill:#59b171;}.cls-6{fill:#67c187;}.cls-7{fill:#fff;}</style></defs><path class="cls-1" d="M79.53,23.23a3.6,3.6,0,0,1-2.13-1.49,3.64,3.64,0,0,0,2.14,1.49c.82-.19,1.69-.28,2-1.08C81.23,23,80.36,23,79.53,23.23Z" transform="translate(0 0)"/><path class="cls-1" d="M88.05,69.2c-.27.27-.57.52-.83.8.26-.28.56-.53.83-.8s.24-.62.35-.93C88.29,68.58,88.17,68.89,88.05,69.2Z" transform="translate(0 0)"/><path class="cls-1" d="M76,18.83a2.14,2.14,0,0,0,.12.7A2.14,2.14,0,0,1,76,18.83Z" transform="translate(0 0)"/><path class="cls-1" d="M22.82,84c.08.32.15.64.22,1l7.78,3.18L23,85C23,84.65,22.9,84.33,22.82,84Z" transform="translate(0 0)"/><path class="cls-1" d="M11,29.35h0a23.53,23.53,0,0,1,1.12,2.32A23.53,23.53,0,0,0,11,29.35Z" transform="translate(0 0)"/><path class="cls-2" d="M49.3,8.68c-2.4-.62-4.48.1-6.61.86-.56.2-1.16.69-1,1.36s1,.55,1.52.64c1.7.24,3-.74,4.44-1.36,3.13-1.36,4.29-.57,4.23,2.85a5.21,5.21,0,0,0,0,.79c.87,4.53-.64,6-5.38,5.27A5.59,5.59,0,0,0,44.14,19c-3.65,1.12-7.28,2.29-10.87,3.59a4.3,4.3,0,0,0-3,4.21c0,1.37-.41,2.82-2,3-1.82.22-1.84-1.4-2.17-2.67-.58-2.19-2.24-2.87-4.26-2.45a8.2,8.2,0,0,0-5,3.95c-.66,1-.56,2.08,1.21,2.37,2.68.44,2.83.95,1.59,3.37-.11.22-.39.59-.33.65,1.75,1.89.56,4.37,1.3,6.42.82,2.28,2.25,2.65,3.88,1a3.14,3.14,0,0,1,4.26-.58c2.77,1.74,6.14,2.69,8,5.73.47.77,1.35.74,2.06,1C42,49.83,45,51.15,45.66,55.05c.25,1.39,1.68,1.91,2.85,2.51C54.89,60.82,55,61.07,51.35,67a81.32,81.32,0,0,1-5.94,8c-1.42,1.76-3,3.44-5.59,3.45a2.66,2.66,0,0,0-1.84.88c-.58.72-1.15,1.45-1.71,2.18-1.7,2.2-3.36,4.42-5,6.63A20.8,20.8,0,0,0,40.66,91l2.26.22A46.69,46.69,0,0,0,76.84,81.09,53.49,53.49,0,0,0,87,70.3a3.5,3.5,0,0,1,.24-.3c.26-.28.56-.53.83-.8s.24-.62.35-.93l.84-2.22-.09-1c-.32-4.09-1.23-4.84-5.26-4a16.24,16.24,0,0,1-7.75-.23c-3.67-1-5.48-3.92-4.66-7.59a38.54,38.54,0,0,0,1.33-10.84,4.15,4.15,0,0,1,1.43-3.25c4.54-4.47,9.77-5.75,15.81-3.48,1.94.73,3.94,1.34,5.9,2,0-1.18,0-2.35,0-3.52,0-.14-.07-.28-.1-.41-1.42-.64-2.78-1.49-4.46-1.21-1.37.23-1.67-.93-2.27-1.76-1.6-2.18-2.7-2.07-3.78.35-.73,1.65-1.85,2.57-3.68,2.07A4.43,4.43,0,0,1,78.21,29c-.13-1.9,1.14-3,3-3.35,1.24-.24,2.68,0,3.56-1.26a3.91,3.91,0,0,0-1-5.36c-1-.73-2.1-1.25-3.12-1.93-2.85-1.87-2.77-3.43.21-5.22.2-.12.4-.26.59-.4a50.83,50.83,0,0,0-14.44-6c-.31.48-.62,1-.89,1.46-.69,1.29-3.11,3.05.88,3.18.71,0,1.14,1.12.88,1.94a3.5,3.5,0,0,1-2.7,2.2c-1.2.33-2.45.34-3.19-.5-1.32-1.49.41-2.45,1.11-3.69-1.71-.2-2.54.82-3.36,2S58.52,14.72,57,14.16s-2.05-2.27-2.06-3.9c0-1.88,1-3.5,1.47-5.25.09-.33.2-.66.3-1Q55.84,4,55,4h-.29c-.07.35-.15.69-.2,1C54,8.25,52.41,9.48,49.3,8.68ZM28.69,34.59a4,4,0,0,1-1.44-.13c-1-.56-2.94-.45-2.55-2,.45-1.76,1.82-.25,2.79-.13l1,.11c1,.07,2.22.05,2.16,1.29S29.25,34.24,28.69,34.59Zm3.47,3.11c-.77-.31-1.94-.22-1.85-1.6,0-.44.49-1.05.72-.73.73,1,2.44.19,2.73,1.41C33.94,37.51,32.91,37.65,32.16,37.7ZM76,18.57a1.87,1.87,0,0,1,1.82-1.26c1.82-.15,4.08,2.31,3.93,4.16a2.12,2.12,0,0,1-.16.68c-.36.8-1.23.89-2,1.08a3.64,3.64,0,0,1-2.14-1.49,7.1,7.1,0,0,1-1.32-2.21,2.14,2.14,0,0,1-.12-.7A1,1,0,0,1,76,18.57Z" transform="translate(0 0)"/><path class="cls-3" d="M12.86,33.88a3.48,3.48,0,0,0,1,1.78c4.86,4.49,6,9.94,3.79,16-1.51,4.09-.53,8.27,1.66,11.73a18.07,18.07,0,0,1,3.18,11.54c-.25,3,.79,6,.31,9.12.08.32.15.64.22,1l7.78,3.18.42-.09c1.67-2.21,3.33-4.43,5-6.63.56-.73,1.13-1.46,1.71-2.18a2.66,2.66,0,0,1,1.84-.88c2.61,0,4.17-1.69,5.59-3.45a81.32,81.32,0,0,0,5.94-8c3.69-5.91,3.54-6.16-2.84-9.42-1.17-.6-2.6-1.12-2.85-2.51-.71-3.9-3.7-5.22-6.83-6.47-.71-.29-1.59-.26-2.06-1-1.85-3-5.22-4-8-5.73a3.14,3.14,0,0,0-4.26.58c-1.63,1.65-3.06,1.28-3.88-1-.74-2,.45-4.53-1.3-6.42-.06-.06.22-.43.33-.65,1.24-2.42,1.09-2.93-1.59-3.37-1.77-.29-1.87-1.33-1.21-2.37a8.2,8.2,0,0,1,5-3.95c2-.42,3.68.26,4.26,2.45.33,1.27.35,2.89,2.17,2.67,1.55-.19,1.92-1.64,2-3a4.3,4.3,0,0,1,3-4.21c3.59-1.3,7.22-2.47,10.87-3.59a5.59,5.59,0,0,1,2.32.14c4.74.73,6.25-.74,5.38-5.27a5.21,5.21,0,0,1,0-.79c.06-3.42-1.1-4.21-4.23-2.85-1.43.62-2.74,1.6-4.44,1.36-.57-.09-1.37.17-1.52-.64s.48-1.16,1-1.36c2.13-.76,4.21-1.48,6.61-.86,3.11.8,4.68-.43,5.22-3.65,0-.34.13-.68.2-1A50.94,50.94,0,0,0,11,29.35a23.53,23.53,0,0,1,1.12,2.32A18.49,18.49,0,0,1,12.86,33.88Z" transform="translate(0 0)"/><path class="cls-4" d="M55,105.78a50.57,50.57,0,0,0,27.68-8.21c-.55-1.18,0-2.3.34-3.44,1.82-5.44,3.66-10.86,5.43-16.31.62-1.92,1-3.83-.17-5.81-.42-.74-.18-1.86-.24-2.81-.27.27-.57.52-.83.8a3.5,3.5,0,0,0-.24.3A53.49,53.49,0,0,1,76.84,81.09,46.69,46.69,0,0,1,42.92,91.2L40.66,91a20.8,20.8,0,0,1-9.42-2.91l-.42.09a12.67,12.67,0,0,0-.53,4.89,2.47,2.47,0,0,1-1.53,2.75c-1.3.46-1.79-.69-2.41-1.51C24.27,91.53,22.55,88.65,23,85c-.07-.33-.14-.65-.22-1-5.51-2.87-9.68-7.21-13.48-12a64,64,0,0,1-4.16-6.75A51,51,0,0,0,55,105.78Z" transform="translate(0 0)"/><path class="cls-5" d="M96.51,38c-.3,8.54-1.61,16.85-5.21,24.65-.24.52-.49,1-.75,1.55-.35.7-.56,1.49-1.31,1.9l-.84,2.22c-.11.31-.23.62-.35.93.06,1-.18,2.07.24,2.81,1.14,2,.79,3.89.17,5.81C86.69,83.27,84.85,88.69,83,94.13c-.39,1.14-.89,2.26-.34,3.44A50.84,50.84,0,0,0,103,37.94,17,17,0,0,1,96.51,38Z" transform="translate(0 0)"/><path class="cls-2" d="M22.82,84c.48-3.07-.56-6.09-.31-9.12a18.07,18.07,0,0,0-3.18-11.54c-2.19-3.46-3.17-7.64-1.66-11.73,2.22-6,1.07-11.47-3.79-16a3.48,3.48,0,0,1-1-1.78,18.49,18.49,0,0,0-.74-2.21A23.53,23.53,0,0,0,11,29.35a50.93,50.93,0,0,0-5.82,35.9A64,64,0,0,0,9.34,72C13.14,76.8,17.31,81.14,22.82,84Z" transform="translate(0 0)"/><path class="cls-3" d="M80.71,17.08c1,.68,2.15,1.2,3.12,1.93a3.91,3.91,0,0,1,1,5.36c-.88,1.3-2.32,1-3.56,1.26-1.87.37-3.14,1.45-3,3.35a4.43,4.43,0,0,0,3.46,4.15c1.83.5,3-.42,3.68-2.07,1.08-2.42,2.18-2.53,3.78-.35.6.83.9,2,2.27,1.76,1.68-.28,3,.57,4.46,1.21-.32-4.46-2-8.6-3.09-12.87a51.38,51.38,0,0,0-11.26-9.35c-.19.14-.39.28-.59.4C77.94,13.65,77.86,15.21,80.71,17.08Z" transform="translate(0 0)"/><path class="cls-3" d="M54.89,10.26c0,1.63.45,3.33,2.06,3.9S59.08,13,59.8,12s1.65-2.17,3.36-2c-.7,1.24-2.43,2.2-1.11,3.69.74.84,2,.83,3.19.5a3.5,3.5,0,0,0,2.7-2.2c.26-.82-.17-1.92-.88-1.94-4-.13-1.57-1.89-.88-3.18.27-.5.58-1,.89-1.46A50.22,50.22,0,0,0,56.66,4c-.1.32-.21.65-.3,1C55.88,6.76,54.87,8.38,54.89,10.26Z" transform="translate(0 0)"/><path class="cls-5" d="M96,34.09c1.87.49,2.92,2.4,4.88,2.81a10,10,0,0,0,1.87.26,51.09,51.09,0,0,0-9.94-16.35c1.12,4.27,2.77,8.41,3.09,12.87C95.89,33.81,95.92,34,96,34.09Z" transform="translate(0 0)"/><path class="cls-4" d="M96,34.09c0,1.17,0,2.34,0,3.52.19.11.38.22.56.34a17,17,0,0,0,6.48,0l-.28-.78a10,10,0,0,1-1.87-.26C98.88,36.49,97.83,34.58,96,34.09Z" transform="translate(0 0)"/><path class="cls-3" d="M90.55,64.15c.26-.51.51-1,.75-1.55,3.6-7.8,4.91-16.11,5.21-24.65-.18-.12-.37-.23-.56-.34-2-.67-4-1.28-5.9-2-6-2.27-11.27-1-15.81,3.48a4.15,4.15,0,0,0-1.43,3.25,38.54,38.54,0,0,1-1.33,10.84c-.82,3.67,1,6.56,4.66,7.59a16.24,16.24,0,0,0,7.75.23c4-.82,4.94-.07,5.26,4l.09,1C90,65.64,90.2,64.85,90.55,64.15Z" transform="translate(0 0)"/><path class="cls-3" d="M77.4,21.74a3.6,3.6,0,0,0,2.13,1.49c.83-.19,1.7-.28,2.06-1.08a2.12,2.12,0,0,0,.16-.68c.15-1.85-2.11-4.31-3.93-4.16A1.87,1.87,0,0,0,76,18.57a1,1,0,0,0,0,.26,2.14,2.14,0,0,0,.12.7A7.1,7.1,0,0,0,77.4,21.74Z" transform="translate(0 0)"/><path class="cls-6" d="M30.68,33.76c.06-1.24-1.2-1.22-2.16-1.29l-1-.11c-1-.12-2.34-1.63-2.79.13-.39,1.52,1.59,1.41,2.55,2a4,4,0,0,0,1.44.13C29.25,34.24,30.61,35,30.68,33.76Z" transform="translate(0 0)"/><path class="cls-6" d="M31,35.37c-.23-.32-.69.29-.72.73-.09,1.38,1.08,1.29,1.85,1.6.75-.05,1.78-.19,1.6-.92C33.47,35.56,31.76,36.38,31,35.37Z" transform="translate(0 0)"/><path class="cls-5" d="M26.35,94.29c.62.82,1.11,2,2.41,1.51a2.47,2.47,0,0,0,1.53-2.75,12.67,12.67,0,0,1,.53-4.89L23,85C22.55,88.65,24.27,91.53,26.35,94.29Z" transform="translate(0 0)"/><path class="cls-7" d="M54.89,4q.82,0,1.65,0a50.67,50.67,0,0,1,24.85,7.43,51.17,51.17,0,0,1,21.2,25.7c.1.26.19.52.28.78A50.89,50.89,0,1,1,5.06,65.25,51.28,51.28,0,0,1,4,54.89a50.55,50.55,0,0,1,6.89-25.54h0A50.92,50.92,0,0,1,54.6,4h.29m0-4h-.31A54.93,54.93,0,0,0,0,54.89,55.78,55.78,0,0,0,1.14,66.06a54.89,54.89,0,1,0,105.5-29.45l-.3-.85A54.85,54.85,0,0,0,56.67,0c-.59,0-1.18,0-1.78,0Z" transform="translate(0 0)"/></svg>