<svg id="Layer_1" data-name="Layer 1" xmlns="http://www.w3.org/2000/svg" viewBox="0 0 253.9 240.34"><defs><style>.cls-1{fill:#00aa4d;}.cls-2{fill:#fff;}</style></defs><path class="cls-1" d="M126.08,238.34a4.79,4.79,0,0,1-3.94-1.49c-1.18-1.43-.83-3.25-.6-4.46a6.2,6.2,0,0,0,.14-.93c.16-8.23.37-16.6.58-24.69l.36-14.66c-15.47,17.23-35.68,26.08-60.16,26.33l-.42,0c-.31,0-.62.06-.92.06a3.2,3.2,0,0,1-3.19-2.14c-.8-2.24.73-3.72,1.46-4.44a4.16,4.16,0,0,0,.42-.42c11.29-13.48,25-22.4,40.79-26.53-36.74-7.52-67.85-24.76-94.89-52.55l-2.14-2.2,2.87-1.07a14.39,14.39,0,0,1,5.08-.88,31.42,31.42,0,0,1,4.26.37l1.12.15C46.16,132.44,71,141,92.87,155c-22.75-27.51-37.94-59.32-46.44-97.2a11.13,11.13,0,0,1-.21-2.19c0-.5,0-1.14-.1-2L45.83,49l3.57,3c25.84,21.61,45.62,46.1,60.19,74.6-3.78-40.26,1.19-79.14,14.83-115.73l1.89-5.09,1.86,5.11a257.66,257.66,0,0,1,14.49,116.33,232.75,232.75,0,0,1,45.1-61.44l1.11-1.09A111,111,0,0,1,203.61,52l4.12-2.88-1,4.93c-7.94,38.35-22.81,71-45.34,99.44,26.12-15.21,54-23.44,82.95-24.51l4.83-.18-3.29,3.54c-25.7,27.67-57.67,45.27-95.12,52.38,15.72,3.79,29.36,12.44,41.65,26.4.13.15.3.31.47.47.86.83,2.66,2.55,1.64,4.93a3.47,3.47,0,0,1-3.39,2.15h0a9.67,9.67,0,0,1-1.39-.13,4.3,4.3,0,0,0-.69-.08c-23.88-.35-43.78-9.21-59.18-26.36q.21,8.76.46,17.53c.2,7.31.4,14.62.56,21.93a8.1,8.1,0,0,0,.13.9c.2,1.16.51,2.92-.63,4.33a4.81,4.81,0,0,1-3.76,1.58Z"/><path class="cls-2" d="M126.29,11.58C141.41,53.15,145.87,95.75,139,139.7a228.3,228.3,0,0,1,50.15-72.48c4.57-4.48,9.09-9.08,15.59-13.63-8.57,41.43-25.5,77.13-53,108.22,28.08-18.77,58.73-29.63,92.65-30.88-27.17,29.25-60.63,46.7-100.45,52.88,1.39,2.59,3.68,2.2,5.35,2.58,16.91,3.83,30.32,13.2,41.58,26,.81.92,2.38,1.88,1.78,3.3a1.5,1.5,0,0,1-1.55.93c-.67,0-1.42-.2-2.05-.21-23.55-.34-43.31-9-58.81-26.94-.57-.7-1.13-1.41-1.69-2.12l-.23-.14a7.5,7.5,0,0,0-.61-1c.33,15.1.81,30.2,1.15,45.3,0,1.77,1.56,4.58-2.35,4.77h-.44c-4.15,0-2.43-3.07-2.4-4.84.29-15.07.75-30.13,1.06-45.2a7.66,7.66,0,0,0-.57.89c-15.86,19.69-36.66,29-61.73,29.25-.4,0-.88.1-1.32.1a1.22,1.22,0,0,1-1.31-.82c-.47-1.33.82-2.05,1.53-2.89,11.11-13.27,24.81-22.44,41.81-26.39a16.77,16.77,0,0,0,5.26-2c-39.59-6.56-73-24.36-101.27-53.35a12.3,12.3,0,0,1,4.38-.76,41.61,41.61,0,0,1,5.14.51c27.24,3.36,52.88,11.4,76.06,26.5L98.34,161h0c-.86-1.5-1.87-4.72-3.37-6.51C71.27,126,56.44,93.33,48.38,57.4a33.26,33.26,0,0,1-.26-3.85C76.61,77.37,98,105,112.93,138.18c-5.88-43.36-1.93-85.54,13.36-126.6m0-11.58-3.8,10.18a259.83,259.83,0,0,0-15.67,107.13c-14.19-25.2-32.7-47.2-56.19-66.83l-7.14-6,.59,9.3c0,.81.07,1.43.09,1.92a13.59,13.59,0,0,0,.26,2.55C52.19,92.62,65.36,122,84.63,147.8c-19.8-10.93-42-17.81-67.48-21l-1.1-.15a33.57,33.57,0,0,0-4.53-.39,16.23,16.23,0,0,0-5.78,1L0,129.46l4.27,4.39a190.19,190.19,0,0,0,47.37,35.84,180.77,180.77,0,0,0,41.29,15.63c-13.2,4.85-24.83,13.21-34.66,24.94a2.29,2.29,0,0,1-.27.27c-.79.76-3.19,3.09-2,6.54a5.17,5.17,0,0,0,5.07,3.47,10.62,10.62,0,0,0,1.13-.07l.26,0c23.18-.23,42.65-8,58-23.2-.07,3.18-.15,6.35-.23,9.47-.21,8.09-.42,16.47-.58,24.71,0,.07-.06.38-.1.59-.27,1.38-.76,4,1,6.11a6.71,6.71,0,0,0,5.48,2.22l.62,0a6.75,6.75,0,0,0,5.23-2.33c1.7-2.12,1.27-4.59,1-5.92,0-.2-.09-.51-.1-.62-.16-7.29-.36-14.72-.56-21.9-.11-4.07-.22-8.21-.33-12.36,15.24,15.08,34.39,22.89,57,23.22l.43.06a10.89,10.89,0,0,0,1.68.15,5.5,5.5,0,0,0,5.23-3.36c1.56-3.66-1.19-6.3-2.1-7.16l-.35-.35c-10.54-12-22.07-20.13-35-24.75a175.17,175.17,0,0,0,41.92-15.44,174.29,174.29,0,0,0,46.55-35.91l6.57-7.07-9.65.35a176.73,176.73,0,0,0-75.59,20.21c19.55-26.88,32.7-57.42,40-92.73l2-9.86-8.25,5.77a112.45,112.45,0,0,0-15,13l-1.11,1.09a235.22,235.22,0,0,0-40.85,53.26A260,260,0,0,0,130.05,10.21L126.34,0Z"/></svg>