<svg id="Layer_1" data-name="Layer 1" xmlns="http://www.w3.org/2000/svg" viewBox="0 0 475.9 308.26"><defs><style>.cls-1{fill:#074971;}.cls-2{fill:#fff;}.cls-3{fill:#f9c214;}</style></defs><g id="ysjJjK"><path class="cls-1" d="M62.11,182.27c-7.35-9.86-18-14.92-28.73-20-4.79-2.29-9.57-4.6-14.28-7-7.29-3.78-10.33-10-10.09-18,.59-19.3,7.83-36.18,19.15-51.47A95.54,95.54,0,0,1,53,62c7.28-4.73,15.12-6.39,23.67-6.24,11.13.21,22.18,2.36,33.39.68a59.72,59.72,0,0,0,19.7-6.61c16.82-9,32.87-19.54,50.27-27.53C222.37,2.86,264.1,5,305,26.87c13.32,7.14,26.49,14.6,39.57,22.18,11.12,6.44,23.1,9,35.79,9.14,9,.13,18-.93,26.9.83a20.18,20.18,0,0,1,6.09,2c21,11.77,37.58,27.86,47.91,49.89,3.73,7.94,5,16.47,5.59,25.14.57,9.09-3.11,15.81-11.3,19.88-7,3.47-14,6.82-21.07,10.2-8,3.87-15.21,8.87-20.65,16.08-4.57-2-9.07-4.15-13.71-6-40.05-15.81-82.05-22.15-124.69-24.78-42.88-2.65-85.64-1.37-128.11,5.68C117.89,162.07,89.07,169,62.11,182.27ZM195.91,43.43c1,.86,1.63,1.53,2.36,2.15,7.4,6.38,9.86,15.85,2.55,23.56a25.94,25.94,0,0,0-3.07,4.53c-10.37,17.25-6.18,34.51,11,45a74.92,74.92,0,0,0,22.1,8.86c2.73.64,5.43,2.09,8.26,1.46,11.08-2.45,21.87-5.78,31.24-12.46,12-8.51,15.89-20.67,11.44-34.68-1.68-5.3-4.6-9.89-7.9-14.32-4.48-6-4.45-11.85,0-17.83,1.67-2.23,3.75-4.14,5.83-6.4-6-4.13-12.5-7.41-18.86-11-2.21-1.23-3.75-1.12-5.82.36-4.73,3.39-9.82,3.8-14.89.62-1.41-.88-2.58-1.16-4.09-.15-5.59,3.71-11,2.78-16.17-1-1.14-.83-2.13-1.34-3.6-.54C209.5,35.41,202.53,38.88,195.91,43.43Z" transform="translate(0)"/><path class="cls-2" d="M59.36,193.66l-4.47-6c-6-8-15.24-12.44-25.08-17.15l-.31-.14c-4.93-2.36-9.75-4.68-14.54-7.17C5,158-.34,148.66,0,136.88.62,117,7.46,98.5,20.93,80.32A105.06,105.06,0,0,1,48.05,54.48c8.27-5.37,17.66-7.88,28.74-7.68,4,.07,8,.37,11.77.67,7,.55,13.7,1.06,20.12.1a50.7,50.7,0,0,0,16.76-5.63c6-3.25,12.13-6.78,18-10.19,10.5-6.07,21.35-12.36,32.76-17.6,44.33-20.35,89.08-18.74,133,4.79,11.7,6.26,24.36,13.36,39.84,22.32,8.9,5.15,19.17,7.75,31.41,7.93,2.49,0,5,0,7.64-.09,6.7-.17,13.62-.34,20.86,1.09a29,29,0,0,1,8.76,3c23.73,13.28,41.11,31.42,51.66,53.92,4.74,10.09,5.92,20.48,6.42,28.39.81,12.77-5,22.9-16.28,28.51-5.48,2.72-11.05,5.39-16.44,8l-4.72,2.27c-7.79,3.74-13.31,8-17.38,13.39l-4.28,5.68-6.52-2.86q-2.2-1-4.41-2c-3.09-1.39-6-2.7-9-3.88-34.11-13.46-72.86-21.14-121.95-24.17-45.37-2.8-86.61-1-126.08,5.58-34.81,5.79-60.32,13.28-82.71,24.29Zm175.52-52.45c13.37,0,27,.43,41.1,1.3,51,3.15,91.53,11.22,127.45,25.4,2.73,1.08,5.4,2.25,8,3.41a67.89,67.89,0,0,1,19.16-13.25l4.74-2.28c5.34-2.56,10.86-5.21,16.22-7.87,4.85-2.41,6.68-5.66,6.32-11.25-.59-9.4-2.05-16.15-4.74-21.89C444.07,95.49,429.63,80.49,409,68.92a12.2,12.2,0,0,0-3.43-1.07c-5.31-1-11-.9-16.95-.76-2.71.07-5.52.14-8.36.1-15.39-.23-28.53-3.62-40.16-10.35C324.76,48,312.27,41,300.75,34.8c-39.26-21-77.53-22.42-117-4.29-10.64,4.89-21.12,11-31.25,16.82-6,3.48-12.23,7.08-18.51,10.46a68.47,68.47,0,0,1-22.63,7.59c-8.44,1.26-16.43.64-24.17,0-3.71-.29-7.22-.56-10.71-.63-7.45-.14-13.37,1.39-18.61,4.79A86.12,86.12,0,0,0,35.39,91C24.19,106.17,18.5,121.34,18,137.43c-.19,6.11,2.4,8.31,5.23,9.78,4.56,2.36,9.24,4.62,14,6.91l.31.15c9.34,4.47,18.94,9.06,26.84,17,28.86-13.07,58.44-19.11,81.42-22.92A539.54,539.54,0,0,1,234.88,141.21Zm2.83-3a23.19,23.19,0,0,1-7.3-1.39c-.6-.19-1.18-.37-1.6-.47a84.37,84.37,0,0,1-24.72-9.94C182.53,113.2,177,90.69,190,69l.44-.73a28.35,28.35,0,0,1,3.81-5.36c2-2.13,2-3.72,1.92-4.24-.1-2-1.52-4.32-3.82-6.3-.56-.48-1.1-1-1.73-1.57l-.83-.77-8.35-7.64L190.81,36A176.65,176.65,0,0,1,208,26q2-1.08,4.08-2.19c3-1.63,7.75-2.76,13.18,1.16,3.37,2.43,4.6,1.62,5.91.75,2.5-1.66,7.63-3.87,13.84,0,1.61,1,2.75,1.22,4.87-.3a13.64,13.64,0,0,1,15.45-.91q2.16,1.2,4.34,2.38a165,165,0,0,1,15.25,9l8.54,5.88-7,7.62c-.72.78-1.44,1.52-2.14,2.25a38,38,0,0,0-3.1,3.44c-2.11,2.81-2.11,4.26,0,7.06,3.14,4.22,7,10,9.27,17,5.63,17.73.23,34-14.8,44.74-11.27,8-23.77,11.53-34.51,13.91A15.67,15.67,0,0,1,237.71,138.17Zm.08-18ZM210,45.36a24.88,24.88,0,0,1,4.21,12.44,23.38,23.38,0,0,1-6.84,17.53,16.14,16.14,0,0,0-1.36,2.1l-.52.88c-7.89,13.12-5.05,24.73,8,32.7A65.58,65.58,0,0,0,233,118.79c1.09.26,2.06.57,2.92.84.57.18,1.31.42,1.72.51,8.89-2,19.06-4.85,27.57-10.92C273.89,103,276.53,95,273.24,84.6c-1.12-3.53-3.07-7-6.54-11.66-6.61-8.87-6.86-18.59-.74-27.53-1.61-.9-3.25-1.79-4.93-2.7-.86-.48-1.73-1-2.6-1.42a21.17,21.17,0,0,1-20.37,1.13c-6.64,3.19-13.78,2.82-20.62-1.09l-1,.54C214.23,43,212.08,44.18,210,45.36Z" transform="translate(0)"/><path class="cls-1" d="M408.92,210.55c7.93,13.55,6.22,26.42-3.16,38.44-10.68,13.68-25.49,21.58-41.06,28.16-24.8,10.48-50.87,15.91-77.49,19.14a406.45,406.45,0,0,1-80.2,1.79c-36.27-2.79-71.78-9.08-104.9-25.05-12.2-5.88-23.6-13.07-32-24C60.8,236.92,59,224.1,67,210.55c37.48-15,76.62-23.16,116.63-27.05a542.49,542.49,0,0,1,113.66.44C335.58,188.26,373.07,195.89,408.92,210.55Z" transform="translate(0)"/><path class="cls-2" d="M238,308.26q-15.9,0-31.71-1.21c-44.13-3.39-78.49-11.62-108.12-25.91C87.28,275.87,73.4,268.09,63,254.49,51,238.93,49.7,222.16,59.18,206l1.56-2.65,2.86-1.15c35.56-14.26,74.52-23.31,119.1-27.65a554.85,554.85,0,0,1,115.55.46c44.72,5,81,13.69,114.08,27.22l2.82,1.15,1.54,2.63c9.54,16.3,8.21,33.08-3.84,48.53-12.35,15.82-29.5,24.5-44.65,30.91-22.83,9.65-48.22,15.94-79.9,19.79A418.17,418.17,0,0,1,238,308.26ZM73.32,217.7c-4.2,8.83-2.95,16.9,3.91,25.82,6.35,8.27,15.23,14.87,28.79,21.41,27.92,13.46,59.28,20.92,101.68,24.17a398.59,398.59,0,0,0,78.43-1.74c30-3.64,53.82-9.52,75.06-18.5,13.68-5.78,27.68-12.86,37.47-25.41,6.79-8.69,8-16.95,3.86-25.77-30.73-12.21-64.61-20.1-106.29-24.8a536.61,536.61,0,0,0-111.78-.42C142.86,196.51,106.47,204.77,73.32,217.7Z" transform="translate(0)"/><path class="cls-3" d="M408.92,210.55c-35.85-14.66-73.34-22.29-111.68-26.61a542.49,542.49,0,0,0-113.66-.44c-40,3.89-79.15,12-116.63,27.05q-2.43-14.15-4.84-28.28c27-13.26,55.78-20.2,85.21-25.09,42.47-7.05,85.23-8.33,128.11-5.68,42.64,2.63,84.64,9,124.69,24.78,4.64,1.83,9.14,4,13.71,6Q411.37,196.41,408.92,210.55Z" transform="translate(0)"/><path class="cls-2" d="M415.87,223.12l-10.36-4.24c-31.52-12.89-66.25-21.15-109.28-26a536.62,536.62,0,0,0-111.78-.42c-42.86,4.17-80.2,12.82-114.15,26.44L60,223.05,52.1,177.17l6-3c30.8-15.15,63.05-21.8,87.7-25.89,40.83-6.79,83.4-8.68,130.14-5.8,51,3.15,91.53,11.22,127.45,25.4,3.36,1.33,6.61,2.79,9.76,4.21,1.41.64,2.83,1.28,4.25,1.9l6.46,2.83ZM72.13,187.49,74,198.22c32.74-12,68.44-19.76,108.73-23.68a554.85,554.85,0,0,1,115.55.46c40.09,4.51,73.37,11.93,103.68,23.17l1.83-10.55c-2.35-1.06-4.63-2.05-6.94-3-34.11-13.46-72.86-21.14-121.95-24.17-45.37-2.8-86.61-1-126.08,5.58C117.07,171.33,93.08,178,72.13,187.49Z" transform="translate(0)"/><path class="cls-3" d="M195.91,43.43c6.62-4.55,13.59-8,20.43-11.73,1.47-.8,2.46-.29,3.6.54,5.18,3.74,10.58,4.67,16.17,1,1.51-1,2.68-.73,4.09.15,5.07,3.18,10.16,2.77,14.89-.62,2.07-1.48,3.61-1.59,5.82-.36,6.36,3.54,12.86,6.82,18.86,11-2.08,2.26-4.16,4.17-5.83,6.4-4.47,6-4.5,11.84,0,17.83,3.3,4.43,6.22,9,7.9,14.32,4.45,14,.52,26.17-11.44,34.68-9.37,6.68-20.16,10-31.24,12.46-2.83.63-5.53-.82-8.26-1.46a74.92,74.92,0,0,1-22.1-8.86c-17.21-10.51-21.4-27.77-11-45a25.94,25.94,0,0,1,3.07-4.53c7.31-7.71,4.85-17.18-2.55-23.56C197.54,45,196.86,44.29,195.91,43.43Z" transform="translate(0)"/><path class="cls-2" d="M237.71,138.17a23.19,23.19,0,0,1-7.3-1.39c-.6-.19-1.18-.37-1.6-.47a84.37,84.37,0,0,1-24.72-9.94C182.53,113.2,177,90.69,190,69l.44-.73a28.35,28.35,0,0,1,3.81-5.36c2-2.13,2-3.72,1.92-4.24-.1-2-1.52-4.32-3.82-6.3-.56-.48-1.1-1-1.73-1.57l-.83-.77-8.35-7.64L190.81,36A176.65,176.65,0,0,1,208,26q2-1.08,4.08-2.19c3-1.63,7.75-2.76,13.18,1.16,3.37,2.43,4.6,1.62,5.91.75,2.5-1.66,7.63-3.87,13.84,0,1.61,1,2.75,1.22,4.87-.3a13.64,13.64,0,0,1,15.45-.91q2.16,1.2,4.34,2.38a165,165,0,0,1,15.25,9l8.54,5.88-7,7.62c-.72.78-1.44,1.52-2.14,2.25a38,38,0,0,0-3.1,3.44c-2.11,2.81-2.11,4.26,0,7.06,3.14,4.22,7,10,9.27,17,5.63,17.73.23,34-14.8,44.74-11.27,8-23.77,11.53-34.51,13.91A15.67,15.67,0,0,1,237.71,138.17ZM210,45.36a24.88,24.88,0,0,1,4.21,12.44,23.38,23.38,0,0,1-6.84,17.53,16.14,16.14,0,0,0-1.36,2.1l-.52.88c-7.89,13.12-5.05,24.73,8,32.7A65.58,65.58,0,0,0,233,118.79c1.09.26,2.06.57,2.92.84.57.18,1.31.42,1.72.51,8.89-2,19.06-4.85,27.57-10.92C273.89,103,276.53,95,273.24,84.6c-1.12-3.53-3.07-7-6.54-11.66-6.61-8.87-6.86-18.6-.74-27.53-1.61-.9-3.25-1.79-4.93-2.7-.86-.48-1.73-1-2.6-1.42a21.17,21.17,0,0,1-20.37,1.13c-6.64,3.19-13.78,2.82-20.62-1.09l-1,.54C214.23,43,212.08,44.18,210,45.36Z" transform="translate(0)"/></g><g id="ysjJjK-2" data-name="ysjJjK"><path class="cls-1" d="M62.12,183c-7.35-9.87-18-14.93-28.72-20-4.79-2.29-9.57-4.59-14.28-7-7.29-3.78-10.34-10-10.09-18,.59-19.31,7.82-36.19,19.15-51.48A95.5,95.5,0,0,1,53,62.7c7.29-4.73,15.12-6.39,23.68-6.23,11.12.2,22.18,2.36,33.38.68a59.79,59.79,0,0,0,19.7-6.61C146.55,41.49,162.6,31,180,23c42.4-19.47,84.13-17.36,125,4.54,13.33,7.13,26.49,14.6,39.57,22.18,11.13,6.44,23.11,9,35.79,9.13,9,.13,18-.92,26.91.83a20.29,20.29,0,0,1,6.09,2.06c21,11.77,37.58,27.86,47.91,49.89,3.72,7.94,5,16.47,5.58,25.14.58,9.09-3.1,15.81-11.3,19.88-7,3.46-14,6.81-21.06,10.19-8.05,3.87-15.21,8.87-20.66,16.09-4.56-2-9.07-4.15-13.7-6-40.06-15.82-82.05-22.16-124.7-24.79-42.87-2.64-85.63-1.37-128.11,5.69C117.91,162.75,89.08,169.69,62.12,183ZM195.92,44.1c1,.87,1.64,1.53,2.36,2.16,7.4,6.38,9.87,15.85,2.55,23.55a26,26,0,0,0-3.06,4.54c-10.38,17.25-6.18,34.5,11,45a75.22,75.22,0,0,0,22.09,8.85c2.73.65,5.43,2.09,8.27,1.47,11.08-2.45,21.87-5.78,31.24-12.46,12-8.52,15.88-20.67,11.44-34.68-1.68-5.3-4.6-9.89-7.91-14.32-4.47-6-4.45-11.86,0-17.84,1.66-2.22,3.75-4.13,5.83-6.39-6-4.14-12.51-7.41-18.87-11-2.21-1.23-3.74-1.13-5.82.36-4.72,3.39-9.81,3.8-14.89.62-1.4-.88-2.57-1.16-4.09-.16-5.59,3.71-11,2.79-16.16-.95-1.14-.83-2.13-1.34-3.61-.54C209.52,36.09,202.55,39.55,195.92,44.1Z" transform="translate(0)"/><path class="cls-1" d="M408.94,211.23c7.93,13.55,6.21,26.42-3.17,38.44-10.67,13.68-25.49,21.57-41.06,28.16-24.79,10.48-50.86,15.91-77.48,19.14a405.7,405.7,0,0,1-80.2,1.78c-36.27-2.78-71.78-9.07-104.9-25-12.21-5.88-23.6-13.07-32-24C60.82,237.59,59,224.78,67,211.22c37.48-15,76.63-23.15,116.63-27.05a543.27,543.27,0,0,1,113.67.45C335.59,188.93,373.09,196.57,408.94,211.23Z" transform="translate(0)"/><path class="cls-3" d="M408.94,211.23c-35.85-14.66-73.35-22.3-111.68-26.61a543.27,543.27,0,0,0-113.67-.45c-40,3.9-79.15,12-116.63,27.05Q64.54,197.09,62.12,183c27-13.26,55.79-20.2,85.21-25.09,42.48-7.06,85.24-8.33,128.11-5.69,42.65,2.63,84.64,9,124.7,24.79,4.63,1.83,9.14,4,13.7,6Q411.4,197.09,408.94,211.23Z" transform="translate(0)"/><path class="cls-3" d="M195.92,44.1c6.63-4.55,13.6-8,20.43-11.72,1.48-.8,2.47-.29,3.61.54,5.17,3.74,10.57,4.66,16.16.95,1.52-1,2.69-.72,4.09.16,5.08,3.18,10.17,2.77,14.89-.62,2.08-1.49,3.61-1.59,5.82-.36,6.36,3.54,12.86,6.81,18.87,11-2.08,2.26-4.17,4.17-5.83,6.39-4.48,6-4.5,11.85,0,17.84,3.31,4.43,6.23,9,7.91,14.32,4.44,14,.52,26.16-11.44,34.68-9.37,6.68-20.16,10-31.24,12.46-2.84.62-5.54-.82-8.27-1.47a75.22,75.22,0,0,1-22.09-8.85c-17.21-10.52-21.41-27.77-11-45a26,26,0,0,1,3.06-4.54c7.32-7.7,4.85-17.17-2.55-23.55C197.56,45.63,196.87,45,195.92,44.1Z" transform="translate(0)"/></g></svg>