<svg id="Layer_1" data-name="Layer 1" xmlns="http://www.w3.org/2000/svg" viewBox="0 0 200.67 146.23"><defs><style>.cls-1{fill:none;stroke:#fff;stroke-miterlimit:10;stroke-width:16px;}.cls-2{fill:#fced00;}.cls-3{fill:#ffd800;}.cls-4{fill:#00bbc2;}</style></defs><path class="cls-1" d="M171.71,51.84A42.33,42.33,0,0,0,168.23,46,77,77,0,0,0,155,31.48a14.3,14.3,0,0,0-2.48-2.18A87.11,87.11,0,0,0,136,18.9c-2.06-.74-4-1.86-6.09-2.46a71,71,0,0,1,.24-7.58,1.16,1.16,0,0,0-.81-.21c-3.64-.14-7.28-.32-10.92-.42-15.65-.39-31.29-.3-46.92.4-.84,0-1,.32-1,1.09.12,1.84.19,3.68.26,5.52,0,.44.15.92-.26,1.27a74.06,74.06,0,0,0-16.21,8.3,60.5,60.5,0,0,0-8.63,6.66,6.41,6.41,0,0,0-.58.45,83.53,83.53,0,0,0-17,20.75A81.86,81.86,0,0,0,17.69,83.75a81,81,0,0,0,.4,23.52c.16.92-.14,1.09-1,1.08-2.71,0-5.42,0-8.12,0-.66,0-1,.14-1,.87.05,2.34,0,4.67.06,7a25.3,25.3,0,0,0,.12,5.29l5.44,1.93a261.09,261.09,0,0,0,77.91,14.66,260.46,260.46,0,0,0,42.43-2,261.84,261.84,0,0,0,30.15-5.75,275.75,275.75,0,0,0,27.41-8.5c.82-.3,1.19-.66,1.12-1.57-.1-1.26-.06-2.54-.07-3.81,0-2.33,0-4.67.07-7,0-.88-.27-1.12-1.11-1.11-2.67.05-5.33,0-8,0-.8,0-1.11-.14-1-.89s.25-1.5.33-2.14c1.36-11.19,1.47-20.89-1.12-31.15a43.08,43.08,0,0,0-3.18-8.5Z"/><g id="LGREFS"><path class="cls-2" d="M175.58,59.82c0,.09.09.18.13.27,1,2.55,2,5.08,2.86,7.66a82.56,82.56,0,0,1,3.83,35.74c-.14,1.31-.28,2.61-.53,3.9-.17.91.13,1.1,1,1.08,2.66,0,5.33,0,8,0,.85,0,1.15.22,1.12,1.1-.07,2.33-.06,4.67-.08,7a3.51,3.51,0,0,0-1.92-.23H7.38c0-2.33,0-4.67,0-7,0-.73.3-.88.95-.87,2.71,0,5.42,0,8.12,0,.86,0,1.15-.15,1-1.08A80.27,80.27,0,0,1,17,83.86,81.86,81.86,0,0,1,27.46,52.78,83.89,83.89,0,0,1,44.41,32a6.55,6.55,0,0,1,.59-.45c.49,1.66.9,3.35,1.55,5,.51,1.27,1,2.57,1.34,3.88,1.43,4.94,3.21,9.79,4.65,14.74,1.29,4.42,2.84,8.77,4.28,13.14s2.9,8.77,4.34,13.16c.86,2.64,1.7,5.28,2.55,7.92s1.78,5.43,2.66,8.14a65.45,65.45,0,0,1,2.21,7c.75,3.56,1.08,4,4.68,3.94h.12c1.07.14,1.3-.46,1.12-1.56a45,45,0,0,1-.43-6.36c-.07-3.31-.4-6.61-.48-9.91q-.23-8.77-.78-17.53c-.19-3.1-.24-6.2-.44-9.29-.36-5.42-.54-10.85-.78-16.28-.07-1.55-.09-3.1-.19-4.65-.36-5.63-.55-11.26-.8-16.9-.09-2.24-.09-4.5-.3-6.73a5.2,5.2,0,0,0-.47-2.6c.41-.35.28-.83.27-1.26-.07-1.85-.14-3.69-.26-5.53,0-.77.15-1.05,1-1.09,15.64-.7,31.28-.79,46.92-.4,3.65.1,7.29.28,10.93.42a1.18,1.18,0,0,1,.81.21,68.56,68.56,0,0,0-.24,7.58c-.14,1.75-.25,3.51-.37,5.26-.16,2.2,0,4.42-.24,6.61-.54,5.16-.52,10.35-.88,15.53-.26,3.74-.33,7.5-.49,11.26-.23,5.39-.49,10.77-.81,16.15-.19,3.14-.33,6.29-.42,9.43-.2,6.29-.67,12.57-.78,18.86,0,1.15-.26,2.27-.27,3.42a20.58,20.58,0,0,1-.19,3.67c-.1.53-.46,1.38.5,1.66,1.42.41,4.07,0,4.31-.7q.87-2.52,1.69-5.06c.81-2.48,1.6-5,2.4-7.43,1.28-3.91,2.58-7.82,3.85-11.74,1.13-3.49,2.2-7,3.35-10.49,1.71-5.19,3.41-10.39,5-15.61,1.31-4.19,2.71-8.34,4.05-12.51,1.42-4.43,3-8.8,4.3-13.27a80.11,80.11,0,0,1,16.13,18.84c1.63,2.59,3.07,5.3,4.45,8Z"/><path class="cls-3" d="M7.38,116.31H190a3.51,3.51,0,0,1,1.92.23c0,1.27,0,2.55.07,3.81.08.91-.3,1.27-1.11,1.57a276.75,276.75,0,0,1-27.42,8.5,261.27,261.27,0,0,1-30.14,5.75,259.52,259.52,0,0,1-42.44,2A260.46,260.46,0,0,1,13,123.53L7.51,121.6A26,26,0,0,1,7.38,116.31Z"/><path class="cls-3" d="M154.29,31.59c-1.3,4.47-2.88,8.84-4.3,13.27-1.31,4.11-2.7,8.19-4,12.31q-2.35,7.52-4.83,15c-1.25,3.75-2.4,7.54-3.62,11.3-1.27,3.92-2.57,7.83-3.85,11.74-.8,2.47-1.59,5-2.4,7.43q-.83,2.53-1.69,5.06c-.24.68-2.89,1.11-4.31.7-1-.28-.6-1.13-.5-1.66a20.58,20.58,0,0,0,.19-3.67c0-1.15.25-2.27.27-3.42.11-6.29.58-12.57.78-18.86.09-3.14.23-6.29.42-9.43.32-5.38.58-10.76.81-16.15.16-3.76.23-7.52.49-11.26.36-5.18.34-10.37.88-15.53.22-2.19.08-4.41.24-6.61.12-1.75.23-3.51.37-5.26,2.12.6,4,1.72,6.09,2.47a87.38,87.38,0,0,1,16.47,10.39A15.56,15.56,0,0,1,154.29,31.59Z"/><path class="cls-3" d="M69.83,16.62a5.2,5.2,0,0,1,.47,2.6c.21,2.23.21,4.49.3,6.73.25,5.64.44,11.27.8,16.9.1,1.55.12,3.1.19,4.65.24,5.43.42,10.86.78,16.28.2,3.1.25,6.2.44,9.3.38,6,.59,12.08.8,18.12.11,3.22.41,6.44.46,9.67,0,2.11.29,4.23.47,6.34.08.88-.21,1.35-1.16,1.22h-.12c-3.6.06-3.93-.38-4.68-3.94a65.45,65.45,0,0,0-2.21-7Q65,93.45,63.71,89.37c-.85-2.64-1.69-5.28-2.55-7.92-1.44-4.39-2.9-8.77-4.34-13.16s-3-8.72-4.28-13.14c-1-3.39-2.13-6.73-3.21-10.08-1-3-1.88-6.08-3-9.06-.54-1.44-.91-2.95-1.35-4.43a59.86,59.86,0,0,1,8.62-6.66A74.29,74.29,0,0,1,69.83,16.62Z"/><path class="cls-4" d="M175.18,59"/></g></svg>