<?xml version="1.0" encoding="utf-8"?>
<!-- Generator: Adobe Illustrator 24.2.3, SVG Export Plug-In . SVG Version: 6.00 Build 0)  -->
<svg version="1.1" id="Layer_1" xmlns="http://www.w3.org/2000/svg" xmlns:xlink="http://www.w3.org/1999/xlink" x="0px" y="0px"
	 viewBox="0 0 173.3 173.3" style="enable-background:new 0 0 173.3 173.3;" xml:space="preserve">
<style type="text/css">
	.st0{fill:#5F3112;}
	.st1{fill:#E95724;}
</style>
<g>
	<circle class="st0" cx="43" cy="86.8" r="9.8"/>
	<circle class="st0" cx="124.8" cy="86.8" r="9.8"/>
	<g>
		<path class="st1" d="M55.5,70.4c-1.3,1.1-3.1,1-4.4-0.1c-2.5-2.3-5.1-3.4-7.7-3.4c-3.6,0-6.9,2.1-8.8,3.7c-1.2,1-2.9,1-4.1-0.1
			l0,0c-1.5-1.3-1.5-3.7,0-5c2.7-2.3,7.3-5.2,12.9-5.2c4.4,0,8.5,1.8,12.3,5.2C57,66.9,56.9,69.2,55.5,70.4L55.5,70.4z"/>
	</g>
	<g>
		<path class="st1" d="M137.3,70.4c-1.3,1.1-3.1,1-4.4-0.1c-2.5-2.3-5.1-3.4-7.7-3.4c-3.6,0-6.9,2.1-8.8,3.7c-1.2,1-2.9,1-4.1-0.1
			l0,0c-1.5-1.3-1.5-3.7,0-5c2.7-2.3,7.3-5.2,12.9-5.2c4.4,0,8.5,1.8,12.3,5.2C138.9,66.9,138.8,69.2,137.3,70.4L137.3,70.4z"/>
	</g>
	<path class="st0" d="M36.7,81.6c0,0-9,3-13.3-3.8c0,0,3.7,9.9,9,11.4C37.6,90.7,36.7,81.6,36.7,81.6z"/>
	<path class="st0" d="M130.6,81.6c0,0,11.1,3,16.3-3.8c0,0-4.5,9.9-11,11.4C129.4,90.7,130.6,81.6,130.6,81.6z"/>
</g>
</svg>
