<?xml version="1.0" encoding="utf-8"?>
<!-- Generator: Adobe Illustrator 24.2.3, SVG Export Plug-In . SVG Version: 6.00 Build 0)  -->
<svg version="1.1" id="Layer_1" xmlns="http://www.w3.org/2000/svg" xmlns:xlink="http://www.w3.org/1999/xlink" x="0px" y="0px"
	 viewBox="0 0 173.3 173.3" style="enable-background:new 0 0 173.3 173.3;" xml:space="preserve">
<style type="text/css">
	.st0{fill:#E95724;}
	.st1{fill:#5F3112;}
</style>
<g>
	<g>
		<path class="st0" d="M55.5,70.4c-1.3,1.1-3.1,1-4.4-0.1c-2.5-2.3-5.1-3.4-7.7-3.4c-3.6,0-6.9,2.1-8.8,3.7c-1.2,1-2.9,1-4.1-0.1
			l0,0c-1.5-1.3-1.5-3.7,0-5c2.7-2.3,7.3-5.2,12.9-5.2c4.4,0,8.5,1.8,12.3,5.2C57,66.9,56.9,69.2,55.5,70.4L55.5,70.4z"/>
	</g>
	<g>
		<path class="st0" d="M137.3,70.4c-1.3,1.1-3.1,1-4.4-0.1c-2.5-2.3-5.1-3.4-7.7-3.4c-3.6,0-6.9,2.1-8.8,3.7c-1.2,1-2.9,1-4.1-0.1
			l0,0c-1.5-1.3-1.5-3.7,0-5c2.7-2.3,7.3-5.2,12.9-5.2c4.4,0,8.5,1.8,12.3,5.2C138.9,66.9,138.8,69.2,137.3,70.4L137.3,70.4z"/>
	</g>
	<g>
		<path class="st1" d="M54.1,91.5c-1.1,1.1-2.8,1-3.9-0.1C48,89.1,45.7,88,43.3,88c-3.2,0-6.1,2.1-7.8,3.7c-1.1,1-2.6,1-3.7-0.1l0,0
			c-1.4-1.3-1.4-3.7,0-5c2.4-2.3,6.5-5.2,11.4-5.2c3.9,0,7.5,1.8,10.9,5.2C55.4,88,55.4,90.3,54.1,91.5L54.1,91.5z"/>
	</g>
	<g>
		<path class="st1" d="M135.9,91.5c-1.1,1.1-2.8,1-3.9-0.1c-2.2-2.3-4.5-3.4-6.9-3.4c-3.2,0-6.1,2.1-7.8,3.7c-1.1,1-2.6,1-3.7-0.1
			l0,0c-1.4-1.3-1.4-3.7,0-5c2.4-2.3,6.5-5.2,11.4-5.2c3.9,0,7.5,1.8,10.9,5.2C137.3,88,137.2,90.3,135.9,91.5L135.9,91.5z"/>
	</g>
</g>
</svg>
